#N canvas 0 27 991 629 10;
#X obj 69 37 osc~ 440;
#X obj 69 63 osc~ 550;
#X obj 69 90 osc~ 660;
#X obj 32 88 +~;
#X obj 32 142 +~;
#X obj 32 173 output~;
#X text 261 20 CONTROLE DA AMPLITUDE DE SAIDA;
#X text 152 66 <-- Aqui fazemos uma triade de La maior como sinal de
teste.;
#X text 131 179 <-- Isto e' uma sub-janela \, clique com o botao direito
e selecione "open" para ver seu conteudo.;
#X text 33 248 Neste patch e nos proximos \, usaremos uma sub-janela
- "output" - para controlar a amplitude geral. As amplitudes estao
em dB \, tendo 100 como valor maximo. Neste exemplo \, de fato nao
se pode fazer a amplitude ultrapassar os (mais ou menos) 90 dB sem
que ela seja "clipada". Voce vai perceber que ela esta clipando se
\, em vez de um acorde de La' Maior \, estiver escutando um unico som
distorcido \, duas oitavas abaixo. Estes cortes (clipping) ocorrem
na ultima etapa de saida de audio no Pd. Os sinais internos de audio
do Pd por essencia nao apresentam um nivel limite.;
#X text 325 510 atualizado para Pd versao 0.36;
#X text 326 531 traduzido por geada \;;
#X text 32 396 O controle de saida ativa automaticamente o DSP quando
se mexe no controle de volume. Ao pressionar "mute" \, alterna-se entre
o nivel atual e zero.;
#X connect 0 0 3 0;
#X connect 1 0 3 1;
#X connect 2 0 4 1;
#X connect 3 0 4 0;
#X connect 4 0 5 0;
#X connect 4 0 5 1;
