#N canvas 28 22 991 625 10;
#N canvas 0 22 450 300 (subpatch) 0;
#X array tabread4-out 44100 float 0;
#X coords 0 1.02 44100 -1.02 200 130 1;
#X restore 632 200 graph;
#N canvas 0 22 450 300 (subpatch) 0;
#X array table17 44103 float 0;
#X coords 0 1.02 44103 -1.02 200 130 1;
#X restore 631 14 graph;
#X obj 568 496 loadbang;
#X obj 65 277 tabwrite~ tabread4-out;
#X obj 34 308 hip~ 5;
#X floatatom 34 54 0 0 0 0 - - -;
#X floatatom 65 107 0 0 0 0 - - -;
#X obj 65 133 * 441;
#X obj 34 160 *~ 0;
#X obj 34 187 +~ 1;
#X obj 34 80 phasor~ 0;
#X msg 65 245 bang;
#X obj 561 395 adc~ 1;
#X msg 575 422 bang;
#X obj 568 549 soundfiler;
#X text 629 153 ---- 44103 samples ----;
#X obj 34 335 output~;
#X obj 34 216 tabread4~ table17;
#X obj 562 455 tabwrite~ table17;
#X msg 568 524 read ../sound/voice.wav table17;
#X text 34 11 LOOPING SAMPLER;
#X text 83 54 <-- frequencia (Hz);
#X text 110 108 <-- tamanho da fatia (centesimos de segundo);
#X text 80 159 <-- ajustar a fase com a faixa de 0 a (tamanho da fatia)
;
#X text 79 187 <-- soma um para evitar o comeco da tabela;
#X text 168 216 leitura a partir da tabela;
#X text 110 248 <-- clique para grafar a saida;
#X text 643 335 ---- 1 segundo ------;
#X text 615 423 <-- clique aqui para gravar seu proprio sample;
#X text 659 506 v-- reler o sample original;
#X text 736 583 atualizado para Pd versao 0.37;
#X text 736 598 traduzido por geada.;
#X text 32 410 Este e' um sampler circular onde especificamos o numero
de ciclos por segundo (a frequencia) e o tamanho da fatia a ser lida.
Se a frequencia for menor que 20 (mais ou menos) \, voce deve ouvir
a repeticao \, e o tamanho da fatia se escuta como transposicao. Para
frequencias acima de 50 (aprox.) \, escuta-se um som cujo timbre e'
controlado pelo tamanho da fatia (convem mante-lo abaixo de 10). Lembre-se
de usar a tecla "shift" ao arrastrar os numeros para conseguir ajustes
mais finos.;
#X text 32 580 Neste patch podem-se ouvir descontinuidades a cada virada
de loop. Se voce trabalha em um estudio \, pode conseguir bons pontos
de loop para os samples. Outra opcao \, melhor para situacoes ao vivo
\, e' apresentada no proximo patch.;
#X connect 2 0 19 0;
#X connect 4 0 16 0;
#X connect 4 0 16 1;
#X connect 5 0 10 0;
#X connect 6 0 7 0;
#X connect 7 0 8 1;
#X connect 8 0 9 0;
#X connect 9 0 17 0;
#X connect 10 0 8 0;
#X connect 11 0 3 0;
#X connect 12 0 18 0;
#X connect 13 0 18 0;
#X connect 17 0 4 0;
#X connect 17 0 3 0;
#X connect 19 0 14 0;
