#N canvas 40 47 928 626 10;
#N canvas 0 22 450 300 (subpatch) 0;
#X array table20 44103 float 0;
#X coords 0 1.02 44100 -1.02 200 130 1;
#X restore 631 10 graph;
#X obj 582 447 loadbang;
#X obj 13 425 hip~ 5;
#X floatatom 87 49 0 0 0 0 - - -;
#X floatatom 150 108 0 0 0 0 - - -;
#X obj 150 133 * 441;
#X obj 50 220 +~ 1;
#X obj 87 73 phasor~ 0;
#X msg 175 273 bang;
#X obj 576 343 adc~ 1;
#X obj 576 367 hip~ 5;
#X msg 591 390 bang;
#N canvas 0 22 450 300 (subpatch) 0;
#X array graph20 44100 float 0;
#X coords 0 44100 44100 0 200 130 1;
#X restore 633 179 graph;
#X obj 13 401 *~;
#X obj 72 308 line~;
#X obj 149 242 * 441;
#X floatatom 149 218 0 0 0 0 - - -;
#X obj 72 284 pack 0 100;
#X obj 51 356 +~;
#X obj 72 332 samphold~;
#X obj 74 170 samphold~;
#X obj 51 196 *~;
#X text 643 315 ----- 1 second ------;
#X text 631 144 ---- 44103 samples ---;
#X obj 591 508 soundfiler;
#X msg 582 534 \; graph20 ylabel 48000 0 44100;
#X obj 13 451 output~;
#X obj 12 103 -~ 0.5;
#X obj 12 127 *~ 0.5;
#X obj 12 150 cos~;
#X obj 175 353 tabwrite~ graph20;
#X obj 51 381 tabread4~ table20;
#X obj 576 417 tabwrite~ table20;
#X msg 591 484 read ../sound/voice.wav table20;
#X text 13 9 SLIDING DE LOOPS ESTAVEIS SEM EFECTO DOPPLER;
#X text 126 49 <-- frequencia (Hz);
#X text 189 107 <-- tamanho da fatia (centesimos de segundo);
#X text 184 218 <-- ponto de leitura (centesimos de segundo);
#X text 218 273 <-- grafar o indice da tabela;
#X text 631 390 <-- gravar;
#X text 630 464 v-- reler o sample original;
#X text 654 584 atualizado para Pd versao 0.37;
#X text 660 599 traduzido por geada.;
#X text 94 454 Este exemplo difere do anterior pela presenca do objeto
"samphold~" \, que permite que o tamanho da fatia \, e especialmente
o ponto de leitura \, alterem-se somente nos pontos onde a fase volta
a inicio. Isto evita as descontinuidades de sinal (quando o tamanho
da fatia muda) e o efeito doppler quando o ponto de leitura esta se
alterando.;
#X connect 1 0 25 0;
#X connect 1 0 33 0;
#X connect 2 0 26 0;
#X connect 2 0 26 1;
#X connect 3 0 7 0;
#X connect 4 0 5 0;
#X connect 5 0 20 0;
#X connect 6 0 18 0;
#X connect 7 0 19 1;
#X connect 7 0 20 1;
#X connect 7 0 21 0;
#X connect 7 0 27 0;
#X connect 8 0 30 0;
#X connect 9 0 10 0;
#X connect 10 0 32 0;
#X connect 11 0 32 0;
#X connect 13 0 2 0;
#X connect 14 0 19 0;
#X connect 15 0 17 0;
#X connect 16 0 15 0;
#X connect 17 0 14 0;
#X connect 18 0 30 0;
#X connect 18 0 31 0;
#X connect 19 0 18 1;
#X connect 20 0 21 1;
#X connect 21 0 6 0;
#X connect 27 0 28 0;
#X connect 28 0 29 0;
#X connect 29 0 13 0;
#X connect 31 0 13 1;
#X connect 33 0 24 0;
