#N canvas 90 88 934 600 10;
#N canvas 0 22 450 300 (subpatch) 0;
#X array table21 44103 float 0;
#X coords 0 1.02 44100 -1.02 200 130 1;
#X restore 443 123 graph;
#X obj 367 486 loadbang;
#X obj 44 504 hip~ 5;
#X floatatom 10 236 0 0 0 0 - - -;
#X obj 10 290 * 441;
#X obj 10 389 +~ 1;
#X obj 371 382 adc~ 1;
#X obj 371 407 hip~ 5;
#X msg 386 429 bang;
#X obj 44 482 *~;
#X obj 192 391 line~;
#X obj 192 351 * 441;
#X floatatom 192 331 0 0 0 0 - - -;
#X obj 192 371 pack 0 100;
#X obj 44 433 +~;
#X obj 192 412 samphold~;
#X obj 10 329 samphold~;
#X obj 10 310 sig~;
#X obj 10 370 *~;
#X obj 220 464 r~ phase;
#X obj 10 193 s~ phase;
#X obj 68 308 r~ phase;
#X obj 26 350 r~ phase;
#X obj 250 392 r~ phase;
#X obj 60 283 s chunk-size;
#X floatatom 10 60 0 0 0 0 - - -;
#X obj 60 263 * 0.01;
#X obj 21 110 r chunk-size;
#X obj 21 130 t b f;
#X obj 10 154 /;
#X obj 367 540 soundfiler;
#X obj 10 40 loadbang;
#X obj 220 483 -~ 0.5;
#X obj 220 502 *~ 0.5;
#X obj 220 521 cos~;
#X obj 19 533 output~;
#X obj 44 458 tabread4~ table21;
#X text 469 256 --- 44103 samples ---;
#X obj 10 79 expr pow(2 \, $f1/120);
#X obj 10 174 phasor~;
#X obj 371 456 tabwrite~ table21;
#X msg 367 513 read ../sound/voice.wav table21;
#X text 159 80 alteracao na velocidade;
#X text 48 61 <-- transposicao (semitons/10);
#X text 87 132 divide alteracao de velocidade por tamanho;
#X text 88 146 da fatia para obter a frequencia do loop;
#X text 18 4 CALCULANDO A FREQUENCIA DO LOOP EM FUNCAO DA TRANSPOSICAO
;
#X text 44 236 <-- tamanho da fatia (segundos/100);
#X text 154 271 tamanho da fatia;
#X text 156 284 em segundos;
#X text 238 333 <-- ponto de leitura em centesimos de segundo;
#X text 427 429 <-- gravar;
#X text 435 488 v-- reler sample original;
#X text 571 554 atualizado para Pd versao 0.37;
#X text 574 572 traduzido por geada.;
#X text 369 45 A transposicao e' igual 'a frequencia em Hz dividida
pelo tamanho da fatia em segundos. Este patch calcula a frequencia
do loop em funcao da transposicao desejada.;
#X connect 1 0 41 0;
#X connect 2 0 35 0;
#X connect 2 0 35 1;
#X connect 3 0 4 0;
#X connect 3 0 26 0;
#X connect 4 0 17 0;
#X connect 5 0 14 0;
#X connect 6 0 7 0;
#X connect 7 0 40 0;
#X connect 8 0 40 0;
#X connect 9 0 2 0;
#X connect 10 0 15 0;
#X connect 11 0 13 0;
#X connect 12 0 11 0;
#X connect 13 0 10 0;
#X connect 14 0 36 0;
#X connect 15 0 14 1;
#X connect 16 0 18 0;
#X connect 17 0 16 0;
#X connect 18 0 5 0;
#X connect 19 0 32 0;
#X connect 21 0 16 1;
#X connect 22 0 18 1;
#X connect 23 0 15 1;
#X connect 25 0 38 0;
#X connect 26 0 24 0;
#X connect 27 0 28 0;
#X connect 28 0 29 0;
#X connect 28 1 29 1;
#X connect 29 0 39 0;
#X connect 31 0 25 0;
#X connect 32 0 33 0;
#X connect 33 0 34 0;
#X connect 34 0 9 1;
#X connect 36 0 9 0;
#X connect 38 0 29 0;
#X connect 39 0 20 0;
#X connect 41 0 30 0;
