#N canvas 28 47 892 622 12;
#X obj 19 511 hip~ 5;
#X floatatom 25 38 0 0 100 0 - - -;
#X obj 25 63 * 441;
#X obj 20 380 +~ 1;
#X obj 20 458 *~;
#X obj 26 211 line~;
#X obj 26 161 * 441;
#X floatatom 26 136 0 0 100 0 - - -;
#X obj 26 186 pack 0 100;
#X obj 20 409 +~;
#X obj 76 408 samphold~;
#X obj 20 308 samphold~;
#X obj 20 355 *~;
#X obj 185 369 r~ phase;
#X obj 418 210 s~ phase;
#X obj 108 308 r~ phase;
#X obj 42 332 r~ phase;
#X obj 96 383 r~ phase;
#X obj 77 82 s chunk-size;
#X floatatom 418 56 0 0 0 0 - - -;
#X obj 77 57 * 0.01;
#X obj 429 111 r chunk-size;
#X obj 429 136 t b f;
#X obj 418 160 /;
#X obj 418 33 loadbang;
#X obj 185 393 -~ 0.5;
#X obj 185 417 *~ 0.5;
#X obj 185 440 cos~;
#X obj 19 536 output~;
#X obj 418 81 expr pow(2 \, $f1/120);
#X text 607 81 speed change;
#X obj 418 184 phasor~;
#N canvas 30 567 660 275 table 0;
#N canvas 0 0 450 300 (subpatch) 0;
#X array table22 44103 float 0;
#X coords 0 1.02 44100 -1.02 200 130 1;
#X restore 442 61 graph;
#X text 444 195 --- 44103 samples ---;
#X obj 41 148 loadbang;
#X obj 45 44 adc~ 1;
#X obj 45 69 hip~ 5;
#X msg 60 91 bang;
#X obj 41 202 soundfiler;
#X text 101 91 <-- record;
#X text 134 155 v-- re-read original table;
#X obj 45 118 tabwrite~ table22;
#X msg 41 175 read ../sound/voice.wav table22;
#X connect 2 0 10 0;
#X connect 3 0 4 0;
#X connect 4 0 9 0;
#X connect 5 0 9 0;
#X connect 10 0 6 0;
#X restore 567 327 pd table;
#X obj 25 110 s chunk-size-samples;
#X obj 26 234 s~ read-pt;
#X obj 77 360 r~ read-pt;
#X obj 505 203 +~ 0.5;
#X obj 506 229 wrap~;
#X obj 506 254 s~ phase2;
#X obj 20 283 r chunk-size-samples;
#X obj 274 391 +~ 1;
#X obj 274 469 *~;
#X obj 274 420 +~;
#X obj 329 419 samphold~;
#X obj 274 319 samphold~;
#X obj 274 366 *~;
#X obj 439 404 -~ 0.5;
#X obj 439 428 *~ 0.5;
#X obj 439 451 cos~;
#X obj 330 371 r~ read-pt;
#X obj 274 294 r chunk-size-samples;
#X obj 363 320 r~ phase2;
#X obj 296 343 r~ phase2;
#X obj 439 380 r~ phase2;
#X obj 339 394 r~ phase2;
#X obj 19 487 +~;
#X text 453 56 <-- transposition \, halftones/10;
#X obj 20 434 tabread4~ table22;
#X obj 274 445 tabread4~ table22;
#X text 18 5 DOIS ELEMENTOS DE SAMPLER OVERLAPPING (SOBRECARGA);
#X text 69 35 <-- tamanho do pedaço (100mos de seg.);
#X text 189 59 tam. do pedaço;
#X text 189 80 em segundos;
#X text 211 112 ... e em samples;
#X text 60 137 <-- ponto de leitura em 100mos de seg.;
#X text 70 265 cópia 1;
#X text 327 274 cópia 2;
#X text 456 159 freqüencia do loop;
#X text 566 210 fora de fase em relação;
#X text 565 231 ao primeiro;
#X text 566 190 segundo sinal -;
#X text 97 503 Aqui está o patch anterior modificado para usar duas
cópias do leitor de sampler \, 180 graus fora de fase. O segundo sinal
dente-de-serra é derivado do primero adicionando a constante (0.5)
e emapacotando o resultado para caber entre zero e um. O resultado
é o sinal "phase2".;
#X text 98 586 a computação do obj. "chunk-size-samples" (assim como
a mensagem de mesmo nome) e o obj. "read-pt" (um sinal de áudio) é
o mesmo para ambas as cópias e é separado das amabas cópias no topo
esquerdo.No topo direito é a mesma freqüencia de loop calculada anteriormente.
;
#X text 99 668 Finalmente \, as saída das duas cópias é adicinada ao
resultado e mandada paa a saída de áudio.;
#X text 602 715 atualizado por Pd version 0.37;
#X text 602 730 traduzido por jardim de volts;
#X connect 0 0 28 0;
#X connect 0 0 28 1;
#X connect 1 0 2 0;
#X connect 1 0 20 0;
#X connect 2 0 33 0;
#X connect 3 0 9 0;
#X connect 4 0 55 0;
#X connect 5 0 34 0;
#X connect 6 0 8 0;
#X connect 7 0 6 0;
#X connect 8 0 5 0;
#X connect 9 0 57 0;
#X connect 10 0 9 1;
#X connect 11 0 12 0;
#X connect 12 0 3 0;
#X connect 13 0 25 0;
#X connect 15 0 11 1;
#X connect 16 0 12 1;
#X connect 17 0 10 1;
#X connect 19 0 29 0;
#X connect 20 0 18 0;
#X connect 21 0 22 0;
#X connect 22 0 23 0;
#X connect 22 1 23 1;
#X connect 23 0 31 0;
#X connect 24 0 19 0;
#X connect 25 0 26 0;
#X connect 26 0 27 0;
#X connect 27 0 4 1;
#X connect 29 0 23 0;
#X connect 31 0 14 0;
#X connect 31 0 36 0;
#X connect 35 0 10 0;
#X connect 36 0 37 0;
#X connect 37 0 38 0;
#X connect 39 0 11 0;
#X connect 40 0 42 0;
#X connect 41 0 55 1;
#X connect 42 0 58 0;
#X connect 43 0 42 1;
#X connect 44 0 45 0;
#X connect 45 0 40 0;
#X connect 46 0 47 0;
#X connect 47 0 48 0;
#X connect 48 0 41 1;
#X connect 49 0 43 0;
#X connect 50 0 44 0;
#X connect 51 0 44 1;
#X connect 52 0 45 1;
#X connect 53 0 46 0;
#X connect 54 0 43 1;
#X connect 55 0 0 0;
#X connect 57 0 4 0;
#X connect 58 0 41 0;
