#N canvas 123 36 683 622 12;
#X obj 6 529 hip~ 5;
#X floatatom 8 47 4 0 100 0 - - -;
#X obj 7 476 *~;
#X floatatom 7 123 0 0 200 0 - - -;
#X obj 7 378 +~;
#X obj 6 330 samphold~;
#X obj 7 354 *~;
#X obj 172 385 r~ phase;
#X obj 357 210 s~ phase;
#X obj 94 331 r~ phase;
#X obj 42 355 r~ phase;
#X obj 8 90 s chunk-size;
#X floatatom 357 42 0 0 0 0 - - -;
#X obj 369 79 r chunk-size;
#X obj 369 104 t b f;
#X obj 172 409 -~ 0.5;
#X obj 172 433 *~ 0.5;
#X obj 172 456 cos~;
#X obj 7 560 output~;
#X obj 357 184 phasor~;
#N canvas 30 493 660 275 table 1;
#N canvas 0 0 450 300 (subpatch) 0;
#X array table23 44103 float 0;
#X coords 0 1.02 44100 -1.02 200 130 1;
#X restore 442 61 graph;
#X text 444 195 --- 44103 samples ---;
#X obj 41 148 loadbang;
#X obj 45 44 adc~ 1;
#X obj 45 69 hip~ 5;
#X msg 60 91 bang;
#X obj 41 202 soundfiler;
#X obj 45 118 tabwrite~ table23;
#X msg 41 175 read ../sound/voice.wav table23;
#X text 101 91 <-- gravação;
#X text 134 155 v-- re-ler a tabela original;
#X connect 2 0 8 0;
#X connect 3 0 4 0;
#X connect 4 0 7 0;
#X connect 5 0 7 0;
#X connect 8 0 6 0;
#X restore 558 460 pd table;
#X obj 7 263 s~ read-pt;
#X obj 45 378 r~ read-pt;
#X obj 444 203 +~ 0.5;
#X obj 445 229 wrap~;
#X obj 445 254 s~ phase2;
#X obj 6 505 +~;
#X obj 8 67 * 0.001;
#X obj 7 215 phasor~;
#X obj 7 402 *~ 44100;
#X obj 7 452 tabread4~ table23;
#X obj 6 305 r chunk-size;
#X obj 6 428 +~ 1;
#X floatatom 365 161 5 0 0 0 - - -;
#X obj 15 169 s precession;
#X obj 482 103 t b f;
#X obj 482 78 r precession;
#X obj 7 146 * 0.01;
#X obj 258 485 *~;
#X obj 258 387 +~;
#X obj 257 339 samphold~;
#X obj 258 363 *~;
#X obj 423 418 -~ 0.5;
#X obj 423 442 *~ 0.5;
#X obj 423 465 cos~;
#X obj 296 387 r~ read-pt;
#X obj 258 411 *~ 44100;
#X obj 258 461 tabread4~ table23;
#X obj 257 314 r chunk-size;
#X obj 257 437 +~ 1;
#X obj 345 340 r~ phase2;
#X obj 293 364 r~ phase2;
#X obj 423 394 r~ phase2;
#X obj 8 3 loadbang;
#X msg 8 25 25;
#X floatatom 139 192 4 0 900 0 - - -;
#X obj 139 212 * 0.001;
#X msg 139 170 900;
#X obj 357 136 expr (pow(2 \, $f1/120)-$f3)/$f2;
#X obj 139 237 t b f;
#X obj 139 146 loadbang;
#X obj 7 239 *~;
#X obj 7 191 /;
#X text 158 3 EXPANSÃO E COMPRESSÃO DO TEMPO POR SAMPLE LOOP;
#X text 48 47 <-- tamanho do pedaço (milliseg.);
#X text 124 82 tamanho do pedaço;
#X text 121 96 em segundos;
#X text 37 123 <-- precession \, poercentagem;
#X text 182 188 tamanho do loop;
#X text 213 204 (milisegundos);
#X text 391 42 <-- transposição \, meiostons/10;
#X text 110 513 Aqui \, ao invés de perguntar pra você pra empurrar
o leitor de ponteiro pra frente e para tras no sample \, nos usamos
um phasor~. Isto torna possível evitar o samplehold~ de ler o ponteiro
(r~ read-pt) \, já que \, sabendo desta precession \, nós podemos corrigir
a computação da frequencia do phasor~ original da esquerda.;
#X text 109 607 Nós mudamos o cotrole para o "tamanho de pedaço" em
milisegundos pela conveniência \, e atrasamos multiplicando a loalização
do sample pela taxa de amostragem (44100) até o último momento \, então
os cãlculos usando "read-pt" e "chunk size" podem ter a mesma unidade
(segundos.);
#X text 398 715 Atualizado para Pd version 0.37;
#X text 398 732 traduzido por Jardin de Volts;
#X connect 0 0 18 0;
#X connect 0 0 18 1;
#X connect 1 0 27 0;
#X connect 2 0 26 0;
#X connect 3 0 37 0;
#X connect 4 0 29 0;
#X connect 5 0 6 0;
#X connect 6 0 4 0;
#X connect 7 0 15 0;
#X connect 9 0 5 1;
#X connect 10 0 6 1;
#X connect 12 0 58 0;
#X connect 13 0 14 0;
#X connect 14 0 58 0;
#X connect 14 1 58 1;
#X connect 15 0 16 0;
#X connect 16 0 17 0;
#X connect 17 0 2 1;
#X connect 19 0 8 0;
#X connect 19 0 23 0;
#X connect 22 0 4 1;
#X connect 23 0 24 0;
#X connect 24 0 25 0;
#X connect 26 0 0 0;
#X connect 27 0 11 0;
#X connect 28 0 61 0;
#X connect 29 0 32 0;
#X connect 30 0 2 0;
#X connect 31 0 5 0;
#X connect 32 0 30 0;
#X connect 35 0 58 0;
#X connect 35 1 58 2;
#X connect 36 0 35 0;
#X connect 37 0 34 0;
#X connect 37 0 62 0;
#X connect 38 0 26 1;
#X connect 39 0 46 0;
#X connect 40 0 41 0;
#X connect 41 0 39 0;
#X connect 42 0 43 0;
#X connect 43 0 44 0;
#X connect 44 0 38 1;
#X connect 45 0 39 1;
#X connect 46 0 49 0;
#X connect 47 0 38 0;
#X connect 48 0 40 0;
#X connect 49 0 47 0;
#X connect 50 0 40 1;
#X connect 51 0 41 1;
#X connect 52 0 42 0;
#X connect 53 0 54 0;
#X connect 54 0 1 0;
#X connect 55 0 56 0;
#X connect 56 0 59 0;
#X connect 56 0 61 1;
#X connect 57 0 55 0;
#X connect 58 0 19 0;
#X connect 58 0 33 0;
#X connect 59 0 62 0;
#X connect 59 1 62 1;
#X connect 60 0 57 0;
#X connect 61 0 21 0;
#X connect 62 0 28 0;
