#N canvas 215 77 561 547 12;
#X obj 18 390 output~;
#X obj 96 392 output~;
#N canvas 0 0 450 300 metro 0;
#X obj 88 39 loadbang;
#X msg 87 65 1;
#X obj 87 131 tgl 15 0 empty empty empty 0 -6 0 8 -262144 -1 -1 1 1
;
#X obj 87 153 sel 0 1;
#X obj 87 190 outlet;
#X obj 151 192 outlet;
#X obj 87 96 metro 2;
#X connect 0 0 1 0;
#X connect 1 0 6 0;
#X connect 2 0 3 0;
#X connect 3 0 4 0;
#X connect 3 1 5 0;
#X connect 6 0 2 0;
#X restore 19 282 pd metro;
#X msg 21 314 1 2;
#X msg 86 310 0 2;
#X obj 19 345 line~;
#X obj 97 346 vline~;
#X text 386 499 Updated for Pd 0.37;
#X text 14 7 CONVERTENDO SINAIS DE CONTROLE;
#X text 15 27 Para controlar amplitudes \, line~ \, como seus pontos
de transição alinhados por blocos \, é apurada o suficiente para a
maioria das propostas. Mas certos usos \, com neste patch \, demandam
mais precisão.O objeto vline~ \, de algoritmo um pouco mais custoso
que line~ \, pode trtar pontos de transição com uma precisão de sub-sample.
;
#X text 16 123 Aqui nós tentamos line~ e vline~ co geradores de onda
triangular. O subpatch continua mandando bangs alternados comono último
patch \, mas agora numa freqüência inaudível \, a cada 2 millisegundos.
;
#X text 19 189 Os eeitos do objeto line~ ao arredondar pontos de transição
no bloco mais próximo (da ordem de milisegundos) é de que cada 4 milisegundos
de ciclo haverá um diferente formato.Usar vline~ resolve este problema.
;
#X text 16 457 As vezes você pode decidir usar vline~ substituindo
sig~ por alguma razão.;
#X connect 2 0 3 0;
#X connect 2 1 4 0;
#X connect 3 0 5 0;
#X connect 3 0 6 0;
#X connect 4 0 5 0;
#X connect 4 0 6 0;
#X connect 5 0 0 0;
#X connect 5 0 0 1;
#X connect 6 0 1 0;
#X connect 6 0 1 1;
