#N canvas 0 32 1001 628 12;
#X floatatom 169 520 0 0 0 0 - - -;
#X floatatom 169 446 0 0 0 0 - - -;
#X text 462 208 START;
#X floatatom 190 303 0 0 0 0 - - -;
#X obj 190 280 r incr;
#X obj 168 255 metro 50;
#X floatatom 168 373 5 0 0 0 - - -;
#X obj 168 394 s phase;
#X obj 168 350 +;
#X obj 169 469 s dropoff+;
#X obj 169 622 s interval+;
#X floatatom 169 599 0 0 0 0 - - -;
#X obj 169 543 s pitch+;
#X obj 169 423 r dropoff;
#X obj 169 497 r pitch;
#X obj 169 576 r interval;
#X obj 168 212 r metro;
#X obj 228 345 f;
#X floatatom 83 708 0 0 0 0 - - -;
#X obj 83 685 r rev;
#X obj 138 685 r revtime;
#X floatatom 138 708 0 0 0 0 - - -;
#X obj 228 368 mod 10000;
#X obj 168 327 f;
#X obj 73 742 rev2~;
#X obj 12 769 output~;
#X obj 168 235 tgl 15 0 empty empty empty 0 -6 0 8 -262144 -1 -1 0
1;
#X msg 446 225 \; dropoff 10 \; pitch 60 \; interval 120 \; metro 1
\; rev 84 \; revtime 87 \; incr -2 \; pd dsp 1;
#X obj 12 235 shepvoice 500;
#X text 27 7 TONS EM QUEDA;
#X text -108 23 Este patch contém um banco 20 de vinte senóides \,
arranjadas para que as freqüências varram em queda paralela \, e suas
amplitudes façam um fade in e fade out de modo que cada uma esta silenciosa
envelopando o final de uma com o início da outra. A "fase" geral computada
aqui é adicionada a cada uma das fases relativas das vozes (seu argumento
de criação). O paramêtro "incr" controla o quão rápido esta fase se
modifica \, "declinando" uma curva em qual as amplitudes vão caindo
nos seus finais \, "afinando" o pitch central deste ajuntado \, "intervalando"
o némero de (dezenas de meio-tons) entre sucessivas vozes \, e "rev"
e "revtime" contralando os paramêtros de revelação desta "borda".;
#X obj 12 212 shepvoice 0;
#X obj 12 258 shepvoice 1000;
#X obj 12 281 shepvoice 1500;
#X obj 12 304 shepvoice 2000;
#X obj 12 327 shepvoice 2500;
#X obj 12 350 shepvoice 3000;
#X obj 12 373 shepvoice 3500;
#X obj 12 396 shepvoice 4000;
#X obj 12 419 shepvoice 4500;
#X obj 12 442 shepvoice 5000;
#X obj 12 465 shepvoice 5500;
#X obj 12 488 shepvoice 6000;
#X obj 12 511 shepvoice 6500;
#X obj 12 534 shepvoice 7000;
#X obj 12 557 shepvoice 7500;
#X obj 12 580 shepvoice 8000;
#X obj 12 603 shepvoice 8500;
#X obj 12 626 shepvoice 9000;
#X obj 12 649 shepvoice 9500;
#X text 579 787 Atualizado para Pd versão 0.37;
#X text 594 804 Traduzido por Jardm de Volts.;
#X connect 0 0 12 0;
#X connect 1 0 9 0;
#X connect 3 0 23 1;
#X connect 4 0 3 0;
#X connect 5 0 23 0;
#X connect 6 0 7 0;
#X connect 8 0 17 0;
#X connect 8 0 6 0;
#X connect 11 0 10 0;
#X connect 13 0 1 0;
#X connect 14 0 0 0;
#X connect 15 0 11 0;
#X connect 16 0 26 0;
#X connect 17 0 22 0;
#X connect 18 0 24 1;
#X connect 19 0 18 0;
#X connect 20 0 21 0;
#X connect 21 0 24 2;
#X connect 22 0 8 1;
#X connect 23 0 8 0;
#X connect 24 0 25 0;
#X connect 24 1 25 1;
#X connect 26 0 5 0;
#X connect 28 0 32 0;
#X connect 31 0 28 0;
#X connect 32 0 33 0;
#X connect 33 0 34 0;
#X connect 34 0 35 0;
#X connect 35 0 36 0;
#X connect 36 0 37 0;
#X connect 37 0 38 0;
#X connect 38 0 39 0;
#X connect 39 0 40 0;
#X connect 40 0 41 0;
#X connect 41 0 42 0;
#X connect 42 0 43 0;
#X connect 43 0 44 0;
#X connect 44 0 45 0;
#X connect 45 0 46 0;
#X connect 46 0 47 0;
#X connect 47 0 48 0;
#X connect 48 0 49 0;
#X connect 49 0 24 0;
#X connect 49 0 25 0;
#X connect 49 0 25 1;
