#N canvas 0 0 1001 628 12;
#X msg 280 21 bang;
#X obj 280 49 delay 5;
#X obj 363 35 r note;
#N canvas 459 46 678 451 samples 0;
#N canvas 0 0 450 300 (subpatch) 0;
#X array sample1 176403 float 0;
#X coords 0 1.02 176403 -1.02 200 130 1;
#X restore 262 41 graph;
#X text 264 376 ------ 4 seconds ------;
#N canvas 0 0 450 300 (subpatch) 0;
#X array sample2 176403 float 0;
#X coords 0 1.02 176403 -1.02 200 130 1;
#X restore 262 226 graph;
#X restore 33 277 pd samples;
#N canvas 21 287 947 410 recorder 0;
#X obj 318 43 inlet;
#X obj 272 196 adc~ 1;
#X obj 272 224 hip~ 5;
#X obj 341 254 line~;
#X obj 272 253 *~;
#X msg 341 226 1;
#X obj 400 191 del 3990;
#X msg 377 226 0 10;
#X obj 272 304 tabwrite~ sample1;
#X obj 124 110 makefilename sample%1;
#X msg 124 139 set \$1 \, bang;
#X msg 446 162 stop;
#X msg 400 162 bang;
#X obj 557 182 loadbang;
#X obj 660 137 openpanel;
#X msg 660 109 bang;
#X obj 318 72 route record stop reload browse;
#X obj 557 319 soundfiler;
#X msg 557 261 read ../sound/bell.aiff sample1 \, read ../sound/voice2.wav
sample2;
#X msg 660 164 read \$1 sample1;
#X obj 660 191 soundfiler;
#X text 702 109 <-- abrir novos samples;
#X text 628 233 reler sampler original;
#X connect 0 0 16 0;
#X connect 1 0 2 0;
#X connect 2 0 4 0;
#X connect 3 0 4 1;
#X connect 4 0 8 0;
#X connect 5 0 3 0;
#X connect 6 0 7 0;
#X connect 7 0 3 0;
#X connect 9 0 10 0;
#X connect 10 0 8 0;
#X connect 11 0 6 0;
#X connect 12 0 6 0;
#X connect 13 0 18 0;
#X connect 14 0 19 0;
#X connect 15 0 14 0;
#X connect 16 0 9 0;
#X connect 16 0 12 0;
#X connect 16 0 5 0;
#X connect 16 1 7 0;
#X connect 16 1 11 0;
#X connect 16 2 18 0;
#X connect 16 3 15 0;
#X connect 18 0 17 0;
#X connect 19 0 20 0;
#X restore 33 443 pd recorder;
#X msg 33 305 record 1;
#X msg 33 360 stop;
#N canvas 358 142 666 622 playback 1;
#X obj 20 45 line~;
#X obj 39 237 line~;
#X obj 20 268 *~;
#X obj 39 208 r cutoff;
#X obj 20 16 r phase;
#X obj 20 592 outlet~;
#X obj 20 564 hip~ 5;
#X obj 32 79 r sample-number;
#X obj 32 108 makefilename sample%d;
#X msg 32 136 set \$1;
#X obj 20 177 tabread4~ sample1;
#X obj 38 304 r envelope;
#X obj 38 362 dbtorms;
#X obj 38 333 unpack;
#X obj 38 391 sqrt;
#X obj 38 420 sqrt;
#X obj 38 448 line~;
#X obj 20 535 *~;
#X obj 38 477 *~;
#X obj 38 506 *~;
#X text 91 17 mensagem para o gerador de fase line~;
#X text 171 80 seteando o número do sampler;
#X text 232 109 formatar o nome;
#X text 93 137 mandando a mensagem "set" para tabread4~.;
#X text 99 236 line~ para evitar cliques;
#X text 109 363 converte a amplitude em unidades lineares;
#X text 139 308 O gerador de envelope. Mandar que mandar nossa mensagem
diretamente para line~ nos desempacotamos para alimentá-lo com o campo
de amplitude;
#X text 104 392 pega a raiz quarta. Isto porque depois queremos elevar
a saída de line~'s a quarta potência mais a frente. Esta é uma maneira
menos expensiva de dar ao envelope uma sonoridade mais natural que
apenas fades lineares.;
#X text 77 480 multiplica o sinal duas vezes por ele mesmo para chegar
a quarta potência.;
#X connect 0 0 10 0;
#X connect 1 0 2 1;
#X connect 2 0 17 0;
#X connect 3 0 1 0;
#X connect 4 0 0 0;
#X connect 6 0 5 0;
#X connect 7 0 8 0;
#X connect 8 0 9 0;
#X connect 9 0 10 0;
#X connect 10 0 2 0;
#X connect 11 0 13 0;
#X connect 12 0 14 0;
#X connect 13 0 12 0;
#X connect 13 1 16 1;
#X connect 14 0 15 0;
#X connect 15 0 16 0;
#X connect 16 0 18 0;
#X connect 16 0 18 1;
#X connect 17 0 6 0;
#X connect 18 0 19 0;
#X connect 18 0 19 1;
#X connect 19 0 17 1;
#X restore 33 480 pd playback;
#X msg 33 332 record 2;
#X text 666 77 amplitude (dB);
#X obj 363 62 unpack 0 0 0 0 0 0 0;
#X obj 521 168 f;
#X obj 456 142 f;
#X obj 387 142 f;
#X obj 350 142 f;
#X obj 318 142 f;
#X obj 224 142 f;
#X obj 224 169 mtof;
#X obj 224 197 / 261.62;
#X obj 224 224 * 4.41e+08;
#X obj 224 252 +;
#X obj 489 142 delay;
#X obj 318 312 pack 0 0 0 0 0;
#X obj 280 76 t b b b;
#X msg 184 56 \; pd dsp 1 \; cutoff 0 5;
#X obj 387 197 + 1;
#X msg 553 478 60 100 10000 1 0 0 0;
#X obj 553 748 s note;
#X msg 521 196 \; envelope 0 \$1;
#X msg 672 702 62;
#X msg 707 702 64;
#X msg 638 702 60;
#X msg 609 702 55;
#X msg 740 702 72;
#X msg 577 702 48;
#X msg 639 745 60.5;
#X msg 553 505 60 90 10000 1 0 0 0;
#X msg 553 533 60 100 10000 2 0 0 0;
#X msg 553 561 60 100 10000 1 3000 0 0;
#X obj 387 169 * 44.1;
#X msg 553 616 60 100 100 1 0 0 0;
#X msg 553 643 60 100 100 1 0 0 1000;
#X msg 553 588 60 100 10000 1 0 1000 0;
#X msg 318 340 \; envelope 0 \, \$1 \$2 \; phase \$3 \, \$4 1e+07 \;
sample-number \$5 \; cutoff 1 5 \;;
#X msg 33 388 reload;
#X msg 33 415 browse;
#X obj 34 511 output~;
#X text 666 53 pitch em meios-tons;
#X text 645 26 ARGUMENTOS PARA AS NOTES:;
#X text 40 7 SAMPLER DE CHOCOLATE;
#X text 75 45 como antes \,;
#X text 38 61 mutar e esperar;
#X text 7 109 a transposição funciona;
#X text 7 133 por alterar a fase do;
#X text 7 157 descrito por \$4.;
#X text 11 180 O mtof e / 261;
#X text 8 204 calcula mudança de;
#X text 10 226 velocidade considerando;
#X text 6 246 60 como a unidade.;
#X text 117 305 <-- grava;
#X text 497 269 fim da nota;
#X text 666 125 número do sampler;
#X text 666 197 temp de decay (decaimento) (mseg);
#X text 671 173 tempo de elevação (mseg);
#X text 666 149 localização de ínicio (mseg);
#X text 666 101 duração (mseg);
#X text 761 478 playback estrito;
#X text 761 504 muda amplitude;
#X text 764 532 muda número do sample;
#X text 766 561 muda localização inicial;
#X text 765 587 muda tempo de elevação;
#X text 732 616 muda duração;
#X text 13 596 Este patch pega o mesmo príncipio do anterior "sampler
de um disparo" \, mas permite parametrizar um sampler playback. Já
que temos que esperar 5 mseg. antes de iniciar o playback \, nos guardamos
todos os paramêtos dentro de objetos float \, e bscamos estes para
contruir uma nova nota. Transposição é feita por alterar um montante
de playback dentro de 10 mil (artificiais )segundos (1e+07). O segmento
de playback pode ser alterado para inciar no meio do sampler ao invés
do começo \, e você pode mudar o tempo de duração da elevação e do
decaimento.;
#X text 689 746 microtons são OK.;
#X text 543 436 Aqui estão botões para demonstrar o efeito de variar
os paramêtros um a um.;
#X text 495 342 Isto inicia uma nota mandando para os "receives" no
subptach de playback.O novo"envelope" recebido é um controle de amplitude
em paralelo com controle de cuttoff (corte de ganho). O paramêtro "sample-number"
troca entre as tabelas de tabread4~.;
#X text 713 792 Atualizado para Pd versão 0.37;
#X text 714 810 Traduzido por Jardim de Volts.;
#X text 450 302 combina amplitude \, tempo de elevaçãp \, fase inicial
\, fase final \, e numero do sampler em ma mensagem.;
#X text 766 644 ... e tempo de decay;
#X text 577 678 se omitir os valores eles cotinuam sem mudança;
#X connect 0 0 1 0;
#X connect 0 0 24 0;
#X connect 1 0 23 0;
#X connect 2 0 10 0;
#X connect 5 0 4 0;
#X connect 6 0 4 0;
#X connect 7 0 46 0;
#X connect 7 0 46 1;
#X connect 8 0 4 0;
#X connect 10 0 16 1;
#X connect 10 0 0 0;
#X connect 10 1 15 1;
#X connect 10 2 21 1;
#X connect 10 3 14 1;
#X connect 10 4 13 1;
#X connect 10 5 12 1;
#X connect 10 6 11 1;
#X connect 11 0 28 0;
#X connect 12 0 22 1;
#X connect 13 0 39 0;
#X connect 14 0 22 4;
#X connect 15 0 22 0;
#X connect 16 0 17 0;
#X connect 17 0 18 0;
#X connect 18 0 19 0;
#X connect 19 0 20 0;
#X connect 20 0 22 3;
#X connect 21 0 11 0;
#X connect 22 0 43 0;
#X connect 23 0 15 0;
#X connect 23 1 16 0;
#X connect 23 2 12 0;
#X connect 23 2 13 0;
#X connect 23 2 14 0;
#X connect 23 2 21 0;
#X connect 25 0 22 2;
#X connect 25 0 20 1;
#X connect 26 0 27 0;
#X connect 29 0 27 0;
#X connect 30 0 27 0;
#X connect 31 0 27 0;
#X connect 32 0 27 0;
#X connect 33 0 27 0;
#X connect 34 0 27 0;
#X connect 35 0 27 0;
#X connect 36 0 27 0;
#X connect 37 0 27 0;
#X connect 38 0 27 0;
#X connect 39 0 25 0;
#X connect 40 0 27 0;
#X connect 41 0 27 0;
#X connect 42 0 27 0;
#X connect 44 0 4 0;
#X connect 45 0 4 0;
