#N canvas 0 32 1001 628 12;
#N canvas 0 0 450 300 (subpatch) 0;
#X array E01-signal 882 float 0;
#X coords 0 5 882 -5 200 130 1;
#X restore 605 36 graph;
#X obj 40 304 hip~ 5;
#N canvas 0 0 450 300 (subpatch) 0;
#X array E01-spectrum 128 float 0;
#X coords 0 4300 127 -40 257 130 1;
#X restore 578 247 graph;
#N canvas 45 83 558 569 fft 0;
#X obj 19 62 inlet~;
#X obj 85 214 inlet;
#X obj 19 92 rfft~;
#X obj 19 125 *~;
#X obj 50 125 *~;
#X obj 19 155 sqrt~;
#X obj 85 248 tabwrite~ E01-spectrum;
#X obj 332 109 block~ 4096 1;
#X obj 19 181 biquad~ 0 0 0 0 1;
#X obj 90 425 samplerate~;
#X obj 90 402 bng 18 250 50 0 empty empty empty 0 -6 0 8 -262144 -1
-1;
#X floatatom 90 472 5 0 0 0 - - -;
#X obj 90 448 / 256;
#X obj 90 378 loadbang;
#X floatatom 90 541 5 0 0 0 - - -;
#X obj 98 494 s fundamental;
#X obj 90 517 ftom;
#X text 98 146 magnitude;
#X text 11 -1 Este subpatch computa o espectro do sinal que vem com
uma FFT (de janela retangular) . FFTs não serão propriamente introduzidas
até mais adiante.;
#X text 83 61 sinal para analisar;
#X text 93 94 series de Fourier;
#X text 96 131 calcula;
#X text 193 164 atrasa dois samples;
#X text 191 182 para melhor representação gráfica;
#X text 10 293 No tempo de carga \, calcula uma boa escolha de freqüência
fundamental para mostrar o espectro: o 16o binario em um espectro de
4096pontos \, portanto SR*16/4096 ou SR/256.;
#X text 232 356 SR=sample rate (taxa de amostra);
#X text 135 216 "bang" para mprimir o gráfico;
#X text 146 539 <-só por curiosidade aqui está o pitch;
#X connect 0 0 2 0;
#X connect 1 0 6 0;
#X connect 2 0 3 0;
#X connect 2 0 3 1;
#X connect 2 1 4 0;
#X connect 2 1 4 1;
#X connect 3 0 5 0;
#X connect 4 0 5 0;
#X connect 5 0 8 0;
#X connect 8 0 6 0;
#X connect 9 0 12 0;
#X connect 10 0 9 0;
#X connect 11 0 15 0;
#X connect 11 0 16 0;
#X connect 12 0 11 0;
#X connect 13 0 10 0;
#X connect 16 0 14 0;
#X restore 51 279 pd fft;
#X obj 111 244 bng 18 250 50 0 empty empty empty 0 -6 0 8 -262144 -1
-1;
#X obj 40 332 output~;
#X obj 111 279 tabwrite~ E01-signal;
#X text 609 380 1;
#X text 643 380 2;
#X text 675 380 3;
#X text 707 380 4;
#X text 740 380 5;
#X text 770 380 6;
#X text 801 380 7;
#X text 577 380 0;
#X text 807 92 0;
#X obj 42 42 r fundamental;
#X obj 42 111 osc~;
#X obj 63 136 tgl 18 0 empty empty empty 0 -6 0 8 -262144 -1 -1 0 1
;
#X obj 41 161 *~;
#X obj 85 111 osc~;
#X obj 106 136 tgl 18 0 empty empty empty 0 -6 0 8 -262144 -1 -1 0
1;
#X obj 84 161 *~;
#X obj 128 111 osc~;
#X obj 149 136 tgl 18 0 empty empty empty 0 -6 0 8 -262144 -1 -1 0
1;
#X obj 127 161 *~;
#X obj 128 88 * 2;
#X obj 171 111 osc~;
#X obj 192 136 tgl 18 0 empty empty empty 0 -6 0 8 -262144 -1 -1 0
1;
#X obj 170 161 *~;
#X obj 214 111 osc~;
#X obj 235 136 tgl 18 0 empty empty empty 0 -6 0 8 -262144 -1 -1 0
1;
#X obj 213 161 *~;
#X obj 257 111 osc~;
#X obj 278 136 tgl 18 0 empty empty empty 0 -6 0 8 -262144 -1 -1 0
1;
#X obj 256 161 *~;
#X obj 42 88 * 0;
#X obj 85 88 * 1;
#X obj 171 88 * 3;
#X obj 214 88 * 4;
#X obj 257 88 * 5;
#X text 303 136 <-- On/Off;
#X text 838 365 0;
#X text 836 244 1;
#X text 837 303 0.5;
#X obj 41 222 *~ 1;
#X text 807 32 5;
#X text 808 152 -5;
#X text 81 221 sum;
#X text 96 5 ESPECTROS GRÁFICOS DE SINAIS DE ÁUDIO;
#X text 667 2 FORMA DE ONDA;
#X text 337 152 para cada;
#X text 339 168 parcial;
#X text 134 243 <-- clique para gerar o gráfico;
#X text 672 208 ESPECTRO;
#X text 618 400 -- número de parciais --;
#X text 605 168 ---- 0.02 segundos ----;
#X text 28 546 As parciais são numeradas de 0 até 5 \, onde 0 significa
DC \, ou freqüência zero \, 1 é a fundamental \, e assim por diante.
O toggle permite que você lige e desligue as parciais separadamente.
Você deve clicar no bang para gerar o gráfico se quizer atualizá-lo.
;
#X text 30 402 A próxima série de patches demonstra vários tipos de
modulação: AM \, modelagem de onda (waveshaping) \, FM. Nós precisaremos
de uma ferramenta para espectro gráfico que estamos introduzindo aqui.
Neste patch o sinal será analizado como uma simples soma de até seis
parciais de uma freqüência fundamental (a qual é 172 Hz \, perto de
fá e abaixo do dó central \, se a sua sample rate estiver em 44100
Hz. A fundamental foi escolhida para se adequar ao patch de análise
("pd FFT") e esta sendo computada a a partir deste.;
#X text 28 629 O gráfico acima é somente o da forma de onda no domínio
do tempo \, em aproximadamente quatro periodos. O gráfico abaixo é
sobre a magnitude do espectro. Seus picos são da magnitude das parciais.
Note que o sinal DC de amplitude 1 é considerado uma parcial de amplitude
1 \, mas as outras parciais \, que tem amplitude de pico 1 (e RMS 0.707)
\, tem magnitudes de pico de apenas 0.5 dentro do espectro.;
#X text 30 743 Aqui nós estamos introduzindo uma nova especialidade:
sinais multiplos conectados em uma única caixa de sinal (como em "*~
1") serão somados. Esta é a maneira mais conveniente de somar as seis
parciais.;
#X text 723 823 Traduzido por Jardim de Volts.;
#X text 715 804 atualizado para Pd versão 0.37;
#X connect 1 0 5 0;
#X connect 1 0 5 1;
#X connect 4 0 3 1;
#X connect 4 0 6 0;
#X connect 16 0 36 0;
#X connect 16 0 37 0;
#X connect 16 0 26 0;
#X connect 16 0 38 0;
#X connect 16 0 39 0;
#X connect 16 0 40 0;
#X connect 17 0 19 0;
#X connect 18 0 19 1;
#X connect 19 0 45 0;
#X connect 20 0 22 0;
#X connect 21 0 22 1;
#X connect 22 0 45 0;
#X connect 23 0 25 0;
#X connect 24 0 25 1;
#X connect 25 0 45 0;
#X connect 26 0 23 0;
#X connect 27 0 29 0;
#X connect 28 0 29 1;
#X connect 29 0 45 0;
#X connect 30 0 32 0;
#X connect 31 0 32 1;
#X connect 32 0 45 0;
#X connect 33 0 35 0;
#X connect 34 0 35 1;
#X connect 35 0 45 0;
#X connect 36 0 17 0;
#X connect 37 0 20 0;
#X connect 38 0 27 0;
#X connect 39 0 30 0;
#X connect 40 0 33 0;
#X connect 45 0 3 0;
#X connect 45 0 1 0;
#X connect 45 0 6 0;
