#N canvas 0 238 722 633 12;
#X obj 94 247 *~;
#X obj 109 223 line~;
#X obj 18 179 cos~;
#X obj 18 154 +~;
#X obj 109 200 pack 0 50;
#X floatatom 109 152 0 0 300 0 - - -;
#X obj 109 176 / 100;
#X obj 18 129 phasor~;
#X obj 20 340 output~;
#X obj 19 309 hip~;
#N canvas 62 159 587 615 fft 0;
#X obj 19 61 inlet~;
#X obj 208 212 inlet;
#X obj 29 92 rfft~;
#X obj 29 125 *~;
#X obj 60 125 *~;
#X obj 29 155 sqrt~;
#X obj 332 109 block~ 4096 1;
#X obj 29 181 biquad~ 0 0 0 0 1;
#X obj 16 425 samplerate~;
#X obj 16 402 bng 18 250 50 0 empty empty empty 0 -6 0 8 -262144 -1
-1;
#X floatatom 16 472 5 0 0 0 - - -;
#X obj 16 448 / 256;
#X obj 16 378 loadbang;
#X obj 72 494 s fundamental;
#X obj 220 257 metro 500;
#X obj 220 234 inlet;
#X obj 16 494 t b f;
#X obj 19 295 tabwrite~ E10-signal;
#X obj 208 295 tabwrite~ E10-spectrum;
#X msg 16 516 \; cm 8 \; m1 2 \; m2 3;
#X text 95 135 magnitude;
#X text 11 -1 Este subpatch computa o espectro do sinal que vem com
uma FFT (de janela retangular) . FFTs não serão propriamente introduzidas
até mais adiante.;
#X text 83 61 sinal para analisar;
#X text 93 94 series de Fourier;
#X text 93 120 calcula;
#X text 190 168 atrasa dois samples;
#X text 191 182 para melhor representação gráfica;
#X text 262 212 bang para gráfico parado;
#X text 273 236 toggle para grafico animado;
#X text 20 318 No tempo de carga \, calcula uma boa escolha de freqüência
fundamental para mostrar o espectro: o 16o binario em um espectro de
4096pontos \, portanto SR*16/4096 ou SR/256.;
#X text 242 381 SR=sample rate (taxa de amostra);
#X text 73 536 seta multiplicador da portadora e multiplicador da modulação
após a fundamental;
#X connect 0 0 2 0;
#X connect 0 0 17 0;
#X connect 1 0 17 0;
#X connect 1 0 18 0;
#X connect 2 0 3 0;
#X connect 2 0 3 1;
#X connect 2 1 4 0;
#X connect 2 1 4 1;
#X connect 3 0 5 0;
#X connect 4 0 5 0;
#X connect 5 0 7 0;
#X connect 7 0 18 0;
#X connect 8 0 11 0;
#X connect 9 0 8 0;
#X connect 10 0 16 0;
#X connect 11 0 10 0;
#X connect 12 0 9 0;
#X connect 14 0 17 0;
#X connect 14 0 18 0;
#X connect 15 0 14 0;
#X connect 16 0 19 0;
#X connect 16 1 13 0;
#X restore 65 311 pd fft;
#X obj 125 290 bng 18 250 50 0 empty empty empty 0 -6 0 8 -262144 -1
-1;
#X obj 125 311 tgl 18 0 empty empty empty 0 -6 0 8 -262144 -1 -1 0
1;
#N canvas 0 0 450 300 (subpatch) 0;
#X array E10-spectrum 259 float 0;
#X coords 0 2100 258 -20 259 130 1;
#X restore 396 122 graph;
#X text 426 253 2;
#X text 457 253 4;
#X text 396 253 0;
#X text 656 238 0;
#X text 657 120 0.5;
#X obj 93 128 osc~;
#X obj 267 79 r fundamental;
#X text 489 253 6;
#X text 522 253 8;
#X text 550 253 10;
#X text 582 253 12;
#X text 614 253 14;
#X floatatom 18 58 3 0 15 0 - - -;
#X obj 18 105 *;
#X obj 18 33 r cm;
#X text 23 73 carrier;
#X obj 93 107 *;
#X floatatom 93 60 3 0 15 0 - - -;
#X text 99 74 mod 1;
#X obj 93 35 r m1;
#X text 138 154 index1;
#X obj 197 249 *~;
#X obj 212 225 line~;
#X obj 212 202 pack 0 50;
#X floatatom 212 154 0 0 300 0 - - -;
#X obj 212 178 / 100;
#X obj 196 130 osc~;
#X obj 196 109 *;
#X floatatom 196 62 3 0 15 0 - - -;
#X text 202 76 mod 2;
#X text 246 154 index2;
#X obj 196 37 r m2;
#X text 43 3 ESPECTRO DE MODULAÇÃO DE FASE COMPLEXA;
#X text 523 97 ESPECTRO;
#X text 434 268 -- número de parciais --;
#X text 147 290 <-- imprime gráfico;
#X text 147 313 <-- anima gráfico;
#X text 416 588 Atualizar para Pd versão 0.37;
#X text 414 605 Traduzido por Jardim de Volts.;
#X text 121 356 Agora introduzimos um segundo oscilador modulador.
A onda portadora é o 8o harmônico e os dois moduladores são 2 e 3 vezes
a fundamental. Quando mesmo com o índice de modulação sendo zero \,
mudar o outro índice dá em um resultado familiar de FM de dois operadores.
Mas se o índice2 for diferente de zero (tente em torno de 10 por exemplo)
então percorrer o índice1 para cima desde 0 introduz bandas lateriais
em torno de cada uma das bandas.;
#X connect 0 0 3 1;
#X connect 1 0 0 1;
#X connect 2 0 9 0;
#X connect 2 0 10 0;
#X connect 3 0 2 0;
#X connect 4 0 1 0;
#X connect 5 0 6 0;
#X connect 6 0 4 0;
#X connect 7 0 3 0;
#X connect 9 0 8 0;
#X connect 9 0 8 1;
#X connect 11 0 10 1;
#X connect 12 0 10 2;
#X connect 19 0 0 0;
#X connect 20 0 27 1;
#X connect 20 0 30 1;
#X connect 20 0 41 1;
#X connect 26 0 27 0;
#X connect 27 0 7 0;
#X connect 28 0 26 0;
#X connect 30 0 19 0;
#X connect 31 0 30 0;
#X connect 33 0 31 0;
#X connect 35 0 3 1;
#X connect 36 0 35 1;
#X connect 37 0 36 0;
#X connect 38 0 39 0;
#X connect 39 0 37 0;
#X connect 40 0 35 0;
#X connect 41 0 40 0;
#X connect 42 0 41 0;
#X connect 45 0 42 0;
