#N canvas 15 126 835 622 12;
#X obj 287 163 line~;
#X floatatom 53 64 0 0 0 0 - - -;
#X obj 30 315 cos~;
#N canvas 0 0 450 300 (subpatch) 0;
#X array pulse-output 882 float 0;
#X coords 0 1.02 882 -1.02 200 130 1;
#X restore 588 309 graph;
#X obj 53 91 phasor~ 0;
#X obj 287 139 pack 0 50;
#X floatatom 287 90 0 0 100 0 - - -;
#X obj 53 115 -~ 0.5;
#X obj 53 207 *~;
#X obj 287 114 / 10;
#X obj 30 265 clip~ -0.5 0.5;
#X obj 30 418 hip~ 5;
#N canvas 0 0 450 300 (subpatch) 0;
#X array phase-output 882 float 0;
#X coords 0 1.02 882 -1.02 200 60 1;
#X restore 583 44 graph;
#N canvas 0 0 450 300 (subpatch) 0;
#X array clip-output 882 float 0;
#X coords 0 1.02 882 -1.02 200 130 1;
#X restore 589 145 graph;
#X obj 19 234 tabwrite~ phase-output;
#X obj 19 393 tabwrite~ pulse-output;
#X text 41 148 <-- click to graph;
#X text 83 209 increase amplitude;
#X obj 287 188 +~ 1;
#X obj 19 292 tabwrite~ clip-output;
#X obj 19 148 bng 20 250 50 0 empty empty empty 0 -6 0 8 -262144 -1
-1;
#X obj 30 446 output~;
#X obj 30 338 +~ 1;
#X obj 30 361 *~ 0.5;
#X text 790 36 0.5;
#X text 787 92 -0.5;
#X text 791 137 1;
#X text 793 263 -1;
#X text 790 305 1;
#X text 791 428 -1;
#X text 119 5 GERADOR DE PULSOS;
#X text 50 43 freqüência;
#X text 284 71 índice;
#X text 142 93 fase 0 para 1;
#X text 114 120 fase -1/2 para 1/2;
#X text 334 115 constante da escala;
#X text 341 164 suavizando;
#X text 329 187 adiciona 1;
#X text 164 264 clipando de volta de -1/2 até 1/2;
#X text 90 316 modelagem com onda cosenóide (-1/2 e 1/2 até -1);
#X text 88 337 adiciona um (alcance agora de 0 até 2);
#X text 98 360 ...e agora de 0 até 1;
#X text 103 419 filtro de passa alta para cortar o DC;
#X text 544 590 Atualizado para Pd versão 0.37;
#X text 20 516 Este patch computa um trem de pulso \, com controle
de índice que essencialmente expreme os pulsos. Se a largura de banda
é zero você terá uma onda cosenóide pura \, e para valores mais largos
\, aonda cosenóide é expremida para caber em porções menores da forma
de onda.;
#X text 590 439 ---- 0.02 segundos ----;
#X text 545 608 Traduzido por Jardim de Volts.;
#X connect 0 0 18 0;
#X connect 1 0 4 0;
#X connect 2 0 22 0;
#X connect 4 0 7 0;
#X connect 5 0 0 0;
#X connect 6 0 9 0;
#X connect 7 0 8 0;
#X connect 8 0 10 0;
#X connect 8 0 14 0;
#X connect 9 0 5 0;
#X connect 10 0 2 0;
#X connect 10 0 19 0;
#X connect 11 0 21 0;
#X connect 11 0 21 1;
#X connect 18 0 8 1;
#X connect 20 0 14 0;
#X connect 20 0 19 0;
#X connect 20 0 15 0;
#X connect 22 0 23 0;
#X connect 23 0 15 0;
#X connect 23 0 11 0;
