#N canvas 83 74 860 585 12;
#X obj 189 166 line~;
#X obj 42 187 cos~;
#X obj 189 142 pack 0 50;
#X floatatom 189 41 0 0 100 0 - - -;
#X obj 43 114 -~ 0.5;
#X obj 43 140 *~;
#X obj 189 67 / 10;
#X obj 189 91 moses 0;
#X msg 189 115 0;
#X obj 42 163 clip~ -0.5 0.5;
#X obj 189 191 +~ 1;
#X obj 42 211 +~ 1;
#X obj 42 293 output~;
#X obj 41 262 hip~;
#N canvas 122 159 558 609 fft 0;
#X obj 19 61 inlet~;
#X obj 208 212 inlet;
#X obj 29 92 rfft~;
#X obj 29 125 *~;
#X obj 60 125 *~;
#X obj 29 155 sqrt~;
#X obj 332 109 block~ 4096 1;
#X obj 29 181 biquad~ 0 0 0 0 1;
#X obj 264 434 samplerate~;
#X obj 264 457 / 256;
#X obj 238 261 metro 500;
#X obj 238 238 inlet;
#X obj 29 205 /~ 4096;
#X obj 19 295 tabwrite~ F03-signal;
#X obj 235 299 tabwrite~ F03-spectrum;
#X obj 264 409 bang~;
#X msg 209 322 \; pd dsp 1;
#X obj 264 482 s freq;
#X text 95 135 magnitude;
#X text 11 -1 Este subpatch computa o espectro do sinal que vem com
uma FFT (de janela retangular) . FFTs não serão propriamente introduzidas
até mais adiante.;
#X text 83 61 sinal para analisar;
#X text 93 94 series de Fourier;
#X text 93 120 calcula;
#X text 190 171 atrasa dois samples;
#X text 191 185 para melhor representação gráfica;
#X text 262 212 bang para gráfico parado;
#X text 289 236 toggle para grafico animado;
#X connect 0 0 2 0;
#X connect 0 0 13 0;
#X connect 1 0 13 0;
#X connect 1 0 14 0;
#X connect 1 0 16 0;
#X connect 2 0 3 0;
#X connect 2 0 3 1;
#X connect 2 1 4 0;
#X connect 2 1 4 1;
#X connect 3 0 5 0;
#X connect 4 0 5 0;
#X connect 5 0 7 0;
#X connect 7 0 12 0;
#X connect 8 0 9 0;
#X connect 9 0 17 0;
#X connect 10 0 13 0;
#X connect 10 0 14 0;
#X connect 11 0 10 0;
#X connect 11 0 16 0;
#X connect 12 0 14 0;
#X connect 15 0 8 0;
#X restore 95 264 pd fft;
#X obj 155 243 bng 18 250 50 0 empty empty empty 0 -6 0 8 -262144 -1
-1;
#X obj 155 264 tgl 18 0 empty empty empty 0 -6 0 8 -262144 -1 -1 0
1;
#X obj 42 235 *~ 0.5;
#X obj 43 90 phasor~;
#N canvas 0 0 450 300 (subpatch) 0;
#X array F03-signal 882 float 0;
#X coords 0 1.02 882 -1.02 200 130 1;
#X restore 640 321 graph;
#N canvas 0 0 450 300 (subpatch) 0;
#X array F03-spectrum 259 float 0;
#X coords 0 0.51 258 -0.008 256 130 1;
#X restore 579 99 graph;
#X text 640 454 ---- 0.02 seconds ----;
#X text 608 230 2;
#X text 639 230 4;
#X text 578 230 0;
#X text 616 245 -- partial number --;
#X text 671 230 6;
#X text 704 230 8;
#X text 732 230 10;
#X text 764 230 12;
#X text 796 230 14;
#X obj 43 63 r freq;
#X text 63 1 MEDIDA DO PULSO DO ESPECTRO;
#X text 184 23 largura de banda;
#X text 177 243 <-- gráfico em uma vez;
#X text 176 263 <-- repetidamente;
#X text 15 436 O espectro está em unidades de amplitude. Os lóbulos
laterais \, apesar de parecerem pequenos \, são na verdade somente
em torno de 34 dB menores.Você pode desenhar trens de pulso mais complicados
\, pequenas janelas de função de Blackman as quais podem controlar
os lóbulos laterias muito melhor.;
#X text 572 545 Atualizando para Pd versão 0.37;
#X text 574 564 Traduzido por Jardim de Volts.;
#X text 14 357 Aqui está um espectro de amplitude medido para um trem
de pulso.Note que \, ao invés de uma pequena espalhada \, a energia
se situa em um "lóbulo" o qual mudando sua largura justifica nossa
chamada do fator de espremer a largura de banda.;
#X connect 0 0 10 0;
#X connect 1 0 11 0;
#X connect 2 0 0 0;
#X connect 3 0 6 0;
#X connect 4 0 5 0;
#X connect 5 0 9 0;
#X connect 6 0 7 0;
#X connect 7 0 8 0;
#X connect 7 1 2 0;
#X connect 8 0 2 0;
#X connect 9 0 1 0;
#X connect 10 0 5 1;
#X connect 11 0 17 0;
#X connect 13 0 12 0;
#X connect 13 0 12 1;
#X connect 15 0 14 1;
#X connect 16 0 14 2;
#X connect 17 0 13 0;
#X connect 17 0 14 0;
#X connect 18 0 4 0;
#X connect 31 0 18 0;
