#N canvas 83 89 793 595 12;
#N canvas 0 0 450 300 (subpatch) 0;
#X array F05-signal 882 float 0;
#X coords 0 1 882 -1 200 130 1;
#X restore 554 218 graph;
#N canvas 0 0 450 300 (subpatch) 0;
#X array F05-spectrum 256 float 0;
#X coords 0 0.51 255 -0.008 256 130 1;
#X restore 499 22 graph;
#X text 495 155 0;
#X text 761 142 0;
#X text 758 19 0.5;
#X floatatom 51 61 0 0 100 0 - - -;
#N canvas 329 22 680 421 pulse-train 0;
#X obj 184 348 line~;
#X obj 39 317 cos~;
#X obj 184 324 pack 0 50;
#X obj 39 245 -~ 0.5;
#X obj 39 269 *~;
#X obj 184 252 / 10;
#X obj 184 276 moses 0;
#X msg 184 300 0;
#X obj 39 293 clip~ -0.5 0.5;
#X obj 184 372 +~ 1;
#X obj 39 341 +~ 1;
#X obj 184 228 inlet;
#X obj 39 389 outlet~;
#X obj 39 365 *~ 0.5;
#X obj 40 85 phasor~;
#X obj 40 58 r freq;
#X text 53 5 Esta é uma versão modificada do gerador de trens de pulso
de dois exemplos anterior.;
#X text 276 262 de resto é igual ao anterior.;
#X text 107 140 Nós temos que adicionar 1/2 e empacotar para que o
centro do pulso venha até a fase zero (Ureviamente este estava 1/2
ciclo fora de fase). Isto não era um problema anteriormente mas agora
temos que estar em fase com o oscilador no qual estamos multiplicando.
;
#X connect 0 0 9 0;
#X connect 1 0 10 0;
#X connect 2 0 0 0;
#X connect 3 0 4 0;
#X connect 4 0 8 0;
#X connect 5 0 6 0;
#X connect 6 0 7 0;
#X connect 6 1 2 0;
#X connect 7 0 2 0;
#X connect 8 0 1 0;
#X connect 9 0 4 1;
#X connect 10 0 13 0;
#X connect 11 0 5 0;
#X connect 13 0 12 0;
#X connect 14 0 3 0;
#X connect 15 0 14 0;
#X restore 51 86 pd pulse-train;
#X obj 51 219 *~;
#X obj 51 277 output~;
#X obj 50 246 hip~;
#N canvas 122 211 563 534 fft 0;
#X obj 19 61 inlet~;
#X obj 208 212 inlet;
#X obj 29 92 rfft~;
#X obj 29 125 *~;
#X obj 60 125 *~;
#X obj 29 155 sqrt~;
#X obj 332 109 block~ 4096 1;
#X obj 29 181 biquad~ 0 0 0 0 1;
#X obj 264 434 samplerate~;
#X obj 245 262 metro 500;
#X obj 245 233 inlet;
#X obj 29 205 /~ 4096;
#X obj 264 409 bang~;
#X obj 264 483 s freq;
#X obj 264 457 / 256;
#X obj 19 295 tabwrite~ F05-signal;
#X obj 245 294 tabwrite~ F05-spectrum;
#X msg 224 321 \; pd dsp 1;
#X text 95 135 magnitude;
#X text 11 -1 Este subpatch computa o espectro do sinal que vem com
uma FFT (de janela retangular) . FFTs não serão propriamente introduzidas
até mais adiante.;
#X text 83 61 sinal para analisar;
#X text 93 94 series de Fourier;
#X text 93 120 calcula;
#X text 190 171 atrasa dois samples;
#X text 191 185 para melhor representação gráfica;
#X text 275 211 bang para gráfico parado;
#X text 303 232 toggle para grafico animado;
#X connect 0 0 2 0;
#X connect 0 0 15 0;
#X connect 1 0 15 0;
#X connect 1 0 16 0;
#X connect 1 0 17 0;
#X connect 2 0 3 0;
#X connect 2 0 3 1;
#X connect 2 1 4 0;
#X connect 2 1 4 1;
#X connect 3 0 5 0;
#X connect 4 0 5 0;
#X connect 5 0 7 0;
#X connect 7 0 11 0;
#X connect 8 0 14 0;
#X connect 9 0 15 0;
#X connect 9 0 16 0;
#X connect 10 0 9 0;
#X connect 10 0 17 0;
#X connect 11 0 16 0;
#X connect 12 0 8 0;
#X connect 14 0 13 0;
#X restore 98 245 pd fft;
#X obj 158 224 bng 18 250 50 0 empty empty empty 0 -6 0 8 -262144 -1
-1;
#X obj 158 245 tgl 18 0 empty empty empty 0 -6 0 8 -262144 -1 -1 0
1;
#X text 527 155 2;
#X text 559 155 4;
#X text 591 155 6;
#X text 623 155 8;
#X text 656 155 10;
#X text 688 155 12;
#X text 719 155 14;
#X text 759 213 1;
#X text 759 337 -1;
#X floatatom 73 123 0 0 100 0 - - -;
#X obj 73 182 osc~;
#X obj 73 157 *;
#X obj 107 157 r freq;
#X text 153 6 TRENS DE PULSO MODULADOS POR ANEL;
#X text 534 174 -- número da parcial --;
#X text 552 348 ---- 0.02 segundos ----;
#X text 83 61 <-- largura de banda;
#X text 184 85 <-- gerarador de trem de pulso;
#X text 220 101 usado anteriormente;
#X text 113 123 <-- modulação de freqüência como;
#X text 152 137 multipla da fundamental;
#X text 122 185 oscilador de modulação;
#X text 180 224 <-- mostra gráfico;
#X text 179 244 <-- anima gráfico;
#X text 23 357 Agora nós pegamos um trem de pulso e modulamos com uma
anel (ring modulator) \, o que efetivamente faz manipula o espectro
para que consiga centralizar qualquer parcial desejada. O controle
de largura de banda ainda afeta a forma do pico \, independente de
onde ele estiver centralzado. Isto gera uma formante centralizada em
uma parcial dada.;
#X text 23 471 Este patch é limitado a fazer formantes centradas nos
harmônicos. A freqüência central portanto não pode ser movida suavemente
quando desejamos (tente clicar com o shift apertado na modulação da
frequencia para fazer frações). A seguir veremos duas técnicas para
mover uma freqüência formante sem perder a harmonicidade.;
#X text 507 563 Atualizado para Pd versão 0.37;
#X text 509 581 Traduzido por Jardim de Volts.;
#X connect 5 0 6 0;
#X connect 6 0 7 0;
#X connect 7 0 9 0;
#X connect 7 0 10 0;
#X connect 9 0 8 0;
#X connect 9 0 8 1;
#X connect 11 0 10 1;
#X connect 12 0 10 2;
#X connect 22 0 24 0;
#X connect 23 0 7 1;
#X connect 24 0 23 0;
#X connect 25 0 24 1;
