#N canvas 83 140 774 622 12;
#X obj 318 366 line~;
#X obj 34 444 cos~;
#X floatatom 71 560 0 0 0 0 - - -;
#N canvas 176 241 532 273 output 0;
#X obj 338 160 t b;
#X obj 338 110 f;
#X obj 338 60 inlet;
#X text 344 29 mute;
#X obj 338 185 f;
#X msg 425 178 0;
#X msg 338 85 bang;
#X obj 338 135 moses 1;
#X obj 398 111 moses 1;
#X obj 83 148 dbtorms;
#X obj 398 86 r master-lvl;
#X obj 83 42 r master-lvl;
#X obj 338 210 s master-lvl;
#X obj 17 148 inlet~;
#X obj 199 41 inlet;
#X text 199 18 level;
#X obj 199 100 s master-lvl;
#X msg 96 65 set \$1;
#X obj 96 89 outlet;
#X msg 214 64 \; pd dsp 1;
#X obj 83 194 line~;
#X obj 22 212 *~;
#X obj 22 241 dac~;
#X obj 83 171 pack 0 50;
#X text 15 125 audio;
#X text 93 110 show level;
#X obj 17 177 hip~ 1;
#X connect 0 0 4 0;
#X connect 1 0 7 0;
#X connect 2 0 6 0;
#X connect 4 0 12 0;
#X connect 5 0 12 0;
#X connect 6 0 1 0;
#X connect 7 0 0 0;
#X connect 7 1 5 0;
#X connect 8 1 4 1;
#X connect 9 0 23 0;
#X connect 10 0 1 1;
#X connect 10 0 8 0;
#X connect 11 0 9 0;
#X connect 11 0 17 0;
#X connect 13 0 26 0;
#X connect 14 0 16 0;
#X connect 14 0 19 0;
#X connect 17 0 18 0;
#X connect 20 0 21 1;
#X connect 21 0 22 0;
#X connect 21 0 22 1;
#X connect 23 0 20 0;
#X connect 26 0 21 0;
#X restore 35 587 pd output;
#X msg 111 560 MUTE;
#X obj 318 342 pack 0 50;
#X floatatom 318 270 0 0 0 0 - - -;
#X obj 34 356 -~ 0.5;
#X obj 34 395 *~;
#X obj 318 294 / 10;
#X obj 34 420 clip~ -0.5 0.5;
#X obj 318 390 +~ 1;
#X obj 35 467 +~ 1;
#X obj 184 440 cos~;
#X obj 35 496 *~;
#X floatatom 222 284 4 0 0 0 - - -;
#X obj 222 308 / 10;
#X obj 184 414 *~;
#X obj 318 318 max 0;
#X obj 222 380 line~;
#X obj 222 356 pack 0 50;
#X obj 222 332 max 0;
#X floatatom 34 308 4 0 0 0 - - -;
#X obj 34 332 phasor~ 100;
#N canvas 0 0 450 300 (subpatch) 0;
#X array spectrum 128 float 0;
#X coords 0 500 128 0 256 130 1;
#X restore 440 362 graph;
#X msg 108 498 bang;
#N canvas 204 17 358 238 fft 0;
#X obj 46 48 inlet~;
#X obj 159 181 tabwrite~ spectrum;
#X obj 159 145 inlet;
#X obj 46 78 rfft~;
#X obj 46 111 *~;
#X obj 77 111 *~;
#X obj 46 141 sqrt~;
#X obj 191 45 block~ 1024 1;
#X connect 0 0 3 0;
#X connect 2 0 1 0;
#X connect 3 0 4 0;
#X connect 3 0 4 1;
#X connect 3 1 5 0;
#X connect 3 1 5 1;
#X connect 4 0 6 0;
#X connect 5 0 6 0;
#X connect 6 0 1 0;
#X restore 59 524 pd fft;
#X text 439 502 0;
#X text 687 499 5512;
#X text 31 2 ESPECTRO DE PACOTE EM JANELA;
#X text 19 34 Aqui esta o espectro que você consegue. Note que mesmo
se você põe a freqüência central sobre a parcial \, há uma energia
significante nas parciais vizinhas (ente a fundamental 440 \, "frequência
central" 30 \, largura de banda 0.);
#X text 18 115 A freqüência central está em unidades de 10 por parcial
\, ou em outras palavras um valor de "30" significa "centrado na terceira
parcial".;
#X text 22 170 Esta técnica somente funciona se você está fazendo um
PWM modelado pela técnica de Hanning-window -- você não pode combinar
isso naturalmente com FM ou técnicas de modelagem de onda que vimos
anteriormente.;
#X text 30 264 freqüência;
#X text 31 283 fundamental;
#X text 220 238 freqüência;
#X text 221 258 central;
#X text 318 248 largura de banda;
#X text 149 498 <-- gráfico;
#X text 156 559 <-- saída;
#X text 481 577 Atualizado para Pd versão 0.34;
#X text 481 593 Traduzido por Jardim de Volts.;
#X connect 0 0 11 0;
#X connect 1 0 12 0;
#X connect 2 0 3 1;
#X connect 3 0 2 0;
#X connect 4 0 3 2;
#X connect 5 0 0 0;
#X connect 6 0 9 0;
#X connect 7 0 8 0;
#X connect 7 0 17 0;
#X connect 8 0 10 0;
#X connect 9 0 18 0;
#X connect 10 0 1 0;
#X connect 11 0 8 1;
#X connect 12 0 14 0;
#X connect 13 0 14 1;
#X connect 14 0 3 0;
#X connect 14 0 26 0;
#X connect 15 0 16 0;
#X connect 16 0 21 0;
#X connect 17 0 13 0;
#X connect 18 0 5 0;
#X connect 19 0 17 1;
#X connect 20 0 19 0;
#X connect 21 0 20 0;
#X connect 22 0 23 0;
#X connect 23 0 7 0;
#X connect 25 0 26 1;
