#N canvas 60 64 834 622 12;
#X obj 168 476 cos~;
#X obj 168 430 *~;
#X obj 211 478 cos~;
#X obj 252 379 wrap~;
#X obj 215 378 -~;
#X obj 211 455 +~;
#X obj 209 513 -~;
#X obj 230 539 *~;
#X obj 215 348 samphold~;
#X floatatom 232 228 4 0 200 0 - - -;
#X obj 232 251 / 10;
#X obj 232 300 line~;
#X text 232 207 fundamental);
#X obj 232 277 pack 0 50;
#X obj 121 283 phasor~;
#X floatatom 121 260 4 0 0 0 - - -;
#X text 106 207 fundamental;
#X text 106 227 (= mod freq);
#X floatatom 435 295 4 0 500 0 - - -;
#X obj 385 361 cos~;
#X obj 435 364 line~;
#X obj 385 384 *~;
#X obj 435 318 / 100;
#X obj 435 341 pack 0 50;
#X obj 168 453 +~;
#X obj 233 632 output~;
#X obj 232 601 hip~;
#N canvas 122 45 604 609 fft 0;
#X obj 23 55 inlet~;
#X obj 210 303 inlet;
#X obj 27 215 rfft~;
#X obj 27 248 *~;
#X obj 58 248 *~;
#X obj 27 278 sqrt~;
#X obj 334 200 block~ 4096 1;
#X obj 27 304 biquad~ 0 0 0 0 1;
#X obj 292 79 samplerate~;
#X obj 240 352 metro 500;
#X obj 240 329 inlet;
#X obj 27 328 /~ 4096;
#X obj 292 54 bang~;
#X msg 211 413 \; pd dsp 1;
#X obj 237 390 tabwrite~ F10-spectrum;
#X obj 292 102 / 4096;
#X obj 58 135 osc~;
#X obj 58 163 +~ 1;
#X obj 28 188 *~;
#X obj 254 79 0.5;
#X text 92 259 magnitude;
#X text 22 1 Este subpatch computa o espectro do sinal que vem com
uma FFT (de janela retangular) . FFTs não serão propriamente introduzidas
até mais adiante.;
#X text 89 54 sinal para analisar;
#X text 81 210 series de Fourier;
#X text 90 244 calcula;
#X text 182 267 atrasa dois samples;
#X text 183 281 para melhor representação gráfica;
#X text 312 328 bang para gráfico parado;
#X text 340 349 toggle para grafico animado;
#X text 113 138 janela de hanning;
#X connect 0 0 18 0;
#X connect 1 0 13 0;
#X connect 1 0 14 0;
#X connect 2 0 3 0;
#X connect 2 0 3 1;
#X connect 2 1 4 0;
#X connect 2 1 4 1;
#X connect 3 0 5 0;
#X connect 4 0 5 0;
#X connect 5 0 7 0;
#X connect 7 0 11 0;
#X connect 8 0 15 0;
#X connect 9 0 14 0;
#X connect 10 0 9 0;
#X connect 10 0 13 0;
#X connect 11 0 14 0;
#X connect 12 0 8 0;
#X connect 12 0 19 0;
#X connect 15 0 16 0;
#X connect 16 0 17 0;
#X connect 17 0 18 1;
#X connect 18 0 2 0;
#X connect 19 0 16 1;
#X restore 286 601 pd fft;
#X obj 346 580 bng 18 250 50 0 empty empty empty 0 -6 0 8 -262144 -1
-1;
#X obj 346 601 tgl 18 0 empty empty empty 0 -6 0 8 -262144 -1 -1 0
1;
#N canvas 0 0 450 300 (subpatch) 0;
#X array F10-spectrum 259 float 0;
#X coords 0 0.51 258 -0.008 256 130 1;
#X restore 516 409 graph;
#X text 508 540 0;
#X obj 207 565 +~;
#X text 792 518 2700;
#X text -37 -24 APLICANDO PORTADORA DE DOIS COSENOS EM FM;
#X text 232 147 freqüência;
#X text 232 167 central (em;
#X text 232 187 décimos da;
#X text 435 254 índice;
#X text 436 274 (porcentagem);
#X text 388 410 modulando;
#X text 388 430 oscilador;
#X text 367 579 <-- mostra gráfico;
#X text 367 600 <-- anima gráfico;
#X text 570 550 -- freqüência --;
#X text -47 431 adiciona modulador para;
#X text 8 454 ambas as fases-->;
#X text 521 681 Traduzido por Jardim de Volts.;
#X text 510 666 Atualizado para Pd versão 0.37;
#X text -37 6 Nós podemos aplicar o método dos dois cosenos numa síntese
Fm para conseguir um espectro FM que pode deslizar:nós apenas tratamos
os dois cosenos como sinais portadores num instrumento FM. Isto não
funciona tão bem quanto gostaríamos \, porque as fases das parciais
dos dois instrumentos FM não sincronizam \, apesar disso \, para índices
de modulação acima de mais ou menos 20% \, você consegue efeitos percussivos
com um frequencia central indo pra cima e para baixo.;
#X connect 0 0 6 1;
#X connect 0 0 32 0;
#X connect 1 0 24 0;
#X connect 2 0 6 0;
#X connect 3 0 4 1;
#X connect 3 0 7 1;
#X connect 4 0 1 1;
#X connect 5 0 2 0;
#X connect 6 0 7 0;
#X connect 7 0 32 1;
#X connect 8 0 4 0;
#X connect 8 0 3 0;
#X connect 9 0 10 0;
#X connect 10 0 13 0;
#X connect 11 0 8 0;
#X connect 13 0 11 0;
#X connect 14 0 8 1;
#X connect 14 0 19 0;
#X connect 14 0 1 0;
#X connect 14 0 5 1;
#X connect 15 0 14 0;
#X connect 18 0 22 0;
#X connect 19 0 21 0;
#X connect 20 0 21 1;
#X connect 21 0 24 1;
#X connect 22 0 23 0;
#X connect 23 0 20 0;
#X connect 24 0 5 0;
#X connect 24 0 0 0;
#X connect 26 0 25 0;
#X connect 26 0 25 1;
#X connect 28 0 27 1;
#X connect 29 0 27 2;
#X connect 32 0 26 0;
#X connect 32 0 27 0;
