#N canvas 60 64 790 527 12;
#X obj 122 381 cos~;
#X floatatom 173 184 4 0 200 0 - - -;
#X obj 173 207 / 10;
#X text 173 163 fundamental);
#X floatatom 70 192 4 0 0 0 - - -;
#X text 46 145 fundamental;
#X text 46 165 (= mod freq);
#X floatatom 251 249 4 0 500 0 - - -;
#X obj 251 318 line~;
#X obj 201 338 *~;
#X obj 251 272 / 100;
#X obj 251 295 pack 0 50;
#X obj 122 358 +~;
#X obj 123 459 output~;
#X obj 122 428 hip~;
#N canvas 122 45 606 609 fft 0;
#X obj 23 55 inlet~;
#X obj 210 303 inlet;
#X obj 27 215 rfft~;
#X obj 27 248 *~;
#X obj 58 248 *~;
#X obj 27 278 sqrt~;
#X obj 334 200 block~ 4096 1;
#X obj 27 304 biquad~ 0 0 0 0 1;
#X obj 292 79 samplerate~;
#X obj 240 352 metro 500;
#X obj 240 329 inlet;
#X obj 27 328 /~ 4096;
#X obj 292 54 bang~;
#X msg 211 413 \; pd dsp 1;
#X obj 292 102 / 4096;
#X obj 58 135 osc~;
#X obj 58 163 +~ 1;
#X obj 28 188 *~;
#X obj 254 79 0.5;
#X obj 240 390 tabwrite~ F11-spectrum;
#X text 92 259 magnitude;
#X text 22 1 Este subpatch computa o espectro do sinal que vem com
uma FFT (de janela retangular) . FFTs não serão propriamente introduzidas
até mais adiante.;
#X text 89 54 sinal para analisar;
#X text 81 210 series de Fourier;
#X text 90 244 calcula;
#X text 182 267 atrasa dois samples;
#X text 183 281 para melhor representação gráfica;
#X text 312 328 bang para gráfico parado;
#X text 340 349 toggle para grafico animado;
#X text 113 138 janela de hanning;
#X connect 0 0 17 0;
#X connect 1 0 13 0;
#X connect 1 0 19 0;
#X connect 2 0 3 0;
#X connect 2 0 3 1;
#X connect 2 1 4 0;
#X connect 2 1 4 1;
#X connect 3 0 5 0;
#X connect 4 0 5 0;
#X connect 5 0 7 0;
#X connect 7 0 11 0;
#X connect 8 0 14 0;
#X connect 9 0 19 0;
#X connect 10 0 9 0;
#X connect 10 0 13 0;
#X connect 11 0 19 0;
#X connect 12 0 8 0;
#X connect 12 0 18 0;
#X connect 14 0 15 0;
#X connect 15 0 16 0;
#X connect 16 0 17 1;
#X connect 17 0 2 0;
#X connect 18 0 15 1;
#X restore 176 428 pd fft;
#X obj 236 407 bng 18 250 50 0 empty empty empty 0 -6 0 8 -262144 -1
-1;
#X obj 236 428 tgl 18 0 empty empty empty 0 -6 0 8 -262144 -1 -1 0
1;
#N canvas 0 0 450 300 (subpatch) 0;
#X array F11-spectrum 259 float 0;
#X coords 0 0.51 258 -0.008 256 130 1;
#X restore 514 291 graph;
#X text 506 422 0;
#X text 743 427 2700;
#X obj 173 256 *;
#X obj 173 233 t b f;
#X obj 201 315 osc~;
#X obj 122 322 phasor~;
#X text 167 6 COMO NÃO APLICAR UMA PORTADORA DE DOIS COSENOS EM FM
;
#X text 31 30 Aqui temos o que acontece se você somente desliza a freqüência
portadora em torno. O espectro se move ok ara cima e para baixo \,
mas só fica periódico durante o periodo original quando a freqûencia
central encontra um harmônico.;
#X text 173 103 freqüência;
#X text 173 123 central. (em;
#X text 173 143 dezenas da;
#X text 251 208 índice;
#X text 251 228 (percentagem);
#X text 204 364 modulando;
#X text 210 380 oscilador;
#X text 11 324 da portadora;
#X text 25 309 oscilador;
#X text 258 407 <-- mostra gráfico;
#X text 568 431 -- freqüência --;
#X text 474 483 Atualizando para Pd versão 0.37;
#X text 477 501 Traduzido por Jardim de Volts.;
#X text 257 427 <-- anima o gráfico;
#X connect 0 0 14 0;
#X connect 0 0 15 0;
#X connect 1 0 2 0;
#X connect 2 0 22 0;
#X connect 4 0 21 0;
#X connect 4 0 23 0;
#X connect 7 0 10 0;
#X connect 8 0 9 1;
#X connect 9 0 12 1;
#X connect 10 0 11 0;
#X connect 11 0 8 0;
#X connect 12 0 0 0;
#X connect 14 0 13 0;
#X connect 14 0 13 1;
#X connect 16 0 15 1;
#X connect 17 0 15 2;
#X connect 21 0 24 0;
#X connect 22 0 21 0;
#X connect 22 1 21 1;
#X connect 23 0 9 0;
#X connect 24 0 12 0;
