#N canvas 0 32 1001 628 12;
#X floatatom 145 654 5 0 0 0 - - -;
#X obj 44 565 bp~;
#X obj 44 536 bp~;
#X obj 55 467 mtof;
#X floatatom 55 490 7 0 0 0 - - -;
#X floatatom 98 520 3 0 999 0 - #0-q -;
#X floatatom 55 447 7 0 150 0 - #0-pitch -;
#X obj 145 586 env~ 4096;
#X obj 45 370 *~ 0;
#X obj 44 395 +~ 1;
#X obj 145 608 + 0.5;
#X obj 145 631 int;
#X obj 44 614 output~;
#X text 341 680 updated for Pd version 0.39;
#N canvas 316 21 483 471 startup 0;
#X obj 53 335 r readfile;
#X obj 53 388 soundfiler;
#X obj 59 23 loadbang;
#X obj 59 49 bng 15 250 50 0 empty empty empty 0 -6 0 8 -262144 -1
-1;
#X obj 59 70 f \$0;
#X obj 60 271 /;
#X msg 60 248 44100;
#X obj 60 223 t b f;
#X obj 60 199 r \$0-totsamps;
#X obj 60 294 s \$0-loopf;
#X msg 59 102 \; readfile symbol \$1-array \; \$1-totsamps 143718 \;
\$1-pitch 69 \; \$1-q 0;
#X msg 53 361 read -resize ../sound/bell.aiff \$1;
#X connect 0 0 11 0;
#X connect 2 0 3 0;
#X connect 3 0 4 0;
#X connect 4 0 10 0;
#X connect 5 0 9 0;
#X connect 6 0 5 0;
#X connect 7 0 6 0;
#X connect 7 1 5 1;
#X connect 8 0 7 0;
#X connect 11 0 1 0;
#X restore 456 625 pd startup;
#N canvas 0 0 450 300 (subpatch) 0;
#X array \$0-array 155948 float 0;
#X coords 0 1 155947 -1 200 150 1;
#X restore 378 375 graph;
#X obj 45 322 r \$0-loopf;
#X obj 45 346 phasor~;
#X obj 44 419 tabread4~ \$0-array;
#X obj 89 370 r \$0-totsamps;
#X text 109 12 MEDINDO O ESPECTRO USANDO FILTRO PASSA BANDA;
#X text 12 41 Neste exemplo usamos dois filtros passa banda em cascata
para manipular as parciais num sample de sino.;
#X text 14 82 Note que os filtros podem gerar inexperadas mudanças
de volume. O objeto bp~ é desenhado para ter uma rude mudança de ganho
unitário com a passa banda \, portanto quanto mais alto você seta "Q"
mais amplitude é perdida. Você pode corrigir isto na amplitude de saída
\, mas esteja certo de lembrar de retornar a amplitude se você reduzir
Q novamente. Eu setei Q em 100 e a sapida de amplitude em 110 ou 120
(com espaço para saída de ganho). E então sando a tecla shift vagarozamente
sintonzando pitch para buscar modulações.;
#X text 14 233 Você pode ouvir parciais em 48 \, 51.3 \, 55 (faint!)
\, 57 (fainter!) \, 60 \, duas parciais percussivas em 65 \, 67 \,
69 \, 70.9 \, 71.75 \, 72.6 \, 74 \, 74.65 \, 75.6 \, 77 \, 81.2 \,
84.6 \, 86.5 \, e provavelmente muitas mais. Existe mais ma em torno
de 36 \, mas a melhor maneira de buscar é ouvindo.;
#X text 124 446 <-- pitch central;
#X text 120 463 (shift para sintonia fina);
#X text 131 491 <-- freqüência central;
#X text 138 520 <-- Q (seletividade);
#X connect 1 0 7 0;
#X connect 1 0 12 0;
#X connect 1 0 12 1;
#X connect 2 0 1 0;
#X connect 3 0 4 0;
#X connect 4 0 2 1;
#X connect 4 0 1 1;
#X connect 5 0 2 2;
#X connect 5 0 1 2;
#X connect 6 0 3 0;
#X connect 7 0 10 0;
#X connect 8 0 9 0;
#X connect 9 0 18 0;
#X connect 10 0 11 0;
#X connect 11 0 0 0;
#X connect 16 0 17 0;
#X connect 17 0 8 0;
#X connect 18 0 2 0;
#X connect 19 0 8 1;
