#N canvas 0 0 615 578 12;
#X obj 353 510 t b;
#X obj 353 457 f;
#X obj 353 535 f;
#X msg 467 534 0;
#X obj 353 487 moses 1;
#X obj 467 506 t b f;
#X obj 433 467 moses 1;
#X obj 29 97 dbtorms;
#X obj 85 190 inlet~;
#X msg 299 330 \; pd dsp 1;
#X obj 29 190 line~;
#X obj 64 262 *~;
#X obj 64 292 dac~;
#X obj 29 127 pack 0 50;
#X floatatom 323 239 3 0 100 0 dB - -;
#X obj 350 260 bng 15 250 50 0 empty empty mute -38 7 0 12 -262144
-1 -1;
#X obj 148 190 inlet~;
#X obj 154 261 *~;
#X obj 323 194 r \$0-master-lvl;
#X obj 353 561 s \$0-master-lvl;
#X obj 323 299 s \$0-master-out;
#X obj 29 71 r \$0-master-out;
#X obj 433 438 r \$0-master-out;
#X obj 85 212 hip~ 3;
#X obj 147 212 hip~ 3;
#X text 27 -6 Abstracao de controle de volume (intensidade sonora \,
em dB) \, usada em varios dos patches de exemplo do Pd. Os controles
de volume (dB) e mudo (mute) aparecem no patch principal.;
#X text 100 96 <-- converte de dB para unidades lineares (rms);
#X text 118 126 <-- faz uma rampa para evitar clicks ou zipper noise
;
#X text 49 165 entrada de audio;
#X text 9 339 inicia automaticamente o DSP -->;
#X text 373 398 logica do MUTE:;
#X text 138 459 de master-lvl -->;
#X text 138 441 chama o valor previo;
#X text 76 484 testa se e' menor do que 1 -->;
#X text 4 511 se for verdade \, converte para bang -->;
#X text 33 538 valor anterior e diferente de zero de master-lvl -->
;
#X connect 0 0 2 0;
#X connect 1 0 4 0;
#X connect 2 0 19 0;
#X connect 3 0 19 0;
#X connect 4 0 0 0;
#X connect 4 1 5 0;
#X connect 5 0 3 0;
#X connect 6 1 2 1;
#X connect 7 0 13 0;
#X connect 8 0 23 0;
#X connect 10 0 17 0;
#X connect 10 0 11 0;
#X connect 11 0 12 0;
#X connect 13 0 10 0;
#X connect 14 0 9 0;
#X connect 14 0 20 0;
#X connect 15 0 1 0;
#X connect 16 0 24 0;
#X connect 17 0 12 1;
#X connect 18 0 14 0;
#X connect 21 0 7 0;
#X connect 22 0 1 1;
#X connect 22 0 6 0;
#X connect 23 0 11 1;
#X connect 24 0 17 1;
#X coords 0 0 1 1 65 55 1 300 200;
