#N canvas 18 78 950 499 12;
#X obj 465 234 sqrt;
#X obj 17 341 *~;
#X obj 227 322 line~;
#X obj 227 349 *~;
#X obj 227 376 *~;
#X msg 227 285 0 \$1;
#X obj 465 261 sqrt;
#X obj 17 113 r trigger;
#X obj 465 180 float \$1;
#X obj 249 235 r duration;
#X obj 39 226 r frequency;
#X obj 227 158 t b b;
#X obj 17 368 throw~ sum;
#X obj 17 140 bng 15 250 50 0 empty empty empty 0 -6 0 8 -262144 -1
-1;
#X msg 465 288 \$1 5;
#X obj 227 185 del 5;
#X obj 465 207 * 0.1;
#X obj 17 279 + \$4;
#X text 469 157 attack;
#X obj 226 211 float \$2;
#X obj 227 258 *;
#X obj 17 200 float \$3;
#X obj 17 252 *;
#X obj 17 314 osc~;
#X text 25 4 parcial -- parcial senoidal para síntese aditiva;
#X text 21 45 Este patch é usado na abstração no exemplo de síntese
aditiva \, D06.additive.pd;
#X text 17 88 gatilho;
#X text 33 175 freqüência relativs;
#X text 280 184 decay apos 5 mseg.;
#X text 303 209 duração relativa;
#X text 264 258 duração atual;
#X text 271 285 decay msg para line~;
#X text 266 350 eleva a quarta potencia para;
#X text 267 368 uma forma mais natural de decay;
#X text 515 292 tempo de ataque 5 milisegundos;
#X text 524 205 normaliza para 0.1;
#X text 515 233 pega a raiz quarta (raiz da raiz quadrada);
#X text 544 250 porqe iremos elevar a saída de line~;
#X text 543 267 a quarta potência;
#X text 20 396 adiciona para o canal;
#X text 19 415 de audio de escopo global;
#X text 631 12 argumentos;
#X text 607 38 1 amplitude \; 2 duração relativa \; 3 freqüência relativa
\; 4 desafinação;
#X text 550 178 pega a amplitude do argumento 1;
#X text 49 252 vezes freq. global;
#X text 60 279 mais desafinação;
#X connect 0 0 6 0;
#X connect 1 0 12 0;
#X connect 2 0 3 0;
#X connect 2 0 3 1;
#X connect 3 0 4 0;
#X connect 3 0 4 1;
#X connect 4 0 1 1;
#X connect 5 0 2 0;
#X connect 6 0 14 0;
#X connect 7 0 13 0;
#X connect 8 0 16 0;
#X connect 9 0 20 1;
#X connect 10 0 22 1;
#X connect 11 0 15 0;
#X connect 11 1 8 0;
#X connect 13 0 11 0;
#X connect 13 0 21 0;
#X connect 14 0 2 0;
#X connect 15 0 19 0;
#X connect 16 0 0 0;
#X connect 17 0 23 0;
#X connect 19 0 20 0;
#X connect 20 0 5 0;
#X connect 21 0 22 0;
#X connect 22 0 17 0;
#X connect 23 0 1 0;
