#N canvas 231 67 705 622 12;
#X obj 278 476 *~;
#X obj 177 604 outlet~;
#X obj 104 396 makefilename sample%d;
#X msg 104 419 set \$1;
#X obj 104 442 tabread4~ sample1;
#X obj 360 419 dbtorms;
#X obj 381 395 unpack;
#X obj 360 442 sqrt;
#X obj 360 465 sqrt;
#X obj 338 559 *~;
#X obj 406 513 *~;
#X obj 406 536 *~;
#X msg 180 41 bang;
#X obj 180 71 delay 5;
#X obj 268 94 unpack 0 0 0 0 0 0 0;
#X obj 405 183 f;
#X obj 346 160 f;
#X obj 288 160 f;
#X obj 257 160 f;
#X obj 226 160 f;
#X obj 135 158 f;
#X obj 135 181 mtof;
#X obj 135 204 / 261.62;
#X obj 135 227 * 4.41e+08;
#X obj 135 250 +;
#X obj 378 160 delay;
#X obj 226 302 pack 0 0 0 0 0;
#X obj 180 94 t b b b;
#X obj 288 206 + 1;
#X obj 288 183 * 44.1;
#X msg 55 338 0 5;
#X msg 289 337 1 5;
#X msg 325 337 0 \, \$1 \$2;
#X msg 128 338 \$3 \, \$4 1e+07;
#X msg 253 337 \$5;
#X msg 405 337 0 \$1;
#X obj 268 71 inlet;
#X obj 177 553 inlet~;
#X obj 177 579 +~;
#X obj 45 396 vline~;
#X obj 301 396 vline~;
#X obj 406 490 vline~;
#X text 44 15 Esta abstração é usada pelo sampler polifônico.;
#X text 460 82 amplitude (dB);
#X text 461 42 ARGUMENTOS PARA AS NOTAS:;
#X text 462 60 pitch em meios tons;
#X text 460 125 número do sample;
#X text 459 163 tempo de elevação (mseg.);
#X text 457 183 tempo de decaimento (mseg.);
#X text 459 146 localização inicial (mseg.);
#X text 461 104 duração (mseg.);
#X connect 0 0 9 0;
#X connect 2 0 3 0;
#X connect 3 0 4 0;
#X connect 4 0 0 0;
#X connect 5 0 7 0;
#X connect 6 0 5 0;
#X connect 6 1 41 1;
#X connect 7 0 8 0;
#X connect 8 0 41 0;
#X connect 9 0 38 1;
#X connect 10 0 11 0;
#X connect 10 0 11 1;
#X connect 11 0 9 1;
#X connect 12 0 13 0;
#X connect 12 0 30 0;
#X connect 13 0 27 0;
#X connect 14 0 20 1;
#X connect 14 0 12 0;
#X connect 14 1 19 1;
#X connect 14 2 25 1;
#X connect 14 3 18 1;
#X connect 14 4 17 1;
#X connect 14 5 16 1;
#X connect 14 6 15 1;
#X connect 15 0 35 0;
#X connect 16 0 26 1;
#X connect 17 0 29 0;
#X connect 18 0 26 4;
#X connect 19 0 26 0;
#X connect 20 0 21 0;
#X connect 21 0 22 0;
#X connect 22 0 23 0;
#X connect 23 0 24 0;
#X connect 24 0 26 3;
#X connect 25 0 15 0;
#X connect 26 0 31 0;
#X connect 26 0 32 0;
#X connect 26 0 33 0;
#X connect 26 0 34 0;
#X connect 27 0 19 0;
#X connect 27 1 20 0;
#X connect 27 2 16 0;
#X connect 27 2 17 0;
#X connect 27 2 18 0;
#X connect 27 2 25 0;
#X connect 28 0 26 2;
#X connect 28 0 24 1;
#X connect 29 0 28 0;
#X connect 30 0 40 0;
#X connect 31 0 40 0;
#X connect 32 0 6 0;
#X connect 33 0 39 0;
#X connect 34 0 2 0;
#X connect 35 0 6 0;
#X connect 36 0 14 0;
#X connect 37 0 38 0;
#X connect 38 0 1 0;
#X connect 39 0 4 0;
#X connect 40 0 0 1;
#X connect 41 0 10 0;
#X connect 41 0 10 1;
