#N canvas 297 101 687 397 10;
#N canvas 351 229 575 360 pool 0;
#X restore 460 31 pd pool;
#X msg 540 209 \; pd dsp 1 \;;
#X msg 606 209 \; pd dsp 0 \;;
#X obj 260 -12 inputs;
#X obj 528 81 cnv 15 100 60 empty empty empty 20 12 0 14 -195568 -66577
0;
#N canvas 147 178 695 459 gemwin 0;
#X obj 144 369 gemwin;
#X obj 67 89 outlet;
#X obj 67 10 inlet;
#X obj 67 41 route create;
#X msg 67 70 set destroy;
#X msg 142 68 set create;
#X msg 198 112 destroy;
#X msg 132 112 create \, 1;
#X msg 291 113 buffer 1;
#X msg 295 138 buffer 2;
#X text 362 116 single buffering;
#X text 362 136 double buffering;
#X msg 287 184 bang;
#X text 334 176 swap the buffers (double buffer mode);
#X text 335 193 clear the buffer (single buffer mode);
#X msg 281 71 color 0 0 0;
#X obj 461 398 gemwin;
#X msg 458 336 create;
#X msg 465 361 destroy;
#X obj 544 351 tgl 30 0 empty empty empty 20 8 0 8 -262144 -1 -1 0
1;
#X obj 385 283 del 100;
#X msg 385 334 1;
#X obj 385 221 r start;
#X msg 552 317 reset;
#X obj 385 249 t b b b;
#X obj 385 307 t b b b;
#X connect 2 0 3 0;
#X connect 3 0 4 0;
#X connect 3 0 7 0;
#X connect 3 1 5 0;
#X connect 3 1 6 0;
#X connect 4 0 1 0;
#X connect 5 0 1 0;
#X connect 6 0 0 0;
#X connect 7 0 0 0;
#X connect 9 0 0 0;
#X connect 12 0 0 0;
#X connect 15 0 0 0;
#X connect 17 0 16 0;
#X connect 18 0 16 0;
#X connect 19 0 16 0;
#X connect 20 0 25 0;
#X connect 21 0 16 0;
#X connect 22 0 24 0;
#X connect 23 0 16 0;
#X connect 24 0 20 0;
#X connect 24 1 23 0;
#X connect 24 2 18 0;
#X connect 25 0 21 0;
#X connect 25 1 17 0;
#X restore 533 120 pd gemwin;
#X msg 533 101 destroy;
#X text 529 80 Create window:;
#N canvas 0 0 646 569 ambiente 0;
#X obj 130 263 t b b;
#X obj 112 129 tgl 15 0 empty empty empty 0 -6 0 8 -262144 -1 -1 1
1;
#X obj 219 267 loadbang;
#X obj 130 500 s mass;
#X obj 230 334 s reset_mass;
#X msg 219 310 bang;
#X obj 177 323 s link;
#X obj 219 366 iAmbient2D mass 0 0 1 1;
#X obj 155 389 iLine2D mass 3.5 -3.5 3.5 3.5 1000 0 0 10;
#X obj 165 413 iLine2D mass -3.5 3.5 -3.5 -3.5 1000 0 0 10;
#X obj 180 436 iLine2D mass 3.5 3.5 -3.5 3.5 1000 0 0 10;
#X obj 191 459 iLine2D mass -3.5 -3.5 3.5 -3.5 1000 0 0 10;
#X floatatom 147 131 5 0 0 0 - - -;
#X obj 113 232 bng 15 250 50 0 empty empty empty 17 7 0 10 -262144
-1 -1;
#X obj 232 494 bng 15 250 50 0 empty empty empty 17 7 0 10 -262144
-1 -1;
#X obj 225 530 iAmbient2D mass 0 0 10 10;
#X obj 130 236 metro 15;
#X text 468 371 <- give random speed when starting the patch;
#X text 468 395 <- right border;
#X text 469 417 <- left border;
#X text 469 439 <- top border;
#X text 469 461 <- bottom border;
#X obj 180 29 loadbang;
#X connect 0 0 3 0;
#X connect 0 1 6 0;
#X connect 0 1 8 0;
#X connect 0 1 9 0;
#X connect 0 1 10 0;
#X connect 0 1 11 0;
#X connect 1 0 16 0;
#X connect 2 0 5 0;
#X connect 5 0 4 0;
#X connect 5 0 7 0;
#X connect 12 0 16 1;
#X connect 13 0 0 0;
#X connect 14 0 15 0;
#X connect 16 0 0 0;
#X connect 22 0 1 0;
#X coords 0 -1 1 1 85 60 1 100 100;
#X restore 71 -7 pd ambiente;
#N canvas 395 186 629 500 videovintagestrip 0;
#X msg 66 152 setXY \$1 \$2;
#X obj 66 5 loadbang;
#X obj 66 127 pack f f;
#X obj 66 29 t b b;
#X obj 283 179 gemhead;
#X obj 87 248 translateXYZ;
#X obj 76 202 unpack s f f;
#X obj 173 7 r reset_mass;
#X msg 77 336 setX \$1 \, setY \$2;
#X obj 66 53 random 20;
#X obj 66 99 / 4;
#X obj 132 52 random 20;
#X obj 132 98 / 4;
#X obj 66 76 - 10;
#X obj 132 74 - 10;
#X obj 42 315 r link;
#X obj 225 275 unpack s f f f;
#X obj 347 384 osc~;
#X obj 347 359 mtof;
#X obj 347 276 loadbang;
#X obj 305 448 *~;
#X obj 304 384 line~;
#X obj 304 334 *;
#X obj 347 303 random 60;
#X msg 304 359 \$1 5;
#X obj 347 334 + 20;
#X obj 87 296 rectangle 1.2 0.9;
#X obj 452 253 unpack 0 0 0;
#X floatatom 442 276 5 0 0 3 length - -;
#X floatatom 491 276 5 0 0 3 width - -;
#X floatatom 541 276 5 0 0 3 height - -;
#X obj 496 234 bng 15 250 50 0 empty empty end_reached 20 7 0 10 -262144
-1 -1;
#X floatatom 478 199 5 0 10000 1 frame# - -;
#X obj 427 217 pix_film;
#X msg 445 151 auto \$1;
#X obj 445 133 tgl 15 0 empty empty empty 0 -6 0 8 -262144 -1 -1 1
1;
#X msg 456 175 colorspace Grey;
#X obj 412 311 pix_texture;
#X obj 197 211 pack f f f;
#X floatatom 256 181 5 0 0 0 - - -;
#X floatatom 224 182 5 0 0 0 - - -;
#X floatatom 190 180 5 0 0 0 - - -;
#X obj 374 76 openpanel;
#X obj 373 96 print;
#X obj 374 52 bng 15 250 50 0 empty empty empty 17 7 0 10 -262144 -1
-1;
#X msg 328 29 open /home/chgp/videos/VintageStriptease.mov;
#X obj 66 362 iCircle2D mass 0 0 1.2 1.8 0 0 1;
#X obj 304 303 * 3;
#X obj 305 478 outlet~;
#X obj 451 96 r startstop;
#X obj 65 178 mass2D mass 140;
#X connect 0 0 50 0;
#X connect 1 0 3 0;
#X connect 1 0 35 0;
#X connect 1 0 45 0;
#X connect 2 0 0 0;
#X connect 3 0 9 0;
#X connect 3 1 11 0;
#X connect 4 0 33 0;
#X connect 5 0 26 0;
#X connect 6 1 5 1;
#X connect 6 2 5 2;
#X connect 7 0 3 0;
#X connect 8 0 46 0;
#X connect 9 0 13 0;
#X connect 10 0 2 0;
#X connect 11 0 14 0;
#X connect 12 0 2 1;
#X connect 13 0 10 0;
#X connect 14 0 12 0;
#X connect 15 0 46 0;
#X connect 16 3 47 0;
#X connect 17 0 20 1;
#X connect 18 0 17 0;
#X connect 19 0 23 0;
#X connect 20 0 48 0;
#X connect 21 0 20 0;
#X connect 22 0 24 0;
#X connect 23 0 25 0;
#X connect 24 0 21 0;
#X connect 25 0 18 0;
#X connect 27 0 28 0;
#X connect 27 1 29 0;
#X connect 27 2 30 0;
#X connect 31 0 45 0;
#X connect 32 0 33 1;
#X connect 33 0 37 0;
#X connect 33 1 27 0;
#X connect 33 2 31 0;
#X connect 34 0 33 0;
#X connect 35 0 34 0;
#X connect 36 0 33 0;
#X connect 37 0 5 0;
#X connect 39 0 38 2;
#X connect 40 0 38 1;
#X connect 41 0 38 0;
#X connect 42 0 43 0;
#X connect 44 0 42 0;
#X connect 45 0 33 0;
#X connect 47 0 22 0;
#X connect 47 0 22 1;
#X connect 49 0 35 0;
#X connect 50 0 6 0;
#X connect 50 0 8 0;
#X connect 50 2 16 0;
#X restore 145 66 pd videovintagestrip;
#N canvas 210 105 736 556 videodixie 0;
#X msg 182 169 setXY \$1 \$2;
#X obj 182 22 loadbang;
#X obj 182 144 pack f f;
#X obj 182 46 t b b;
#X obj 51 152 gemhead;
#X obj 203 265 translateXYZ;
#X obj 192 219 unpack s f f;
#X obj 289 24 r reset_mass;
#X msg 193 353 setX \$1 \, setY \$2;
#X obj 182 70 random 20;
#X obj 182 116 / 4;
#X obj 248 69 random 20;
#X obj 248 115 / 4;
#X obj 182 93 - 10;
#X obj 248 91 - 10;
#X obj 158 332 r link;
#X obj 311 221 unpack s f f f;
#X obj 463 401 osc~;
#X obj 463 376 mtof;
#X obj 463 293 loadbang;
#X obj 421 465 *~;
#X obj 420 401 line~;
#X obj 420 351 *;
#X obj 463 320 random 60;
#X msg 420 376 \$1 5;
#X obj 463 351 + 20;
#X obj 203 313 rectangle 1.2 0.9;
#X obj -101 297 unpack 0 0 0;
#X floatatom -111 320 5 0 0 3 length - -;
#X floatatom -62 320 5 0 0 3 width - -;
#X floatatom -15 318 5 0 0 3 height - -;
#X obj -59 274 bng 15 250 50 0 empty empty end_reached 20 7 0 10 -262144
-1 -1;
#X floatatom -75 243 5 0 10000 1 frame# - -;
#X obj -126 261 pix_film;
#X msg -108 195 auto \$1;
#X obj -108 177 tgl 15 0 empty empty empty 0 -6 0 8 -262144 -1 -1 1
1;
#X obj -141 355 pix_texture;
#X obj -46 175 pack f f f;
#X floatatom 13 145 5 0 0 0 - - -;
#X floatatom -19 146 5 0 0 0 - - -;
#X floatatom -53 144 5 0 0 0 - - -;
#X obj -137 110 openpanel;
#X obj -138 130 print;
#X obj -146 87 bng 15 250 50 0 empty empty empty 17 7 0 10 -262144
-1 -1;
#X msg -138 11 open /home/chgp/videos/dixie_evans_striptease.mov;
#X obj 182 379 iCircle2D mass 0 0 1.2 1.8 0 0 1;
#X obj 420 320 * 3;
#X msg 52 121 set 0;
#X msg 110 122 set 10;
#X floatatom 336 267 5 0 0 0 - - -;
#X floatatom 386 262 5 0 0 0 - - -;
#X floatatom 303 264 5 0 0 0 - - -;
#X obj 69 87 select -0.01 0;
#X obj 421 495 outlet~;
#X obj -69 70 r startstop;
#X obj 182 195 mass2D mass 180;
#X connect 0 0 55 0;
#X connect 1 0 3 0;
#X connect 1 0 35 0;
#X connect 1 0 44 0;
#X connect 2 0 0 0;
#X connect 3 0 9 0;
#X connect 3 1 11 0;
#X connect 4 0 33 0;
#X connect 5 0 26 0;
#X connect 6 1 5 1;
#X connect 6 2 5 2;
#X connect 7 0 3 0;
#X connect 8 0 45 0;
#X connect 9 0 13 0;
#X connect 10 0 2 0;
#X connect 11 0 14 0;
#X connect 12 0 2 1;
#X connect 13 0 10 0;
#X connect 14 0 12 0;
#X connect 15 0 45 0;
#X connect 16 1 51 0;
#X connect 16 2 49 0;
#X connect 16 3 46 0;
#X connect 16 3 50 0;
#X connect 17 0 20 1;
#X connect 18 0 17 0;
#X connect 19 0 23 0;
#X connect 20 0 53 0;
#X connect 21 0 20 0;
#X connect 22 0 24 0;
#X connect 23 0 25 0;
#X connect 24 0 21 0;
#X connect 25 0 18 0;
#X connect 27 0 28 0;
#X connect 27 1 29 0;
#X connect 27 2 30 0;
#X connect 31 0 44 0;
#X connect 32 0 33 1;
#X connect 33 0 36 0;
#X connect 33 1 27 0;
#X connect 33 2 31 0;
#X connect 34 0 33 0;
#X connect 35 0 34 0;
#X connect 36 0 5 0;
#X connect 38 0 37 2;
#X connect 39 0 37 1;
#X connect 40 0 37 0;
#X connect 41 0 42 0;
#X connect 43 0 41 0;
#X connect 44 0 33 0;
#X connect 46 0 22 0;
#X connect 46 0 22 1;
#X connect 47 0 4 0;
#X connect 48 0 4 0;
#X connect 51 0 52 0;
#X connect 52 0 47 0;
#X connect 52 1 48 0;
#X connect 54 0 35 0;
#X connect 55 0 6 0;
#X connect 55 0 8 0;
#X connect 55 2 16 0;
#X restore 284 106 pd videodixie;
#N canvas 135 74 693 484 videoopen 0;
#X msg 66 152 setXY \$1 \$2;
#X obj 66 5 loadbang;
#X obj 66 127 pack f f;
#X obj 66 29 t b b;
#X obj 283 179 gemhead;
#X obj 87 248 translateXYZ;
#X obj 76 202 unpack s f f;
#X obj 173 7 r reset_mass;
#X msg 77 336 setX \$1 \, setY \$2;
#X obj 66 53 random 20;
#X obj 66 99 / 4;
#X obj 132 52 random 20;
#X obj 132 98 / 4;
#X obj 66 76 - 10;
#X obj 132 74 - 10;
#X obj 42 315 r link;
#X obj 225 275 unpack s f f f;
#X obj 347 384 osc~;
#X obj 347 359 mtof;
#X obj 347 276 loadbang;
#X obj 305 448 *~;
#X obj 304 384 line~;
#X obj 304 334 *;
#X obj 347 303 random 60;
#X msg 304 359 \$1 5;
#X obj 304 303 * 1;
#X obj 347 334 + 20;
#X obj 87 296 rectangle 1.2 0.9;
#X obj 232 102 pix_film;
#X obj -103 151 unpack 0 0 0;
#X floatatom -113 174 5 0 0 3 length - -;
#X floatatom -64 174 5 0 0 3 width - -;
#X floatatom -14 174 5 0 0 3 height - -;
#X obj -59 132 bng 15 250 50 0 empty empty end_reached 20 7 0 10 -262144
-1 -1;
#X floatatom -77 97 5 0 10000 1 frame# - -;
#X obj -128 115 pix_film;
#X msg -110 49 auto \$1;
#X obj -110 31 tgl 15 0 empty empty empty 0 -6 0 8 -262144 -1 -1 1
1;
#X msg -99 73 colorspace Grey;
#X obj -143 209 pix_texture;
#X obj 197 211 pack f f f;
#X floatatom 256 181 5 0 0 0 - - -;
#X floatatom 224 182 5 0 0 0 - - -;
#X floatatom 190 180 5 0 0 0 - - -;
#X obj -183 26 openpanel;
#X obj -183 2 bng 15 250 50 0 empty empty empty 17 7 0 10 -262144 -1
-1;
#X obj 66 362 iCircle2D mass 0 0 1.2 1.8 0 0 1;
#X floatatom 305 142 5 0 0 0 - - -;
#X symbolatom -181 58 10 0 0 0 - - -;
#X msg -179 79 open \$1;
#X obj 65 177 mass2D mass 200;
#X obj 305 478 outlet~;
#X obj -81 9 r startstop;
#X connect 0 0 50 0;
#X connect 1 0 3 0;
#X connect 1 0 37 0;
#X connect 2 0 0 0;
#X connect 3 0 9 0;
#X connect 3 1 11 0;
#X connect 4 0 35 0;
#X connect 5 0 27 0;
#X connect 6 1 5 1;
#X connect 6 2 5 2;
#X connect 7 0 3 0;
#X connect 8 0 46 0;
#X connect 9 0 13 0;
#X connect 10 0 2 0;
#X connect 11 0 14 0;
#X connect 12 0 2 1;
#X connect 13 0 10 0;
#X connect 14 0 12 0;
#X connect 15 0 46 0;
#X connect 16 3 25 0;
#X connect 17 0 20 1;
#X connect 18 0 17 0;
#X connect 19 0 23 0;
#X connect 20 0 51 0;
#X connect 21 0 20 0;
#X connect 22 0 24 0;
#X connect 23 0 26 0;
#X connect 24 0 21 0;
#X connect 25 0 22 0;
#X connect 25 0 22 1;
#X connect 26 0 18 0;
#X connect 29 0 30 0;
#X connect 29 1 31 0;
#X connect 29 2 32 0;
#X connect 33 0 48 0;
#X connect 34 0 35 1;
#X connect 35 0 39 0;
#X connect 35 1 29 0;
#X connect 35 2 33 0;
#X connect 36 0 35 0;
#X connect 37 0 36 0;
#X connect 38 0 35 0;
#X connect 39 0 5 0;
#X connect 41 0 40 2;
#X connect 42 0 40 1;
#X connect 43 0 40 0;
#X connect 44 0 48 0;
#X connect 45 0 44 0;
#X connect 48 0 49 0;
#X connect 49 0 35 0;
#X connect 50 0 6 0;
#X connect 50 0 8 0;
#X connect 50 2 16 0;
#X connect 52 0 37 0;
#X restore 287 69 pd videoopen;
#N canvas 147 116 798 535 brownieator 0;
#X msg 185 156 setXY \$1 \$2;
#X obj 185 9 loadbang;
#X obj 185 131 pack f f;
#X obj 185 33 t b b;
#X obj 402 183 gemhead;
#X obj 206 252 translateXYZ;
#X obj 195 206 unpack s f f;
#X obj 292 11 r reset_mass;
#X msg 176 544 setX \$1 \, setY \$2;
#X obj 185 57 random 20;
#X obj 185 103 / 4;
#X obj 251 56 random 20;
#X obj 251 102 / 4;
#X obj 185 80 - 10;
#X obj 251 78 - 10;
#X obj 141 523 r link;
#X obj 397 291 unpack s f f f;
#X obj 519 400 osc~;
#X obj 519 375 mtof;
#X obj 519 292 loadbang;
#X obj 477 464 *~;
#X obj 476 400 line~;
#X obj 476 350 *;
#X obj 519 319 random 60;
#X msg 476 375 \$1 5;
#X obj 519 350 + 20;
#X obj 188 492 rectangle 1.2 0.9;
#X obj 351 106 pix_film;
#X obj 722 217 unpack 0 0 0;
#X floatatom 712 240 5 0 0 3 length - -;
#X floatatom 761 240 5 0 0 3 width - -;
#X floatatom 811 240 5 0 0 3 height - -;
#X obj 766 198 bng 15 250 50 0 empty empty end_reached 20 7 0 10 -262144
-1 -1;
#X floatatom 748 163 5 0 10000 1 frame# - -;
#X obj 697 181 pix_film;
#X msg 715 115 auto \$1;
#X obj 715 97 tgl 15 0 empty empty empty 0 -6 0 8 -262144 -1 -1 1 1
;
#X msg 726 139 colorspace Grey;
#X obj 682 275 pix_texture;
#X obj 316 215 pack f f f;
#X floatatom 375 185 5 0 0 0 - - -;
#X floatatom 343 186 5 0 0 0 - - -;
#X floatatom 309 184 5 0 0 0 - - -;
#X obj 644 40 openpanel;
#X obj 644 16 bng 15 250 50 0 empty empty empty 17 7 0 10 -262144 -1
-1;
#X obj 165 570 iCircle2D mass 0 0 1.2 1.8 0 0 1;
#X floatatom 424 146 5 0 0 0 - - -;
#X symbolatom 644 124 10 0 0 0 - - -;
#X msg 646 145 open \$1;
#X obj 184 181 mass2D mass 200;
#X floatatom 324 130 5 0 0 0 - - -;
#X obj 476 319 * 2;
#X floatatom 236 464 5 0 8 0 - - -;
#X floatatom 305 481 5 0 8 0 - - -;
#X text 254 439 resize;
#X floatatom 229 276 5 0 0 0 - - -;
#X obj 42 92 tgl 15 0 empty empty empty 17 7 0 10 -262144 -1 -1 0 1
;
#X obj 46 189 line;
#X obj 32 231 hsl 128 15 0 5 0 0 empty empty empty -2 -8 0 10 -262144
-1 -1 0 1;
#X obj 42 112 metro 500;
#X msg 48 153 \$1 500;
#X obj 284 457 / 1.3;
#X msg 535 85 set 200;
#X msg 542 120 set 200;
#X obj 53 133 random 4;
#X floatatom 385 334 5 0 0 0 - - -;
#X floatatom 401 370 5 0 0 0 - - -;
#X floatatom 421 401 5 0 0 0 - - -;
#X obj 383 397 *;
#X obj 194 380 rotate 0.1 0 1 0;
#X floatatom 234 350 5 0 0 0 - - -;
#X floatatom 251 294 5 0 0 0 - - -;
#X obj 211 323 rotate 0.1 1 1 0;
#X obj 477 494 outlet~;
#X connect 0 0 49 0;
#X connect 1 0 3 0;
#X connect 1 0 36 0;
#X connect 2 0 0 0;
#X connect 3 0 9 0;
#X connect 3 1 11 0;
#X connect 4 0 34 0;
#X connect 5 0 72 0;
#X connect 6 1 5 1;
#X connect 6 2 5 2;
#X connect 7 0 3 0;
#X connect 8 0 45 0;
#X connect 9 0 13 0;
#X connect 10 0 2 0;
#X connect 11 0 14 0;
#X connect 12 0 2 1;
#X connect 13 0 10 0;
#X connect 14 0 12 0;
#X connect 15 0 45 0;
#X connect 16 1 65 0;
#X connect 16 2 66 0;
#X connect 16 3 51 0;
#X connect 16 3 67 0;
#X connect 17 0 20 1;
#X connect 18 0 17 0;
#X connect 19 0 23 0;
#X connect 20 0 73 0;
#X connect 21 0 20 0;
#X connect 22 0 24 0;
#X connect 23 0 25 0;
#X connect 24 0 21 0;
#X connect 25 0 18 0;
#X connect 28 0 29 0;
#X connect 28 1 30 0;
#X connect 28 2 31 0;
#X connect 32 0 47 0;
#X connect 33 0 34 1;
#X connect 34 0 38 0;
#X connect 34 1 28 0;
#X connect 34 2 32 0;
#X connect 35 0 34 0;
#X connect 36 0 35 0;
#X connect 37 0 34 0;
#X connect 38 0 5 0;
#X connect 40 0 39 2;
#X connect 41 0 39 1;
#X connect 42 0 39 0;
#X connect 43 0 47 0;
#X connect 44 0 43 0;
#X connect 47 0 48 0;
#X connect 48 0 34 0;
#X connect 49 0 6 0;
#X connect 49 0 8 0;
#X connect 49 2 16 0;
#X connect 51 0 22 0;
#X connect 51 0 22 1;
#X connect 52 0 26 1;
#X connect 52 0 61 0;
#X connect 53 0 26 2;
#X connect 56 0 59 0;
#X connect 57 0 58 0;
#X connect 58 0 71 0;
#X connect 59 0 64 0;
#X connect 60 0 57 0;
#X connect 61 0 53 0;
#X connect 64 0 60 0;
#X connect 69 0 26 0;
#X connect 70 0 69 1;
#X connect 71 0 72 1;
#X connect 72 0 69 0;
#X restore 157 109 pd brownieator;
#N canvas 206 27 766 611 videomouse 0;
#X msg 122 203 setXY \$1 \$2;
#X obj 122 18 loadbang;
#X obj 122 178 pack f f;
#X obj 122 42 t b b;
#X obj -209 104 gemhead;
#X obj 144 373 translateXYZ;
#X obj 132 253 unpack s f f;
#X obj 229 20 r reset_mass;
#X msg 134 461 setX \$1 \, setY \$2;
#X obj 122 66 random 20;
#X obj 122 112 / 4;
#X obj 188 65 random 20;
#X obj 188 111 / 4;
#X obj 122 89 - 10;
#X obj 188 87 - 10;
#X obj 99 440 r link;
#X obj 282 400 unpack s f f f;
#X obj 404 509 osc~;
#X obj 404 484 mtof;
#X obj 404 401 loadbang;
#X obj 362 573 *~;
#X obj 361 509 line~;
#X obj 361 459 *;
#X obj 404 428 random 60;
#X msg 361 484 \$1 5;
#X obj 361 428 * 1;
#X obj 404 459 + 20;
#X obj 144 421 rectangle 1.2 0.9;
#X obj -73 180 unpack 0 0 0;
#X floatatom -83 203 5 0 0 3 length - -;
#X floatatom -34 203 5 0 0 3 width - -;
#X floatatom 16 203 5 0 0 3 height - -;
#X obj -29 161 bng 15 250 50 0 empty empty end_reached 20 7 0 10 -262144
-1 -1;
#X floatatom -47 126 5 0 10000 1 frame# - -;
#X obj -98 144 pix_film;
#X msg -80 78 auto \$1;
#X obj -80 60 tgl 15 0 empty empty empty 0 -6 0 8 -262144 -1 -1 1 1
;
#X msg -69 102 colorspace Grey;
#X obj -113 238 pix_texture;
#X obj -153 55 openpanel;
#X obj -153 31 bng 15 250 50 0 empty empty empty 17 7 0 10 -262144
-1 -1;
#X obj 123 487 iCircle2D mass 0 0 1.2 1.8 0 0 1;
#X symbolatom -151 87 10 0 0 0 - - -;
#X msg -149 108 open \$1;
#X obj 121 228 mass2D mass 200;
#X obj 362 603 outlet~;
#X msg -123 20 open /home/chgp/videos/strip-timid.mov;
#X obj -1 56 r startstop;
#X obj 311 307 r mousey;
#X obj 246 314 r mousex;
#X obj 291 226 r mouseb;
#X obj 240 258 spigot 0;
#X obj 304 262 spigot 0;
#X connect 0 0 44 0;
#X connect 1 0 3 0;
#X connect 1 0 36 0;
#X connect 1 0 46 0;
#X connect 2 0 0 0;
#X connect 3 0 9 0;
#X connect 3 1 11 0;
#X connect 4 0 34 0;
#X connect 5 0 27 0;
#X connect 6 1 51 0;
#X connect 6 2 52 0;
#X connect 7 0 3 0;
#X connect 8 0 41 0;
#X connect 9 0 13 0;
#X connect 10 0 2 0;
#X connect 11 0 14 0;
#X connect 12 0 2 1;
#X connect 13 0 10 0;
#X connect 14 0 12 0;
#X connect 15 0 41 0;
#X connect 16 3 25 0;
#X connect 17 0 20 1;
#X connect 18 0 17 0;
#X connect 19 0 23 0;
#X connect 20 0 45 0;
#X connect 21 0 20 0;
#X connect 22 0 24 0;
#X connect 23 0 26 0;
#X connect 24 0 21 0;
#X connect 25 0 22 0;
#X connect 25 0 22 1;
#X connect 26 0 18 0;
#X connect 28 0 29 0;
#X connect 28 1 30 0;
#X connect 28 2 31 0;
#X connect 32 0 42 0;
#X connect 33 0 34 1;
#X connect 34 0 38 0;
#X connect 34 1 28 0;
#X connect 34 2 32 0;
#X connect 35 0 34 0;
#X connect 36 0 35 0;
#X connect 37 0 34 0;
#X connect 38 0 5 0;
#X connect 39 0 42 0;
#X connect 40 0 39 0;
#X connect 42 0 43 0;
#X connect 43 0 34 0;
#X connect 44 0 6 0;
#X connect 44 0 8 0;
#X connect 44 2 16 0;
#X connect 46 0 34 0;
#X connect 47 0 36 0;
#X connect 48 0 5 2;
#X connect 49 0 5 1;
#X connect 50 0 51 1;
#X connect 50 0 52 1;
#X restore 128 167 pd videomouse;
#X obj 341 6 s startstop;
#X obj 346 -13 tgl 15 0 empty empty empty 17 7 0 10 -262144 -1 -1 0
1;
#N canvas 324 182 629 500 peepingtoms 0;
#X msg 66 152 setXY \$1 \$2;
#X obj 66 5 loadbang;
#X obj 66 127 pack f f;
#X obj 66 29 t b b;
#X obj 283 179 gemhead;
#X obj 87 248 translateXYZ;
#X obj 76 202 unpack s f f;
#X obj 173 7 r reset_mass;
#X msg 77 336 setX \$1 \, setY \$2;
#X obj 66 53 random 20;
#X obj 66 99 / 4;
#X obj 132 52 random 20;
#X obj 132 98 / 4;
#X obj 66 76 - 10;
#X obj 132 74 - 10;
#X obj 42 315 r link;
#X obj 226 256 unpack s f f f;
#X obj 347 384 osc~;
#X obj 347 359 mtof;
#X obj 347 276 loadbang;
#X obj 305 448 *~;
#X obj 304 384 line~;
#X obj 304 334 *;
#X obj 347 303 random 60;
#X msg 304 359 \$1 5;
#X obj 347 334 + 20;
#X obj 452 253 unpack 0 0 0;
#X floatatom 442 276 5 0 0 3 length - -;
#X floatatom 491 276 5 0 0 3 width - -;
#X floatatom 541 276 5 0 0 3 height - -;
#X obj 496 234 bng 15 250 50 0 empty empty end_reached 20 7 0 10 -262144
-1 -1;
#X floatatom 478 199 5 0 10000 1 frame# - -;
#X obj 427 217 pix_film;
#X msg 445 151 auto \$1;
#X obj 445 133 tgl 15 0 empty empty empty 0 -6 0 8 -262144 -1 -1 1
1;
#X msg 456 175 colorspace Grey;
#X msg 328 29 open /home/chgp/videos/peepingtoms.mov;
#X obj 412 311 pix_texture;
#X obj 197 211 pack f f f;
#X floatatom 256 181 5 0 0 0 - - -;
#X floatatom 224 182 5 0 0 0 - - -;
#X floatatom 190 180 5 0 0 0 - - -;
#X obj 66 362 iCircle2D mass 0 0 1.2 1.8 0 0 1;
#X obj 140 273 r sx1;
#X obj 180 276 r sy1;
#X obj 304 303 * 2;
#X floatatom 224 329 5 0 0 0 - - -;
#X floatatom 260 332 5 0 0 0 - - -;
#X floatatom 188 334 5 0 0 0 - - -;
#X obj 307 474 outlet~;
#X obj 449 90 r startstop;
#X obj 65 178 mass2D mass 130;
#X obj 88 301 sphere 1.2 0.9;
#X connect 0 0 51 0;
#X connect 1 0 3 0;
#X connect 1 0 34 0;
#X connect 1 0 36 0;
#X connect 2 0 0 0;
#X connect 3 0 9 0;
#X connect 3 1 11 0;
#X connect 4 0 32 0;
#X connect 5 0 52 0;
#X connect 6 1 5 1;
#X connect 6 2 5 2;
#X connect 7 0 3 0;
#X connect 8 0 42 0;
#X connect 9 0 13 0;
#X connect 10 0 2 0;
#X connect 11 0 14 0;
#X connect 12 0 2 1;
#X connect 13 0 10 0;
#X connect 14 0 12 0;
#X connect 15 0 42 0;
#X connect 16 1 48 0;
#X connect 16 2 46 0;
#X connect 16 3 45 0;
#X connect 16 3 47 0;
#X connect 17 0 20 1;
#X connect 18 0 17 0;
#X connect 19 0 23 0;
#X connect 20 0 49 0;
#X connect 21 0 20 0;
#X connect 22 0 24 0;
#X connect 23 0 25 0;
#X connect 24 0 21 0;
#X connect 25 0 18 0;
#X connect 26 0 27 0;
#X connect 26 1 28 0;
#X connect 26 2 29 0;
#X connect 30 0 36 0;
#X connect 31 0 32 1;
#X connect 32 0 37 0;
#X connect 32 1 26 0;
#X connect 32 2 30 0;
#X connect 33 0 32 0;
#X connect 34 0 33 0;
#X connect 35 0 32 0;
#X connect 36 0 32 0;
#X connect 37 0 5 0;
#X connect 39 0 38 2;
#X connect 40 0 38 1;
#X connect 41 0 38 0;
#X connect 43 0 52 1;
#X connect 44 0 52 2;
#X connect 45 0 22 0;
#X connect 45 0 22 1;
#X connect 50 0 34 0;
#X connect 51 0 6 0;
#X connect 51 0 8 0;
#X connect 51 2 16 0;
#X restore 50 65 pd peepingtoms;
#X obj 283 257 gem_video;
#X connect 5 0 6 0;
#X connect 6 0 5 0;
#X connect 15 0 14 0;
