#N canvas 225 113 623 455 10;
#X obj 299 319 moog~;
#X obj 291 397 dac~;
#X floatatom 339 272 5 0 0 0 - - -;
#X floatatom 296 213 5 0 0 0 - - -;
#X floatatom 88 252 5 0 0 0 - - -;
#X obj 351 346 env~;
#X floatatom 351 366 5 0 0 0 - - -;
#X obj 299 366 *~ 0.1;
#X msg 295 272 reset;
#X obj 229 214 +~ 1;
#X floatatom 229 172 5 0 0 0 - - -;
#X floatatom 293 237 5 0 0 0 - - -;
#X obj 229 255 +~ 100;
#X obj 229 193 osc~ 0.25;
#X obj 229 234 *~ 2000;
#X obj 339 291 sig~ 3;
#X obj 88 278 phasor~ 110;
#X obj 82 151 notein;
#X floatatom 88 205 5 0 0 0 - - -;
#X obj 92 186 mtof;
#X floatatom 168 274 5 0 0 0 - - -;
#X obj 174 320 autoscale 0 1;
#X floatatom 138 159 5 0 0 0 - - -;
#X obj 313 148 ctlin 93;
#X obj 339 248 autoscale 1 4;
#X obj 341 222 ctlin 7;
#X obj 314 168 autoscale 1 3000;
#X obj 228 122 ctlin 91;
#X obj 229 148 autoscale 0 20;
#X obj 51 22 umx25;
#X connect 0 0 5 0;
#X connect 0 0 7 0;
#X connect 2 0 15 0;
#X connect 3 0 14 1;
#X connect 4 0 16 0;
#X connect 5 0 6 0;
#X connect 7 0 1 0;
#X connect 7 0 1 1;
#X connect 8 0 0 0;
#X connect 9 0 14 0;
#X connect 10 0 13 0;
#X connect 11 0 12 1;
#X connect 12 0 0 1;
#X connect 13 0 9 0;
#X connect 14 0 12 0;
#X connect 15 0 0 2;
#X connect 16 0 0 0;
#X connect 17 0 19 0;
#X connect 17 1 20 0;
#X connect 17 2 22 0;
#X connect 18 0 4 0;
#X connect 19 0 18 0;
#X connect 20 0 21 0;
#X connect 21 0 7 1;
#X connect 23 0 26 0;
#X connect 24 0 2 0;
#X connect 25 0 24 0;
#X connect 26 0 3 0;
#X connect 27 0 28 0;
#X connect 28 0 10 0;
