#N canvas 129 35 766 565 10;
#X msg 61 514 open \$1;
#X obj 71 473 openpanel;
#X obj 128 104 bng 12 250 50 0 \$0-file empty open -24 8 0 8 -262144
-1 -1;
#X floatatom 98 566 5 0 0 0 - - -;
#X floatatom 122 624 5 0 0 0 - - -;
#X text 161 600 Number of frames decoded;
#X text 162 620 Total number of frames;
#X text 220 476 Frame command;
#X obj 170 504 t b f;
#X floatatom 158 640 5 0 0 0 - - -;
#X text 207 640 Frame rate;
#X obj 77 535 pdp_yqt ----------;
#X obj 451 491 counter;
#X obj 154 363 tgl 15 0 empty empty empty 0 -6 0 8 -262144 -1 -1 1
1;
#X floatatom 384 515 10 0 0 0 - - -;
#X text 453 509 number of bangs;
#X text 494 383 change direction;
#X text 107 371 start;
#X obj 484 411 bng 15 250 50 0 empty empty empty 0 -6 0 8 -262144 -1
-1;
#X text 507 413 reset to minimum \, wait for next bang before output
;
#X obj 495 437 bng 15 250 50 0 empty empty empty 0 -6 0 8 -262144 -1
-1;
#X text 519 438 reset and output imediately;
#X floatatom 215 373 5 0 0 0 - - -;
#X obj 506 460 bng 15 250 50 0 empty empty empty 0 -6 0 8 -262144 -1
-1;
#X obj 383 482 counter;
#X msg 343 394 jam \$1;
#X obj 401 120 hradio 15 1 0 3 \$0-direction empty loop:prog|regr|pingpong
-140 8 0 10 -262144 -1 -1 0;
#X floatatom 187 331 5 0 0 0 - - -;
#X obj 166 287 r \$0-direction;
#X obj 151 900 prepend range 0;
#X obj 152 921 s \$0-r-max;
#X obj 152 942 s \$0-r-min;
#X obj 152 962 s \$0-r-scratch;
#X obj 151 873 r \$0-total_frames;
#X obj 88 817 loadbang;
#X obj 85 894 t f f f;
#X obj 88 846 t b b;
#X msg 115 866 1;
#X msg 84 867 0;
#X obj 77 788 r \$0-reset;
#X obj 158 849 s \$0-r-play;
#X msg 158 826 color 13 13 0;
#X obj 146 155 hsl 400 15 0 3753 0 0 \$0-s-max \$0-r-max empty -2 -8
0 10 -262144 -1 -1 39900 1;
#X obj 107 158 tgl 30 0 \$0-s-play \$0-r-play >/|| 2 14 0 11 -24198
-24198 -262144 1 1;
#X obj 107 124 bng 30 250 50 0 \$0-s-cue empty cue 3 14 0 14 -260097
-1 -262144;
#X obj 146 137 hsl 400 15 0 3753 0 0 \$0-s-min \$0-r-min empty -2 -8
0 10 -262144 -1 -1 0 1;
#X obj 395 541 s \$0-r-scratch;
#X obj 63 406 r \$0-file;
#X obj 101 324 r \$0-s-play;
#X obj 320 881 select 1;
#X msg 320 904 16 16 0;
#X msg 365 927 13 13 0;
#X obj 320 946 prepend color;
#X obj 320 969 s \$0-r-play;
#X obj 320 858 r \$0-s-play;
#X text 326 839 color play;
#X obj 121 692 s \$0-total_frames;
#X obj 472 226 r \$0-s-max;
#X obj 594 505 r \$0-s-min;
#X obj 402 568 bng 15 250 50 0 empty empty empty 17 7 0 10 -262144
-1 -1;
#X obj 425 570 bng 15 250 50 0 empty empty empty 17 7 0 10 -262144
-1 -1;
#X obj 447 570 bng 15 250 50 0 empty empty empty 17 7 0 10 -262144
-1 -1;
#X obj 376 209 r \$0-s-min;
#X obj 379 235 int;
#X floatatom 343 370 5 0 0 0 - - -;
#X obj 604 530 int;
#X msg 396 383 min \$1;
#X msg 444 382 max \$1;
#X floatatom 396 362 5 0 0 0 - - -;
#X floatatom 444 361 5 0 0 0 - - -;
#X obj 473 248 int;
#X obj 613 352 r \$0-s-cue;
#X obj 486 120 nbx 5 14 -1e+37 1e+37 0 0 \$0-s-framerate \$0-r-framerate
FPS 0 -8 0 12 -260097 -1 -1 4 256;
#X obj 145 173 hsl 400 15 0 3753 0 0 \$0-s-scratch \$0-r-scratch empty
-2 -8 0 10 -260097 -262144 -262144 1265 0;
#X obj 457 108 knob 24 24 100 1 0 0 s-tempo r-tempo empty 0 -8 192
8 -260097 -4034 -1 0 1;
#X obj 124 730 s \$0-r-max;
#X obj 268 320 int;
#X obj 400 280 select;
#X obj 487 288 select;
#X obj 566 632 int;
#X floatatom 561 658 5 0 0 0 - - -;
#X floatatom 561 676 5 0 0 0 - - -;
#X floatatom 591 600 5 0 0 0 - - -;
#X obj 560 602 bng 15 250 50 0 empty empty empty 17 7 0 10 -262144
-1 -1;
#X obj 78 644 outlet;
#X floatatom 514 262 5 0 0 0 - - -;
#X msg 424 315 0;
#X obj 421 339 s \$0-s-play;
#X symbolatom 144 103 50 0 0 0 - #0-r-file -;
#X obj 157 394 metro 30;
#X obj 431 619 s \$0-r-rmax;
#X obj 404 641 s \$0-r-rmin;
#X obj 459 595 s \$0-r-loops;
#X obj 44 220 loadbang;
#X obj 55 244 s \$0-reset;
#X msg 71 449 symbol /home/chgp/videos;
#X floatatom 484 175 10 0 0 0 frame #0-frame -;
#X obj 268 291 r s-tempo;
#X obj 85 494 s \$0-r-file;
#X obj 81 428 s \$0-reset;
#X floatatom 516 103 5 0 0 0 - #0-r-loops -;
#X obj 159 660 s \$0-r-framerate;
#X obj 333 685 t b b b b b b b b;
#X floatatom 333 785 5 0 0 0 - - -;
#X obj 336 659 bng 15 250 50 0 empty empty empty 17 7 0 10 -262144
-1 -1;
#X msg 574 757 50;
#X obj 582 724 delay 0;
#X obj 509 723 delay 1000;
#X msg 511 755 1000;
#X obj 432 722 delay 2000;
#X obj 358 721 delay 3000;
#X msg 423 755 2000;
#X obj 334 811 s \$0-r-min;
#X obj 591 789 bng 15 250 50 0 empty empty empty 17 7 0 10 -262144
-1 -1;
#X obj 517 795 bng 15 250 50 0 empty empty empty 17 7 0 10 -262144
-1 -1;
#X obj 433 795 bng 15 250 50 0 empty empty empty 17 7 0 10 -262144
-1 -1;
#X obj 384 792 bng 15 250 50 0 empty empty empty 17 7 0 10 -262144
-1 -1;
#X obj 284 788 bng 15 250 50 0 empty empty empty 17 7 0 10 -262144
-1 -1;
#X obj 282 722 delay 4000;
#X msg 298 751 2800;
#X msg 361 752 1500;
#X obj 172 571 outlet~;
#X obj 236 578 outlet~;
#X connect 0 0 11 0;
#X connect 1 0 0 0;
#X connect 1 0 98 0;
#X connect 4 0 56 0;
#X connect 4 0 75 0;
#X connect 8 0 11 0;
#X connect 8 1 11 1;
#X connect 9 0 101 0;
#X connect 11 0 84 0;
#X connect 11 1 3 0;
#X connect 11 2 4 0;
#X connect 11 3 9 0;
#X connect 11 4 121 0;
#X connect 11 5 122 0;
#X connect 13 0 89 0;
#X connect 14 0 8 0;
#X connect 14 0 46 0;
#X connect 18 0 24 2;
#X connect 20 0 24 3;
#X connect 22 0 89 1;
#X connect 23 0 24 4;
#X connect 24 0 14 0;
#X connect 24 1 59 0;
#X connect 24 1 91 0;
#X connect 24 2 60 0;
#X connect 24 2 90 0;
#X connect 24 3 61 0;
#X connect 24 3 92 0;
#X connect 25 0 24 0;
#X connect 27 0 24 1;
#X connect 28 0 27 0;
#X connect 29 0 30 0;
#X connect 29 0 31 0;
#X connect 29 0 32 0;
#X connect 33 0 29 0;
#X connect 34 0 36 0;
#X connect 34 0 41 0;
#X connect 35 0 32 0;
#X connect 35 1 31 0;
#X connect 35 2 30 0;
#X connect 36 0 38 0;
#X connect 36 1 37 0;
#X connect 37 0 29 0;
#X connect 38 0 35 0;
#X connect 39 0 38 0;
#X connect 39 0 41 0;
#X connect 41 0 40 0;
#X connect 47 0 95 0;
#X connect 47 0 99 0;
#X connect 48 0 13 0;
#X connect 49 0 50 0;
#X connect 49 1 51 0;
#X connect 50 0 52 0;
#X connect 51 0 52 0;
#X connect 52 0 53 0;
#X connect 54 0 49 0;
#X connect 57 0 70 0;
#X connect 58 0 65 0;
#X connect 62 0 63 0;
#X connect 63 0 64 0;
#X connect 63 0 77 0;
#X connect 63 0 78 1;
#X connect 63 0 68 0;
#X connect 64 0 25 0;
#X connect 66 0 24 0;
#X connect 67 0 24 0;
#X connect 68 0 66 0;
#X connect 69 0 67 0;
#X connect 70 0 69 0;
#X connect 70 0 77 1;
#X connect 70 0 78 0;
#X connect 70 0 85 0;
#X connect 71 0 18 0;
#X connect 76 0 22 0;
#X connect 77 0 86 0;
#X connect 78 0 86 0;
#X connect 79 0 80 0;
#X connect 80 0 81 0;
#X connect 82 0 79 1;
#X connect 83 0 79 0;
#X connect 86 0 87 0;
#X connect 89 0 24 0;
#X connect 93 0 94 0;
#X connect 95 0 1 0;
#X connect 97 0 76 0;
#X connect 102 0 118 0;
#X connect 102 1 110 0;
#X connect 102 2 109 0;
#X connect 102 3 107 0;
#X connect 102 4 106 0;
#X connect 103 0 112 0;
#X connect 104 0 102 0;
#X connect 105 0 103 0;
#X connect 106 0 105 0;
#X connect 106 0 113 0;
#X connect 107 0 108 0;
#X connect 107 0 114 0;
#X connect 108 0 103 0;
#X connect 109 0 111 0;
#X connect 109 0 115 0;
#X connect 110 0 120 0;
#X connect 110 0 116 0;
#X connect 111 0 103 0;
#X connect 118 0 119 0;
#X connect 118 0 117 0;
#X connect 119 0 103 0;
#X connect 120 0 103 0;
#X coords 0 -1 1 1 450 90 2 100 100;
