#N canvas 40 29 913 572 10;
#X obj 360 203 bng 15 250 50 0 empty empty empty 0 -6 0 8 -262144 -1
-1;
#X obj 391 199 bng 15 250 50 0 empty empty empty 0 -6 0 8 -262144 -1
-1;
#X obj 422 206 bng 15 250 50 0 empty empty empty 0 -6 0 8 -262144 -1
-1;
#X obj 448 207 bng 15 250 50 0 empty empty empty 0 -6 0 8 -262144 -1
-1;
#X obj 476 208 bng 15 250 50 0 empty empty empty 0 -6 0 8 -262144 -1
-1;
#X obj 503 208 bng 15 250 50 0 empty empty empty 0 -6 0 8 -262144 -1
-1;
#X obj 531 204 bng 15 250 50 0 empty empty empty 0 -6 0 8 -262144 -1
-1;
#X obj 562 209 bng 15 250 50 0 empty empty empty 0 -6 0 8 -262144 -1
-1;
#X obj 592 212 bng 15 250 50 0 empty empty empty 0 -6 0 8 -262144 -1
-1;
#X obj 617 209 bng 15 250 50 0 empty empty empty 0 -6 0 8 -262144 -1
-1;
#X obj 652 208 bng 15 250 50 0 empty empty empty 0 -6 0 8 -262144 -1
-1;
#X obj 675 205 bng 15 250 50 0 empty empty empty 0 -6 0 8 -262144 -1
-1;
#X obj 706 205 bng 15 250 50 0 empty empty empty 0 -6 0 8 -262144 -1
-1;
#X obj 733 206 bng 15 250 50 0 empty empty empty 0 -6 0 8 -262144 -1
-1;
#X obj 762 208 bng 15 250 50 0 empty empty empty 0 -6 0 8 -262144 -1
-1;
#X obj 554 433 fluid~;
#X obj 551 527 dac~;
#X msg 310 224 60;
#X msg 358 227 62;
#X obj 399 346 pack 0 0;
#X msg 420 432 note 1 \$1 \$2;
#X obj 399 374 poly 8 1;
#X msg 394 230 64;
#X msg 429 229 65;
#X msg 464 232 67;
#X msg 500 230 69;
#X msg 533 231 71;
#X obj 388 308 makenote 127 500;
#X msg 568 233 72;
#X msg 610 233 74;
#X msg 644 232 76;
#X msg 678 230 77;
#X msg 720 231 79;
#X msg 763 231 81;
#X msg 800 232 83;
#X msg 834 231 84;
#X obj 424 401 pack 0 0;
#X obj 460 57 select 122 60 97 44 99 100 56 105 101 107;
#X obj 459 88 bng 15 250 50 0 empty empty empty 0 -6 0 8 -262144 -1
-1;
#X obj 488 88 bng 15 250 50 0 empty empty empty 0 -6 0 8 -262144 -1
-1;
#X obj 519 87 bng 15 250 50 0 empty empty empty 0 -6 0 8 -262144 -1
-1;
#X obj 550 88 bng 15 250 50 0 empty empty empty 0 -6 0 8 -262144 -1
-1;
#X obj 576 90 bng 15 250 50 0 empty empty empty 0 -6 0 8 -262144 -1
-1;
#X obj 606 93 bng 15 250 50 0 empty empty empty 0 -6 0 8 -262144 -1
-1;
#X obj 633 94 bng 15 250 50 0 empty empty empty 0 -6 0 8 -262144 -1
-1;
#X obj 659 93 bng 15 250 50 0 empty empty empty 0 -6 0 8 -262144 -1
-1;
#X obj 691 96 bng 15 250 50 0 empty empty empty 0 -6 0 8 -262144 -1
-1;
#X obj 720 99 bng 15 250 50 0 empty empty empty 0 -6 0 8 -262144 -1
-1;
#X msg 432 117 61;
#X msg 469 120 63;
#X msg 506 121 66;
#X msg 540 120 68;
#X msg 574 121 70;
#X msg 605 122 73;
#X msg 636 124 75;
#X msg 669 123 78;
#X msg 697 123 80;
#X msg 734 123 82;
#X obj 366 47 key;
#X obj 542 479 *~;
#X obj 623 445 hsl 100 15 0 1 0 0 empty empty empty -2 -6 0 8 -262144
-1 -1 0 1;
#X obj 593 486 *~;
#X floatatom 366 85 5 0 0 0 - - -;
#X obj 366 167 select 117 121 55 106 110 109 52 102 116 114 53 103
118 98 51;
#X obj 172 397 random 127;
#X obj 172 343 tgl 15 0 empty empty empty 0 -6 0 8 -262144 -1 -1 0
1;
#X obj 172 366 metro 300;
#X floatatom 172 422 5 0 0 0 - - -;
#X text 36 486 patch para o pianao metarec construido na oficina de
conhecimentos livres de vassouras em 2006 e' necessario um arquivo
soundfont com nome de piano.sf2 no mesmo diretorio deste patch;
#X text 652 424 volume;
#X text 670 381 carrega soundfont;
#X connect 0 0 17 0;
#X connect 1 0 18 0;
#X connect 2 0 22 0;
#X connect 3 0 23 0;
#X connect 4 0 24 0;
#X connect 5 0 25 0;
#X connect 6 0 26 0;
#X connect 7 0 28 0;
#X connect 8 0 29 0;
#X connect 9 0 30 0;
#X connect 10 0 31 0;
#X connect 11 0 32 0;
#X connect 12 0 33 0;
#X connect 13 0 34 0;
#X connect 14 0 35 0;
#X connect 15 0 59 0;
#X connect 15 1 61 0;
#X connect 17 0 27 0;
#X connect 18 0 27 0;
#X connect 19 0 21 0;
#X connect 20 0 15 0;
#X connect 21 1 36 0;
#X connect 21 2 36 1;
#X connect 22 0 27 0;
#X connect 23 0 27 0;
#X connect 24 0 27 0;
#X connect 25 0 27 0;
#X connect 26 0 27 0;
#X connect 27 0 19 0;
#X connect 27 1 19 1;
#X connect 28 0 27 0;
#X connect 29 0 27 0;
#X connect 30 0 27 0;
#X connect 31 0 27 0;
#X connect 32 0 27 0;
#X connect 33 0 27 0;
#X connect 34 0 27 0;
#X connect 35 0 27 0;
#X connect 36 0 20 0;
#X connect 37 0 38 0;
#X connect 37 1 39 0;
#X connect 37 2 40 0;
#X connect 37 3 41 0;
#X connect 37 4 42 0;
#X connect 37 5 43 0;
#X connect 37 6 44 0;
#X connect 37 7 45 0;
#X connect 37 8 46 0;
#X connect 37 9 47 0;
#X connect 38 0 48 0;
#X connect 39 0 49 0;
#X connect 40 0 50 0;
#X connect 41 0 51 0;
#X connect 42 0 52 0;
#X connect 43 0 53 0;
#X connect 44 0 54 0;
#X connect 45 0 55 0;
#X connect 46 0 56 0;
#X connect 47 0 57 0;
#X connect 48 0 27 0;
#X connect 49 0 27 0;
#X connect 50 0 27 0;
#X connect 51 0 27 0;
#X connect 52 0 27 0;
#X connect 53 0 27 0;
#X connect 54 0 27 0;
#X connect 55 0 27 0;
#X connect 56 0 27 0;
#X connect 57 0 27 0;
#X connect 58 0 62 0;
#X connect 58 0 63 0;
#X connect 58 0 37 0;
#X connect 59 0 16 0;
#X connect 60 0 59 1;
#X connect 60 0 61 1;
#X connect 61 0 16 1;
#X connect 63 0 0 0;
#X connect 63 1 1 0;
#X connect 63 2 2 0;
#X connect 63 3 3 0;
#X connect 63 4 4 0;
#X connect 63 5 5 0;
#X connect 63 6 6 0;
#X connect 63 7 7 0;
#X connect 63 8 8 0;
#X connect 63 9 9 0;
#X connect 63 10 10 0;
#X connect 63 11 11 0;
#X connect 63 12 12 0;
#X connect 63 13 13 0;
#X connect 63 14 14 0;
#X connect 64 0 27 0;
#X connect 64 0 67 0;
#X connect 65 0 66 0;
#X connect 66 0 64 0;
