#N struct strobe float x float y float in1 float in2 float in3 float
in4;
#N canvas 500 0 618 622 10;
#X floatatom 243 186 5 0 0 0 - - -;
#X floatatom 267 137 5 0 0 0 - - -;
#X floatatom 282 111 5 0 0 0 - - -;
#X floatatom 297 86 5 0 0 0 - - -;
#X symbolatom 252 162 7 0 0 0 - - -;
#X text 352 86 registrador;
#X text 336 111 intervalo da ultima nota;
#X text 321 137 classe do pitch;
#X text 324 163 nome da nota;
#X text 294 187 numero midi da nota;
#X obj 142 -58 adc~;
#X text 448 -46 strobe;
#N canvas 110 201 450 300 notas 0;
#X restore 469 8 pd notas;
#X obj 541 -35 dsp;
#N canvas 124 264 450 300 (subpatch) 0;
#X array visual 500 float 4;
#X coords 0 1 499 -1 200 140 1;
#X restore 16 111 graph;
#X obj 293 -17 tabwrite~ visual;
#X obj 274 -38 tgl 15 0 empty empty empty 17 7 0 10 -262144 -1 -1 1
1;
#X obj 123 42 nbx 5 20 -1e+37 1e+37 0 0 empty empty empty 0 -8 0 15
-225280 -1 -1 131.128 256;
#X symbolatom 61 -7 7 0 0 0 - - -;
#X obj 49 -24 pitch 72;
#X floatatom 49 -38 5 0 0 0 - - -;
#X obj 297 -40 metro 100;
#X obj 238 57 pitch;
#X obj 272 -62 loadbang;
#X obj 234 22 fiddle~ 1024 1 20 1;
#X floatatom 360 274 5 0 0 0 - - -;
#X obj 241 200 print a;
#X obj 356 236 unpack;
#X floatatom 415 274 5 0 0 0 - - -;
#X obj 444 319 counter;
#X floatatom 403 341 5 0 0 0 - - -;
#X msg 466 278 6;
#X obj 389 365 select 0 1 2 3 4 5;
#X obj 389 395 bng 15 250 50 0 empty empty empty 17 7 0 10 -262144
-1 -1;
#X obj 409 395 bng 15 250 50 0 empty empty empty 17 7 0 10 -262144
-1 -1;
#X obj 429 395 bng 15 250 50 0 empty empty empty 17 7 0 10 -262144
-1 -1;
#X obj 449 395 bng 15 250 50 0 empty empty empty 17 7 0 10 -262144
-1 -1;
#X obj 469 395 bng 15 250 50 0 empty empty empty 17 7 0 10 -262144
-1 -1;
#X obj 489 395 bng 15 250 50 0 empty empty empty 17 7 0 10 -262144
-1 -1;
#X obj 294 231 vsl 15 128 0 127 0 0 empty empty empty 0 -9 0 10 -262144
-1 -1 12700 1;
#X obj 310 231 vsl 15 128 0 127 0 0 empty empty empty 0 -9 0 10 -262144
-1 -1 7851 1;
#X obj 389 427 t b f;
#X obj 409 451 t b f;
#X obj 429 426 t b f;
#X obj 449 451 t b f;
#X obj 469 426 t b f;
#X obj 489 451 t b f;
#N canvas 517 -31 1007 658 strobe-define 1;
#X msg 793 349 clear;
#X obj 761 465 pointer;
#X msg 757 434 traverse pd-strobe \, bang;
#X obj 793 386 send pd-strobe;
#X obj 646 393 bng 15 250 50 0 empty empty empty 17 7 0 10 -262144
-1 -1;
#X obj 761 465 pointer;
#X msg 757 434 traverse pd-strobe \, bang;
#X obj 528 117 pointer;
#X msg 530 79 next;
#X floatatom 393 125 5 0 0 0 - - -;
#X obj 116 17 struct strobe float x float y float in1 float in2 float
in3 float in4;
#X obj 620 555 append strobe x y in1;
#X obj 674 399 t b b b b b b;
#X msg 601 426 20 100 10;
#X msg 635 453 80 100 10;
#X msg 690 486 140 100 10;
#X msg 727 513 200 100 10;
#X obj 393 145 set strobe in1;
#X floatatom 394 176 5 0 0 0 - - -;
#X obj 394 197 set strobe in2;
#X floatatom 395 235 5 0 0 0 - - -;
#X floatatom 392 281 5 0 0 0 - - -;
#X obj 395 256 set strobe in3;
#X obj 392 302 set strobe in4;
#X obj 296 70 inlet;
#X obj 346 70 inlet;
#X obj 390 69 inlet;
#X obj 438 67 inlet;
#X msg 535 50 traverse pd-strobe \, bang;
#X msg 535 50 traverse pd-strobe \, bang;
#X obj 597 169 pointer;
#X msg 599 131 next;
#X msg 604 102 traverse pd-strobe \, bang;
#X msg 604 102 traverse pd-strobe \, bang;
#X obj 567 280 pointer;
#X msg 569 242 next;
#X msg 574 213 traverse pd-strobe \, bang;
#X msg 574 213 traverse pd-strobe \, bang;
#X obj 539 386 pointer;
#X msg 541 348 next;
#X msg 546 319 traverse pd-strobe \, bang;
#X msg 546 319 traverse pd-strobe \, bang;
#X obj 26 406 filledcurve 423 5 2 100 100 0 100 0 100 100 0 0 100 in1
;
#X connect 0 0 3 0;
#X connect 1 0 11 3;
#X connect 2 0 1 0;
#X connect 4 0 12 0;
#X connect 6 0 5 0;
#X connect 7 0 17 1;
#X connect 8 0 7 0;
#X connect 9 0 17 0;
#X connect 12 0 13 0;
#X connect 12 1 14 0;
#X connect 12 2 15 0;
#X connect 12 3 16 0;
#X connect 12 4 2 0;
#X connect 12 5 0 0;
#X connect 13 0 11 0;
#X connect 18 0 19 0;
#X connect 20 0 22 0;
#X connect 21 0 23 0;
#X connect 24 0 9 0;
#X connect 25 0 18 0;
#X connect 26 0 20 0;
#X connect 27 0 21 0;
#X connect 28 0 7 0;
#X connect 30 0 19 1;
#X connect 31 0 30 0;
#X connect 32 0 30 0;
#X connect 34 0 22 1;
#X connect 35 0 34 0;
#X connect 36 0 34 0;
#X connect 38 0 23 1;
#X connect 39 0 38 0;
#X connect 40 0 38 0;
#X restore 345 517 pd strobe-define;
#X obj 472 250 loadbang;
#N canvas 40 36 541 398 strobe 1;
#X scalar strobe 20 100 10 0 0 0 \;;
#X restore 49 420 pd strobe;
#X connect 0 0 26 0;
#X connect 10 0 15 0;
#X connect 10 0 24 0;
#X connect 16 0 21 0;
#X connect 19 1 18 0;
#X connect 20 0 19 0;
#X connect 21 0 15 0;
#X connect 22 0 0 0;
#X connect 22 1 4 0;
#X connect 22 2 1 0;
#X connect 22 3 2 0;
#X connect 22 4 3 0;
#X connect 23 0 16 0;
#X connect 24 0 17 0;
#X connect 24 0 22 0;
#X connect 24 2 27 0;
#X connect 25 0 39 0;
#X connect 27 0 25 0;
#X connect 27 1 28 0;
#X connect 28 0 40 0;
#X connect 28 0 41 0;
#X connect 28 0 43 0;
#X connect 28 0 45 0;
#X connect 28 0 42 0;
#X connect 28 0 44 0;
#X connect 28 0 46 0;
#X connect 28 0 29 0;
#X connect 29 0 30 0;
#X connect 30 0 32 0;
#X connect 31 0 29 4;
#X connect 32 0 33 0;
#X connect 32 1 34 0;
#X connect 32 2 35 0;
#X connect 32 3 36 0;
#X connect 32 4 37 0;
#X connect 32 5 38 0;
#X connect 33 0 41 0;
#X connect 34 0 42 0;
#X connect 35 0 43 0;
#X connect 36 0 44 0;
#X connect 37 0 45 0;
#X connect 38 0 46 0;
#X connect 41 1 47 0;
#X connect 42 1 47 3;
#X connect 43 1 47 1;
#X connect 45 1 47 2;
#X connect 48 0 31 0;
