#N canvas 215 55 801 539 10;
#X obj 59 396 sendOSC;
#X floatatom 59 423 5 0 0 0 - - -;
#X msg 44 119 disconnect;
#X text 8 142 ========================================;
#X msg 149 301 typetags 1;
#X msg 144 333 typetags 0;
#X msg 423 294 [;
#X msg 423 321 ];
#X text 462 312 when last bundle is closed the buffer is sent.;
#X text 463 333 so: first "[" \, then add messages with send /bla;
#X text 466 351 open nested nudle etc \, close with "]";
#X floatatom 113 425 5 0 0 0 - - -;
#X text 162 428 bundleDepth;
#X text 462 291 open / close bundles here.;
#X text 465 372 watch the bundleDepth index change while you do this.
;
#X text 231 299 switch usage of typetags;
#X text 232 316 on/off.;
#X text 231 332 default: on;
#X text 465 392 MAX_BUNDLE_NESTING: 32;
#X text 607 435 for more info \, get help on:;
#X obj 798 435 OSC;
#X msg 26 93 connect localhost 57150;
#X msg 109 234 send /wii/extension ii;
#X msg 269 192 send /wii/leds;
#X msg 274 215 send /wii/extension ii;
#X msg 256 168 send /wii/rumble 1;
#X msg 79 163 send /wii/discover;
#X msg 91 187 send /wii/rumble;
#X obj 609 106 dumpOSC localhost 5120;
#X symbolatom 624 169 10 0 0 0 - - -;
#X msg 104 211 send /wii/leds iiii;
#X msg 244 144 send /wii/found;
#X obj 600 226 print;
#X connect 0 0 1 0;
#X connect 0 1 11 0;
#X connect 2 0 0 0;
#X connect 4 0 0 0;
#X connect 5 0 0 0;
#X connect 6 0 0 0;
#X connect 7 0 0 0;
#X connect 21 0 0 0;
#X connect 22 0 0 0;
#X connect 23 0 0 0;
#X connect 26 0 0 0;
#X connect 27 0 0 0;
#X connect 28 0 29 0;
#X connect 28 0 32 0;
#X connect 30 0 0 0;
#X connect 31 0 0 0;
