#N canvas 457 22 642 446 10;
#X obj 167 61 inlet;
#X obj 187 161 switch~;
#X obj 167 91 f 1;
#X obj 370 249 s mx;
#X obj 282 199 symbol \$2;
#X msg 282 219 instrument add \$1;
#X obj 252 139 r i2mx;
#X obj 252 179 t a b;
#X obj 370 117 symbol \$2;
#X msg 370 137 online \$1;
#X obj 12 409 dac~;
#X msg 132 319 set \$1-r;
#X msg 32 319 set \$1-l;
#X obj 252 279 symbol;
#X obj 12 359 catch~ \$0-l;
#X obj 112 359 catch~ \$0-r;
#X obj 12 339 throw~ \$0-l;
#X obj 112 339 throw~ \$0-r;
#X obj 123 239 netpd-r cr.close;
#X obj 123 279 f \$0;
#X obj 123 259 route mx;
#X text 10 9 [i2mx~ \$0 name];
#N canvas 418 339 584 289 i2mx-x 0;
#X obj 7 55 t b b b;
#X obj 197 55 t a a a;
#X obj 7 15 r \$1.getpreset;
#X obj 10 158 r \$1-a.preset;
#X obj 197 15 r \$1.dump;
#X obj 7 115 s \$1-c.getpreset;
#X obj 29 95 s \$1-b.getpreset;
#X obj 51 75 s \$1-a.getpreset;
#X obj 219 95 s \$1-b.dump;
#X obj 241 75 s \$1-a.dump;
#X obj 197 115 s \$1-c.dump;
#X obj 20 178 r \$1-b.preset;
#X obj 30 198 r \$1-c.preset;
#X obj 7 35 spigot;
#X obj 197 35 spigot;
#X obj 10 248 s \$1.preset;
#X obj 10 228 spigot;
#X obj 332 15 loadbang;
#X obj 439 75 f 1;
#X obj 332 125 spigot;
#X obj 332 35 t b b b;
#X obj 332 105 f 1;
#X obj 354 55 f 0;
#X obj 455 35 r \$1.id;
#X obj 455 15 s \$1.id;
#X obj 455 55 route closeall;
#X msg 354 75 closeall \$1;
#X connect 0 0 5 0;
#X connect 0 1 6 0;
#X connect 0 2 7 0;
#X connect 1 0 10 0;
#X connect 1 1 8 0;
#X connect 1 2 9 0;
#X connect 2 0 13 0;
#X connect 3 0 16 0;
#X connect 4 0 14 0;
#X connect 11 0 16 0;
#X connect 12 0 16 0;
#X connect 13 0 0 0;
#X connect 14 0 1 0;
#X connect 16 0 15 0;
#X connect 17 0 20 0;
#X connect 18 0 19 1;
#X connect 19 0 14 1;
#X connect 19 0 13 1;
#X connect 19 0 16 1;
#X connect 20 0 21 0;
#X connect 20 1 22 0;
#X connect 20 2 18 0;
#X connect 21 0 19 0;
#X connect 22 0 26 0;
#X connect 23 0 25 0;
#X connect 25 0 18 1;
#X connect 26 0 24 0;
#X restore 399 21 pd i2mx-x;
#X obj 270 61 s \$0-load-2;
#X obj 220 319 f 0;
#X obj 220 339 s \$2_mx.na1-r;
#X obj 220 359 s \$2_mx.na2-r;
#X obj 220 379 s \$2_mx.na3-r;
#X obj 12 61 inlet~;
#X obj 112 61 inlet~;
#X obj 270 21 loadbang;
#X obj 418 207 route created;
#X obj 418 227 route \$2;
#X obj 252 159 route \$2 all gui;
#X obj 418 267 symbol \$2;
#X msg 418 287 \; \$1_mx.level-r set 0.8 \; \$1_mx.pan-r set 0;
#X obj 418 247 b;
#X obj 167 191 outlet;
#X obj 167 111 t b f;
#X obj 12 379 *~ 0.64;
#X obj 112 379 *~ 0.64;
#N canvas 177 32 531 286 mx.pan______ 0;
#X obj 17 9 inlet~;
#X obj 120 9 inlet~;
#X obj 40 166 -;
#X obj 40 186 min 1;
#X obj 143 186 min 1;
#X obj 120 226 outlet~;
#X obj 17 226 outlet~;
#X obj 40 96 + 1;
#X obj 40 76 netpd-fx \$1 \$2_mx.pan \$2_mx.pan-r 0;
#X msg 330 77 set \$1;
#X obj 417 187 f 1;
#X obj 387 187 f 0;
#X obj 387 167 b;
#X obj 330 17 r netpd-receive;
#X obj 330 57 f;
#X obj 330 37 route \$2_mx.pan;
#X obj 330 237 s \$2.pan-r;
#X obj 387 67 r \$2.pan;
#X obj 404 127 s \$2_mx.pan-r;
#X obj 212 186 f 0;
#X msg 212 206 set \$1;
#X obj 212 166 r mx.gui.restore;
#X obj 212 226 s \$2_mx.pan-r;
#X obj 17 206 *~ 1;
#X obj 120 206 *~ 1;
#X obj 330 217 spigot 1;
#X obj 417 147 del 1000;
#X msg 404 107 set \$1;
#X obj 414 87 s \$2_mx.pan;
#X msg 40 146 2 \$1;
#X connect 0 0 23 0;
#X connect 1 0 24 0;
#X connect 2 0 3 0;
#X connect 3 0 23 1;
#X connect 4 0 24 1;
#X connect 7 0 4 0;
#X connect 7 0 29 0;
#X connect 8 0 7 0;
#X connect 8 0 19 1;
#X connect 9 0 25 0;
#X connect 10 0 25 1;
#X connect 11 0 25 1;
#X connect 12 0 11 0;
#X connect 12 0 26 0;
#X connect 13 0 15 0;
#X connect 14 0 9 0;
#X connect 15 0 14 0;
#X connect 17 0 12 0;
#X connect 17 0 27 0;
#X connect 17 0 28 0;
#X connect 19 0 20 0;
#X connect 20 0 22 0;
#X connect 21 0 19 0;
#X connect 23 0 6 0;
#X connect 24 0 5 0;
#X connect 25 0 16 0;
#X connect 26 0 10 0;
#X connect 27 0 18 0;
#X connect 29 0 2 0;
#X restore 12 121 pd mx.pan______;
#N canvas 262 78 368 381 mx.insert___ 0;
#X obj 17 210 inlet~;
#X obj 181 210 inlet~;
#X obj 181 330 outlet~;
#X obj 17 330 outlet~;
#X obj 17 240 s~ \$2_mx-l;
#X obj 17 270 catch~ \$2_mx-l;
#X obj 181 240 s~ \$2_mx-r;
#X obj 181 270 catch~ \$2_mx-r;
#X obj 33 48 netpd-fx \$1 \$2_mx.bypass \$2_mx.bypass-r 0;
#X obj 17 98 f 0;
#X msg 17 118 set \$1;
#X obj 17 78 r mx.gui.restore;
#X obj 17 138 s \$2_mx.bypass-r;
#X obj 165 78 r \$2_mx_bypass;
#X obj 165 98 t b f;
#X obj 165 138 != 1;
#X obj 87 18 mx_manager \$1 \$2_mx;
#X obj 215 188 line~;
#X msg 215 168 \$1 50;
#X obj 221 300 *~;
#X obj 57 300 *~;
#X obj 114 188 line~;
#X msg 114 168 \$1 50;
#X obj 17 300 *~;
#X obj 181 300 *~;
#X obj 165 118 | 1;
#X connect 0 0 4 0;
#X connect 0 0 20 0;
#X connect 1 0 6 0;
#X connect 1 0 19 0;
#X connect 5 0 23 0;
#X connect 7 0 24 0;
#X connect 8 0 9 1;
#X connect 8 0 25 0;
#X connect 9 0 10 0;
#X connect 10 0 12 0;
#X connect 11 0 9 0;
#X connect 13 0 14 0;
#X connect 14 0 25 0;
#X connect 14 1 25 1;
#X connect 15 0 22 0;
#X connect 17 0 19 1;
#X connect 17 0 20 1;
#X connect 18 0 17 0;
#X connect 19 0 2 0;
#X connect 20 0 3 0;
#X connect 21 0 23 1;
#X connect 21 0 24 1;
#X connect 22 0 21 0;
#X connect 23 0 3 0;
#X connect 24 0 2 0;
#X connect 25 0 15 0;
#X connect 25 0 18 0;
#X restore 12 101 pd mx.insert___;
#X obj 478 21 r \$2_mx.vis;
#X obj 488 81 makefilename pd-%s;
#X obj 488 61 symbol \$2-gui;
#X msg 478 121 \; \$1 vis \$2;
#X obj 270 41 t b b b;
#X obj 478 101 list prepend;
#X obj 167 131 &;
#X text 121 31 -pre-0.7.0;
#N canvas 50 22 605 305 mx.level____ 0;
#X obj 17 20 inlet~;
#X obj 139 20 inlet~;
#X obj 17 237 outlet~;
#X obj 139 237 outlet~;
#X obj 17 217 *~;
#X obj 139 217 *~;
#X obj 33 110 pack f 50;
#X obj 33 130 line~;
#X obj 33 90 *;
#X msg 330 77 set \$1;
#X obj 417 187 f 1;
#X obj 387 187 f 0;
#X obj 387 167 b;
#X obj 404 127 s \$2_mx.level-r;
#X obj 330 17 r netpd-receive;
#X obj 330 37 route \$2_mx.level;
#X obj 330 57 f;
#X obj 330 237 s \$2.level-r;
#X obj 387 57 r \$2.level;
#X obj 33 50 netpd-fx \$1 \$2_mx.level \$2_mx.level-r 0.8;
#X msg 202 217 set \$1;
#X obj 202 177 r mx.gui.restore;
#X obj 202 237 s \$2_mx.level-r;
#X obj 202 197 f 0.8;
#X msg 404 107 set \$1;
#X obj 416 87 s \$2_mx.level;
#X obj 417 147 del 1000;
#X obj 330 217 spigot 1;
#X msg 33 70 \$1 \$1;
#X obj 209 20 inlet;
#X obj 266 78 sel 1;
#X obj 266 98 f;
#X obj 296 98 t a;
#X connect 0 0 4 0;
#X connect 1 0 5 0;
#X connect 4 0 2 0;
#X connect 5 0 3 0;
#X connect 6 0 7 0;
#X connect 7 0 4 1;
#X connect 7 0 5 1;
#X connect 8 0 6 0;
#X connect 9 0 27 0;
#X connect 10 0 27 1;
#X connect 11 0 27 1;
#X connect 12 0 11 0;
#X connect 12 0 26 0;
#X connect 14 0 15 0;
#X connect 15 0 16 0;
#X connect 15 0 31 1;
#X connect 16 0 9 0;
#X connect 18 0 12 0;
#X connect 18 0 24 0;
#X connect 18 0 25 0;
#X connect 19 0 23 1;
#X connect 19 0 28 0;
#X connect 20 0 22 0;
#X connect 21 0 23 0;
#X connect 23 0 20 0;
#X connect 24 0 13 0;
#X connect 26 0 10 0;
#X connect 27 0 17 0;
#X connect 28 0 8 0;
#X connect 29 0 30 0;
#X connect 30 0 31 0;
#X connect 30 1 32 0;
#X connect 31 0 32 0;
#X connect 32 0 9 0;
#X connect 32 0 24 0;
#X restore 12 161 pd mx.level____;
#N canvas 351 22 864 414 mx.mute-solo 0;
#X obj 16 182 inlet~;
#X obj 77 182 inlet~;
#X obj 16 252 outlet~;
#X obj 77 252 outlet~;
#X obj 16 212 *~;
#X obj 77 222 *~;
#N canvas 0 22 180 185 env~ 0;
#X obj 14 18 inlet;
#X obj 14 98 line~;
#X obj 14 78 pack f f;
#X obj 14 38 t a a;
#X obj 65 38 select 1 0;
#X obj 65 58 f 5;
#X obj 97 58 f 20;
#X obj 14 118 *~;
#X obj 14 138 outlet~;
#X connect 0 0 3 0;
#X connect 1 0 7 1;
#X connect 1 0 7 0;
#X connect 2 0 1 0;
#X connect 3 0 2 0;
#X connect 3 1 4 0;
#X connect 4 0 5 0;
#X connect 4 1 6 0;
#X connect 5 0 2 1;
#X connect 6 0 2 1;
#X connect 7 0 8 0;
#X restore 147 188 pd env~;
#X text 420 48 Normal;
#X text 420 68 Mute;
#X text 420 138 Solo;
#X text 420 158 Private-Solo;
#X text 420 178 Solo & Private-Solo;
#X text 420 298 Mute & Private-Solo;
#X text 420 278 Mute & Solo;
#X text 420 88 Mute & Private;
#X text 420 318 Mute & Private & Solo;
#X text 420 208 Mute & Private & Private-Solo;
#X text 420 238 Mute & Solo & Private-Solo;
#X text 420 258 Mute & Private & Solo & Private-Solo;
#N canvas 198 373 408 224 s-color 0;
#X obj 13 55 sel 0 1;
#X obj 13 35 f 0;
#X obj 13 125 s \$2_mx.solo-r;
#X obj 13 15 inlet;
#X msg 35 75 color -65281 -65281 0 \, set 1;
#X msg 13 95 color 0 0 -65281 \, set 0;
#X connect 0 0 5 0;
#X connect 0 1 4 0;
#X connect 1 0 0 0;
#X connect 3 0 1 0;
#X connect 4 0 2 0;
#X connect 5 0 2 0;
#X restore 589 78 pd s-color;
#N canvas 321 430 330 213 ps-color 0;
#X obj 13 55 sel 0 1;
#X obj 13 35 f 0;
#X obj 13 125 s \$2_mx.egosolo-r;
#X obj 13 15 inlet;
#X msg 35 75 color -65281 -65281 0 \, set 1;
#X msg 13 95 color 0 0 -65281 \, set 0;
#X connect 0 0 5 0;
#X connect 0 1 4 0;
#X connect 1 0 0 0;
#X connect 3 0 1 0;
#X connect 4 0 2 0;
#X connect 5 0 2 0;
#X restore 620 58 pd ps-color;
#X obj 632 18 r mx.gui.restore;
#N canvas 198 373 400 216 m-color 0;
#X obj 13 125 s \$2_mx.mute-r;
#X obj 13 15 inlet;
#X obj 13 55 route 0 1;
#X msg 41 75 color -65281 -65281 0 \, set 1;
#X obj 13 35 f 0;
#X msg 13 95 color 0 0 -65281 \, set 0;
#X connect 1 0 4 0;
#X connect 2 0 5 0;
#X connect 2 1 3 0;
#X connect 3 0 0 0;
#X connect 4 0 2 0;
#X connect 5 0 0 0;
#X restore 527 118 pd m-color;
#N canvas 274 449 266 208 p-color 0;
#X obj 13 55 sel 0 1;
#X obj 13 125 s \$2_mx.ego-r;
#X obj 13 35 f 0;
#X obj 13 15 inlet;
#X msg 35 75 color -65281 -65281 0 \, set 1;
#X msg 13 95 color 0 0 -65281 \, set 0;
#X connect 0 0 5 0;
#X connect 0 1 4 0;
#X connect 2 0 0 0;
#X connect 3 0 2 0;
#X connect 4 0 1 0;
#X connect 5 0 1 0;
#X restore 558 98 pd p-color;
#X obj 527 18 unpack f f f f;
#X obj 337 48 if4 0 0 0 0;
#X obj 337 68 if4 1 0 0 0;
#X obj 337 88 if4 1 1 0 0;
#X obj 337 138 if4 0 0 1 0;
#X obj 337 158 if4 0 0 0 1;
#X obj 337 178 if4 0 0 1 1;
#X obj 337 278 if4 1 0 1 0;
#X obj 337 298 if4 1 0 0 1;
#X obj 337 318 if4 1 1 1 0;
#X obj 337 208 if4 1 1 0 1;
#X obj 337 238 if4 1 0 1 1;
#X obj 337 258 if4 1 1 1 1;
#N canvas 205 22 522 427 M-P-S-PS 0;
#X obj 37 119 r \$2_mx.ego;
#X obj 109 19 netpd-f \$2_mx.mute \$2_mx.mute-r;
#X obj 362 149 r \$2_mx.egosolo;
#X obj 263 49 netpd-f \$2_mx.solo \$2_mx.solo-r;
#X msg 209 337 0 0 0 0;
#X obj 189 287 pack f f f f;
#X obj 189 367 outlet;
#X obj 362 169 t b a;
#N canvas 688 94 272 156 dump 0;
#X obj 10 14 r \$1.dump;
#X obj 75 114 s netpd-send;
#X obj 10 34 route self;
#X obj 161 14 inlet;
#X obj 75 94 list trim;
#X obj 75 74 list append 0;
#X obj 75 54 list append \$2_mx.solo;
#X connect 0 0 2 0;
#X connect 2 1 6 0;
#X connect 3 0 5 1;
#X connect 4 0 1 0;
#X connect 5 0 4 0;
#X connect 6 0 5 0;
#X restore 307 89 pd dump;
#N canvas 688 94 272 156 dump 0;
#X obj 10 14 r \$1.dump;
#X obj 75 114 s netpd-send;
#X obj 10 34 route self;
#X obj 161 14 inlet;
#X obj 75 94 list trim;
#X obj 75 74 list append 0;
#X obj 75 54 list append \$2_mx.mute;
#X connect 0 0 2 0;
#X connect 2 1 6 0;
#X connect 3 0 5 1;
#X connect 4 0 1 0;
#X connect 5 0 4 0;
#X connect 6 0 5 0;
#X restore 154 59 pd dump;
#X obj 209 317 loadbang;
#X obj 67 179 s \$2_mx.mute-r;
#X obj 37 139 t a a;
#X obj 37 159 sel 0;
#X obj 109 39 t a a a;
#X obj 147 90 sel 1;
#X msg 147 110 0;
#X msg 293 129 0;
#X obj 263 109 sel 0;
#X obj 263 69 t a a a;
#X obj 293 149 t a a a;
#X obj 147 130 t a a;
#X connect 0 0 12 0;
#X connect 1 0 14 0;
#X connect 2 0 7 0;
#X connect 3 0 19 0;
#X connect 4 0 6 0;
#X connect 5 0 6 0;
#X connect 7 0 5 0;
#X connect 7 1 5 3;
#X connect 10 0 4 0;
#X connect 12 0 13 0;
#X connect 12 1 5 1;
#X connect 13 0 5 0;
#X connect 13 1 11 0;
#X connect 14 0 5 0;
#X connect 14 1 15 0;
#X connect 14 2 9 0;
#X connect 15 0 16 0;
#X connect 15 1 5 1;
#X connect 16 0 21 0;
#X connect 17 0 20 0;
#X connect 18 0 5 0;
#X connect 18 1 17 0;
#X connect 19 0 18 0;
#X connect 19 1 5 2;
#X connect 19 2 8 0;
#X connect 20 0 5 0;
#X connect 20 1 9 0;
#X connect 20 2 5 1;
#X connect 21 0 5 2;
#X connect 21 1 8 0;
#X restore 337 18 pd M-P-S-PS;
#X obj 409 370 print error;
#X obj 137 98 t a;
#X obj 137 158 &;
#X obj 137 118 unpack f f;
#X msg 217 68 1 1;
#N canvas 451 37 321 364 solomode 0;
#X obj 14 15 inlet;
#X obj 169 106 f;
#X obj 169 86 r mx.getsolo;
#X obj 169 126 s mx.setsolo;
#X obj 33 65 s mx.getsolo;
#X obj 30 85 r mx.setsolo;
#X obj 30 105 sel 1;
#X obj 75 125 f 0;
#X obj 30 125 f 1;
#X obj 14 155 f;
#X obj 14 175 s mx.solomode;
#X obj 14 195 r mx.solomode;
#X obj 14 215 sel 0 1;
#X obj 14 285 outlet;
#X obj 40 235 f;
#X obj 14 35 t b b b f;
#X obj 14 235 f 1;
#X connect 0 0 15 0;
#X connect 1 0 3 0;
#X connect 2 0 1 0;
#X connect 5 0 6 0;
#X connect 6 0 8 0;
#X connect 7 0 9 1;
#X connect 8 0 9 1;
#X connect 9 0 10 0;
#X connect 11 0 12 0;
#X connect 12 0 16 0;
#X connect 12 1 14 0;
#X connect 14 0 13 0;
#X connect 15 0 9 0;
#X connect 15 1 4 0;
#X connect 15 2 7 0;
#X connect 15 3 1 1;
#X connect 15 3 14 1;
#X connect 16 0 13 0;
#X restore 137 138 pd solomode;
#X msg 177 18 0 0;
#X obj 137 252 outlet;
#X obj 337 108 if4 0 1 0 0;
#X text 420 108 Private;
#X msg 217 18 0 1;
#X msg 137 18 1 0;
#X text 420 18 Inputs;
#X msg 409 338 mx unexpected case! case-id: \$1 \$2 \$3 \$4;
#X connect 0 0 4 0;
#X connect 1 0 5 0;
#X connect 4 0 2 0;
#X connect 5 0 3 0;
#X connect 6 0 4 1;
#X connect 6 0 5 1;
#X connect 21 0 20 0;
#X connect 21 0 19 0;
#X connect 21 0 23 0;
#X connect 21 0 22 0;
#X connect 24 0 22 0;
#X connect 24 1 23 0;
#X connect 24 2 19 0;
#X connect 24 3 20 0;
#X connect 25 0 24 0;
#X connect 25 0 48 0;
#X connect 25 1 26 0;
#X connect 26 0 24 0;
#X connect 26 0 44 0;
#X connect 26 1 27 0;
#X connect 27 0 24 0;
#X connect 27 0 48 0;
#X connect 27 1 46 0;
#X connect 28 0 24 0;
#X connect 28 0 42 0;
#X connect 28 1 29 0;
#X connect 29 0 24 0;
#X connect 29 0 42 0;
#X connect 29 1 30 0;
#X connect 30 0 24 0;
#X connect 30 0 42 0;
#X connect 30 1 34 0;
#X connect 31 1 32 0;
#X connect 32 0 24 0;
#X connect 32 0 49 0;
#X connect 32 1 33 0;
#X connect 33 0 24 0;
#X connect 33 1 51 0;
#X connect 34 0 24 0;
#X connect 34 0 42 0;
#X connect 34 1 35 0;
#X connect 35 0 42 0;
#X connect 35 1 36 0;
#X connect 36 0 42 0;
#X connect 36 1 31 0;
#X connect 37 0 25 0;
#X connect 39 0 41 0;
#X connect 40 0 6 0;
#X connect 40 0 45 0;
#X connect 41 0 43 0;
#X connect 41 1 40 1;
#X connect 42 0 39 0;
#X connect 43 0 40 0;
#X connect 44 0 39 0;
#X connect 46 1 28 0;
#X connect 48 0 39 0;
#X connect 49 0 39 0;
#X connect 51 0 38 0;
#X restore 12 141 pd mx.mute-solo;
#N canvas 51 22 534 328 mx.aux______ 0;
#X obj 20 22 inlet~;
#X obj 20 258 outlet~;
#X obj 184 21 inlet~;
#X obj 184 258 outlet~;
#N canvas 174 22 550 444 aux1 0;
#X obj 19 20 inlet~;
#X obj 189 20 inlet~;
#X obj 35 120 sel 0;
#X obj 35 140 f \$0;
#X obj 19 360 throw~ \$0-z;
#X obj 189 360 throw~ \$0-z;
#X obj 35 50 netpd-fx \$1 \$2_mx.na1 \$2_mx.na1-r 0;
#X obj 19 230 *~ 0;
#X obj 189 230 *~ 0;
#X obj 42 190 netpd-fx \$1 \$2_mx.sa1 \$2_mx.sa1-r 0;
#X obj 65 310 f;
#X msg 35 160 set \$1-z;
#X msg 300 77 set \$1;
#X obj 387 177 f 1;
#X obj 357 177 f 0;
#X obj 357 157 b;
#X obj 300 17 r netpd-receive;
#X obj 300 57 f;
#X obj 300 37 route \$2_mx.sa1;
#X obj 357 67 r \$2.sa1;
#X obj 374 137 s \$2_mx.sa1-r;
#X obj 300 227 s \$2.sa1-r;
#X msg 125 140 set \$1;
#X obj 115 100 r mx.gui.restore;
#X obj 125 120 f 0;
#X obj 125 160 s \$2_mx.na1-r;
#X msg 125 260 set \$1;
#X obj 125 240 f 0;
#X obj 125 280 s \$2_mx.sa1-r;
#X obj 300 207 spigot 1;
#X msg 374 117 set \$1;
#X obj 384 97 s \$2_mx.sa1;
#X obj 387 157 del 1000;
#X msg 31 340 set \$1f.aux-l;
#X msg 152 340 set \$1f.aux-r;
#X obj 257 20 inlet;
#X connect 0 0 7 0;
#X connect 1 0 8 0;
#X connect 2 0 3 0;
#X connect 2 1 10 0;
#X connect 3 0 11 0;
#X connect 6 0 2 0;
#X connect 6 0 24 1;
#X connect 7 0 4 0;
#X connect 8 0 5 0;
#X connect 9 0 7 1;
#X connect 9 0 8 1;
#X connect 9 0 27 1;
#X connect 10 0 33 0;
#X connect 10 0 34 0;
#X connect 11 0 4 0;
#X connect 11 0 5 0;
#X connect 12 0 29 0;
#X connect 13 0 29 1;
#X connect 14 0 29 1;
#X connect 15 0 14 0;
#X connect 15 0 32 0;
#X connect 16 0 18 0;
#X connect 17 0 12 0;
#X connect 18 0 17 0;
#X connect 19 0 15 0;
#X connect 19 0 30 0;
#X connect 19 0 31 0;
#X connect 22 0 25 0;
#X connect 23 0 24 0;
#X connect 23 0 27 0;
#X connect 24 0 22 0;
#X connect 26 0 28 0;
#X connect 27 0 26 0;
#X connect 29 0 21 0;
#X connect 30 0 20 0;
#X connect 32 0 13 0;
#X connect 33 0 4 0;
#X connect 34 0 5 0;
#X connect 35 0 24 0;
#X restore 85 58 pd aux1;
#X obj 207 168 == 0;
#N canvas 308 22 518 481 aux2 0;
#X obj 19 20 inlet~;
#X obj 189 20 inlet~;
#X obj 35 70 sel 0;
#X obj 35 90 f \$0;
#X obj 19 400 throw~ \$0-z;
#X obj 189 400 throw~ \$0-z;
#X obj 19 240 *~ 0;
#X obj 189 240 *~ 0;
#X obj 65 347 f;
#X obj 35 50 netpd-fx \$1 \$2_mx.na2 \$2_mx.na2-r 0;
#X obj 42 210 netpd-fx \$1 \$2_mx.sa2 \$2_mx.sa2-r 0;
#X msg 35 110 set \$1-z;
#X msg 302 79 set \$1;
#X obj 389 169 f 1;
#X obj 359 169 f 0;
#X obj 359 149 b;
#X obj 302 19 r netpd-receive;
#X obj 302 59 f;
#X obj 302 39 route \$2_mx.sa2;
#X obj 359 69 r \$2.sa2;
#X obj 302 219 s \$2.sa2-r;
#X obj 376 129 s \$2_mx.sa2-r;
#X msg 135 160 set \$1;
#X obj 125 120 r mx.gui.restore;
#X obj 135 140 f 0;
#X msg 135 280 set \$1;
#X obj 135 260 f 0;
#X obj 135 180 s \$2_mx.na2-r;
#X obj 135 300 s \$2_mx.sa2-r;
#X obj 302 199 spigot 1;
#X msg 376 109 set \$1;
#X obj 386 89 s \$2_mx.sa2;
#X obj 389 149 del 1000;
#X msg 31 380 set \$1f.aux-l;
#X msg 152 380 set \$1f.aux-r;
#X obj 257 20 inlet;
#X connect 0 0 6 0;
#X connect 1 0 7 0;
#X connect 2 0 3 0;
#X connect 2 1 8 0;
#X connect 3 0 11 0;
#X connect 6 0 4 0;
#X connect 7 0 5 0;
#X connect 8 0 33 0;
#X connect 8 0 34 0;
#X connect 9 0 2 0;
#X connect 9 0 24 1;
#X connect 10 0 6 1;
#X connect 10 0 7 1;
#X connect 10 0 26 1;
#X connect 11 0 4 0;
#X connect 11 0 5 0;
#X connect 12 0 29 0;
#X connect 13 0 29 1;
#X connect 14 0 29 1;
#X connect 15 0 14 0;
#X connect 15 0 32 0;
#X connect 16 0 18 0;
#X connect 17 0 12 0;
#X connect 18 0 17 0;
#X connect 19 0 15 0;
#X connect 19 0 30 0;
#X connect 19 0 31 0;
#X connect 22 0 27 0;
#X connect 23 0 24 0;
#X connect 23 0 26 0;
#X connect 24 0 22 0;
#X connect 25 0 28 0;
#X connect 26 0 25 0;
#X connect 29 0 20 0;
#X connect 30 0 21 0;
#X connect 32 0 13 0;
#X connect 33 0 4 0;
#X connect 34 0 5 0;
#X connect 35 0 24 0;
#X restore 85 78 pd aux2;
#N canvas 294 22 522 458 aux3 0;
#X obj 19 20 inlet~;
#X obj 189 20 inlet~;
#X obj 35 70 sel 0;
#X obj 35 90 f \$0;
#X obj 19 360 throw~ \$0-z;
#X obj 189 360 throw~ \$0-z;
#X obj 19 250 *~ 0;
#X obj 189 250 *~ 0;
#X obj 65 307 f;
#X obj 35 50 netpd-fx \$1 \$2_mx.na3 \$2_mx.na3-r 0;
#X obj 42 220 netpd-fx \$1 \$2_mx.sa3 \$2_mx.sa3-r 0;
#X msg 35 110 set \$1-z;
#X msg 300 77 set \$1;
#X obj 387 167 f 1;
#X obj 357 167 f 0;
#X obj 357 147 b;
#X obj 300 17 r netpd-receive;
#X obj 300 57 f;
#X obj 357 67 r \$2.sa3;
#X obj 300 37 route \$2_mx.sa3;
#X obj 374 127 s \$2_mx.sa3-r;
#X obj 300 217 s \$2.sa3-r;
#X msg 135 160 set \$1;
#X obj 125 120 r mx.gui.restore;
#X obj 135 140 f 0;
#X msg 135 280 set \$1;
#X obj 135 260 f 0;
#X obj 135 180 s \$2_mx.na3-r;
#X obj 135 300 s \$2_mx.sa3-r;
#X obj 300 197 spigot 1;
#X obj 387 147 del 1000;
#X msg 374 107 set \$1;
#X obj 384 87 s \$2_mx.sa3;
#X msg 31 340 set \$1f.aux-l;
#X msg 152 340 set \$1f.aux-r;
#X obj 257 20 inlet;
#X connect 0 0 6 0;
#X connect 1 0 7 0;
#X connect 2 0 3 0;
#X connect 2 1 8 0;
#X connect 3 0 11 0;
#X connect 6 0 4 0;
#X connect 7 0 5 0;
#X connect 8 0 33 0;
#X connect 8 0 34 0;
#X connect 9 0 2 0;
#X connect 9 0 24 1;
#X connect 10 0 6 1;
#X connect 10 0 7 1;
#X connect 10 0 26 1;
#X connect 11 0 4 0;
#X connect 11 0 5 0;
#X connect 12 0 29 0;
#X connect 13 0 29 1;
#X connect 14 0 29 1;
#X connect 15 0 14 0;
#X connect 15 0 30 0;
#X connect 16 0 19 0;
#X connect 17 0 12 0;
#X connect 18 0 15 0;
#X connect 18 0 31 0;
#X connect 18 0 32 0;
#X connect 19 0 17 0;
#X connect 22 0 27 0;
#X connect 23 0 24 0;
#X connect 23 0 26 0;
#X connect 24 0 22 0;
#X connect 25 0 28 0;
#X connect 26 0 25 0;
#X connect 29 0 21 0;
#X connect 30 0 13 0;
#X connect 31 0 20 0;
#X connect 33 0 4 0;
#X connect 34 0 5 0;
#X connect 35 0 24 0;
#X restore 85 98 pd aux3;
#X obj 318 21 catch~ \$0-z;
#X obj 377 268 s \$2_mx.na1-r;
#X msg 377 198 range 0 \$1;
#X obj 347 158 f 0;
#X obj 347 98 r \$0-load-2;
#X obj 393 248 s \$2_mx.na2-r;
#X obj 408 228 s \$2_mx.na3-r;
#X obj 354 118 r i2mx;
#X obj 354 138 route fxnr;
#X msg 221 118 set \$1;
#X obj 221 78 r mx.gui.restore;
#X obj 221 98 f 0;
#X msg 207 188 \$1 50;
#X obj 207 208 line~;
#X obj 184 238 *~;
#X obj 20 238 *~;
#N canvas 198 373 312 222 d-color 0;
#X obj 13 95 sel 0 1;
#X obj 13 15 r netpd-receive;
#X obj 13 75 f 0;
#X obj 21 55 r mx.gui.restore;
#X msg 13 135 color 0 0 -3.40812e+06;
#X msg 35 115 color -3.40812e+06 -3.40812e+06 0;
#X obj 13 165 s \$2_mx.dry-r;
#X obj 13 35 route \$2_mx.dry;
#X connect 0 0 4 0;
#X connect 0 1 5 0;
#X connect 1 0 7 0;
#X connect 2 0 0 0;
#X connect 3 0 2 0;
#X connect 4 0 6 0;
#X connect 5 0 6 0;
#X connect 7 0 2 0;
#X restore 69 169 pd d-color;
#X obj 207 48 netpd-fx \$1 \$2_mx.dry \$2_mx.dry-r 0;
#X obj 221 138 s \$2_mx.dry-r;
#X obj 347 178 t b a;
#X obj 149 76 b;
#X connect 0 0 4 0;
#X connect 0 0 6 0;
#X connect 0 0 7 0;
#X connect 0 0 23 0;
#X connect 2 0 4 1;
#X connect 2 0 6 1;
#X connect 2 0 7 1;
#X connect 2 0 22 0;
#X connect 5 0 20 0;
#X connect 10 0 9 0;
#X connect 10 0 13 0;
#X connect 10 0 14 0;
#X connect 11 0 27 0;
#X connect 12 0 11 0;
#X connect 15 0 16 0;
#X connect 16 0 11 0;
#X connect 17 0 26 0;
#X connect 18 0 19 0;
#X connect 18 0 11 0;
#X connect 19 0 17 0;
#X connect 20 0 21 0;
#X connect 21 0 23 1;
#X connect 21 0 22 1;
#X connect 22 0 3 0;
#X connect 23 0 1 0;
#X connect 25 0 5 0;
#X connect 25 0 19 1;
#X connect 27 0 28 0;
#X connect 27 1 10 0;
#X connect 28 0 4 2;
#X connect 28 0 6 2;
#X connect 28 0 7 2;
#X restore 12 181 pd mx.aux______;
#N canvas 442 22 260 122 abslist 0;
#X msg 19 17 if4;
#X msg 19 37 mx_manager;
#X restore 143 17 pd abslist;
#X msg 11 31 version 0.6.29;
#X connect 0 0 2 0;
#X connect 2 0 38 0;
#X connect 4 0 5 0;
#X connect 5 0 3 0;
#X connect 6 0 33 0;
#X connect 7 0 13 0;
#X connect 7 1 4 0;
#X connect 8 0 9 0;
#X connect 9 0 3 0;
#X connect 11 0 17 0;
#X connect 12 0 16 0;
#X connect 13 0 12 0;
#X connect 13 0 11 0;
#X connect 14 0 39 0;
#X connect 15 0 40 0;
#X connect 18 0 20 0;
#X connect 19 0 12 0;
#X connect 19 0 11 0;
#X connect 20 0 19 0;
#X connect 20 0 24 0;
#X connect 24 0 25 0;
#X connect 24 0 26 0;
#X connect 24 0 27 0;
#X connect 28 0 42 0;
#X connect 29 0 42 1;
#X connect 30 0 47 0;
#X connect 31 0 32 0;
#X connect 32 0 36 0;
#X connect 33 0 7 0;
#X connect 33 1 7 0;
#X connect 33 2 31 0;
#X connect 34 0 35 0;
#X connect 36 0 34 0;
#X connect 38 0 49 0;
#X connect 38 1 49 1;
#X connect 39 0 10 0;
#X connect 40 0 10 1;
#X connect 41 0 52 0;
#X connect 41 1 52 1;
#X connect 42 0 41 0;
#X connect 42 1 41 1;
#X connect 43 0 48 0;
#X connect 44 0 48 1;
#X connect 45 0 44 0;
#X connect 47 0 23 0;
#X connect 47 1 8 0;
#X connect 47 1 2 0;
#X connect 47 2 45 0;
#X connect 48 0 46 0;
#X connect 49 0 37 0;
#X connect 49 0 1 0;
#X connect 51 0 53 0;
#X connect 51 1 53 1;
#X connect 52 0 51 0;
#X connect 52 1 51 1;
#X connect 52 2 51 2;
#X connect 52 2 49 0;
#X connect 53 0 16 0;
#X connect 53 1 17 0;
