#N canvas 316 27 310 325 10;
#X obj 27 233 outlet true;
#X obj 111 233 outlet else;
#X obj 111 23 inlet check;
#X obj 141 73 unpack f f f f;
#X obj 141 113 &;
#X obj 141 133 &;
#X obj 141 153 &;
#X obj 28 203 spigot;
#X obj 111 203 spigot;
#X obj 111 53 t a a;
#X obj 148 183 == 0;
#X obj 141 93 == \$1;
#X obj 172 113 == \$2;
#X obj 203 133 == \$3;
#X obj 233 153 == \$4;
#X connect 2 0 9 0;
#X connect 3 0 11 0;
#X connect 3 1 12 0;
#X connect 3 2 13 0;
#X connect 3 3 14 0;
#X connect 4 0 5 0;
#X connect 5 0 6 0;
#X connect 6 0 7 1;
#X connect 6 0 10 0;
#X connect 7 0 0 0;
#X connect 8 0 1 0;
#X connect 9 0 7 0;
#X connect 9 0 8 0;
#X connect 9 1 3 0;
#X connect 10 0 8 1;
#X connect 11 0 4 0;
#X connect 12 0 4 1;
#X connect 13 0 5 1;
#X connect 14 0 6 1;
