#N canvas 373 234 323 470 10;
#X obj 12 125 repeat 0;
#X obj 12 170 f;
#X obj 38 169 + 1;
#X obj 12 100 t b f b;
#X obj 25 148 0;
#X obj 12 4 loadbang;
#X obj 12 79 \$3;
#X obj 12 236 + 10;
#X obj 12 216 * 20;
#X obj 12 193 t f f;
#X obj 12 58 t b b;
#X obj 158 236 symbol \$2;
#X obj 217 236 \$4;
#X obj 44 236 makesymbol $%s;
#X obj 44 215 + 5;
#X obj 136 210 t b b b;
#X obj 136 236 \$1;
#X obj 12 281 \$0;
#X obj 12 259 t b f;
#X obj 12 325 pack s f f s f s;
#X obj 12 302 makesymbol pd-%s-instrument;
#X obj 12 32 t b b;
#X msg 12 365 \; \$1 obj 10 \$2 instr-param \$3 \$4 \$5 \$6;
#X obj 113 69 \$0;
#X obj 113 90 makesymbol pd-%s-instrument;
#X msg 113 110 \; \$1 loadbang;
#N canvas 911 509 271 298 \$0-instrument 0;
#X obj 10 10 instr-param 2523 kick 4 \$5;
#X obj 10 30 instr-param 2523 kick 4 \$6;
#X obj 10 50 instr-param 2523 kick 4 \$7;
#X obj 10 70 instr-param 2523 kick 4 \$8;
#X obj 10 90 instr-param 2523 kick 4 \$9;
#X obj 10 110 instr-param 2523 kick 4 \$10;
#X obj 10 130 instr-param 2523 kick 4 \$11;
#X obj 10 150 instr-param 2523 kick 4 \$12;
#X obj 10 170 instr-param 2523 kick 4 \$13;
#X obj 10 190 instr-param 2523 kick 4 \$14;
#X obj 10 210 instr-param 2523 kick 4 \$15;
#X restore 145 8 pd \$0-instrument;
#X msg 174 43 version 0.0.3;
#N canvas 599 275 192 169 abslist 0;
#X msg 15 19 instr-param;
#X msg 15 42 instr-instance;
#X restore 174 62 pd abslist;
#X connect 0 0 1 0;
#X connect 1 0 2 0;
#X connect 1 0 9 0;
#X connect 2 0 1 1;
#X connect 3 0 0 0;
#X connect 3 1 0 1;
#X connect 3 2 4 0;
#X connect 4 0 1 1;
#X connect 5 0 21 0;
#X connect 6 0 3 0;
#X connect 7 0 18 0;
#X connect 8 0 7 0;
#X connect 9 0 8 0;
#X connect 9 1 14 0;
#X connect 10 0 6 0;
#X connect 10 1 15 0;
#X connect 11 0 19 3;
#X connect 12 0 19 4;
#X connect 13 0 19 5;
#X connect 14 0 13 0;
#X connect 15 0 16 0;
#X connect 15 1 11 0;
#X connect 15 2 12 0;
#X connect 16 0 19 2;
#X connect 17 0 20 0;
#X connect 18 0 17 0;
#X connect 18 1 19 1;
#X connect 19 0 22 0;
#X connect 20 0 19 0;
#X connect 21 0 23 0;
#X connect 21 1 10 0;
#X connect 23 0 24 0;
#X connect 24 0 25 0;
