#N canvas 202 22 946 664 10;
#X obj 106 298 symbol;
#X msg 563 570 \; \$1 vis 1;
#X obj 563 550 symbol;
#X obj 563 440 spigot;
#X obj 630 421 f 1;
#X obj 600 420 f 0;
#X obj 129 489 symbol;
#X obj 296 505 symbol;
#X obj 236 554 symbol;
#X obj 332 435 symbol \$2;
#X obj 157 338 t b b b s s b b;
#X text 11 9 [mx_manager \$0 <name>];
#X msg 764 308 label \$1;
#X obj 184 612 bng 15 250 50 0 empty empty empty 0 -6 0 8 -262144 -1
-1;
#X text 200 610 <-before save;
#X obj 39 534 symbol;
#X obj 600 490 symbol \$2;
#X obj 600 510 pack s s;
#X obj 600 530 makesymbol pd-%s-%s-gui;
#X obj 600 470 t b s;
#X obj 348 505 f \$1;
#X obj 296 525 pack s s f s;
#X obj 596 216 netpd-ax \$1-b \$2_insert;
#X obj 563 379 r \$2_insert.vis;
#X obj 764 328 s \$2_insert;
#X obj 758 431 symbol;
#X obj 213 266 symbol empty;
#X obj 764 288 symbol;
#X obj 764 268 r mx.gui.restore;
#X obj 339 183 loadbang;
#X obj 339 203 t b b;
#X obj 810 106 r mx;
#X obj 810 126 route insert;
#X obj 810 146 route selected;
#X obj 596 106 r \$2_insert.choose;
#X obj 810 166 symbol;
#N canvas 844 66 387 275 \$2-container 0;
#X restore 572 14 pd \$2-container;
#N canvas 0 22 474 324 \$2-rebuild 0;
#X restore 572 34 pd \$2-rebuild;
#X msg 521 154 set empty;
#X obj 278 403 s \$2_bypass;
#X obj 278 383 f 1;
#X obj 596 196 symbol empty;
#X obj 308 383 f 0;
#X obj 213 286 t s b b;
#X msg 626 146 \; mx insert getselected;
#X obj 596 126 t b b;
#X obj 758 451 s fx.aux_name;
#X obj 758 371 r fx.aux_getname;
#X obj 758 391 route \$2;
#X obj 758 411 b;
#X obj 213 211 sel empty;
#X obj 106 318 sel \$0-s;
#X obj 596 236 symbol;
#X obj 596 256 t s s;
#X msg 39 554 \; \$1-rebuild obj 10 10 +~ \; \$1-rebuild clear;
#X msg 129 509 \; \$1-container loadbang;
#X msg 236 574 \; \$1-container clear;
#X msg 296 545 \; \$1-container obj 10 10 \$2 \$3-c \$4;
#X obj 332 455 makefilename pd-%s;
#X msg 14 28 version 0.6.16;
#X connect 0 0 51 0;
#X connect 2 0 1 0;
#X connect 3 0 2 0;
#X connect 4 0 3 1;
#X connect 5 0 3 1;
#X connect 6 0 55 0;
#X connect 7 0 21 0;
#X connect 8 0 56 0;
#X connect 9 0 21 3;
#X connect 9 0 58 0;
#X connect 10 0 15 0;
#X connect 10 0 42 0;
#X connect 10 1 6 0;
#X connect 10 2 7 0;
#X connect 10 3 21 1;
#X connect 10 4 19 0;
#X connect 10 4 51 1;
#X connect 10 5 8 0;
#X connect 10 6 4 0;
#X connect 12 0 24 0;
#X connect 13 0 8 0;
#X connect 15 0 54 0;
#X connect 16 0 17 0;
#X connect 17 0 18 0;
#X connect 18 0 2 1;
#X connect 19 0 16 0;
#X connect 19 1 17 1;
#X connect 20 0 21 2;
#X connect 21 0 57 0;
#X connect 22 0 52 0;
#X connect 23 0 3 0;
#X connect 25 0 46 0;
#X connect 26 0 43 0;
#X connect 27 0 12 0;
#X connect 28 0 27 0;
#X connect 29 0 30 0;
#X connect 30 0 26 0;
#X connect 30 1 9 0;
#X connect 30 1 20 0;
#X connect 30 1 38 0;
#X connect 31 0 32 0;
#X connect 32 0 33 0;
#X connect 33 0 35 0;
#X connect 34 0 45 0;
#X connect 35 0 41 1;
#X connect 38 0 22 0;
#X connect 40 0 39 0;
#X connect 41 0 22 0;
#X connect 42 0 39 0;
#X connect 43 0 51 1;
#X connect 43 1 5 0;
#X connect 43 1 40 0;
#X connect 43 2 8 0;
#X connect 45 0 41 0;
#X connect 45 1 44 0;
#X connect 47 0 48 0;
#X connect 48 0 49 0;
#X connect 49 0 25 0;
#X connect 50 0 26 0;
#X connect 50 1 0 0;
#X connect 51 1 10 0;
#X connect 52 0 53 0;
#X connect 53 0 50 0;
#X connect 53 1 25 1;
#X connect 53 1 27 0;
#X connect 58 0 15 1;
#X connect 58 0 6 1;
#X connect 58 0 8 1;
#X connect 58 0 7 1;
