#N canvas 559 332 189 149 10;
#N canvas 317 63 490 209 pad.code 0;
#X obj 75 102 r \$2-pst.save;
#N canvas 240 193 344 252 pad.load 0;
#X obj 11 7 loadbang;
#X obj 34 47 symbol \$2;
#X msg 11 167 set save;
#X msg 21 117 set load;
#X obj 11 187 s \$2-pst.save-r;
#X obj 21 137 s \$2-pst.load-r;
#X obj 156 106 s \$0-project;
#X obj 163 66 s \$0-project.input-r;
#X obj 34 87 s \$0-instrument;
#X msg 156 86 label \$1;
#X obj 155 46 symbol _;
#X msg 34 67 label \$1;
#X obj 174 158 cnv 15 100 60 empty empty empty 20 12 0 14 -233017 -66577
0;
#X obj 192 186 cnv 11 49 12 empty empty empty 2 5 1 10 -262144 -66577
0;
#X connect 0 0 1 0;
#X connect 0 0 3 0;
#X connect 0 0 2 0;
#X connect 0 0 10 0;
#X connect 1 0 11 0;
#X connect 2 0 4 0;
#X connect 3 0 5 0;
#X connect 9 0 6 0;
#X connect 10 0 7 0;
#X connect 10 0 9 0;
#X connect 11 0 8 0;
#X restore 301 91 pd pad.load;
#N canvas 831 133 297 488 pad.namer 0;
#X obj 49 194 spigot;
#X obj 130 194 spigot;
#X obj 199 88 b;
#X obj 153 28 loadbang;
#X obj 51 138 symbol;
#X obj 150 221 b;
#N canvas 312 229 281 359 bangs.a-d 0;
#X obj 19 272 outlet;
#X obj 19 143 r \$0-a1;
#X msg 19 162 a1;
#X obj 73 143 r \$0-a2;
#X msg 73 162 a2;
#X obj 127 143 r \$0-a3;
#X msg 127 162 a3;
#X obj 181 143 r \$0-a4;
#X msg 181 162 a4;
#X obj 19 103 r \$0-b1;
#X msg 19 122 b1;
#X msg 73 122 b2;
#X obj 73 103 r \$0-b2;
#X obj 127 103 r \$0-b3;
#X msg 127 122 b3;
#X msg 181 122 b4;
#X obj 181 103 r \$0-b4;
#X obj 181 63 r \$0-c4;
#X msg 181 82 c4;
#X msg 127 82 c3;
#X obj 127 63 r \$0-c3;
#X msg 73 82 c2;
#X obj 73 63 r \$0-c2;
#X obj 19 63 r \$0-c1;
#X msg 19 82 c1;
#X obj 19 23 r \$0-d1;
#X msg 19 42 d1;
#X msg 73 42 d2;
#X obj 73 23 r \$0-d2;
#X msg 127 42 d3;
#X obj 127 23 r \$0-d3;
#X msg 181 42 d4;
#X obj 181 23 r \$0-d4;
#X connect 1 0 2 0;
#X connect 2 0 0 0;
#X connect 3 0 4 0;
#X connect 4 0 0 0;
#X connect 5 0 6 0;
#X connect 6 0 0 0;
#X connect 7 0 8 0;
#X connect 8 0 0 0;
#X connect 9 0 10 0;
#X connect 10 0 0 0;
#X connect 11 0 0 0;
#X connect 12 0 11 0;
#X connect 13 0 14 0;
#X connect 14 0 0 0;
#X connect 15 0 0 0;
#X connect 16 0 15 0;
#X connect 17 0 18 0;
#X connect 18 0 0 0;
#X connect 19 0 0 0;
#X connect 20 0 19 0;
#X connect 21 0 0 0;
#X connect 22 0 21 0;
#X connect 23 0 24 0;
#X connect 24 0 0 0;
#X connect 25 0 26 0;
#X connect 26 0 0 0;
#X connect 27 0 0 0;
#X connect 28 0 27 0;
#X connect 29 0 0 0;
#X connect 30 0 29 0;
#X connect 31 0 0 0;
#X connect 32 0 31 0;
#X restore 51 118 pd bangs.a-d;
#X obj 147 8 r \$0-action;
#X obj 150 261 s \$0-action-r;
#X obj 57 222 loadbang;
#X msg 57 242 symbol _;
#X obj 147 68 select 0;
#X obj 150 450 outlet;
#N canvas 197 91 313 339 addsongname 0;
#X obj 40 115 symbol;
#X obj 40 155 makesymbol %s-%s;
#X obj 40 76 t b s;
#X obj 40 135 pack s s;
#X obj 163 81 select _;
#X obj 16 221 spigot;
#X obj 158 222 spigot;
#X obj 16 26 inlet;
#X obj 77 274 outlet;
#X obj 163 21 r \$0-project;
#X obj 163 61 symbol;
#X obj 163 41 route label;
#X obj 143 130 f 1;
#X obj 173 130 f 0;
#X obj 248 166 f 1;
#X obj 218 166 f 0;
#X obj 218 136 b;
#X connect 0 0 3 0;
#X connect 1 0 6 0;
#X connect 2 0 0 0;
#X connect 2 1 3 1;
#X connect 3 0 1 0;
#X connect 4 0 13 0;
#X connect 4 0 12 0;
#X connect 4 1 16 0;
#X connect 5 0 8 0;
#X connect 6 0 8 0;
#X connect 7 0 5 0;
#X connect 7 0 2 0;
#X connect 9 0 11 0;
#X connect 10 0 0 1;
#X connect 10 0 4 0;
#X connect 11 0 10 0;
#X connect 12 0 5 1;
#X connect 13 0 6 1;
#X connect 14 0 6 1;
#X connect 15 0 5 1;
#X connect 16 0 14 0;
#X connect 16 0 15 0;
#X restore 49 360 pd addsongname;
#X obj 12 450 outlet;
#X obj 12 410 spigot;
#X obj 150 410 spigot;
#X obj 13 332 t s b;
#X obj 123 332 t s b;
#N canvas 139 349 260 201 load.pst.info 0;
#X obj 23 29 inlet;
#X msg 23 89 list load pst \$1;
#X obj 23 49 makesymbol \$2-%s.pst;
#X obj 23 109 list2symbol;
#X msg 23 129 label \$1;
#X obj 23 69 t s b;
#X obj 148 105 symbol _;
#X obj 148 85 del 3500;
#X obj 23 149 s \$0-info;
#X connect 0 0 2 0;
#X connect 1 0 3 0;
#X connect 2 0 5 0;
#X connect 3 0 4 0;
#X connect 4 0 8 0;
#X connect 5 0 1 0;
#X connect 5 1 7 0;
#X connect 6 0 4 0;
#X connect 7 0 6 0;
#X restore 20 430 pd load.pst.info;
#N canvas 307 116 289 220 save.pst.info 0;
#X obj 23 29 inlet;
#X obj 23 49 makesymbol \$2-%s.pst;
#X obj 23 109 list2symbol;
#X msg 23 129 label \$1;
#X obj 23 69 t s b;
#X obj 148 105 symbol _;
#X obj 148 85 del 3500;
#X msg 23 89 list saved as \$1;
#X obj 23 149 s \$0-info;
#X connect 0 0 1 0;
#X connect 1 0 4 0;
#X connect 2 0 3 0;
#X connect 3 0 8 0;
#X connect 4 0 7 0;
#X connect 4 1 6 0;
#X connect 5 0 3 0;
#X connect 6 0 5 0;
#X connect 7 0 2 0;
#X restore 158 430 pd save.pst.info;
#N canvas 481 138 335 561 save4all 0;
#X obj 29 18 inlet;
#X obj 152 193 outlet;
#X obj 139 8 r \$0-a.all;
#X obj 139 28 select 1;
#X obj 190 48 b;
#X obj 29 117 spigot;
#X msg 97 65 1;
#X msg 122 88 0;
#X obj 152 173 spigot;
#X msg 224 125 1;
#X msg 189 125 0;
#X obj 29 213 s pad.save.all;
#X obj 29 233 r pad.save.all;
#X obj 202 28 loadbang;
#X obj 51 448 makesymbol %s-%s;
#X obj 51 391 t b s;
#X obj 73 372 s \$0-action-r;
#X obj 73 352 f 1;
#X obj 82 313 f 0;
#X obj 82 333 s \$0-a.all-r;
#X obj 29 193 pack s s;
#X obj 29 253 unpack s s;
#X obj 80 173 symbol;
#X obj 29 518 s \$0-a.all-r;
#X obj 29 499 f 1;
#X obj 29 273 t b s b;
#X msg 94 273 label \$1;
#X obj 94 293 s \$0-project;
#X obj 80 133 r \$0-project;
#X obj 80 153 route label;
#X obj 51 410 f \$0;
#X obj 51 429 pack f s;
#X msg 51 467 \; \$1 bang;
#X connect 0 0 8 0;
#X connect 0 0 5 0;
#X connect 2 0 3 0;
#X connect 3 0 6 0;
#X connect 3 0 10 0;
#X connect 3 1 4 0;
#X connect 4 0 7 0;
#X connect 4 0 9 0;
#X connect 5 0 20 0;
#X connect 6 0 5 1;
#X connect 7 0 5 1;
#X connect 8 0 1 0;
#X connect 9 0 8 1;
#X connect 10 0 8 1;
#X connect 12 0 21 0;
#X connect 13 0 4 0;
#X connect 14 0 32 0;
#X connect 15 0 30 0;
#X connect 15 1 31 1;
#X connect 17 0 16 0;
#X connect 18 0 19 0;
#X connect 20 0 11 0;
#X connect 21 0 25 0;
#X connect 21 1 26 0;
#X connect 22 0 20 1;
#X connect 24 0 23 0;
#X connect 25 0 24 0;
#X connect 25 1 15 0;
#X connect 25 2 18 0;
#X connect 25 2 17 0;
#X connect 26 0 27 0;
#X connect 28 0 29 0;
#X connect 29 0 22 0;
#X connect 30 0 31 0;
#X connect 31 0 14 0;
#X restore 123 312 pd save4all;
#N canvas 166 58 305 555 load4all 0;
#X obj 9 26 inlet;
#X obj 142 148 outlet;
#X obj 119 10 r \$0-a.all;
#X obj 119 30 select 1;
#X obj 174 50 b;
#X obj 9 119 spigot;
#X msg 86 58 1;
#X msg 117 76 0;
#X obj 142 129 spigot;
#X msg 165 92 1;
#X msg 189 97 0;
#X obj 9 213 s pad.load.all;
#X obj 9 233 r pad.load.all;
#X obj 190 28 loadbang;
#X obj 31 430 makesymbol %s-%s;
#X obj 31 410 pack f s;
#X obj 31 390 f \$0;
#X obj 31 370 t b s;
#X obj 53 313 f 0;
#X obj 53 350 s \$0-action-r;
#X msg 31 450 \; \$1 1;
#X obj 61 332 s \$0-a.all-r;
#X obj 9 193 pack s s;
#X obj 60 173 symbol;
#X obj 9 253 unpack s s;
#X obj 9 501 s \$0-a.all-r;
#X obj 9 481 f 1;
#X obj 9 293 t b s b;
#X msg 74 273 label \$1;
#X obj 74 293 s \$0-project;
#X obj 60 133 r \$0-project;
#X obj 60 153 route label;
#X connect 0 0 8 0;
#X connect 0 0 5 0;
#X connect 2 0 3 0;
#X connect 3 0 6 0;
#X connect 3 0 10 0;
#X connect 3 1 4 0;
#X connect 4 0 7 0;
#X connect 4 0 9 0;
#X connect 5 0 22 0;
#X connect 6 0 5 1;
#X connect 7 0 5 1;
#X connect 8 0 1 0;
#X connect 9 0 8 1;
#X connect 10 0 8 1;
#X connect 12 0 24 0;
#X connect 13 0 4 0;
#X connect 14 0 20 0;
#X connect 15 0 14 0;
#X connect 16 0 15 0;
#X connect 17 0 16 0;
#X connect 17 1 15 1;
#X connect 18 0 19 0;
#X connect 18 0 21 0;
#X connect 22 0 11 0;
#X connect 23 0 22 1;
#X connect 24 0 27 0;
#X connect 24 1 28 0;
#X connect 26 0 25 0;
#X connect 27 0 26 0;
#X connect 27 1 17 0;
#X connect 27 2 18 0;
#X connect 28 0 29 0;
#X connect 30 0 31 0;
#X connect 31 0 23 0;
#X restore 13 312 pd load4all;
#X obj 51 158 t s s;
#X obj 49 282 s \$0-preset;
#X msg 49 262 label \$1;
#X obj 153 390 f 1;
#X obj 183 390 f 0;
#X obj 43 390 f 1;
#X obj 73 390 f 0;
#X obj 150 241 f 0;
#X obj 229 118 f 1;
#X obj 199 118 f 0;
#X obj 147 118 f 1;
#X obj 173 118 f 0;
#X obj 153 48 f 0;
#X connect 0 0 22 0;
#X connect 0 0 25 0;
#X connect 1 0 5 0;
#X connect 1 0 21 0;
#X connect 1 0 25 0;
#X connect 2 0 31 0;
#X connect 2 0 32 0;
#X connect 3 0 35 0;
#X connect 4 0 23 0;
#X connect 5 0 30 0;
#X connect 6 0 4 0;
#X connect 7 0 11 0;
#X connect 9 0 10 0;
#X connect 10 0 25 0;
#X connect 11 0 33 0;
#X connect 11 0 34 0;
#X connect 11 1 2 0;
#X connect 13 0 15 0;
#X connect 13 0 16 0;
#X connect 15 0 14 0;
#X connect 15 0 19 0;
#X connect 16 0 12 0;
#X connect 16 0 20 0;
#X connect 17 0 13 0;
#X connect 17 1 27 0;
#X connect 17 1 28 0;
#X connect 18 0 13 0;
#X connect 18 1 26 0;
#X connect 18 1 29 0;
#X connect 21 0 18 0;
#X connect 22 0 17 0;
#X connect 23 0 1 0;
#X connect 23 1 0 0;
#X connect 25 0 24 0;
#X connect 26 0 16 1;
#X connect 27 0 16 1;
#X connect 28 0 15 1;
#X connect 29 0 15 1;
#X connect 30 0 8 0;
#X connect 31 0 1 1;
#X connect 32 0 0 1;
#X connect 33 0 0 1;
#X connect 34 0 1 1;
#X connect 35 0 11 0;
#X restore 14 82 pd pad.namer;
#N canvas 435 165 180 153 pad.netpd-x 0;
#N canvas 530 73 459 453 pad.set 0;
#X obj 16 24 r \$0-set;
#X obj 67 124 s \$0-get.chx.set;
#X obj 189 24 r \$0-chx.set;
#X obj 211 64 route index;
#X obj 211 104 drip;
#X obj 211 204 symbol;
#X obj 249 334 s \$0-save;
#X obj 211 164 select song1;
#X msg 211 224 add2 \$1;
#X obj 16 64 symbol;
#X obj 16 84 select _;
#X obj 189 44 t b a b;
#X obj 211 414 s \$0-up;
#X obj 221 394 s \$0-down;
#X msg 211 274 list index e1 e2;
#X obj 269 314 s \$0-zwischenspeicher;
#X msg 271 224 set list index;
#N canvas 161 326 350 269 set.info 0;
#X obj 23 9 inlet;
#X obj 52 100 l2s;
#X msg 52 119 set \$1;
#X msg 168 81 symbol _;
#X msg 23 163 list to rename a song type in a new name;
#X msg 52 80 list rename;
#X obj 52 60 del 500;
#X obj 23 223 s \$0-info;
#X msg 23 203 label \$1;
#X obj 168 102 s \$0-project.input-r;
#X obj 52 139 s \$0-project.input-r;
#X obj 168 60 del 3500;
#X obj 23 183 list2symbol;
#X connect 0 0 4 0;
#X connect 0 0 6 0;
#X connect 0 0 11 0;
#X connect 1 0 2 0;
#X connect 2 0 10 0;
#X connect 3 0 9 0;
#X connect 3 0 8 0;
#X connect 4 0 12 0;
#X connect 5 0 1 0;
#X connect 6 0 5 0;
#X connect 8 0 7 0;
#X connect 11 0 3 0;
#X connect 12 0 8 0;
#X restore 16 144 pd set.info;
#X obj 211 294 t b b b a;
#X obj 53 44 r \$0-project.input;
#X obj 248 184 r \$0-project.input;
#X obj 290 104 r \$0-project;
#X obj 230 374 s \$0-project.input-r;
#X msg 230 354 symbol _;
#X obj 290 124 route label;
#X obj 290 144 symbol;
#X obj 67 104 b;
#X obj 189 244 b;
#N canvas 161 83 247 332 prepend-list 0;
#X obj 23 23 inlet;
#X obj 23 149 outlet;
#X obj 23 98 glue;
#X obj 23 48 t b a;
#X obj 93 73 a2l;
#X obj 23 123 route 1;
#X msg 23 73 1 list;
#X connect 0 0 3 0;
#X connect 2 0 5 0;
#X connect 3 0 6 0;
#X connect 3 1 4 0;
#X connect 4 0 2 1;
#X connect 5 0 1 0;
#X connect 6 0 2 0;
#X restore 211 84 pd prepend-list;
#X connect 0 0 9 0;
#X connect 2 0 11 0;
#X connect 3 0 28 0;
#X connect 4 0 7 0;
#X connect 5 0 8 0;
#X connect 7 0 5 0;
#X connect 7 1 8 0;
#X connect 8 0 14 0;
#X connect 9 0 10 0;
#X connect 10 0 17 0;
#X connect 10 1 26 0;
#X connect 11 0 27 0;
#X connect 11 1 3 0;
#X connect 11 2 16 0;
#X connect 14 0 18 0;
#X connect 16 0 14 0;
#X connect 18 0 12 0;
#X connect 18 1 23 0;
#X connect 18 1 13 0;
#X connect 18 2 6 0;
#X connect 18 3 15 0;
#X connect 19 0 9 1;
#X connect 20 0 5 1;
#X connect 21 0 24 0;
#X connect 23 0 22 0;
#X connect 24 0 25 0;
#X connect 25 0 7 1;
#X connect 26 0 1 0;
#X connect 27 0 14 0;
#X connect 28 0 4 0;
#X restore 8 69 pd pad.set;
#N canvas 432 57 634 541 pad.zap 0;
#X obj 23 22 r \$0-up;
#X obj 316 33 r \$0-down;
#X obj 471 205 route index;
#X obj 49 408 packel;
#X obj 471 245 length;
#X obj 76 189 + 1;
#X obj 92 235 select 1;
#X obj 192 170 f 0;
#X obj 86 348 !=;
#X obj 38 287 lister;
#X obj 38 306 route list;
#X obj 86 368 select 1;
#X obj 86 388 f;
#X obj 86 328 t f f;
#X obj 92 215 ==;
#X obj 471 265 + 1;
#X obj 277 415 packel;
#X obj 277 297 lister;
#X obj 277 316 route list;
#X obj 471 185 r \$0-chx.zap;
#X obj 173 88 s \$0-get.chx.zap;
#X obj 23 42 t b b b;
#X obj 316 53 t b b b;
#X obj 327 193 - 1;
#X obj 100 100 t b b;
#X obj 76 169 spigot;
#X obj 327 173 spigot;
#X obj 306 87 t b b;
#X obj 427 299 == 0;
#X obj 427 320 select 1;
#X obj 428 341 f;
#X obj 351 375 select 1;
#X obj 351 395 f;
#X obj 351 335 t f f;
#X obj 351 355 != 0;
#X obj 190 17 r \$0-zap.anfang;
#X obj 190 37 t b b;
#X text 410 34 sorry for this mess;
#X obj 152 478 s \$0-project;
#X msg 152 458 label \$1;
#X obj 220 57 f 0;
#X obj 97 146 f 1;
#X obj 127 146 f 0;
#X obj 357 143 f 1;
#X obj 387 143 f 0;
#X obj 92 255 f 0;
#N canvas 161 83 243 328 prepend-list 0;
#X obj 23 23 inlet;
#X obj 23 149 outlet;
#X obj 23 98 glue;
#X obj 23 48 t b a;
#X obj 93 73 a2l;
#X obj 23 123 route 1;
#X msg 23 73 1 list;
#X connect 0 0 3 0;
#X connect 2 0 5 0;
#X connect 3 0 6 0;
#X connect 3 1 4 0;
#X connect 4 0 2 1;
#X connect 5 0 1 0;
#X connect 6 0 2 0;
#X restore 471 225 pd prepend-list;
#X connect 0 0 21 0;
#X connect 1 0 22 0;
#X connect 2 0 46 0;
#X connect 3 0 39 0;
#X connect 4 0 15 0;
#X connect 5 0 13 0;
#X connect 5 0 14 0;
#X connect 6 0 45 0;
#X connect 7 0 25 0;
#X connect 7 0 26 0;
#X connect 8 0 11 0;
#X connect 9 0 10 0;
#X connect 10 0 3 0;
#X connect 11 0 12 0;
#X connect 12 0 7 1;
#X connect 12 0 3 1;
#X connect 13 0 8 0;
#X connect 13 1 12 1;
#X connect 14 0 6 0;
#X connect 15 0 8 1;
#X connect 15 0 14 1;
#X connect 15 0 30 1;
#X connect 16 0 39 0;
#X connect 17 0 18 0;
#X connect 18 0 16 0;
#X connect 19 0 2 0;
#X connect 21 0 9 0;
#X connect 21 1 24 0;
#X connect 21 2 20 0;
#X connect 22 0 17 0;
#X connect 22 1 27 0;
#X connect 22 2 20 0;
#X connect 23 0 28 0;
#X connect 23 0 33 0;
#X connect 24 0 7 0;
#X connect 24 1 41 0;
#X connect 24 1 44 0;
#X connect 25 0 5 0;
#X connect 26 0 23 0;
#X connect 27 0 7 0;
#X connect 27 1 42 0;
#X connect 27 1 43 0;
#X connect 28 0 29 0;
#X connect 29 0 30 0;
#X connect 30 0 7 0;
#X connect 31 0 32 0;
#X connect 32 0 16 1;
#X connect 32 0 7 1;
#X connect 33 0 34 0;
#X connect 33 1 32 1;
#X connect 34 0 31 0;
#X connect 35 0 36 0;
#X connect 36 0 21 0;
#X connect 36 1 40 0;
#X connect 39 0 38 0;
#X connect 40 0 7 1;
#X connect 41 0 25 1;
#X connect 42 0 25 1;
#X connect 43 0 26 1;
#X connect 44 0 26 1;
#X connect 45 0 7 0;
#X connect 46 0 9 1;
#X connect 46 0 4 0;
#X connect 46 0 17 1;
#X restore 8 89 pd pad.zap;
#N canvas 212 397 697 318 pad.lister 0;
#X obj 36 145 lister;
#X obj 36 17 r \$0.getpreset;
#X obj 36 261 s \$0.preset;
#X obj 74 105 r \$0-zwischenspeicher;
#X obj 36 37 t b b b;
#X obj 36 221 spigot;
#X obj 174 17 r \$0-get.chx.load;
#X obj 159 261 s \$0-chx.load;
#X obj 159 221 spigot;
#X obj 174 37 t b b b;
#X obj 285 221 spigot;
#X obj 300 37 t b b b;
#X obj 300 17 r \$0-get.chx.add;
#X obj 286 261 s \$0-chx.add;
#X obj 407 221 spigot;
#X obj 422 37 t b b b;
#X obj 422 17 r \$0-get.chx.zap;
#X obj 407 261 s \$0-chx.zap;
#X obj 285 241 route list;
#X obj 407 241 route list;
#X obj 530 221 spigot;
#X obj 545 37 t b b b;
#X obj 530 241 route list;
#X obj 545 17 r \$0-get.chx.set;
#X obj 530 261 s \$0-chx.set;
#X obj 622 128 f 0;
#X obj 567 57 f 1;
#X obj 444 57 f 1;
#X obj 322 57 f 1;
#X obj 196 57 f 1;
#X obj 58 57 f 1;
#N canvas 161 83 263 348 prepend-list 0;
#X obj 23 23 inlet;
#X obj 23 149 outlet;
#X obj 23 98 glue;
#X obj 23 48 t b a;
#X obj 93 73 a2l;
#X obj 23 123 route 1;
#X msg 23 73 1 list;
#X connect 0 0 3 0;
#X connect 2 0 5 0;
#X connect 3 0 6 0;
#X connect 3 1 4 0;
#X connect 4 0 2 1;
#X connect 5 0 1 0;
#X connect 6 0 2 0;
#X restore 36 241 pd prepend-list;
#N canvas 161 83 243 328 prepend-list 0;
#X obj 23 23 inlet;
#X obj 23 149 outlet;
#X obj 23 98 glue;
#X obj 23 48 t b a;
#X obj 93 73 a2l;
#X obj 23 123 route 1;
#X msg 23 73 1 list;
#X connect 0 0 3 0;
#X connect 2 0 5 0;
#X connect 3 0 6 0;
#X connect 3 1 4 0;
#X connect 4 0 2 1;
#X connect 5 0 1 0;
#X connect 6 0 2 0;
#X restore 159 241 pd prepend-list;
#N canvas 161 83 247 332 prepend-list 0;
#X obj 23 23 inlet;
#X obj 23 149 outlet;
#X obj 23 98 glue;
#X obj 23 48 t b a;
#X obj 93 73 a2l;
#X obj 23 123 route 1;
#X msg 23 73 1 list;
#X connect 0 0 3 0;
#X connect 2 0 5 0;
#X connect 3 0 6 0;
#X connect 3 1 4 0;
#X connect 4 0 2 1;
#X connect 5 0 1 0;
#X connect 6 0 2 0;
#X restore 74 125 pd prepend-list;
#X connect 0 0 5 0;
#X connect 0 0 8 0;
#X connect 0 0 10 0;
#X connect 0 0 14 0;
#X connect 0 0 20 0;
#X connect 1 0 4 0;
#X connect 3 0 33 0;
#X connect 4 0 0 0;
#X connect 4 1 30 0;
#X connect 4 2 25 0;
#X connect 5 0 31 0;
#X connect 6 0 9 0;
#X connect 8 0 32 0;
#X connect 9 0 0 0;
#X connect 9 1 29 0;
#X connect 9 2 25 0;
#X connect 10 0 18 0;
#X connect 11 0 0 0;
#X connect 11 1 28 0;
#X connect 11 2 25 0;
#X connect 12 0 11 0;
#X connect 14 0 19 0;
#X connect 15 0 0 0;
#X connect 15 1 27 0;
#X connect 15 2 25 0;
#X connect 16 0 15 0;
#X connect 18 0 13 0;
#X connect 19 0 17 0;
#X connect 20 0 22 0;
#X connect 21 0 0 0;
#X connect 21 1 26 0;
#X connect 21 2 25 0;
#X connect 22 0 24 0;
#X connect 23 0 21 0;
#X connect 25 0 20 1;
#X connect 25 0 14 1;
#X connect 25 0 10 1;
#X connect 25 0 8 1;
#X connect 25 0 5 1;
#X connect 26 0 20 1;
#X connect 27 0 14 1;
#X connect 28 0 10 1;
#X connect 29 0 8 1;
#X connect 30 0 5 1;
#X connect 31 0 2 0;
#X connect 32 0 7 0;
#X connect 33 0 0 1;
#X restore 8 109 pd pad.lister;
#N canvas 790 92 339 431 pad.add 0;
#X obj 20 18 r \$0-add;
#X obj 101 198 lister;
#N canvas 161 83 159 196 addlisttolist 0;
#X obj 23 23 inlet;
#X obj 23 149 outlet;
#X obj 23 98 glue;
#X obj 23 48 t b a;
#X obj 93 73 a2l;
#X obj 23 123 route 1;
#X msg 23 73 1 list;
#X connect 0 0 3 0;
#X connect 2 0 5 0;
#X connect 3 0 6 0;
#X connect 3 1 4 0;
#X connect 4 0 2 1;
#X connect 5 0 1 0;
#X connect 6 0 2 0;
#X restore 138 178 pd addlisttolist;
#X obj 93 288 s \$0-save;
#X obj 71 178 t s b;
#X obj 138 158 route index;
#X obj 115 268 s \$0-zwischenspeicher;
#X obj 101 118 s \$0-get.chx.add;
#X obj 138 138 r \$0-chx.add;
#X obj 71 98 t s b;
#X msg 80 308 symbol _;
#X obj 71 248 t b b a;
#X obj 71 348 s \$0-zap.anfang;
#X obj 20 58 symbol;
#X obj 20 78 select _;
#N canvas 95 370 414 320 add.info 0;
#X msg 42 116 set \$1;
#X msg 176 76 symbol _;
#X msg 42 76 list new name;
#X obj 23 220 s \$0-info;
#X obj 176 96 s \$0-project.input-r;
#X obj 42 136 s \$0-project.input-r;
#X obj 41 56 del 500;
#X msg 23 200 label \$1;
#X obj 23 180 list2symbol;
#X obj 23 8 inlet;
#X obj 42 96 list2symbol;
#X msg 23 160 list to add a new project enter a new name;
#X obj 176 56 del 3500;
#X obj 23 29 b;
#X connect 0 0 5 0;
#X connect 1 0 4 0;
#X connect 1 0 7 0;
#X connect 2 0 10 0;
#X connect 6 0 2 0;
#X connect 7 0 3 0;
#X connect 8 0 7 0;
#X connect 9 0 13 0;
#X connect 10 0 0 0;
#X connect 11 0 8 0;
#X connect 12 0 1 0;
#X connect 13 0 6 0;
#X connect 13 0 11 0;
#X connect 13 0 12 0;
#X restore 20 368 pd add.info;
#X obj 80 328 s \$0-project.input-r;
#X obj 57 38 r \$0-project.input;
#N canvas 585 354 225 227 prepend-index-s 0;
#X obj 23 23 inlet;
#X obj 23 122 outlet;
#X obj 23 71 glue;
#X obj 103 46 a2l;
#X obj 23 96 route 1;
#X obj 103 24 inlet;
#X msg 23 46 1 index \$1;
#X connect 0 0 6 0;
#X connect 2 0 4 0;
#X connect 3 0 2 1;
#X connect 4 0 1 0;
#X connect 5 0 3 0;
#X connect 6 0 2 0;
#X restore 71 228 pd prepend-index-s;
#X connect 0 0 13 0;
#X connect 1 0 18 1;
#X connect 2 0 1 1;
#X connect 4 0 18 0;
#X connect 4 1 1 0;
#X connect 5 0 2 0;
#X connect 8 0 5 0;
#X connect 9 0 4 0;
#X connect 9 1 7 0;
#X connect 10 0 16 0;
#X connect 11 0 12 0;
#X connect 11 1 3 0;
#X connect 11 1 10 0;
#X connect 11 2 6 0;
#X connect 13 0 14 0;
#X connect 14 0 15 0;
#X connect 14 1 9 0;
#X connect 17 0 13 1;
#X connect 18 0 11 0;
#X restore 8 49 pd pad.add;
#N canvas 702 80 251 347 pad.netpd-x.load 0;
#X obj 15 8 loadbang;
#X obj 31 128 b;
#X obj 15 188 select 0;
#X obj 15 208 t b b;
#X obj 15 248 s \$0-save;
#X obj 59 48 s \$0-load;
#X obj 45 268 s \$0-zwischenspeicher;
#X obj 37 68 s \$0-get.chx.load;
#X obj 31 88 r \$0-chx.load;
#X obj 15 28 t b b b;
#X obj 31 108 route list;
#X msg 45 228 list index song1 song2;
#X obj 65 157 s \$0-up;
#X msg 135 288 label song1;
#X obj 135 308 s \$0-project;
#X obj 31 148 f 1;
#X obj 15 168 f 0;
#X connect 0 0 9 0;
#X connect 1 0 12 0;
#X connect 1 0 15 0;
#X connect 2 0 3 0;
#X connect 3 0 4 0;
#X connect 3 1 11 0;
#X connect 3 1 13 0;
#X connect 8 0 10 0;
#X connect 9 0 16 0;
#X connect 9 1 7 0;
#X connect 9 2 5 0;
#X connect 10 0 1 0;
#X connect 11 0 6 0;
#X connect 13 0 14 0;
#X connect 15 0 16 1;
#X connect 16 0 2 0;
#X restore 8 9 pd pad.netpd-x.load;
#N canvas 509 304 588 422 _pad.pst 0;
#X obj 41 54 s \$0.getpreset;
#X obj 177 55 r \$0.preset;
#X obj 177 199 textfile;
#X obj 200 95 loadbang;
#X msg 200 115 clear;
#X msg 303 138 rewind;
#X obj 284 118 until;
#X obj 284 14 r \$0-load;
#X obj 19 14 r \$0-save;
#X obj 19 34 t b b b;
#X obj 177 239 s \$0-zwischenspeicher;
#X msg 19 266 list write index-file: _pad.pst;
#X obj 284 34 t b b b b;
#X msg 322 158 read ../presets/_pad.pst;
#X msg 19 160 write ../presets/_pad.pst;
#X obj 19 286 list2symbol;
#X msg 19 306 label \$1;
#X obj 19 326 s \$0-info;
#X msg 130 306 symbol _;
#X obj 19 246 del 2000;
#X obj 130 286 del 3500;
#N canvas 0 22 165 250 prepend-add 0;
#X obj 23 23 inlet;
#X obj 23 175 outlet;
#X obj 23 124 glue;
#X obj 23 54 t b a;
#X obj 56 104 a2l;
#X obj 23 147 route 1;
#X msg 23 77 1 add;
#X connect 0 0 3 0;
#X connect 2 0 5 0;
#X connect 3 0 6 0;
#X connect 3 1 4 0;
#X connect 4 0 2 1;
#X connect 5 0 1 0;
#X connect 6 0 2 0;
#X restore 177 75 pd prepend-add;
#N canvas 161 83 251 336 prepend-list 0;
#X obj 23 23 inlet;
#X obj 23 149 outlet;
#X obj 23 98 glue;
#X obj 23 48 t b a;
#X obj 93 73 a2l;
#X obj 23 123 route 1;
#X msg 23 73 1 list;
#X connect 0 0 3 0;
#X connect 2 0 5 0;
#X connect 3 0 6 0;
#X connect 3 1 4 0;
#X connect 4 0 2 1;
#X connect 5 0 1 0;
#X connect 6 0 2 0;
#X restore 177 219 pd prepend-list;
#X obj 19 226 b;
#X connect 1 0 21 0;
#X connect 2 0 22 0;
#X connect 2 1 6 1;
#X connect 3 0 4 0;
#X connect 4 0 2 0;
#X connect 5 0 2 0;
#X connect 6 0 2 0;
#X connect 7 0 12 0;
#X connect 8 0 9 0;
#X connect 9 0 14 0;
#X connect 9 1 0 0;
#X connect 9 2 4 0;
#X connect 11 0 15 0;
#X connect 12 0 6 0;
#X connect 12 1 5 0;
#X connect 12 2 13 0;
#X connect 12 3 4 0;
#X connect 13 0 2 0;
#X connect 14 0 2 0;
#X connect 14 0 23 0;
#X connect 15 0 16 0;
#X connect 16 0 17 0;
#X connect 18 0 16 0;
#X connect 19 0 11 0;
#X connect 20 0 18 0;
#X connect 21 0 2 0;
#X connect 22 0 10 0;
#X connect 23 0 19 0;
#X connect 23 0 20 0;
#X restore 8 29 pd _pad.pst;
#X restore 301 111 pd pad.netpd-x;
#X obj 187 11 r \$0-about.pad;
#X obj 187 111 s \$0-info;
#X msg 187 91 label \$1;
#X obj 274 71 symbol _;
#X obj 274 51 del 3500;
#N canvas 92 267 254 154 load 0;
#X obj 12 14 inlet;
#X obj 34 94 outlet;
#X obj 12 34 t b s b;
#X obj 85 94 netpd-a \$2_pad.load;
#X obj 66 34 loadbang;
#X obj 56 64 f 1;
#X obj 12 64 f 0;
#X connect 0 0 2 0;
#X connect 2 0 6 0;
#X connect 2 1 1 0;
#X connect 2 2 5 0;
#X connect 4 0 5 0;
#X connect 5 0 3 0;
#X connect 6 0 3 0;
#X restore 14 102 pd load;
#N canvas 124 453 288 226 bang-load 0;
#X obj 34 113 outlet;
#X obj 85 113 netpd-a \$2_pad.load;
#X obj 12 14 r \$2-pst.load;
#X obj 12 74 f 0;
#X obj 56 54 f 1;
#X obj 12 34 t b a b;
#X connect 2 0 5 0;
#X connect 3 0 1 0;
#X connect 4 0 1 0;
#X connect 5 0 3 0;
#X connect 5 1 0 0;
#X connect 5 2 4 0;
#X restore 25 122 pd bang-load;
#X obj 187 51 list2symbol;
#N canvas 88 372 230 256 opener 0;
#X obj 14 34 route bang;
#X obj 14 94 symbol \$2;
#X msg 14 194 \; \$1 \$2 \$3;
#X obj 14 174 pack s s f;
#X obj 14 134 t s b;
#X obj 14 54 t b b;
#X obj 44 74 f 1;
#X obj 79 54 t b f;
#X msg 44 154 symbol vis;
#X obj 14 14 r \$1-open-pad;
#X obj 14 114 makefilename pd-%s-pad-gui;
#X obj 112 14 r \$2-open-pad;
#X connect 0 0 5 0;
#X connect 0 1 7 0;
#X connect 1 0 10 0;
#X connect 3 0 2 0;
#X connect 4 0 3 0;
#X connect 4 1 8 0;
#X connect 5 0 1 0;
#X connect 5 1 6 0;
#X connect 6 0 3 2;
#X connect 7 0 1 0;
#X connect 7 1 3 2;
#X connect 8 0 3 1;
#X connect 9 0 0 0;
#X connect 10 0 4 0;
#X connect 11 0 0 0;
#X restore 14 12 pd opener;
#N canvas 199 346 331 283 linux-and-win-hack 0;
#X obj 15 14 loadbang;
#X obj 37 164 spigot;
#X obj 66 84 f 1;
#X obj 15 124 r gui;
#X obj 82 64 f 0;
#X obj 15 84 spigot;
#X obj 15 104 s gui;
#X obj 15 144 t b b b;
#X obj 93 136 f 1;
#X obj 109 116 f 0;
#X obj 15 34 t b b b;
#N canvas 677 301 325 250 gui-changes 0;
#X obj 16 2 inlet;
#X obj 16 22 operating_system;
#X obj 16 42 select linux windows;
#X msg 174 75 label_font 1 7;
#X msg 122 95 label_font 1 8;
#X obj 16 199 s \$0-bg-r;
#X msg 16 179 vis_size 205 130;
#X obj 176 140 s \$0-info;
#X obj 176 160 s \$0-instrument;
#X obj 176 180 s \$0-project;
#X obj 176 200 s \$0-preset;
#X obj 186 120 s \$0-text-r;
#X connect 0 0 1 0;
#X connect 1 0 2 0;
#X connect 2 0 4 0;
#X connect 2 0 6 0;
#X connect 2 1 3 0;
#X connect 2 1 6 0;
#X connect 3 0 7 0;
#X connect 3 0 8 0;
#X connect 3 0 9 0;
#X connect 3 0 10 0;
#X connect 3 0 11 0;
#X connect 4 0 7 0;
#X connect 4 0 8 0;
#X connect 4 0 9 0;
#X connect 4 0 10 0;
#X connect 4 0 11 0;
#X connect 6 0 5 0;
#X restore 37 184 pd gui-changes;
#X connect 0 0 10 0;
#X connect 1 0 11 0;
#X connect 2 0 5 1;
#X connect 3 0 7 0;
#X connect 4 0 2 1;
#X connect 5 0 6 0;
#X connect 7 0 9 0;
#X connect 7 1 1 0;
#X connect 7 2 8 0;
#X connect 8 0 1 1;
#X connect 9 0 8 1;
#X connect 10 0 4 0;
#X connect 10 1 5 0;
#X connect 10 2 2 0;
#X restore 14 32 pd linux-and-win-hack;
#X obj 99 151 outlet;
#X obj 14 151 outlet;
#X msg 187 31 list Preset Administration v. 0.2.10;
#X connect 0 0 14 0;
#X connect 2 0 9 0;
#X connect 2 1 14 0;
#X connect 4 0 16 0;
#X connect 4 0 8 0;
#X connect 6 0 5 0;
#X connect 7 0 6 0;
#X connect 8 0 7 0;
#X connect 9 0 15 0;
#X connect 10 0 15 0;
#X connect 11 0 6 0;
#X connect 16 0 11 0;
#X restore 12 25 pd pad.code;
#N canvas 312 327 232 155 \$2-pad-gui 0;
#X obj 6 -13 cnv 15 206 130 empty \$0-bg-r empty 0 0 0 14 -212212 -66577
0;
#X obj 9 79 cnv 15 115 35 empty empty empty 2 7 1 10 -237178 -66577
0;
#X obj 64 90 cnv 12 50 12 empty \$0-text-r ALL 18 6 1 10 -108949 -262144
0;
#X obj 16 83 cnv 12 59 12 empty \$0-text-r LOAD 2 6 1 10 -108949 -262144
0;
#X obj 16 98 cnv 12 59 12 empty \$0-text-r SAVE 2 6 1 10 -108949 -262144
0;
#X obj 57 81 vradio 15 1 0 2 \$0-action \$0-action-r empty 0 -6 0 8
-26243 -262144 -1 0;
#X obj 128 35 cnv 15 80 79 empty empty empty 2 7 1 10 -237178 -66577
0;
#X obj 189 38 cnv 12 12 72 empty \$0-text-r 4 2 6 1 10 -108145 -262144
0;
#X obj 159 38 cnv 12 12 72 empty \$0-text-r 2 2 6 1 10 -108145 -262144
0;
#X obj 132 65 cnv 12 72 12 empty \$0-text-r B 2 6 1 10 -108145 -262144
0;
#X obj 132 95 cnv 12 72 12 empty \$0-text-r D 2 6 1 10 -108145 -262144
0;
#X obj 144 38 cnv 12 12 72 empty \$0-text-r 1 2 6 1 10 -108145 -262144
0;
#X obj 132 80 cnv 12 72 12 empty \$0-text-r C 2 6 1 10 -108145 -262144
0;
#X obj 132 50 cnv 12 72 12 empty \$0-text-r A 2 6 1 10 -108145 -262144
0;
#X obj 144 50 bng 12 250 50 0 \$0-a1 \$2-a1-r empty 0 -4 0 8 -149940
-262144 -1;
#X obj 174 38 cnv 12 12 72 empty \$0-text-r 3 2 6 1 10 -108145 -262144
0;
#X obj 159 50 bng 12 250 50 0 \$0-a2 \$2-a2-r empty 0 -4 0 8 -149940
-262144 -1;
#X obj 174 50 bng 12 250 50 0 \$0-a3 \$2-a3-r empty 0 -4 0 8 -149940
-262144 -1;
#X obj 189 50 bng 12 250 50 0 \$0-a4 \$2-a4-r empty 0 -4 0 8 -149940
-262144 -1;
#X obj 144 65 bng 12 250 50 0 \$0-b1 \$2-b1-r empty 0 -4 0 8 -149940
-262144 -1;
#X obj 159 65 bng 12 250 50 0 \$0-b2 \$2-b2-r empty 0 -4 0 8 -149940
-262144 -1;
#X obj 174 65 bng 12 250 50 0 \$0-b3 \$2-b3-r empty 0 -4 0 8 -149940
-262144 -1;
#X obj 189 65 bng 12 250 50 0 \$0-b4 \$2-b4-r empty 0 -4 0 8 -149940
-262144 -1;
#X obj 144 80 bng 12 250 50 0 \$0-c1 \$2-c1-r empty 0 -4 0 8 -149940
-262144 -1;
#X obj 159 80 bng 12 250 50 0 \$0-c2 \$2-c2-r empty 0 -4 0 8 -149940
-262144 -1;
#X obj 174 80 bng 12 250 50 0 \$0-c3 \$2-c3-r empty 0 -4 0 8 -149940
-262144 -1;
#X obj 189 80 bng 12 250 50 0 \$0-c4 \$2-c4-r empty 0 -4 0 8 -149940
-262144 -1;
#X obj 144 95 bng 12 250 50 0 \$0-d1 \$2-d1-r empty 0 -4 0 8 -149940
-262144 -1;
#X obj 159 95 bng 12 250 50 0 \$0-d2 \$2-d2-r empty 0 -4 0 8 -149940
-262144 -1;
#X obj 174 95 bng 12 250 50 0 \$0-d3 \$2-d3-r empty 0 -4 0 8 -149940
-262144 -1;
#X obj 189 95 bng 12 250 50 0 \$0-d4 \$2-d4-r empty 0 -4 0 8 -149940
-262144 -1;
#X obj 106 89 tgl 14 0 \$0-a.all \$0-a.all-r empty 0 9 1 8 -26243 -262144
-262144 0 1;
#X obj 167 7 cnv 10 42 25 empty empty empty 2 5 1 10 -262144 -66577
0;
#X symbolatom 165 20 6 0 0 0 - #2-pst.save-r #2-pst.save;
#X symbolatom 165 6 6 0 0 0 - #2-pst.load-r #2-pst.load;
#X obj 150 6 bng 14 250 50 0 \$2-pst.load empty empty 0 -4 0 8 -262144
-133153 -1;
#X obj 128 18 cnv 10 10 18 empty empty empty 2 7 1 10 -237178 -66577
0;
#X obj 9 -10 cnv 11 200 12 empty \$0-info _ 2 6 1 10 -262144 -66577
0;
#X obj 197 -10 bng 12 250 50 0 \$0-about.pad \$0-as-14 i 5 8 1 10 -262144
-133153 -1;
#X obj 60 4 cnv 15 15 15 empty empty empty 0 0 0 14 -212212 -66577
0;
#X obj 63 18 cnv 10 10 10 empty empty empty 2 7 1 10 -237178 -66577
0;
#X obj 63 6 cnv 11 60 12 empty \$0-project song1 2 5 1 10 -262144 -66577
0;
#X obj 9 23 cnv 15 115 52 empty empty empty 2 7 1 10 -237178 -66577
0;
#X obj 16 26 cnv 12 99 43 empty \$0-text-r Project 2 6 1 10 -261203
-262144 0;
#X obj 68 60 cnv 12 52 12 empty \$0-text-r SET 2 6 1 9 -235910 -262144
0;
#X obj 13 45 cnv 12 52 12 empty \$0-text-r UP 2 6 1 9 -235910 -262144
0;
#X obj 13 60 cnv 12 52 12 empty \$0-text-r DOWN 2 6 1 9 -235910 -262144
0;
#X obj 63 29 cnv 8 56 12 empty empty empty 4 7 0 11 -262144 -262144
0;
#X symbolatom 63 28 8 0 0 0 - #0-project.input-r #0-project.input;
#X obj 68 45 cnv 12 52 12 empty \$0-text-r ADD 2 6 1 9 -235910 -262144
0;
#X obj 103 45 bng 12 250 50 0 \$0-add empty empty 0 -4 0 8 -210828
-262144 -1;
#X obj 103 60 bng 12 250 50 0 \$0-set empty empty 0 -4 0 8 -210828
-262144 -1;
#X obj 48 45 bng 12 250 50 0 \$0-up empty empty 0 -4 0 8 -210828 -262144
-1;
#X obj 48 60 bng 12 250 50 0 \$0-down empty empty 0 -4 0 8 -210828
-262144 -1;
#X obj 9 6 cnv 11 49 12 empty \$0-instrument empty 2 5 1 10 -262144
-66577 0;
#X obj 128 6 cnv 11 19 12 empty \$0-preset _ 2 5 1 10 -262144 -66577
0;
#X restore 12 5 pd \$2-pad-gui;
#X text 12 99 pad by Enrique Erne;
#X obj 84 45 outlet;
#X obj 12 45 outlet;
#X msg 12 75 version 0.2.12;
#X text 119 74 <- 0.2.11;
#X connect 0 0 4 0;
#X connect 0 1 3 0;
