#N canvas 512 388 437 483 10;
#N canvas 0 0 450 300 graph37 0;
#X array \$0-ram 1 float 0;
#X coords 0 2 1 0 100 2 1;
#X restore 156 18 graph;
#N canvas 727 0 263 737 toggle-ctrl 0;
#X obj 19 265 repeat 0;
#X obj 19 292 f;
#X obj 43 292 + 1;
#X msg 74 266 1;
#X obj 146 146 loadbang;
#X obj 19 91 sel 0;
#X obj 121 553 t b f;
#X msg 121 574 1;
#X obj 19 70 spigot;
#X msg 49 41 1;
#X msg 75 40 0;
#X obj 19 179 t b b;
#X msg 56 384 \; \$1 bang \;;
#X obj 19 444 f;
#X obj 19 360 t b s s;
#X obj 19 466 sel 0;
#X obj 19 315 t f f;
#X obj 19 487 f;
#X obj 19 507 t f f;
#X obj 19 548 sel 1;
#X obj 19 569 f;
#X msg 19 616 0;
#X obj 19 591 t b f;
#X obj 19 222 t b b f b;
#X obj 118 10 loadbang;
#X obj 19 528 tabread \$0-ram;
#X msg 146 211 resize \$1;
#X obj 146 232 s \$0-ram;
#X obj 146 188 + 1;
#X obj 79 650 pack f f;
#X msg 79 674 \$2 \$1;
#X obj 79 697 outlet;
#X obj 19 6 r \$2-x-s;
#X obj 146 167 \$5;
#X obj 32 420 r \$2-x-s;
#X obj 19 337 makesymbol \$2-%s-r;
#X obj 19 202 f \$5;
#X connect 0 0 1 0;
#X connect 1 0 2 0;
#X connect 1 0 16 0;
#X connect 2 0 1 1;
#X connect 3 0 1 1;
#X connect 4 0 33 0;
#X connect 5 0 11 0;
#X connect 5 1 6 0;
#X connect 6 0 7 0;
#X connect 6 1 29 1;
#X connect 7 0 29 0;
#X connect 8 0 5 0;
#X connect 9 0 8 1;
#X connect 10 0 8 1;
#X connect 11 0 36 0;
#X connect 11 1 10 0;
#X connect 13 0 15 0;
#X connect 14 0 13 0;
#X connect 14 1 12 0;
#X connect 14 2 12 0;
#X connect 15 0 17 0;
#X connect 16 0 35 0;
#X connect 16 1 17 1;
#X connect 17 0 18 0;
#X connect 18 0 25 0;
#X connect 18 1 20 1;
#X connect 19 0 20 0;
#X connect 20 0 22 0;
#X connect 21 0 29 0;
#X connect 22 0 21 0;
#X connect 22 1 29 1;
#X connect 23 0 9 0;
#X connect 23 1 0 0;
#X connect 23 2 0 1;
#X connect 23 3 3 0;
#X connect 24 0 9 0;
#X connect 25 0 19 0;
#X connect 26 0 27 0;
#X connect 28 0 26 0;
#X connect 29 0 30 0;
#X connect 30 0 31 0;
#X connect 32 0 8 0;
#X connect 33 0 28 0;
#X connect 34 0 13 1;
#X connect 35 0 14 0;
#X connect 36 0 23 0;
#X restore 274 47 pd toggle-ctrl;
#N canvas 704 127 157 224 loadbang 0;
#X obj 14 16 loadbang;
#X obj 14 126 outlet;
#X msg 14 48 1;
#X obj 14 74 sel 1;
#X obj 14 97 t b b;
#X msg 62 51 0;
#X connect 0 0 2 0;
#X connect 2 0 3 0;
#X connect 3 0 4 0;
#X connect 4 0 1 0;
#X connect 4 1 5 0;
#X connect 5 0 3 1;
#X restore 12 3 pd loadbang;
#X obj 205 174 s \$1-qseq-pat-b;
#X obj 152 61 r \$2-s;
#X obj 32 46 s \$3-getstate;
#X obj 152 134 pack s f;
#X obj 152 84 t b f;
#X obj 152 109 symbol \$2-switch;
#N canvas 289 221 322 466 triggering 0;
#X obj 22 11 r stepshuffle;
#X obj 22 73 + 1;
#X obj 22 96 spigot;
#X obj 22 51 mod \$5;
#X obj 123 32 r \$1-qseq-pat-r;
#X obj 123 52 route list;
#X obj 22 293 spigot;
#X obj 91 218 r \$1-qseq-pat-r;
#X obj 91 238 route list;
#X obj 22 368 s \$4;
#X obj 194 260 r \$3-state;
#X obj 123 73 route \$2-switch;
#X obj 91 259 route \$3-switch;
#X obj 22 315 tabread \$0-ram;
#X obj 22 339 sel 1;
#X obj 22 31 - 1;
#X obj 73 54 inlet;
#X msg 73 109 set 1;
#X obj 73 135 s \$2-r;
#X msg 53 74 1;
#X msg 123 108 set \$1;
#X obj 197 107 outlet;
#X connect 0 0 15 0;
#X connect 1 0 2 0;
#X connect 2 0 6 0;
#X connect 3 0 1 0;
#X connect 4 0 5 0;
#X connect 5 0 11 0;
#X connect 6 0 13 0;
#X connect 7 0 8 0;
#X connect 8 0 12 0;
#X connect 10 0 6 1;
#X connect 11 0 2 1;
#X connect 11 0 20 0;
#X connect 11 0 21 0;
#X connect 12 0 6 1;
#X connect 13 0 14 0;
#X connect 14 0 9 0;
#X connect 15 0 3 0;
#X connect 16 0 17 0;
#X connect 16 0 19 0;
#X connect 17 0 18 0;
#X connect 19 0 2 1;
#X connect 19 0 21 0;
#X connect 20 0 18 0;
#X restore 28 66 pd triggering;
#X obj 274 94 symbol \$2;
#X obj 274 139 pack s f f;
#X obj 274 69 t b l;
#X obj 301 115 unpack;
#X obj 92 244 route \$2;
#X obj 92 223 route list;
#X obj 92 200 r \$1-qseq-pat-r;
#X obj 165 322 tabwrite \$0-ram;
#X msg 92 268 \$2 \$1;
#X obj 165 300 unpack;
#X msg 115 346 \$2;
#X obj 54 373 f;
#X msg 54 328 \$1;
#X obj 54 304 t l l;
#X obj 54 350 sel 1;
#X obj 54 403 pack f s;
#X obj 115 376 makesymbol \$2-%s-r;
#X msg 54 427 \; \$2 set \$1;
#X obj 330 185 r \$2-ping-s;
#X obj 330 210 s \$3-ping-r;
#X text 40 140 switch state;
#X obj 15 137 f;
#N canvas 756 401 186 338 statedump 0;
#X obj 25 15 r \$1.qgraindump;
#X obj 25 43 t b b;
#X obj 25 111 f;
#X obj 50 66 1;
#X obj 25 89 repeat \$5;
#X obj 55 111 + 1;
#X obj 25 157 tabread \$0-ram;
#X obj 25 135 t f f;
#X obj 25 204 f;
#X obj 25 180 sel 1;
#X obj 25 224 t b f;
#X obj 25 245 symbol \$2;
#X obj 25 267 pack s f 1;
#X obj 25 293 s \$1-qseq-pat-b;
#X connect 0 0 1 0;
#X connect 1 0 4 0;
#X connect 1 1 3 0;
#X connect 2 0 5 0;
#X connect 2 0 7 0;
#X connect 3 0 2 1;
#X connect 4 0 2 0;
#X connect 5 0 2 1;
#X connect 6 0 9 0;
#X connect 7 0 6 0;
#X connect 7 1 8 1;
#X connect 8 0 10 0;
#X connect 9 0 8 0;
#X connect 10 0 11 0;
#X connect 10 1 12 1;
#X connect 11 0 12 0;
#X connect 12 0 13 0;
#X restore 317 243 pd statedump;
#X obj 15 111 r \$1.qgraindump;
#N canvas 451 489 294 95 qgrain.length 0;
#X obj 18 9 r \$0.loadbang;
#X obj 18 32 \$5;
#X obj 18 54 s \$4.qgrain.length;
#X obj 109 9 r \$4.get.qgrain.length;
#X connect 0 0 1 0;
#X connect 1 0 2 0;
#X connect 3 0 1 0;
#X restore 316 272 pd qgrain.length;
#X obj 30 25 s \$0.loadbang;
#X msg 287 348 version 0.0.1;
#X connect 1 0 12 0;
#X connect 2 0 5 0;
#X connect 2 0 9 0;
#X connect 2 0 35 0;
#X connect 4 0 7 0;
#X connect 6 0 3 0;
#X connect 7 0 8 0;
#X connect 7 1 6 1;
#X connect 8 0 6 0;
#X connect 9 0 31 1;
#X connect 10 0 11 0;
#X connect 11 0 3 0;
#X connect 12 0 10 0;
#X connect 12 1 13 0;
#X connect 13 0 11 1;
#X connect 13 1 11 2;
#X connect 14 0 18 0;
#X connect 15 0 14 0;
#X connect 16 0 15 0;
#X connect 18 0 19 0;
#X connect 18 0 23 0;
#X connect 19 0 17 0;
#X connect 19 1 17 1;
#X connect 20 0 21 1;
#X connect 20 0 26 0;
#X connect 21 0 25 0;
#X connect 22 0 24 0;
#X connect 23 0 22 0;
#X connect 23 1 20 0;
#X connect 24 0 21 0;
#X connect 24 1 25 0;
#X connect 25 0 27 0;
#X connect 26 0 25 1;
#X connect 28 0 29 0;
#X connect 31 0 7 0;
#X connect 33 0 31 0;
