#N canvas 575 507 247 136 10;
#N canvas 653 373 392 309 gui-qgrain-creation 0;
#N canvas 30 351 267 335 guicreation 0;
#X obj 20 252 outlet;
#X obj 20 18 inlet;
#N canvas 331 289 429 654 createtoggles 0;
#X obj 18 218 * 8;
#X obj 18 101 repeat 0;
#X obj 18 128 f;
#X obj 42 128 + 1;
#X msg 80 102 0;
#X obj 18 173 % 32;
#X obj 46 173 / 32;
#X obj 46 194 int;
#X obj 73 195 + 1;
#X obj 46 218 * 12;
#X obj 46 240 +;
#X text 10 217 x;
#X text 74 217 y;
#X obj 18 38 t a a;
#X obj 73 294 lister;
#X msg 18 59 \$3;
#X obj 73 252 t b f;
#X msg 104 273 list \$1 \$2 \$3;
#X obj 73 316 pack s s f f;
#X msg 18 535 obj \$1 \$2 tgl 8 0 \$3 \$4 empty 0 -6 0 8 \$5 -1 -1
0 \$6;
#X obj 18 512 pack f f s s f f;
#X obj 90 403 * 0.25;
#X obj 90 424 int;
#X obj 90 444 % 2;
#X obj 90 464 sel 0;
#X msg 139 486 -262144;
#X msg 90 485 -233017;
#X text 121 513 x y sendsy recsy color non-zero-v;
#X obj 90 384 - 1;
#X obj 18 14 inlet;
#X obj 18 559 outlet;
#X obj 277 453 outlet;
#X obj 268 27 inlet;
#X text 191 26 actual y-pos;
#X text 276 469 new y-pos;
#X obj 277 429 f;
#X obj 227 453 outlet;
#X obj 227 429 f;
#X text 225 468 x-pos;
#X obj 18 148 t f f f;
#X obj 18 79 t b b f b;
#X obj 227 391 t b b;
#X obj 72 339 makesymbol %s-%s-%s-%s-r;
#X obj 54 363 makesymbol %s-%s-%s-x-s;
#X obj 46 263 + 10;
#X obj 18 240 + 90;
#X connect 0 0 45 0;
#X connect 1 0 2 0;
#X connect 2 0 3 0;
#X connect 2 0 39 0;
#X connect 3 0 2 1;
#X connect 4 0 2 1;
#X connect 5 0 0 0;
#X connect 6 0 7 0;
#X connect 7 0 9 0;
#X connect 8 0 16 0;
#X connect 9 0 10 0;
#X connect 10 0 35 1;
#X connect 10 0 44 0;
#X connect 13 0 15 0;
#X connect 13 1 17 0;
#X connect 14 0 18 0;
#X connect 15 0 40 0;
#X connect 16 0 14 0;
#X connect 16 1 18 3;
#X connect 16 1 20 5;
#X connect 16 1 28 0;
#X connect 17 0 14 1;
#X connect 18 0 42 0;
#X connect 18 0 43 0;
#X connect 19 0 30 0;
#X connect 20 0 19 0;
#X connect 21 0 22 0;
#X connect 22 0 23 0;
#X connect 23 0 24 0;
#X connect 24 0 26 0;
#X connect 24 1 25 0;
#X connect 25 0 20 4;
#X connect 26 0 20 4;
#X connect 28 0 21 0;
#X connect 29 0 13 0;
#X connect 32 0 10 1;
#X connect 35 0 31 0;
#X connect 37 0 36 0;
#X connect 39 0 5 0;
#X connect 39 1 6 0;
#X connect 39 2 8 0;
#X connect 40 0 41 0;
#X connect 40 1 1 0;
#X connect 40 2 1 1;
#X connect 40 3 4 0;
#X connect 41 0 37 0;
#X connect 41 1 35 0;
#X connect 42 0 20 3;
#X connect 43 0 20 2;
#X connect 44 0 20 1;
#X connect 45 0 20 0;
#X connect 45 0 37 1;
#X restore 20 99 pd createtoggles;
#X text 71 115 x;
#X text 120 113 y;
#X obj 20 57 t a b a;
#N canvas 389 323 199 208 createnumber 0;
#X obj 21 111 pack f f f;
#X msg 76 88 \$3;
#X obj 21 89 + 12;
#X obj 48 89 - 5;
#X msg 21 135 text \$1 \$2 \$3;
#X text 118 135 number;
#X obj 22 31 inlet;
#X obj 58 33 inlet;
#X obj 100 38 inlet;
#X text 24 9 x;
#X text 64 13 y;
#X text 101 18 ID;
#X obj 21 167 outlet;
#X obj 48 62 + 10;
#X connect 0 0 4 0;
#X connect 1 0 0 2;
#X connect 2 0 0 0;
#X connect 3 0 0 1;
#X connect 4 0 12 0;
#X connect 6 0 2 0;
#X connect 7 0 13 0;
#X connect 8 0 1 0;
#X connect 13 0 3 0;
#X restore 65 146 pd createnumber;
#N canvas 788 401 405 248 createhead 0;
#X obj 67 92 makesymbol %s-%s-%s-r;
#X obj 45 112 makesymbol %s-%s-%s-s;
#X obj 23 21 inlet;
#X text 59 22 y;
#X text 113 24 ID;
#X obj 75 23 inlet;
#X obj 23 177 outlet;
#X obj 23 133 pack f s s s;
#X msg 147 63 symbol \$2;
#X msg 23 155 obj 5 \$1 tgl 12 0 \$2 \$3 \$4 16 6 1 8 -262144 -1 -1
0 1;
#X msg 55 64 list \$1 \$2 \$3;
#X obj 23 77 + 10;
#X connect 0 0 7 2;
#X connect 1 0 7 1;
#X connect 2 0 11 0;
#X connect 5 0 8 0;
#X connect 5 0 10 0;
#X connect 7 0 9 0;
#X connect 8 0 7 3;
#X connect 9 0 6 0;
#X connect 10 0 1 0;
#X connect 10 0 0 0;
#X connect 11 0 7 0;
#X restore 91 217 pd createhead;
#X obj 161 98 + 17;
#X obj 151 21 inlet;
#X msg 151 45 0;
#X obj 91 190 f;
#X connect 1 0 5 0;
#X connect 2 0 0 0;
#X connect 2 1 6 0;
#X connect 2 2 6 1;
#X connect 2 2 8 0;
#X connect 5 0 2 0;
#X connect 5 1 11 0;
#X connect 5 2 6 2;
#X connect 5 2 7 1;
#X connect 6 0 0 0;
#X connect 7 0 0 0;
#X connect 8 0 2 1;
#X connect 8 0 11 1;
#X connect 9 0 10 0;
#X connect 10 0 2 1;
#X connect 10 0 11 1;
#X connect 11 0 7 0;
#X restore 24 204 pd guicreation;
#X msg 103 101 clear;
#X obj 24 104 t b a;
#X obj 87 125 a2l;
#X obj 24 166 pack s s f;
#X obj 24 74 route clear;
#X obj 87 144 unpack s f;
#N canvas 896 454 263 313 qgraincreation 0;
#X obj 14 16 inlet;
#X obj 14 260 outlet;
#X obj 179 20 inlet;
#X msg 179 44 0;
#X obj 14 48 t b l;
#X obj 14 80 f;
#X obj 47 81 + 1;
#X obj 14 104 * 20;
#X obj 14 126 + 10;
#X obj 102 138 unpack s s f;
#X obj 92 118 makesymbol %s-%s-%s;
#X obj 14 212 t b a;
#X msg 14 236 loadbang;
#X obj 14 165 pack f f s s s f;
#X obj 50 116 b;
#X obj 50 138 \$1;
#X msg 13 189 obj 10 \$1 qgrain \$2 \$3 \$4 \$5 \$6;
#X connect 0 0 4 0;
#X connect 2 0 3 0;
#X connect 3 0 5 1;
#X connect 4 0 5 0;
#X connect 4 1 9 0;
#X connect 4 1 10 0;
#X connect 4 1 14 0;
#X connect 5 0 6 0;
#X connect 5 0 7 0;
#X connect 6 0 5 1;
#X connect 7 0 8 0;
#X connect 8 0 13 0;
#X connect 9 0 13 3;
#X connect 9 1 13 4;
#X connect 9 2 13 5;
#X connect 10 0 13 2;
#X connect 11 0 12 0;
#X connect 11 1 1 0;
#X connect 12 0 1 0;
#X connect 13 0 16 0;
#X connect 14 0 15 0;
#X connect 15 0 13 1;
#X connect 16 0 11 0;
#X restore 184 205 pd qgraincreation;
#X msg 206 166 vis \$1;
#X obj 24 51 route \$2;
#X obj 24 128 symbol \$2;
#X obj 24 228 s \$3;
#X obj 184 231 s \$4;
#X obj 206 142 r \$5-pattern-vis-s;
#X obj 24 3 r \$1-qseq-pat-r;
#X obj 24 27 route list;
#X obj 103 68 r \$5-resetlocal;
#X connect 0 0 11 0;
#X connect 1 0 0 1;
#X connect 1 0 7 1;
#X connect 1 0 11 0;
#X connect 1 0 12 0;
#X connect 2 0 10 0;
#X connect 2 1 3 0;
#X connect 3 0 6 0;
#X connect 4 0 0 0;
#X connect 4 0 7 0;
#X connect 5 0 1 0;
#X connect 5 1 2 0;
#X connect 6 0 4 1;
#X connect 6 1 4 2;
#X connect 7 0 12 0;
#X connect 8 0 11 0;
#X connect 9 0 5 0;
#X connect 10 0 4 0;
#X connect 13 0 8 0;
#X connect 14 0 15 0;
#X connect 15 0 9 0;
#X connect 16 0 1 0;
#X restore 9 11 pd gui-qgrain-creation;
#N canvas 802 331 204 147 patternreset 0;
#X obj 16 23 r \$5-resetpattern-s;
#X obj 16 89 s \$1-qseq-pat-b;
#X obj 16 45 symbol \$2;
#X msg 16 69 list \$1 clear;
#X connect 0 0 2 0;
#X connect 2 0 3 0;
#X connect 3 0 1 0;
#X restore 9 33 pd patternreset;
#N canvas 552 385 423 510 patterngui-ctrl 0;
#N canvas 722 165 264 555 scrollgui_instr 0;
#X obj 32 421 outlet;
#X obj 94 423 s \$5-instrsld-r;
#X msg 94 402 label \$1;
#X obj 143 153 r \$5-loadbang;
#X msg 62 230 get \$1;
#X obj 32 210 t b a;
#X obj 32 292 list;
#N canvas 603 55 248 248 feeling 0;
#X obj 14 14 r \$5-instrsld-s;
#X obj 103 188 s \$5-instrsld-r;
#X obj 14 40 sel -1 1;
#X msg 103 83 set -0.5;
#X msg 166 83 set 0.5;
#X obj 14 192 -1;
#X obj 39 192 1;
#X obj 14 224 outlet;
#X obj 54 120 del 200;
#X msg 54 142 set 0;
#X obj 115 120 r \$5-loadbang;
#X connect 0 0 2 0;
#X connect 2 0 3 0;
#X connect 2 0 5 0;
#X connect 2 0 8 0;
#X connect 2 1 4 0;
#X connect 2 1 6 0;
#X connect 2 1 8 0;
#X connect 3 0 1 0;
#X connect 4 0 1 0;
#X connect 5 0 7 0;
#X connect 6 0 7 0;
#X connect 8 0 9 0;
#X connect 9 0 1 0;
#X connect 10 0 9 0;
#X restore 32 13 pd feeling;
#X obj 62 252 s \$1.to.instrlist;
#X obj 62 271 r \$1.from.instrlist;
#X obj 79 52 r \$1.instrlist.length;
#X obj 32 138 max 0;
#X obj 32 160 min;
#X obj 32 89 f;
#X obj 32 112 +;
#X obj 32 58 t b a;
#X obj 79 137 - 1;
#X obj 32 35 / 3;
#X obj 32 185 int;
#X obj 32 317 sel empty;
#X obj 32 340 symbol no_instr;
#X obj 32 363 list;
#X obj 135 78 > 0;
#X obj 135 99 sel 1;
#X obj 135 122 spigot 1;
#X obj 205 122 0;
#X obj 84 190 s \$1.instrlist.getlength;
#X connect 2 0 1 0;
#X connect 3 0 18 0;
#X connect 3 0 26 0;
#X connect 4 0 8 0;
#X connect 5 0 6 0;
#X connect 5 1 4 0;
#X connect 6 0 19 0;
#X connect 7 0 17 0;
#X connect 9 0 6 1;
#X connect 10 0 16 0;
#X connect 10 0 22 0;
#X connect 11 0 12 0;
#X connect 12 0 13 1;
#X connect 12 0 18 0;
#X connect 13 0 14 0;
#X connect 14 0 11 0;
#X connect 15 0 13 0;
#X connect 15 1 14 1;
#X connect 16 0 12 1;
#X connect 17 0 15 0;
#X connect 18 0 5 0;
#X connect 19 0 20 0;
#X connect 19 1 21 0;
#X connect 20 0 21 0;
#X connect 21 0 2 0;
#X connect 21 0 0 0;
#X connect 22 0 23 0;
#X connect 23 0 24 0;
#X connect 24 0 25 0;
#X connect 24 0 18 0;
#X connect 25 0 24 1;
#X restore 86 30 pd scrollgui_instr;
#X obj 146 177 pack s s f;
#X obj 25 6 r \$5-createqgrain-s;
#X obj 146 464 s \$1-qseq-pat-b;
#N canvas 722 165 270 507 scrollgui_length 0;
#X msg 106 144 set \$1;
#X obj 14 60 sel -1;
#X obj 67 61 sel 1;
#X msg 67 94 0.5;
#X msg 14 94 -0.5;
#X obj 106 95 del 200;
#X msg 106 120 0;
#X obj 14 153 int;
#X obj 41 382 outlet;
#X obj 14 182 t b f;
#X obj 14 208 f;
#X obj 41 208 +;
#X msg 115 359 label \$1;
#X obj 78 277 int;
#X obj 14 14 r \$5-lengthsld-s;
#X obj 106 166 s \$5-lengthsld-r;
#X obj 78 253 / 2;
#X obj 115 381 s \$5-lengthsld-r;
#X obj 78 302 f;
#X obj 115 332 makesymbol %s;
#X obj 41 229 moses 2;
#X msg 41 251 2;
#X obj 158 95 r \$5-loadbang;
#X msg 74 171 32;
#X connect 0 0 15 0;
#X connect 1 0 4 0;
#X connect 1 0 5 0;
#X connect 2 0 3 0;
#X connect 2 0 5 0;
#X connect 3 0 0 0;
#X connect 4 0 0 0;
#X connect 5 0 6 0;
#X connect 6 0 0 0;
#X connect 7 0 9 0;
#X connect 9 0 10 0;
#X connect 9 1 11 1;
#X connect 10 0 11 0;
#X connect 11 0 10 1;
#X connect 11 0 20 0;
#X connect 12 0 17 0;
#X connect 13 0 18 0;
#X connect 14 0 1 0;
#X connect 14 0 2 0;
#X connect 14 0 7 0;
#X connect 16 0 13 0;
#X connect 18 0 8 0;
#X connect 18 0 19 0;
#X connect 19 0 12 0;
#X connect 20 0 21 0;
#X connect 20 1 16 0;
#X connect 21 0 10 1;
#X connect 22 0 6 0;
#X connect 22 0 23 0;
#X connect 23 0 10 0;
#X restore 227 29 pd scrollgui_length;
#X msg 25 226 loadbang;
#X obj 25 127 t b b;
#X obj 25 249 s \$4;
#X msg 25 56 1;
#X obj 25 101 sel 1;
#X obj 86 60 sel no_instr;
#X msg 37 80 0;
#X msg 73 84 1;
#X obj 153 90 t s b;
#X obj 146 150 symbol \$2;
#X obj 146 441 lister;
#X obj 162 351 r \$2-ping-r;
#X obj 146 200 t b l l b;
#X obj 146 416 sel 1;
#X obj 146 395 f;
#X msg 195 373 1;
#X msg 162 373 0;
#X obj 249 424 lister;
#X obj 249 401 b;
#X msg 249 447 \$1 \$2 \$3 already exists;
#X obj 249 469 print qseq;
#X obj 162 293 s \$0-interping;
#X obj 162 245 t b s;
#N canvas 1266 721 318 243 createsendto 0;
#X obj 16 37 t b s;
#X obj 16 58 \$0;
#X obj 16 14 inlet;
#X obj 17 124 pack s f s;
#X obj 17 79 t f f;
#X obj 17 101 makesymbol pd-%s-sendto;
#X msg 17 146 \; \$1 clear \; \$1 obj 20 20 r \$2-interping \; \$1
obj 20 45 s \$3 \; \$1 connect 0 0 1 0 \;;
#X connect 0 0 1 0;
#X connect 0 1 3 2;
#X connect 1 0 4 0;
#X connect 2 0 0 0;
#X connect 3 0 6 0;
#X connect 4 0 5 0;
#X connect 4 1 3 1;
#X connect 5 0 3 0;
#X restore 187 272 pd createsendto;
#X obj 162 222 makesymbol %s-%s-%s-ping-s;
#N canvas 893 360 128 113 \$0-sendto 0;
#X obj 20 20 r 1601-interping;
#X obj 20 45 s pattern1-hihat1-16-ping-s;
#X connect 0 0 1 0;
#X restore 162 325 pd \$0-sendto;
#X connect 0 0 10 0;
#X connect 1 0 17 0;
#X connect 2 0 8 0;
#X connect 4 0 1 2;
#X connect 5 0 7 0;
#X connect 6 0 5 0;
#X connect 6 1 14 0;
#X connect 8 0 9 0;
#X connect 9 0 6 0;
#X connect 10 0 11 0;
#X connect 10 1 13 0;
#X connect 11 0 9 1;
#X connect 12 0 9 1;
#X connect 13 0 1 1;
#X connect 13 1 12 0;
#X connect 14 0 1 0;
#X connect 15 0 3 0;
#X connect 16 0 21 0;
#X connect 17 0 19 0;
#X connect 17 1 29 0;
#X connect 17 2 15 1;
#X connect 17 2 22 1;
#X connect 17 3 20 0;
#X connect 18 0 15 0;
#X connect 19 0 18 0;
#X connect 20 0 19 1;
#X connect 21 0 19 1;
#X connect 21 0 23 0;
#X connect 22 0 24 0;
#X connect 23 0 22 0;
#X connect 24 0 25 0;
#X connect 27 0 26 0;
#X connect 27 1 28 0;
#X connect 29 0 27 0;
#X restore 9 55 pd patterngui-ctrl;
#N canvas 634 284 405 285 pattern-switch 0;
#X obj 18 10 r \$5-pattern-switch-s;
#X obj 18 162 t b f;
#X obj 18 184 symbol \$2-switch;
#X obj 18 206 pack s f;
#X obj 18 229 s \$1-qseq-pat-b;
#X obj 183 0 r \$5-loadbang;
#X obj 243 63 s \$5-pattern-switch-r;
#X msg 243 35 set 1;
#X obj 147 188 f;
#X msg 147 82 1;
#X obj 147 213 s \$2-state;
#X obj 190 89 r \$2-getstate;
#X obj 190 112 b;
#X obj 218 120 r \$1-qseq-pat-r;
#X obj 218 141 route list;
#X obj 218 162 route \$2-switch;
#X msg 198 36 set \$1;
#X obj 39 74 r \$1.patterndump;
#X obj 39 105 f;
#X connect 0 0 1 0;
#X connect 1 0 2 0;
#X connect 1 1 3 1;
#X connect 2 0 3 0;
#X connect 3 0 4 0;
#X connect 5 0 7 0;
#X connect 5 0 9 0;
#X connect 7 0 6 0;
#X connect 8 0 10 0;
#X connect 9 0 8 0;
#X connect 9 0 18 1;
#X connect 11 0 12 0;
#X connect 12 0 8 0;
#X connect 13 0 14 0;
#X connect 14 0 15 0;
#X connect 15 0 8 1;
#X connect 15 0 16 0;
#X connect 15 0 18 1;
#X connect 16 0 6 0;
#X connect 17 0 18 0;
#X connect 18 0 1 0;
#X restore 9 82 pd pattern-switch;
#N canvas 608 133 694 318 statedump 0;
#X obj 22 14 r \$1-qseq-pat-r;
#X obj 22 38 route list;
#X obj 22 88 route clear;
#X msg 22 133 clear;
#N canvas 824 261 145 230 prependadd 0;
#X obj 18 22 inlet;
#X obj 18 174 outlet;
#X obj 18 123 glue;
#X obj 18 53 t b a;
#X obj 51 103 a2l;
#X obj 18 146 route 1;
#X msg 18 76 1 add;
#X connect 0 0 3 0;
#X connect 2 0 5 0;
#X connect 3 0 6 0;
#X connect 3 1 4 0;
#X connect 4 0 2 1;
#X connect 5 0 1 0;
#X connect 6 0 2 0;
#X restore 83 135 pd prependadd;
#X obj 22 165 msgfile;
#X obj 22 215 t b s;
#X obj 22 239 symbol \$2;
#X obj 22 265 pack s s f;
#X obj 22 191 unpack s f;
#X msg 185 136 flush;
#X obj 22 290 s \$1-qseq-pat-b;
#X obj 185 87 r \$1.patterndump;
#X obj 22 62 route \$2;
#X obj 188 30 r \$5-resetlocal;
#X connect 0 0 1 0;
#X connect 1 0 13 0;
#X connect 2 0 3 0;
#X connect 2 1 4 0;
#X connect 3 0 5 0;
#X connect 4 0 5 0;
#X connect 5 0 9 0;
#X connect 6 0 7 0;
#X connect 6 1 8 1;
#X connect 7 0 8 0;
#X connect 8 0 11 0;
#X connect 9 0 6 0;
#X connect 9 1 8 2;
#X connect 10 0 5 0;
#X connect 12 0 10 0;
#X connect 13 0 2 0;
#X connect 14 0 3 0;
#X restore 9 104 pd statedump;
#X msg 145 48 version 0.0.3;
