#N canvas 233 212 610 301 12;
#X floatatom 38 223 0 0 0 0 - - -;
#X floatatom 191 221 0 0 0 0 - - -;
#X floatatom 110 225 0 0 0 0 - - -;
#X floatatom 271 222 0 0 0 0 - - -;
#X floatatom 29 59 0 0 0 0 - - -;
#X floatatom 124 58 0 0 0 0 - - -;
#X floatatom 167 60 0 0 0 0 - - -;
#X floatatom 264 58 0 0 0 0 - - -;
#X text 26 112 Abra ambas as copias para saber o que esta acontecendo...
;
#X obj 38 196 r um-a;
#X obj 110 197 r um-b;
#X obj 191 194 r dois-a;
#X obj 271 193 r dois-b;
#X obj 29 84 sinaldolar um;
#X obj 166 86 sinaldolar dois;
#X text 327 265 atualizado para Pd versão 0.34;
#X text 325 283 traduzido por Puredeposito;
#X text 32 13 Voce pode usar os parâmetros $ em abstrações para conseguir
sends e receives locais.;
#X connect 4 0 13 0;
#X connect 5 0 13 1;
#X connect 6 0 14 0;
#X connect 7 0 14 1;
#X connect 9 0 0 0;
#X connect 10 0 2 0;
#X connect 11 0 1 0;
#X connect 12 0 3 0;
