#N canvas 176 58 664 445 12;
#X msg 103 95 bang;
#X obj 103 121 random 100;
#X obj 102 174 bng 20 250 50 0 empty empty empty 0 -6 0 8 -262144 -1
-1;
#X obj 169 174 bng 20 250 50 0 empty empty empty 0 -6 0 8 -262144 -1
-1;
#X floatatom 205 148 3 0 100 0 - - -;
#X obj 103 149 moses 80;
#X msg 106 305 bang;
#X obj 106 331 random 100;
#X obj 105 384 bng 20 250 50 0 empty empty empty 0 -6 0 8 -262144 -1
-1;
#X obj 195 387 bng 20 250 50 0 empty empty empty 0 -6 0 8 -262144 -1
-1;
#X obj 106 359 moses 10;
#X obj 196 360 moses 30;
#X obj 263 387 bng 20 250 50 0 empty empty empty 0 -6 0 8 -262144 -1
-1;
#X text 103 409 10%;
#X text 193 410 20%;
#X text 265 409 70%;
#X text 152 93 <-- clique para testar;
#X text 249 148 <-- mudar a probabilidade;
#X text 155 303 <-- clique para testar;
#X text 44 18 Você pode gerar números randômicos balanceados a partir
de números distribuídos de maneira uniforme. Se você quer duas possibilidades
com uma probabilidade variável em cada \, faça assim:;
#X text 61 219 Essa forma envia um número para a esquerda 80% das vezes
\, a não ser que voce substitua o 80 usando a caixa de números. Isto
pode ser extendido permitindo mais de duas instancias \, como o exemplo
abaixo:;
#X text 391 424 traduzido por Puredepósito;
#X text 390 407 atualizado para Pd versão 0.35;
#X connect 0 0 1 0;
#X connect 1 0 5 0;
#X connect 4 0 5 1;
#X connect 5 0 2 0;
#X connect 5 1 3 0;
#X connect 6 0 7 0;
#X connect 7 0 10 0;
#X connect 10 0 8 0;
#X connect 10 1 11 0;
#X connect 11 0 9 0;
#X connect 11 1 12 0;
