#N canvas 478 22 706 544 10;
#X msg 530 212 zeros 5;
#X msg 530 192 eye 3;
#X msg 530 232 ones 4;
#X msg 530 252 diag 1 2 3 4;
#X msg 530 272 egg 4;
#X msg 530 292 diegg 3 2 1;
#X msg 442 174 bang;
#X floatatom 530 174 5 0 0 0 - - -;
#X msg 530 312 matrix 1 2 10 11;
#X msg 530 332 1 2 3 1 2 3 10 20 30;
#X msg 20 172 row;
#X msg 20 212 row \$1;
#X floatatom 20 193 4 0 0 0 - - -;
#X floatatom 20 279 4 0 0 0 - - -;
#X msg 20 297 row \$1 1 2 3 4;
#X floatatom 147 193 4 0 0 0 - - -;
#X floatatom 147 277 4 0 0 0 - - -;
#X msg 147 172 col;
#X msg 147 212 col \$1;
#X msg 147 296 col \$1 1 2 3 4;
#X msg 278 174 element;
#X msg 278 216 element \$1;
#X floatatom 278 238 4 0 0 0 - - -;
#X msg 278 257 element 3 \$1;
#X floatatom 278 196 4 0 0 0 - - -;
#X msg 278 296 element \$1 2 10;
#X floatatom 278 278 4 0 0 0 - - -;
#X msg 20 365 write /tmp/my_matrix.mtx;
#X msg 20 388 read /tmp/my_matrix.mtx;
#X msg 20 443 symbol TEST;
#X msg 162 443 symbol TEST;
#X text 21 424 load;
#X text 162 424 save;
#X obj 287 97 matrix;
#X text 21 148 get elements are local \, set elements are broadcasted
;
#X text 18 97 for more information about matrix see;
#X text 318 278 broadcasted;
#X text 189 276 broadcasted;
#X text 58 277 broadcasted;
#X text 54 173 local;
#X text 73 211 local;
#X text 184 172 local;
#X text 197 213 local;
#X text 342 173 local;
#X text 355 216 local;
#X text 368 257 local;
#X text 17 114 [netpd-mtx \$0 <name> <row> <col>] row and col are optional
;
#N canvas 0 22 240 301 print-matrix 0;
#X obj 55 39 inlet;
#X obj 14 227 spigot;
#X obj 109 227 spigot;
#X obj 37 197 f 1;
#X obj 65 197 f 0;
#X obj 132 197 f 1;
#X obj 160 197 f 0;
#X obj 86 156 b;
#X obj 131 157 b;
#X obj 56 97 t a a;
#X obj 55 63 t a b;
#X obj 86 119 route matrix;
#X obj 14 249 mtx_print;
#X obj 109 249 print;
#X connect 0 0 10 0;
#X connect 1 0 12 0;
#X connect 2 0 13 0;
#X connect 3 0 1 1;
#X connect 4 0 1 1;
#X connect 5 0 2 1;
#X connect 6 0 2 1;
#X connect 7 0 3 0;
#X connect 7 0 6 0;
#X connect 8 0 5 0;
#X connect 8 0 4 0;
#X connect 9 0 1 0;
#X connect 9 0 2 0;
#X connect 9 1 11 0;
#X connect 10 0 9 0;
#X connect 10 1 4 0;
#X connect 10 1 6 0;
#X connect 11 0 7 0;
#X connect 11 1 8 0;
#X restore 374 386 pd print-matrix;
#X text 528 157 broadcasted;
#X obj 374 362 netpd-mtx \$0 hello-mtx 4 2;
#X obj 20 464 netpd-x \$0 _hello-mtx;
#X text 20 500 e(x)tended abs and [netpd-x].;
#X text 20 16 BROADCASTING DATA FROM MATRIX (extended);
#X text 21 483 see 'help-netpd-x.pd' to get more info about the;
#X text 20 344 not supported :;
#X text 441 155 local;
#X obj 506 492 print;
#X obj 506 472 r netpd-receive;
#X obj 435 492 s \$0.dump;
#X obj 435 473 bng 15 250 50 0 empty empty empty 0 -6 0 8 -262144 -1
-1;
#X text 433 450 just for netpd testing;
#X text 19 49 !!!!!! THIS ABSTARCTION NEEDS THE LIB IEMMATRIX !!!!!!
;
#X text 626 501 v. 0.0.4;
#X text 18 68 [netpd-mtx] is netpd-ized version of [matrix];
#X text 350 68 (made by e.erne);
#X connect 0 0 49 0;
#X connect 1 0 49 0;
#X connect 2 0 49 0;
#X connect 3 0 49 0;
#X connect 4 0 49 0;
#X connect 5 0 49 0;
#X connect 6 0 49 0;
#X connect 7 0 49 0;
#X connect 8 0 49 0;
#X connect 9 0 49 0;
#X connect 10 0 49 0;
#X connect 11 0 49 0;
#X connect 12 0 11 0;
#X connect 13 0 14 0;
#X connect 14 0 49 0;
#X connect 15 0 18 0;
#X connect 16 0 19 0;
#X connect 17 0 49 0;
#X connect 18 0 49 0;
#X connect 19 0 49 0;
#X connect 20 0 49 0;
#X connect 21 0 49 0;
#X connect 22 0 23 0;
#X connect 23 0 49 0;
#X connect 24 0 21 0;
#X connect 25 0 49 0;
#X connect 26 0 25 0;
#X connect 29 0 50 0;
#X connect 30 0 50 1;
#X connect 49 0 47 0;
#X connect 57 0 56 0;
#X connect 59 0 58 0;
