#N canvas 388 191 210 370 10;
#X obj 16 35 inlet;
#X obj 16 204 s netpd-broadcast;
#X text 13 13 [netpd-a <sendsymbol>];
#X obj 16 159 list prepend \$1;
#X obj 72 107 list;
#X obj 72 83 b;
#X obj 72 60 r \$1-getstate;
#X obj 72 129 s \$1-state;
#X obj 16 181 list trim;
#X obj 16 230 r netpd-receive;
#X obj 16 252 route \$1;
#X obj 16 275 outlet;
#X msg 69 35 version 0.2.2;
#X connect 0 0 3 0;
#X connect 0 0 4 1;
#X connect 3 0 8 0;
#X connect 4 0 7 0;
#X connect 5 0 4 0;
#X connect 6 0 5 0;
#X connect 8 0 1 0;
#X connect 9 0 10 0;
#X connect 10 0 11 0;
