#N canvas 495 328 569 423 10;
#X msg 196 175 0;
#X msg 228 176 1;
#X obj 157 279 r \$1.dump;
#X obj 294 281 r \$1.getpreset;
#X obj 294 367 s \$1.preset;
#X obj 9 51 r \$2;
#X obj 145 225 s \$3;
#X msg 145 181 set \$1;
#X obj 284 74 r netpd-receive;
#X obj 9 181 s netpd-broadcast;
#X obj 303 206 outlet;
#X text 5 7 [netpd-fx \$0 <sendsymbol> <receivesymbol> <startvalue>]
;
#X text 11 35 LOCAL;
#X text 302 251 PRESET;
#X obj 157 362 s netpd-send;
#X obj 284 96 route \$2 \$2-nogui;
#X obj 10 355 s netpd-receive;
#X obj 442 305 b;
#X obj 9 139 list prepend \$2;
#X obj 9 160 list trim;
#X msg 451 43 version 0.4.3;
#X obj 10 334 list trim;
#X obj 10 272 loadbang;
#X obj 10 292 spigot 1;
#X msg 73 292 0;
#X text 7 249 INIT;
#X obj 157 300 list append \$2;
#X obj 157 320 list append \$4;
#X text 159 249 DUMP;
#X obj 157 340 list trim;
#X obj 442 284 r \$2.getstate;
#X obj 442 349 s \$2.state;
#X obj 294 305 list append \$2;
#X obj 294 325 list append \$4;
#X obj 294 345 list trim;
#X text 450 254 STATE;
#X obj 145 201 spigot 1;
#X obj 228 153 del 1000;
#X obj 407 132 t a a;
#X obj 303 158 route float;
#X obj 338 182 symbol;
#X obj 442 327 list prepend \$4;
#X obj 145 161 list;
#X obj 10 314 list prepend \$2 \$4;
#X obj 9 74 t b a b;
#X obj 9 117 list;
#X obj 9 96 del 50;
#X connect 0 0 36 1;
#X connect 1 0 36 1;
#X connect 2 0 26 0;
#X connect 3 0 32 0;
#X connect 5 0 44 0;
#X connect 7 0 36 0;
#X connect 8 0 15 0;
#X connect 15 0 38 0;
#X connect 15 0 42 0;
#X connect 15 1 38 0;
#X connect 17 0 41 0;
#X connect 18 0 19 0;
#X connect 19 0 9 0;
#X connect 21 0 16 0;
#X connect 22 0 23 0;
#X connect 23 0 24 0;
#X connect 23 0 43 0;
#X connect 24 0 23 1;
#X connect 26 0 27 0;
#X connect 27 0 29 0;
#X connect 29 0 14 0;
#X connect 30 0 17 0;
#X connect 32 0 33 0;
#X connect 33 0 34 0;
#X connect 34 0 4 0;
#X connect 36 0 6 0;
#X connect 37 0 1 0;
#X connect 38 0 39 0;
#X connect 38 1 33 1;
#X connect 38 1 27 1;
#X connect 38 1 41 1;
#X connect 39 0 10 0;
#X connect 39 1 40 0;
#X connect 40 0 10 0;
#X connect 41 0 31 0;
#X connect 42 0 7 0;
#X connect 43 0 21 0;
#X connect 44 0 46 0;
#X connect 44 1 45 1;
#X connect 44 2 37 0;
#X connect 44 2 0 0;
#X connect 45 0 18 0;
#X connect 46 0 45 0;
