#N canvas 430 22 751 462 10;
#X obj 9 12 inlet;
#X obj 342 183 r \$1.dump;
#X obj 465 393 s \$1.preset;
#X obj 442 183 r \$1.getpreset;
#X obj 191 12 inlet;
#X obj 191 393 outlet;
#X obj 274 293 spigot;
#X obj 435 293 spigot;
#X obj 311 273 f 1;
#X obj 472 273 f 1;
#X obj 442 203 t b b;
#X obj 161 303 spigot;
#X obj 198 283 f 1;
#X obj 226 313 f 0;
#N canvas 31 322 153 200 float-check 0;
#X obj 16 24 inlet;
#X obj 16 144 outlet;
#X obj 16 44 route float;
#X obj 16 64 t b f;
#X obj 16 104 pack s f;
#X obj 16 84 symbol float;
#X obj 16 124 route list;
#X connect 0 0 2 0;
#X connect 2 0 3 0;
#X connect 2 1 1 0;
#X connect 3 0 5 0;
#X connect 3 1 4 1;
#X connect 4 0 6 0;
#X connect 5 0 4 0;
#X connect 6 0 1 0;
#X restore 202 132 pd float-check;
#X obj 9 32 route bang;
#X obj 9 112 t b b;
#X obj 342 203 t b f b;
#X text 347 14 [netpd_mtx \$0 <name> <row> <col>];
#X obj 304 393 s netpd-send;
#X obj 357 72 r \$2-mtx.i1;
#X obj 446 72 r \$2-mtx.i2;
#X obj 357 132 s \$2-mtx.o;
#X obj 191 32 s \$2-mtx.i2;
#X obj 442 223 s \$2-mtx.i1;
#X obj 342 223 s \$2-mtx.i1;
#X obj 9 152 s \$2-mtx.i1;
#X obj 202 202 s \$2-mtx.i1;
#X obj 435 253 r \$2-mtx.o;
#X obj 274 253 r \$2-mtx.o;
#X obj 161 253 r \$2-mtx.o;
#X obj 304 353 list prepend;
#X obj 304 333 list prepend \$2;
#X obj 304 373 list trim;
#X obj 465 333 list prepend \$2;
#X obj 161 323 t b a;
#X obj 500 303 f 0;
#X obj 435 313 t b a;
#X obj 339 303 f 0;
#X obj 274 313 t b a;
#X obj 465 353 list trim;
#X obj 42 373 mtx_resize;
#X obj 12 253 t b b a;
#X obj 12 333 spigot;
#X obj 77 343 f 0;
#X obj 12 353 t b a;
#X obj 12 273 s \$2-mtx.i1;
#X obj 49 313 f 1;
#X obj 12 293 r \$2-mtx.o;
#X obj 42 393 s \$2-mtx.i2;
#X obj 74 112 route resize matrix;
#X obj 138 132 t a b;
#N canvas 325 303 390 400 broadcast___ 0;
#X obj 55 23 inlet;
#X obj 14 357 outlet;
#X obj 14 227 spigot;
#X obj 109 227 spigot;
#X obj 37 197 f 1;
#X obj 65 197 f 0;
#X obj 132 197 f 1;
#X obj 160 197 f 0;
#X obj 86 156 b;
#X obj 56 97 t a a;
#X obj 55 63 t a b;
#X obj 179 157 print netpd-mtx:NO-SUPPORT;
#N canvas 539 83 676 319 bc-elements 0;
#X obj 14 31 route row col element;
#X obj 14 11 inlet;
#X obj 14 52 length;
#X obj 14 73 select 0 1;
#X obj 17 203 outlet;
#X obj 279 203 outlet;
#X obj 108 52 length;
#X obj 108 73 select 0 1 2;
#X obj 552 203 outlet;
#X obj 312 72 route eye zeros ones diag egg diegg;
#X obj 156 52 route list matrix float;
#X obj 519 116 route resize;
#X connect 0 0 2 0;
#X connect 0 1 2 0;
#X connect 0 2 6 0;
#X connect 0 3 10 0;
#X connect 1 0 0 0;
#X connect 2 0 3 0;
#X connect 3 0 5 0;
#X connect 3 1 5 0;
#X connect 3 2 4 0;
#X connect 6 0 7 0;
#X connect 7 0 5 0;
#X connect 7 1 5 0;
#X connect 7 2 5 0;
#X connect 7 3 4 0;
#X connect 9 0 4 0;
#X connect 9 1 4 0;
#X connect 9 2 4 0;
#X connect 9 3 4 0;
#X connect 9 4 4 0;
#X connect 9 5 4 0;
#X connect 9 6 11 0;
#X connect 10 0 4 0;
#X connect 10 1 4 0;
#X connect 10 2 4 0;
#X connect 10 3 9 0;
#X connect 11 0 4 0;
#X connect 11 1 8 0;
#X restore 86 119 pd bc-elements;
#X text 125 27 broadcast-check;
#X text 125 42 - no read/write support;
#X obj 14 317 r netpd-receive;
#X obj 14 337 route \$2;
#X obj 14 287 s netpd-broadcast;
#X obj 14 247 list prepend \$2;
#X obj 14 267 list trim;
#X obj 200 357 outlet;
#X obj 131 157 b;
#X connect 0 0 10 0;
#X connect 2 0 18 0;
#X connect 3 0 1 0;
#X connect 4 0 2 1;
#X connect 5 0 2 1;
#X connect 6 0 3 1;
#X connect 7 0 3 1;
#X connect 8 0 4 0;
#X connect 8 0 7 0;
#X connect 9 0 2 0;
#X connect 9 0 3 0;
#X connect 9 1 12 0;
#X connect 10 0 9 0;
#X connect 10 1 5 0;
#X connect 10 1 7 0;
#X connect 12 0 8 0;
#X connect 12 1 21 0;
#X connect 12 2 11 0;
#X connect 15 0 16 0;
#X connect 16 0 1 0;
#X connect 18 0 19 0;
#X connect 19 0 17 0;
#X connect 21 0 6 0;
#X connect 21 0 5 0;
#X connect 21 0 20 0;
#X restore 74 52 pd broadcast___;
#X obj 138 152 list prepend matrix;
#X obj 138 172 list trim;
#X obj 574 286 spigot;
#X obj 611 266 f 1;
#X obj 581 196 t b b;
#X obj 574 246 r \$2-mtx.o;
#X obj 639 296 f 0;
#X obj 574 306 t b a;
#X obj 357 102 mtx \$3 \$4;
#X obj 581 176 r \$2.getstate;
#X obj 581 216 s \$2.mtx.i1;
#X msg 480 34 version 0.4.3;
#X obj 599 393 s \$2.state;
#X connect 0 0 15 0;
#X connect 1 0 17 0;
#X connect 3 0 10 0;
#X connect 4 0 23 0;
#X connect 6 0 39 0;
#X connect 7 0 37 0;
#X connect 8 0 6 1;
#X connect 9 0 7 1;
#X connect 10 0 24 0;
#X connect 10 1 9 0;
#X connect 11 0 35 0;
#X connect 12 0 11 1;
#X connect 13 0 11 1;
#X connect 14 0 27 0;
#X connect 15 0 16 0;
#X connect 15 1 52 0;
#X connect 16 0 26 0;
#X connect 16 1 12 0;
#X connect 17 0 25 0;
#X connect 17 1 31 1;
#X connect 17 2 8 0;
#X connect 20 0 61 0;
#X connect 21 0 61 1;
#X connect 28 0 7 0;
#X connect 29 0 6 0;
#X connect 30 0 11 0;
#X connect 31 0 33 0;
#X connect 32 0 31 0;
#X connect 33 0 19 0;
#X connect 34 0 40 0;
#X connect 35 0 13 0;
#X connect 35 1 5 0;
#X connect 36 0 7 1;
#X connect 37 0 36 0;
#X connect 37 1 34 0;
#X connect 38 0 6 1;
#X connect 39 0 38 0;
#X connect 39 1 32 0;
#X connect 40 0 2 0;
#X connect 41 0 49 0;
#X connect 42 0 46 0;
#X connect 42 1 47 0;
#X connect 42 2 41 1;
#X connect 43 0 45 0;
#X connect 44 0 43 1;
#X connect 45 0 44 0;
#X connect 45 1 41 0;
#X connect 47 0 43 1;
#X connect 48 0 43 0;
#X connect 50 0 42 0;
#X connect 50 1 51 0;
#X connect 50 2 14 0;
#X connect 51 0 53 0;
#X connect 51 1 12 0;
#X connect 52 0 50 0;
#X connect 52 1 12 0;
#X connect 53 0 54 0;
#X connect 54 0 27 0;
#X connect 55 0 60 0;
#X connect 56 0 55 1;
#X connect 57 0 63 0;
#X connect 57 1 56 0;
#X connect 58 0 55 0;
#X connect 59 0 55 1;
#X connect 60 0 59 0;
#X connect 60 1 65 0;
#X connect 61 0 22 0;
#X connect 62 0 57 0;
