#N canvas 641 450 423 211 10;
#X obj 15 34 inlet;
#X text 21 6 [netpd-tx \$0 <tablename> <tablesize>];
#N canvas 61 22 387 579 array 0;
#X obj 14 117 -;
#X obj 95 217 f;
#X obj 65 217 f;
#X obj 65 197 t b b;
#X obj 14 47 t f f f;
#X obj 14 87 t f f;
#X obj 95 489 s netpd-broadcast;
#N canvas 0 22 450 300 graph1 0;
#X array \$2-compare 46 float 0;
#X coords 0 30 45 0 10 10 1;
#X restore 240 204 graph;
#X obj 308 7 inlet;
#X obj 217 253 r netpd-receive;
#X obj 95 332 spigot;
#X obj 65 277 t b f;
#X obj 95 237 t b f;
#X obj 125 352 t f f;
#X obj 95 372 t b f f;
#X obj 14 157 int;
#X obj 14 177 sel 0 -1;
#X obj 14 137 * 10000;
#N canvas 170 81 357 416 counter 0;
#X obj 18 128 t f f;
#X msg 18 188 0 \, \$1 \$2;
#X obj 18 108 - 1;
#X obj 194 216 - 1;
#X obj 164 236 sel 0;
#X obj 164 256 t b b b;
#X obj 245 255 t b b b;
#X obj 164 306 spigot;
#X obj 245 305 spigot;
#X obj 164 326 t b b;
#X obj 245 325 t b b;
#X obj 95 64 b;
#X text 163 59 minimale zyklusdauer;
#X obj 18 359 outlet;
#X obj 48 148 * 5;
#X obj 18 208 line 0 5;
#X obj 18 12 inlet;
#X obj 156 357 b;
#X obj 18 88 f \$3;
#X obj 18 168 pack f f;
#X obj 194 196 f \$3;
#X obj 245 235 del 330;
#X obj 95 44 t b b;
#X obj 289 275 f 1;
#X obj 245 275 f 0;
#X obj 208 276 f 1;
#X obj 164 276 f 0;
#X obj 95 -3 loadbang;
#X obj 95 20 spigot 1;
#X msg 161 19 0;
#X connect 0 0 19 0;
#X connect 0 1 14 0;
#X connect 1 0 15 0;
#X connect 2 0 0 0;
#X connect 3 0 4 1;
#X connect 4 0 5 0;
#X connect 5 0 26 0;
#X connect 5 1 7 0;
#X connect 5 2 25 0;
#X connect 6 0 24 0;
#X connect 6 1 8 0;
#X connect 6 2 23 0;
#X connect 7 0 9 0;
#X connect 8 0 10 0;
#X connect 9 0 17 0;
#X connect 9 1 24 0;
#X connect 9 1 26 0;
#X connect 10 0 17 0;
#X connect 10 1 24 0;
#X connect 10 1 26 0;
#X connect 11 0 18 0;
#X connect 11 0 21 0;
#X connect 14 0 19 1;
#X connect 15 0 4 0;
#X connect 15 0 13 0;
#X connect 16 0 18 0;
#X connect 16 0 20 0;
#X connect 17 0 11 0;
#X connect 18 0 2 0;
#X connect 19 0 1 0;
#X connect 20 0 3 0;
#X connect 21 0 6 0;
#X connect 22 0 11 0;
#X connect 22 1 20 0;
#X connect 23 0 7 1;
#X connect 24 0 8 1;
#X connect 25 0 8 1;
#X connect 26 0 7 1;
#X connect 27 0 28 0;
#X connect 28 0 29 0;
#X connect 28 0 22 0;
#X connect 29 0 28 1;
#X restore 14 27 pd counter;
#X obj 217 322 unpack f f;
#X obj 95 449 pack s f f;
#X msg 95 469 \$1 \$2 \$3;
#X obj 14 67 tabread \$2;
#X obj 217 273 route \$2;
#X obj 217 342 tabwrite \$2;
#X obj 95 429 symbol \$2;
#X obj 153 402 tabwrite \$2-compare;
#X obj 89 67 tabread \$2-compare;
#X obj 227 101 s \$2-compare;
#X msg 227 81 resize \$1;
#X obj 227 61 f \$3;
#X text 277 61 tabsize;
#X obj 95 257 f 1;
#X obj 65 297 f 0;
#X obj 227 5 loadbang;
#X obj 227 33 spigot 1;
#X msg 293 32 0;
#X obj 217 294 route resize dump;
#X connect 0 0 17 0;
#X connect 1 0 12 0;
#X connect 2 0 11 0;
#X connect 3 0 2 0;
#X connect 3 1 1 0;
#X connect 4 0 22 0;
#X connect 4 1 27 0;
#X connect 4 2 1 1;
#X connect 5 0 0 0;
#X connect 5 1 2 1;
#X connect 8 0 18 0;
#X connect 8 0 30 0;
#X connect 9 0 23 0;
#X connect 10 0 14 0;
#X connect 11 0 33 0;
#X connect 11 1 10 0;
#X connect 12 0 32 0;
#X connect 12 1 13 0;
#X connect 13 0 20 2;
#X connect 13 1 26 1;
#X connect 14 0 25 0;
#X connect 14 1 20 1;
#X connect 14 2 26 0;
#X connect 15 0 16 0;
#X connect 16 2 3 0;
#X connect 17 0 15 0;
#X connect 18 0 4 0;
#X connect 19 0 24 0;
#X connect 19 0 26 0;
#X connect 19 1 24 1;
#X connect 19 1 26 1;
#X connect 20 0 21 0;
#X connect 21 0 6 0;
#X connect 22 0 5 0;
#X connect 23 0 37 0;
#X connect 25 0 20 0;
#X connect 27 0 0 1;
#X connect 29 0 28 0;
#X connect 30 0 29 0;
#X connect 32 0 10 1;
#X connect 33 0 10 1;
#X connect 34 0 35 0;
#X connect 35 0 36 0;
#X connect 35 0 30 0;
#X connect 36 0 35 1;
#X connect 37 2 19 0;
#X restore 15 132 pd array;
#N canvas 601 22 477 240 arrayx 0;
#X obj 323 16 r \$1.dump;
#X obj 177 20 r \$1.getpreset;
#X obj 24 22 r netpd-receive;
#X obj 177 130 s \$1.preset;
#X obj 68 110 length;
#X obj 46 157 tabset \$2;
#X obj 24 177 tabset \$2-compare;
#X obj 177 60 tabdump \$2;
#X obj 177 40 bang;
#X obj 367 121 tabdump \$2;
#X obj 323 172 s netpd-send;
#X obj 24 84 t l l l;
#X obj 323 148 list append;
#X obj 177 107 list trim;
#X obj 68 135 outlet;
#X obj 323 42 t f b;
#X obj 24 42 route \$2;
#X obj 24 63 route dump;
#X obj 177 84 list prepend \$2 dump;
#X obj 323 95 list append \$2 dump;
#X connect 0 0 15 0;
#X connect 1 0 8 0;
#X connect 2 0 16 0;
#X connect 4 0 14 0;
#X connect 7 0 18 0;
#X connect 8 0 7 0;
#X connect 9 0 12 1;
#X connect 11 0 6 0;
#X connect 11 1 5 0;
#X connect 11 2 4 0;
#X connect 12 0 10 0;
#X connect 13 0 3 0;
#X connect 15 0 19 0;
#X connect 15 1 9 0;
#X connect 16 0 17 0;
#X connect 17 0 11 0;
#X connect 18 0 13 0;
#X connect 19 0 12 0;
#X restore 111 93 pd arrayx;
#N canvas 116 82 406 410 netpd-f 0;
#X obj 13 296 spigot;
#X obj 165 297 outlet;
#X obj 13 190 r netpd-receive;
#X obj 14 7 r \$2-resize;
#X obj 14 160 s netpd-broadcast;
#X obj 224 180 f 0;
#X obj 254 180 f 1;
#X obj 104 7 inlet;
#X obj 40 270 f \$3;
#X obj 165 277 \$3;
#X obj 14 139 list trim;
#X obj 14 98 t f b;
#X obj 255 160 del 1000;
#X msg 13 323 set \$1;
#X obj 13 348 s \$2-resize-r;
#X obj 200 62 b;
#X obj 200 40 spigot 1;
#X msg 266 39 0;
#X obj 200 18 loadbang;
#X obj 14 119 list prepend \$2 resize;
#X obj 13 210 route \$2;
#X obj 13 231 route resize;
#X obj 14 34 t b f;
#X obj 14 55 del 60;
#X obj 14 76 f;
#X connect 0 0 13 0;
#X connect 2 0 20 0;
#X connect 3 0 22 0;
#X connect 5 0 0 1;
#X connect 6 0 0 1;
#X connect 7 0 13 0;
#X connect 7 0 22 0;
#X connect 8 0 0 0;
#X connect 9 0 1 0;
#X connect 10 0 4 0;
#X connect 11 0 19 0;
#X connect 11 1 5 0;
#X connect 11 1 12 0;
#X connect 12 0 6 0;
#X connect 13 0 14 0;
#X connect 15 0 6 0;
#X connect 15 0 8 0;
#X connect 15 0 9 0;
#X connect 16 0 17 0;
#X connect 16 0 15 0;
#X connect 17 0 16 1;
#X connect 18 0 16 0;
#X connect 19 0 10 0;
#X connect 20 0 21 0;
#X connect 21 0 0 0;
#X connect 21 0 9 0;
#X connect 22 0 23 0;
#X connect 22 1 24 1;
#X connect 23 0 24 0;
#X connect 24 0 11 0;
#X restore 15 95 pd netpd-f;
#X text 52 33 [tablesize];
#X obj 304 137 tabdump \$2;
#X obj 304 118 b;
#X obj 304 98 r \$2.getstate;
#X obj 304 157 s \$2.state;
#X obj 111 153 s \$2;
#X msg 111 133 resize \$1;
#X msg 191 129 set \$1;
#X obj 191 154 s \$2-resize-r;
#X msg 173 33 version 0.2.5;
#X connect 0 0 4 0;
#X connect 3 0 2 0;
#X connect 3 0 11 0;
#X connect 3 0 12 0;
#X connect 4 0 2 0;
#X connect 4 0 11 0;
#X connect 6 0 9 0;
#X connect 7 0 6 0;
#X connect 8 0 7 0;
#X connect 11 0 10 0;
#X connect 12 0 13 0;
