#N canvas 352 130 676 536 10;
#X obj 14 120 -;
#X obj 63 239 f;
#X obj 20 250 f;
#X obj 19 222 t b b;
#X obj 14 47 t f f f;
#X obj 14 98 t f f;
#X obj 10 490 s netpd-broadcast;
#N canvas 0 22 450 300 graph1 0;
#X array \$1-compare 20 float 0;
#X coords 0 30 19 0 10 10 1;
#X restore 121 185 graph;
#X obj 14 74 tabread \$1;
#X obj 392 313 loadbang;
#X obj 260 311 inlet;
#X obj 244 52 r netpd-receive;
#X obj 244 73 route \$1;
#X obj 387 149 tabwrite \$1;
#X obj 30 332 spigot;
#X obj 20 275 t b f;
#X obj 33 301 0;
#X obj 62 305 1;
#X obj 63 282 t b f;
#X obj 93 355 t f f;
#X obj 36 354 t b f f;
#X obj 13 396 symbol \$1;
#X obj 15 170 int;
#X obj 15 191 sel 0 -1;
#X obj 14 148 * 10000;
#N canvas 450 207 388 464 counter 0;
#X obj 62 113 \$2;
#X obj 62 151 t f f;
#X obj 62 192 pack;
#X msg 62 213 0 \, \$1 \$2;
#X obj 62 132 - 1;
#X obj 163 237 - 1;
#X obj 163 217 \$2;
#X obj 138 265 sel 0;
#X obj 138 290 t b b b;
#X obj 219 289 t b b b;
#X obj 175 315 1;
#X obj 138 314 0;
#X obj 256 312 1;
#X obj 219 312 0;
#X obj 156 345 spigot;
#X obj 237 346 spigot;
#X obj 156 365 t b b;
#X obj 237 367 t b b;
#X obj 219 266 del;
#X text 241 213 minimale zyklusdauer;
#X obj 62 384 outlet;
#X obj 87 172 * 5;
#X obj 62 235 line 0 5;
#X msg 235 184 330;
#X obj 62 39 r counter;
#X obj 62 62 t f f;
#X obj 141 32 t b b b;
#X obj 141 7 loadbang;
#X obj 141 65 t b b;
#X obj 210 405 b;
#X connect 0 0 4 0;
#X connect 1 0 2 0;
#X connect 1 1 21 0;
#X connect 2 0 3 0;
#X connect 3 0 22 0;
#X connect 4 0 1 0;
#X connect 5 0 7 1;
#X connect 6 0 5 0;
#X connect 7 0 8 0;
#X connect 8 0 11 0;
#X connect 8 1 14 0;
#X connect 8 2 10 0;
#X connect 9 0 13 0;
#X connect 9 1 15 0;
#X connect 9 2 12 0;
#X connect 10 0 15 1;
#X connect 11 0 14 1;
#X connect 12 0 14 1;
#X connect 13 0 15 1;
#X connect 14 0 16 0;
#X connect 15 0 17 0;
#X connect 16 0 29 0;
#X connect 16 1 13 0;
#X connect 16 1 11 0;
#X connect 17 0 29 0;
#X connect 17 1 13 0;
#X connect 17 1 11 0;
#X connect 18 0 9 0;
#X connect 21 0 2 1;
#X connect 22 0 7 0;
#X connect 22 0 20 0;
#X connect 23 0 18 1;
#X connect 24 0 25 0;
#X connect 25 0 0 0;
#X connect 25 1 6 0;
#X connect 26 0 28 0;
#X connect 26 1 6 0;
#X connect 26 2 23 0;
#X connect 27 0 26 0;
#X connect 28 0 0 0;
#X connect 28 1 18 0;
#X connect 29 0 28 0;
#X restore 14 16 pd counter;
#X msg 244 204 \; \$1-compare resize \$2;
#X obj 379 118 unpack f f;
#X obj 9 424 pack s f f;
#X msg 10 466 \$1 \$2 \$3;
#X obj 100 409 tabwrite \$1-compare;
#X obj 379 170 tabwrite \$1-compare;
#X obj 260 424 symbol \$1;
#X msg 278 402 symbol resize;
#X obj 260 445 pack s s f;
#X obj 260 340 \$2;
#X text 292 290 set arraysize;
#X obj 244 94 route resize;
#X obj 244 157 symbol \$1;
#X obj 244 179 pack s f;
#X obj 89 74 tabread \$1-compare;
#X obj 313 381 s counter;
#X msg 262 241 \; \$1 resize \$2;
#X obj 306 311 r \$1-resize;
#X text 153 24 [netpd-t <arrayname> <arraysize>];
#X obj 244 115 t b f f;
#X obj 385 382 s \$0-blockgui;
#X obj 260 360 t b b f f b;
#N canvas 396 359 218 151 send2gui 0;
#X obj 125 22 inlet;
#X obj 24 120 s \$1-resize-r;
#X obj 25 20 r \$0-blockgui;
#X msg 24 96 set \$1;
#X obj 24 42 del 300;
#X obj 24 67 f;
#X connect 0 0 5 1;
#X connect 2 0 4 0;
#X connect 3 0 1 0;
#X connect 4 0 5 0;
#X connect 5 0 3 0;
#X restore 288 137 pd send2gui;
#X obj 507 344 b;
#X obj 507 322 r \$1-getstate;
#X obj 507 388 s \$1-state;
#X msg 381 44 version 0.2.4;
#X obj 507 366 tabdump \$1;
#X connect 0 0 24 0;
#X connect 1 0 18 0;
#X connect 2 0 15 0;
#X connect 3 0 2 0;
#X connect 3 1 1 0;
#X connect 4 0 8 0;
#X connect 4 1 40 0;
#X connect 4 2 1 1;
#X connect 5 0 0 0;
#X connect 5 1 2 1;
#X connect 8 0 5 0;
#X connect 9 0 35 0;
#X connect 10 0 35 0;
#X connect 11 0 12 0;
#X connect 12 0 37 0;
#X connect 14 0 20 0;
#X connect 15 0 16 0;
#X connect 15 1 14 0;
#X connect 16 0 14 1;
#X connect 17 0 14 1;
#X connect 18 0 17 0;
#X connect 18 1 19 0;
#X connect 19 0 28 2;
#X connect 19 1 30 1;
#X connect 20 0 21 0;
#X connect 20 1 28 1;
#X connect 20 2 30 0;
#X connect 21 0 28 0;
#X connect 22 0 23 0;
#X connect 23 2 3 0;
#X connect 24 0 22 0;
#X connect 25 0 4 0;
#X connect 27 0 13 0;
#X connect 27 0 31 0;
#X connect 27 1 13 1;
#X connect 27 1 31 1;
#X connect 28 0 29 0;
#X connect 29 0 6 0;
#X connect 32 0 34 0;
#X connect 33 0 34 1;
#X connect 34 0 29 0;
#X connect 35 0 47 0;
#X connect 37 0 45 0;
#X connect 37 1 27 0;
#X connect 38 0 39 0;
#X connect 39 0 26 0;
#X connect 39 0 42 0;
#X connect 40 0 0 1;
#X connect 43 0 35 0;
#X connect 45 0 38 0;
#X connect 45 1 39 1;
#X connect 45 2 48 0;
#X connect 47 0 32 0;
#X connect 47 1 33 0;
#X connect 47 2 34 2;
#X connect 47 3 41 0;
#X connect 47 4 46 0;
#X connect 49 0 53 0;
#X connect 50 0 49 0;
#X connect 53 0 51 0;
