#N canvas 196 38 648 558 10;
#X msg 161 203 0;
#X msg 195 203 1;
#X obj 107 221 spigot;
#X obj 206 149 del 500;
#X obj 255 149 loadbang;
#X obj 356 385 f \$4;
#X obj 356 405 t b f;
#X obj 356 448 pack s f;
#X obj 126 343 r \$1.dump;
#X obj 356 349 r \$1.getpreset;
#X obj 356 490 s \$1.preset;
#X obj -15 67 r \$2;
#X obj 29 394 symbol \$2;
#X obj 107 243 s \$3;
#X obj 356 427 symbol \$2;
#X msg 107 201 set \$1;
#X obj 107 123 r netpd-receive;
#X obj -43 496 s netpd-broadcast;
#X obj 356 469 route list;
#X obj 176 258 outlet;
#X obj 176 234 f;
#X text -5 48 LOCAL;
#X text 125 101 REMOTE;
#X text -37 446 BROADCAST;
#X text 355 322 PRESET;
#X obj 283 418 \$4;
#X obj 246 391 t f b b;
#X obj 264 439 symbol \$2;
#X obj 246 464 pack f s f;
#X obj 246 493 s netpd-send;
#X obj 107 180 route \$2 \$2-nogui;
#X text 125 323 DUMP LOCAL;
#X text 235 323 DUMP REMOTE;
#X obj 126 363 route self;
#X obj 126 386 t b b;
#X obj 126 408 symbol \$2;
#X obj 156 428 \$4;
#X obj 126 452 pack s f;
#X obj 126 472 route list;
#X obj 126 493 s netpd-receive;
#X obj 63 363 loadbang;
#X obj -15 127 t b f b;
#X obj -43 322 metro;
#X obj -42 217 loadbang;
#X obj -42 239 f \$5;
#X obj -42 261 sel 0;
#X obj -101 264 change;
#X obj -101 241 0;
#X obj -72 241 1;
#X obj -43 374 change;
#X obj -43 416 pack f s;
#X obj -8 345 f;
#X msg -43 474 \$2 \$1;
#X obj -101 217 del 500;
#X obj -42 285 f 100;
#X obj -1 286 max 75;
#X obj 451 401 b;
#X obj 451 423 f;
#X obj 451 380 r \$2-getvalue;
#X obj 451 446 s \$2-value;
#X msg 214 59 version 0.4.2;
#X text 35 20 [netpd-flx \$0 <sendsymbol> <receivesymbol> <startvalue>
<oeko-value>];
#X connect 0 0 2 1;
#X connect 1 0 2 1;
#X connect 2 0 13 0;
#X connect 3 0 1 0;
#X connect 4 0 1 0;
#X connect 5 0 6 0;
#X connect 6 0 14 0;
#X connect 6 1 7 1;
#X connect 7 0 18 0;
#X connect 8 0 33 0;
#X connect 9 0 5 0;
#X connect 11 0 5 1;
#X connect 11 0 25 1;
#X connect 11 0 41 0;
#X connect 11 0 57 1;
#X connect 12 0 50 1;
#X connect 14 0 7 0;
#X connect 15 0 2 0;
#X connect 16 0 30 0;
#X connect 18 0 10 0;
#X connect 20 0 19 0;
#X connect 25 0 28 2;
#X connect 26 0 28 0;
#X connect 26 1 27 0;
#X connect 26 2 25 0;
#X connect 27 0 28 1;
#X connect 28 0 29 0;
#X connect 30 0 15 0;
#X connect 30 0 5 1;
#X connect 30 0 20 0;
#X connect 30 0 25 1;
#X connect 30 0 57 1;
#X connect 30 1 20 0;
#X connect 30 1 57 1;
#X connect 33 0 34 0;
#X connect 33 1 26 0;
#X connect 34 0 35 0;
#X connect 34 1 36 0;
#X connect 35 0 37 0;
#X connect 36 0 37 1;
#X connect 37 0 38 0;
#X connect 38 0 39 0;
#X connect 40 0 34 0;
#X connect 41 0 48 0;
#X connect 41 1 51 1;
#X connect 41 2 0 0;
#X connect 41 2 3 0;
#X connect 41 2 12 0;
#X connect 41 2 53 0;
#X connect 42 0 51 0;
#X connect 43 0 44 0;
#X connect 44 0 45 0;
#X connect 45 0 54 0;
#X connect 45 1 55 0;
#X connect 46 0 42 0;
#X connect 47 0 46 0;
#X connect 48 0 46 0;
#X connect 49 0 50 0;
#X connect 50 0 52 0;
#X connect 51 0 49 0;
#X connect 52 0 17 0;
#X connect 53 0 47 0;
#X connect 54 0 42 1;
#X connect 55 0 42 1;
#X connect 56 0 57 0;
#X connect 57 0 59 0;
#X connect 58 0 56 0;
