#N canvas 580 260 798 600 10;
#X obj -118 -10 inlet;
#X obj 65 324 r \$1.dump;
#X obj 441 246 s \$1.preset;
#X obj 369 83 r \$1.getpreset;
#X text -75 -13 LOCAL;
#X obj 202 488 s netpd-send;
#X obj 65 345 route self;
#X obj 492 504 list;
#X obj 492 480 b;
#X obj 492 457 r \$2-getstate;
#X obj 525 547 s \$2-state;
#X obj 492 525 list split 2;
#X msg 276 -3 version 0.0.1;
#X obj 90 127 list prepend \$2;
#X obj 76 171 s netpd-broadcast;
#X obj 75 193 r netpd-receive;
#X obj 76 152 list trim;
#X obj 75 215 route \$2;
#X obj 549 397 outlet;
#X text 380 64 savePRESET;
#X obj 441 223 list trim;
#X obj 250 185 list prepend \$2 add;
#X msg -70 222 bang;
#X obj 130 367 t b f;
#X obj 202 438 list prepend;
#X obj -12 514 list prepend \$2 add;
#X obj 250 145 spigot;
#X obj 369 109 t b b b b b;
#X obj 340 164 f 1;
#X obj 340 142 f 0;
#X obj 130 391 t b b b b b;
#X obj -12 484 spigot;
#X obj 74 476 f 1;
#X obj 75 455 f 0;
#X obj 202 462 list trim;
#X text 493 440 todo;
#X text 66 304 dump;
#X obj 75 238 s \$2-index2-i;
#X obj -116 260 s \$2-index-i;
#X obj -12 430 r \$2-index2-o1;
#X obj 549 351 r \$2-index-i;
#X obj 250 110 r \$2-index2-o1;
#X obj 424 304 r \$2-index2-i;
#X obj 424 381 s \$2-index2-o1;
#X msg -22 220 dump;
#X obj 441 140 list append \$2 reset;
#X msg 387 274 dump;
#X obj 202 413 list append \$2 reset;
#X obj 424 349 index \$3 \$4;
#X obj 549 375 index \$3 \$4;
#X obj 30 106 list prepend \$2 symbol;
#X obj -117 14 route float bang dump symbol;
#N canvas 209 54 371 416 check 0;
#X obj 44 4 inlet;
#X obj 44 356 outlet;
#X obj -101 135 sel empty;
#X msg 62 116 dump;
#X obj 63 140 s \$2-index2-i;
#X obj -101 87 spigot;
#X obj -15 92 f 1;
#X obj -15 70 f 0;
#X obj -101 42 r \$2-index2-o1;
#X obj 44 45 t b b b a b;
#X obj -101 184 symbol;
#X obj -64 165 symbol;
#X obj 44 218 symbol;
#X obj 116 183 symbol empty;
#X obj 44 239 sel empty;
#X obj 44 319 symbol;
#X obj 102 262 s \$2-index-i;
#X obj 81 300 symbol;
#X obj -101 110 list split 1;
#X connect 0 0 9 0;
#X connect 2 0 10 0;
#X connect 3 0 4 0;
#X connect 5 0 18 0;
#X connect 6 0 5 1;
#X connect 7 0 5 1;
#X connect 8 0 5 0;
#X connect 9 0 7 0;
#X connect 9 0 12 0;
#X connect 9 1 3 0;
#X connect 9 2 6 0;
#X connect 9 3 2 1;
#X connect 9 3 11 0;
#X connect 9 3 17 0;
#X connect 9 4 13 0;
#X connect 10 0 12 1;
#X connect 11 0 10 1;
#X connect 12 0 14 0;
#X connect 13 0 12 1;
#X connect 14 0 15 0;
#X connect 14 1 16 0;
#X connect 15 0 1 0;
#X connect 17 0 15 1;
#X connect 18 0 2 0;
#X restore 26 66 pd check;
#X text 272 16 [netpd-index \$0 name n auto] \, add by enrique erne
\, moritz wettstein;
#X connect 0 0 51 0;
#X connect 1 0 6 0;
#X connect 3 0 27 0;
#X connect 6 1 23 0;
#X connect 7 0 11 0;
#X connect 8 0 7 0;
#X connect 9 0 8 0;
#X connect 11 1 10 0;
#X connect 13 0 16 0;
#X connect 15 0 17 0;
#X connect 16 0 14 0;
#X connect 17 0 37 0;
#X connect 17 0 38 0;
#X connect 20 0 2 0;
#X connect 21 0 20 0;
#X connect 22 0 38 0;
#X connect 23 0 30 0;
#X connect 23 1 24 1;
#X connect 24 0 34 0;
#X connect 25 0 24 0;
#X connect 26 0 21 0;
#X connect 27 0 29 0;
#X connect 27 1 46 0;
#X connect 27 2 28 0;
#X connect 27 4 45 0;
#X connect 28 0 26 1;
#X connect 29 0 26 1;
#X connect 30 0 33 0;
#X connect 30 1 46 0;
#X connect 30 2 32 0;
#X connect 30 4 47 0;
#X connect 31 0 25 0;
#X connect 32 0 31 1;
#X connect 33 0 31 1;
#X connect 34 0 5 0;
#X connect 39 0 31 0;
#X connect 40 0 49 0;
#X connect 41 0 26 0;
#X connect 42 0 48 0;
#X connect 44 0 38 0;
#X connect 45 0 20 0;
#X connect 46 0 48 0;
#X connect 47 0 24 0;
#X connect 48 0 43 0;
#X connect 49 0 18 0;
#X connect 50 0 16 0;
#X connect 51 0 38 0;
#X connect 51 1 22 0;
#X connect 51 2 44 0;
#X connect 51 3 52 0;
#X connect 51 4 13 0;
#X connect 52 0 50 0;
