#N canvas 72 426 363 214 10;
#N canvas 257 4 463 666 postload 0;
#X obj 123 56 s netpd-getsocket;
#X obj 14 8 loadbang;
#X obj 123 76 r netpd-socket;
#X obj 50 602 outlet;
#X obj 37 172 symbol \$2;
#X obj 39 310 r netpd-receive;
#X obj 39 330 route \$2.dumpreqreq;
#X obj 285 197 r netpd-receive;
#X obj 285 217 route \$2.dumpreqreqreq;
#X obj 312 257 symbol \$2;
#X obj 285 321 s netpd-send;
#X obj 285 277 pack f s f;
#X obj 285 237 t f b;
#X msg 285 298 \$1 \$2.dumpreqreq \$3;
#X obj 39 467 pack f s f;
#X obj 39 425 t f b;
#X obj 69 446 symbol \$2;
#X msg 39 490 \$1 \$2.dumpreq \$3;
#X obj 39 510 s netpd-send;
#X obj 251 522 r netpd-receive;
#X obj 251 542 route \$2.dumpreq;
#X obj 39 352 sel;
#X text 68 351 filter own reqrequest;
#X text 177 171 A;
#X text 175 406 C;
#X text 232 523 D;
#X obj 14 28 t b b b;
#X obj 37 114 f;
#X obj 37 235 s netpd-broadcast;
#X obj 37 194 pack s f;
#X obj 37 151 t b f;
#X msg 37 214 \$1.dumpreqreqreq \$2;
#X text 261 286 B;
#X obj 220 127 cnv 1 1 500 empty empty empty 20 12 0 14 -1 -66577 0
;
#X obj 39 383 spigot 1;
#X obj 39 404 t f b;
#X obj 117 393 0;
#X text 125 120 LOCAL;
#X text 300 121 REMOTE;
#X connect 1 0 26 0;
#X connect 2 0 11 2;
#X connect 2 0 14 2;
#X connect 2 0 21 1;
#X connect 2 0 27 1;
#X connect 4 0 29 0;
#X connect 5 0 6 0;
#X connect 6 0 21 0;
#X connect 7 0 8 0;
#X connect 8 0 12 0;
#X connect 9 0 11 1;
#X connect 11 0 13 0;
#X connect 12 0 11 0;
#X connect 12 1 9 0;
#X connect 13 0 10 0;
#X connect 14 0 17 0;
#X connect 15 0 14 0;
#X connect 15 1 16 0;
#X connect 16 0 14 1;
#X connect 17 0 18 0;
#X connect 19 0 20 0;
#X connect 20 0 3 0;
#X connect 21 1 34 0;
#X connect 26 1 27 0;
#X connect 26 2 0 0;
#X connect 27 0 30 0;
#X connect 29 0 31 0;
#X connect 30 0 4 0;
#X connect 30 1 29 1;
#X connect 31 0 28 0;
#X connect 34 0 35 0;
#X connect 35 0 15 0;
#X connect 35 1 36 0;
#X connect 36 0 34 1;
#X restore 12 60 pd postload;
#X obj 12 95 s \$1.dump;
#X obj 108 64 inlet;
#X text 15 14 creation arguments: [netpd-x \$0 <patchname>];
#X obj 187 65 inlet;
#X text 110 46 load;
#X text 189 49 save;
#N canvas 413 152 591 479 pst-manager 0;
#X obj 190 402 textfile;
#X msg 368 229 write \$1;
#X msg 53 238 read \$1;
#X msg 37 258 rewind;
#X obj 21 280 until;
#X obj 190 427 s netpd-broadcast;
#X obj 190 241 r \$1.preset;
#X obj 21 191 t b b s b;
#X msg 70 214 clear;
#X obj 368 207 makesymbol ../presets/%s.pst;
#X obj 343 186 t b s;
#X msg 343 248 clear;
#X obj 21 15 inlet;
#X obj 21 38 route bang;
#X obj 21 59 openpanel;
#X obj 76 117 symbol \$2;
#X obj 76 143 pack s s;
#X obj 76 86 t b s;
#X obj 76 164 makesymbol ../presets/%s-%s.pst;
#X obj 361 102 s \$1.getpreset;
#X obj 343 28 inlet;
#X obj 343 128 makesymbol \$2-%s;
#X obj 343 56 t s b b;
#X msg 496 249 clear;
#X obj 190 267 list prepend add;
#X obj 190 291 list trim;
#X connect 0 0 5 0;
#X connect 0 1 4 1;
#X connect 1 0 0 0;
#X connect 2 0 0 0;
#X connect 3 0 0 0;
#X connect 4 0 0 0;
#X connect 6 0 24 0;
#X connect 7 0 4 0;
#X connect 7 1 3 0;
#X connect 7 2 2 0;
#X connect 7 3 8 0;
#X connect 8 0 0 0;
#X connect 9 0 1 0;
#X connect 10 0 11 0;
#X connect 10 1 9 0;
#X connect 11 0 0 0;
#X connect 12 0 13 0;
#X connect 13 0 14 0;
#X connect 13 1 17 0;
#X connect 14 0 7 0;
#X connect 15 0 16 0;
#X connect 16 0 18 0;
#X connect 17 0 15 0;
#X connect 17 1 16 1;
#X connect 18 0 7 0;
#X connect 20 0 22 0;
#X connect 21 0 10 0;
#X connect 22 0 21 0;
#X connect 22 1 19 0;
#X connect 22 2 23 0;
#X connect 23 0 0 0;
#X connect 24 0 25 0;
#X connect 25 0 0 0;
#X restore 108 101 pd pst-manager;
#X msg 243 64 version 0.4.5;
#X connect 0 0 1 0;
#X connect 2 0 7 0;
#X connect 4 0 7 1;
