#N canvas 82 535 424 284 10;
#X msg 74 197 set \$1;
#X obj 14 27 r \$1;
#X obj 74 237 s \$2;
#X obj 14 237 outlet;
#X obj 14 147 r netpd-receive;
#X text 11 7 [netpd-f <sendsymbol> <receivesymbol>];
#X obj 14 217 f;
#X obj 173 177 1;
#X obj 143 177 0;
#X obj 14 107 s netpd-broadcast;
#X obj 173 137 del 1000;
#X obj 14 167 route \$1 \$1-nogui;
#X obj 267 218 f;
#X obj 267 194 b;
#X obj 267 171 r \$1-getstate;
#X obj 267 240 s \$1-state;
#X obj 14 87 list trim;
#X obj 74 217 spigot 1;
#X obj 14 67 list prepend \$1;
#X obj 14 47 t f b;
#X msg 176 37 version 0.2.5;
#X connect 0 0 17 0;
#X connect 1 0 19 0;
#X connect 4 0 11 0;
#X connect 6 0 3 0;
#X connect 7 0 17 1;
#X connect 8 0 17 1;
#X connect 10 0 7 0;
#X connect 11 0 0 0;
#X connect 11 0 6 0;
#X connect 11 0 12 1;
#X connect 11 1 6 0;
#X connect 11 1 12 1;
#X connect 12 0 15 0;
#X connect 13 0 12 0;
#X connect 14 0 13 0;
#X connect 16 0 9 0;
#X connect 17 0 2 0;
#X connect 18 0 16 0;
#X connect 19 0 18 0;
#X connect 19 1 10 0;
#X connect 19 1 8 0;
