#N canvas 365 0 494 300 10;
#X text 10 132 ____________________________________________________________
;
#X msg 17 78 vier fuenf oder sechs;
#X obj 172 103 netpd-a mittwoch;
#X floatatom 172 82 5 0 0 0 - - -;
#X obj 173 180 netpd-r mittwoch;
#X floatatom 173 203 5 0 0 0 - - -;
#X text 170 64 float:;
#X symbolatom 328 80 10 0 0 0 - - -;
#X obj 328 102 netpd-a donnerstag;
#X obj 327 180 netpd-r donnerstag;
#X symbolatom 327 244 10 0 0 0 - - -;
#X obj 21 178 netpd-r dienstag;
#X obj 21 200 print dienstag;
#X obj 17 101 netpd-a dienstag;
#X text 328 62 symbol:;
#X obj 327 201 symbol;
#X text 20 54 anything:;
#X text 15 8 BROADCAST ANY DATA;
#X text 223 30 [netpd-a <name>];
#X text 199 262 [netpd-r <name>];
#X text 22 150 RECEIVE DATA;
#X text 333 223 ^ necessary for symbols;
#X text 371 132 ___________;
#X connect 1 0 13 0;
#X connect 3 0 2 0;
#X connect 4 0 5 0;
#X connect 7 0 8 0;
#X connect 9 0 15 0;
#X connect 11 0 12 0;
#X connect 15 0 10 0;
