#N canvas 591 70 578 434 10;
#X obj 21 18 inlet;
#X obj 79 108 s netpd-broadcast;
#X obj 21 218 r \$1.dump;
#X obj 375 328 s \$1.preset;
#X obj 375 268 r \$1.getpreset;
#X obj 298 68 r netpd-receive;
#X obj 298 88 route \$2;
#X text 227 24 [netpd-ax \$0 <sendsymbol>];
#X text 483 268 PRESET;
#X text 208 108 BROADCAST;
#X text 413 68 REMOTE;
#X text 64 18 LOCAL;
#X obj 21 328 s netpd-send;
#X text 93 218 DUMP REMOTE;
#X obj 235 288 list;
#X obj 375 288 list;
#X obj 79 68 list prepend \$2;
#X obj 21 38 route set;
#X obj 79 88 list trim;
#X obj 21 238 t f b;
#X obj 51 258 list;
#X obj 21 288 list append;
#X obj 21 308 list trim;
#X obj 235 308 list trim;
#X obj 375 308 list trim;
#X obj 328 178 list prepend \$2;
#X obj 298 128 outlet;
#X obj 298 108 t a a;
#X text 191 268 STATE;
#X obj 235 268 r \$2.getstate;
#X obj 235 328 s \$2.state;
#X obj 21 138 list prepend \$2;
#X obj 21 158 list trim;
#X obj 21 178 s netpd-receive;
#X text 139 178 SET LOCAL;
#X msg 424 24 version 0.2.3;
#X connect 0 0 17 0;
#X connect 2 0 19 0;
#X connect 4 0 15 0;
#X connect 5 0 6 0;
#X connect 6 0 27 0;
#X connect 14 0 23 0;
#X connect 15 0 24 0;
#X connect 16 0 18 0;
#X connect 17 0 31 0;
#X connect 17 1 16 0;
#X connect 18 0 1 0;
#X connect 19 0 21 0;
#X connect 19 1 20 0;
#X connect 20 0 21 1;
#X connect 21 0 22 0;
#X connect 22 0 12 0;
#X connect 23 0 30 0;
#X connect 24 0 3 0;
#X connect 25 0 15 1;
#X connect 25 0 20 1;
#X connect 27 0 26 0;
#X connect 27 1 25 0;
#X connect 27 1 14 1;
#X connect 29 0 14 0;
#X connect 31 0 32 0;
#X connect 32 0 33 0;
