#N canvas 602 97 798 598 10;
#X obj -117 11 inlet;
#X obj 61 278 r \$1.dump;
#X obj 442 248 s \$1.preset;
#X obj 369 83 r \$1.getpreset;
#X text -88 -5 LOCAL;
#X obj 198 442 s netpd-send;
#X obj 61 299 route self;
#X obj 452 486 list;
#X obj 452 462 b;
#X obj 452 439 r \$2-getstate;
#X obj 485 529 s \$2-state;
#X obj 452 507 list split 2;
#X text 190 33 [netpd-textfile \$0 name];
#X obj 81 67 list prepend \$2;
#X obj 81 106 s netpd-broadcast;
#X obj 80 128 r netpd-receive;
#X obj 81 87 list trim;
#X obj 80 150 route \$2;
#X obj -89 542 textfile;
#X obj -87 518 r \$2-textfile-i;
#X obj 424 349 textfile;
#X obj -89 564 outlet;
#X obj -38 564 outlet;
#X obj 453 309 r \$2-textfile2-i;
#X obj 424 381 s \$2-textfile2-o1;
#X obj 546 380 s \$2-textfile2-o2;
#X text 380 64 savePRESET;
#X obj 442 225 list trim;
#X obj 441 140 list append \$2 clear;
#X obj 423 187 s \$2-textfile2-i;
#X msg 423 165 rewind;
#X obj 219 185 list prepend \$2 add;
#X obj 387 322 until;
#X obj 219 111 r \$2-textfile2-o1;
#X obj -117 182 s \$2-textfile-i;
#X msg -18 118 print;
#X msg -117 71 rewind;
#X msg -68 96 bang;
#X obj 80 176 s \$2-textfile2-i;
#X obj 126 321 t b f;
#X obj 198 392 list prepend;
#X obj 198 367 list append \$2 clear;
#X obj 181 500 s \$2-textfile2-i;
#X msg 180 479 rewind;
#X obj -16 468 list prepend \$2 add;
#X obj -16 376 r \$2-textfile2-o1;
#X obj 219 146 spigot;
#X obj 369 109 t b b b b b;
#X obj 313 166 f 1;
#X obj 309 143 f 0;
#X obj 126 345 t b b b b b;
#X obj -16 438 spigot;
#X obj 70 430 f 1;
#X obj 71 409 f 0;
#X obj 198 416 list trim;
#X text 453 422 todo;
#X text 62 258 dump;
#X obj -117 36 route rewind bang print write;
#X obj 31 87 symbol;
#X msg 3 146 write \$1;
#X msg 192 6 version 0.0.3;
#X connect 0 0 57 0;
#X connect 1 0 6 0;
#X connect 3 0 47 0;
#X connect 6 1 39 0;
#X connect 7 0 11 0;
#X connect 8 0 7 0;
#X connect 9 0 8 0;
#X connect 11 1 10 0;
#X connect 13 0 16 0;
#X connect 15 0 17 0;
#X connect 16 0 14 0;
#X connect 17 0 34 0;
#X connect 17 0 38 0;
#X connect 18 0 21 0;
#X connect 18 1 22 0;
#X connect 19 0 18 0;
#X connect 20 0 24 0;
#X connect 20 1 25 0;
#X connect 20 1 32 1;
#X connect 23 0 20 0;
#X connect 27 0 2 0;
#X connect 28 0 27 0;
#X connect 30 0 29 0;
#X connect 31 0 27 0;
#X connect 32 0 20 0;
#X connect 33 0 46 0;
#X connect 35 0 34 0;
#X connect 36 0 34 0;
#X connect 37 0 34 0;
#X connect 39 0 50 0;
#X connect 39 1 40 1;
#X connect 40 0 54 0;
#X connect 41 0 40 0;
#X connect 43 0 42 0;
#X connect 44 0 40 0;
#X connect 45 0 51 0;
#X connect 46 0 31 0;
#X connect 47 0 49 0;
#X connect 47 1 32 0;
#X connect 47 2 48 0;
#X connect 47 3 30 0;
#X connect 47 4 28 0;
#X connect 48 0 46 1;
#X connect 49 0 46 1;
#X connect 50 0 53 0;
#X connect 50 1 32 0;
#X connect 50 2 52 0;
#X connect 50 3 43 0;
#X connect 50 4 41 0;
#X connect 51 0 44 0;
#X connect 52 0 51 1;
#X connect 53 0 51 1;
#X connect 54 0 5 0;
#X connect 57 0 36 0;
#X connect 57 1 37 0;
#X connect 57 2 35 0;
#X connect 57 3 58 0;
#X connect 57 4 13 0;
#X connect 58 0 59 0;
#X connect 59 0 34 0;
