#N canvas 297 63 348 447 10;
#X msg 74 357 set \$1;
#X obj 14 47 r \$1;
#X obj 74 398 s \$2;
#X obj 100 57 loadbang;
#X obj 14 397 outlet;
#X obj 14 307 r netpd-receive;
#X obj 192 301 1;
#X obj 162 301 0;
#X obj 14 197 symbol \$1;
#X obj 14 261 s netpd-broadcast;
#X obj 192 281 del 1000;
#X obj 14 67 t b f b;
#X obj 14 177 del 50;
#X obj 51 97 f \$3;
#X text 13 24 optional 3th argument for delay-time;
#X obj 51 157 spigot;
#X obj 51 117 t f f;
#X obj 81 137 != 0;
#X obj 162 256 bang;
#X text 11 7 [netpd-fd <sendsymbol> <receivesymbol>];
#X obj 14 217 pack s f;
#X obj 14 327 route \$1 \$1-nogui;
#X obj 216 368 b;
#X obj 216 391 f;
#X obj 216 347 r \$1-getstate;
#X obj 216 413 s \$1-state;
#X obj 14 238 list trim;
#X msg 189 80 version 0.2.3;
#X obj 74 377 spigot 1;
#X obj 14 373 f;
#X connect 0 0 28 0;
#X connect 1 0 11 0;
#X connect 3 0 13 0;
#X connect 5 0 21 0;
#X connect 6 0 28 1;
#X connect 7 0 28 1;
#X connect 8 0 20 0;
#X connect 10 0 6 0;
#X connect 11 0 12 0;
#X connect 11 1 20 1;
#X connect 11 2 18 0;
#X connect 12 0 8 0;
#X connect 13 0 16 0;
#X connect 15 0 12 1;
#X connect 16 0 15 0;
#X connect 16 1 17 0;
#X connect 17 0 15 1;
#X connect 18 0 10 0;
#X connect 18 0 7 0;
#X connect 20 0 26 0;
#X connect 21 0 0 0;
#X connect 21 0 23 1;
#X connect 21 0 29 0;
#X connect 21 1 23 1;
#X connect 21 1 29 0;
#X connect 22 0 23 0;
#X connect 23 0 25 0;
#X connect 24 0 22 0;
#X connect 26 0 9 0;
#X connect 28 0 2 0;
#X connect 29 0 4 0;
