#N canvas 589 254 139 158 10;
#X obj 64 54 line~;
#X obj 14 32 osc~ \$1;
#X obj 64 11 inlet;
#X obj 14 103 *~;
#X obj 63 78 dbtorms~;
#X obj 14 126 outlet~;
#X msg 64 33 85 \, 0 \$1;
#X connect 0 0 4 0;
#X connect 1 0 3 0;
#X connect 2 0 6 0;
#X connect 3 0 5 0;
#X connect 4 0 3 1;
#X connect 6 0 0 0;
