#N canvas 450 478 490 338 10;
#X obj 89 114 exp;
#X obj 59 100 + 90;
#N canvas 1110 648 174 201 abslist 0;
#X msg 15 25 jamx;
#X msg 6 71 i2mx~;
#X msg 9 97 mx_manager;
#X msg 12 46 pad;
#X restore 172 77 pd abslist;
#X obj 89 89 + 5;
#X obj 89 66 * 3;
#X obj 59 74 * 30;
#N canvas 750 242 184 85 jamx-labels 0;
#X obj 8 48 s bassist_jx.c.label;
#X obj 8 3 loadbang;
#X msg 8 26 drive decay attack;
#X connect 1 0 2 0;
#X connect 2 0 0 0;
#X restore 172 96 pd jamx-labels;
#X obj 33 1 r bassist;
#N canvas 150 412 291 137 bassist-netpd-fs 0;
#X obj 12 40 netpd-fdx \$0 bass.det bass.detr 0;
#X obj 13 61 netpd-fdx \$0 bass.boes bass.boesr 0;
#X obj 12 19 netpd-fx \$0 bass.vol bass.volr 0.8;
#X restore 172 117 pd bassist-netpd-fs;
#N canvas 1002 251 160 113 bassist-gui 1;
#X obj 3 2 cnv 15 151 99 empty empty empty 20 12 0 14 -174784 -66577
0;
#X obj 5 4 cnv 15 147 95 empty empty empty 15 38 1 12 -74944 -216384
0;
#X obj 10 8 hsl 95 20 0 1 0 0 bass.vol bass.volr volume 0 7 1 7 -212223
-1 -1 7520 1;
#X obj 10 52 hsl 95 20 0 1 0 0 bass.boes bass.boesr boesartigkeit 0
7 1 7 -212224 -1 -1 0 1;
#X obj 109 8 cnv 4 40 42 empty empty empty 20 12 0 14 -220544 -66577
0;
#N canvas 0 0 450 300 (subpatch) 0;
#X array __ 61 float 0;
#X coords 0 1 60 0 40 42 1;
#X restore 109 8 graph;
#X obj 10 30 hsl 95 20 0 1 0 0 bass.det bass.detr detune 0 7 1 7 -212224
-1 -1 0 1;
#X obj 7 75 hradio 20 1 0 5 bass.ds.s bass.ds.r downsampling 2 7 1
7 -212224 -1 -1 0;
#X obj 109 52 tgl 20 0 \$0-open-jam \$0-bli jamx 2 6 1 7 -212223 -1
-1 0 1;
#X obj 109 75 tgl 20 0 \$0-open-pad \$0-bli pad 22 6 1 7 -212223 -1
-1 0 1;
#X restore 172 136 pd bassist-gui;
#X text 123 22 http://www.netpd.org/bassist;
#X text 121 8 bassist;
#X obj 311 57 pad \$0 bassist;
#X obj 175 173 netpd-fx \$0 bass.ds.s bass.ds.r 0;
#N canvas 988 447 92 179 downsamplefactor 0;
#X obj 37 97 pow;
#X obj 37 69 2;
#X obj 14 40 t b b f;
#X obj 14 97 1;
#X obj 14 122 /;
#X obj 14 14 inlet;
#X obj 14 143 outlet;
#X connect 0 0 4 1;
#X connect 1 0 0 0;
#X connect 2 0 3 0;
#X connect 2 1 1 0;
#X connect 2 2 0 1;
#X connect 3 0 4 0;
#X connect 4 0 6 0;
#X connect 5 0 2 0;
#X restore 175 196 pd downsamplefactor;
#X obj 311 82 netpd-x \$0 bassist;
#N canvas 896 410 454 358 dsp_________________ 0;
#X obj 18 282 i2mx~ \$0 bassist;
#N canvas 1059 339 471 584 dsp 0;
#X obj 32 335 osc~;
#X obj 110 204 mtof;
#X obj 32 358 *~;
#X obj 45 232 line~;
#X obj 45 276 lop~ 100;
#N canvas 591 445 519 278 fatter 0;
#X obj 159 76 abs~;
#X obj 129 76 sgn~;
#X obj 129 127 *~;
#X obj 8 21 inlet~;
#X obj 129 24 inlet~;
#X obj 8 151 outlet~;
#X obj 129 152 outlet~;
#X obj 38 70 abs~;
#X obj 8 70 sgn~;
#X obj 8 121 *~;
#X obj 38 49 *~;
#X obj 159 55 *~;
#X obj 188 13 loadbang;
#X msg 188 34 60;
#N canvas 343 564 366 243 counter 0;
#X obj 25 109 f;
#X obj 25 44 t b b;
#X obj 50 68 0;
#X obj 53 110 + 1;
#X obj 25 14 inlet;
#X obj 25 180 outlet;
#X obj 161 20 inlet;
#X obj 126 63 + 1;
#X obj 161 59 t b f;
#X obj 161 80 1;
#X obj 161 102 /;
#X obj 25 89 repeat 1;
#X obj 25 154 *;
#X obj 85 182 outlet;
#X obj 25 130 t f f;
#X connect 0 0 3 0;
#X connect 0 0 14 0;
#X connect 1 0 11 0;
#X connect 1 1 2 0;
#X connect 2 0 0 1;
#X connect 3 0 0 1;
#X connect 4 0 1 0;
#X connect 6 0 7 0;
#X connect 6 0 8 0;
#X connect 7 0 11 1;
#X connect 8 0 9 0;
#X connect 8 1 10 1;
#X connect 9 0 10 0;
#X connect 10 0 12 1;
#X connect 11 0 0 0;
#X connect 12 0 5 0;
#X connect 14 0 12 0;
#X connect 14 1 13 0;
#X restore 381 88 pd counter;
#X obj 381 45 t b f;
#X obj 237 57 t b f f;
#X obj 274 81 + 1;
#X text 223 30 <-- arraysize;
#N canvas 1066 562 247 300 curve 0;
#N canvas 750 295 229 226 gleichung 0;
#X obj 123 85 + 1;
#X obj 78 85 * -1;
#X obj 123 12 inlet;
#X obj 16 5 inlet;
#X obj 16 68 *;
#X obj 16 47 t f f;
#X obj 16 111 *;
#X obj 16 90 t f f;
#X obj 16 137 *;
#X obj 16 166 +;
#X obj 76 135 *;
#X obj 16 24 t f f;
#X obj 16 191 outlet;
#X connect 0 0 10 1;
#X connect 1 0 8 1;
#X connect 2 0 1 0;
#X connect 2 0 0 0;
#X connect 3 0 11 0;
#X connect 4 0 7 0;
#X connect 5 0 4 0;
#X connect 5 1 4 1;
#X connect 6 0 8 0;
#X connect 7 0 6 0;
#X connect 7 1 6 1;
#X connect 8 0 9 0;
#X connect 9 0 12 0;
#X connect 10 0 9 1;
#X connect 11 0 5 0;
#X connect 11 1 10 0;
#X restore 31 52 pd gleichung;
#X obj 31 17 inlet;
#X obj 31 230 outlet;
#X obj 136 12 inlet;
#X obj 136 36 * 0.35;
#N canvas 750 295 229 226 gleichung 0;
#X obj 123 85 + 1;
#X obj 78 85 * -1;
#X obj 123 12 inlet;
#X obj 16 5 inlet;
#X obj 16 68 *;
#X obj 16 47 t f f;
#X obj 16 111 *;
#X obj 16 90 t f f;
#X obj 16 137 *;
#X obj 16 166 +;
#X obj 76 135 *;
#X obj 16 24 t f f;
#X obj 16 191 outlet;
#X connect 0 0 10 1;
#X connect 1 0 8 1;
#X connect 2 0 1 0;
#X connect 2 0 0 0;
#X connect 3 0 11 0;
#X connect 4 0 7 0;
#X connect 5 0 4 0;
#X connect 5 1 4 1;
#X connect 6 0 8 0;
#X connect 7 0 6 0;
#X connect 7 1 6 1;
#X connect 8 0 9 0;
#X connect 9 0 12 0;
#X connect 10 0 9 1;
#X connect 11 0 5 0;
#X connect 11 1 10 0;
#X restore 31 72 pd gleichung;
#N canvas 750 295 229 226 gleichung 0;
#X obj 123 85 + 1;
#X obj 78 85 * -1;
#X obj 123 12 inlet;
#X obj 16 5 inlet;
#X obj 16 68 *;
#X obj 16 47 t f f;
#X obj 16 111 *;
#X obj 16 90 t f f;
#X obj 16 137 *;
#X obj 16 166 +;
#X obj 76 135 *;
#X obj 16 24 t f f;
#X obj 16 191 outlet;
#X connect 0 0 10 1;
#X connect 1 0 8 1;
#X connect 2 0 1 0;
#X connect 2 0 0 0;
#X connect 3 0 11 0;
#X connect 4 0 7 0;
#X connect 5 0 4 0;
#X connect 5 1 4 1;
#X connect 6 0 8 0;
#X connect 7 0 6 0;
#X connect 7 1 6 1;
#X connect 8 0 9 0;
#X connect 9 0 12 0;
#X connect 10 0 9 1;
#X connect 11 0 5 0;
#X connect 11 1 10 0;
#X restore 31 92 pd gleichung;
#N canvas 750 295 229 226 gleichung 0;
#X obj 123 85 + 1;
#X obj 78 85 * -1;
#X obj 123 12 inlet;
#X obj 16 5 inlet;
#X obj 16 68 *;
#X obj 16 47 t f f;
#X obj 16 111 *;
#X obj 16 90 t f f;
#X obj 16 137 *;
#X obj 16 166 +;
#X obj 76 135 *;
#X obj 16 24 t f f;
#X obj 16 191 outlet;
#X connect 0 0 10 1;
#X connect 1 0 8 1;
#X connect 2 0 1 0;
#X connect 2 0 0 0;
#X connect 3 0 11 0;
#X connect 4 0 7 0;
#X connect 5 0 4 0;
#X connect 5 1 4 1;
#X connect 6 0 8 0;
#X connect 7 0 6 0;
#X connect 7 1 6 1;
#X connect 8 0 9 0;
#X connect 9 0 12 0;
#X connect 10 0 9 1;
#X connect 11 0 5 0;
#X connect 11 1 10 0;
#X restore 31 112 pd gleichung;
#N canvas 750 295 229 226 gleichung 0;
#X obj 123 85 + 1;
#X obj 78 85 * -1;
#X obj 123 12 inlet;
#X obj 16 5 inlet;
#X obj 16 68 *;
#X obj 16 47 t f f;
#X obj 16 111 *;
#X obj 16 90 t f f;
#X obj 16 137 *;
#X obj 16 166 +;
#X obj 76 135 *;
#X obj 16 24 t f f;
#X obj 16 191 outlet;
#X connect 0 0 10 1;
#X connect 1 0 8 1;
#X connect 2 0 1 0;
#X connect 2 0 0 0;
#X connect 3 0 11 0;
#X connect 4 0 7 0;
#X connect 5 0 4 0;
#X connect 5 1 4 1;
#X connect 6 0 8 0;
#X connect 7 0 6 0;
#X connect 7 1 6 1;
#X connect 8 0 9 0;
#X connect 9 0 12 0;
#X connect 10 0 9 1;
#X connect 11 0 5 0;
#X connect 11 1 10 0;
#X restore 31 132 pd gleichung;
#N canvas 750 295 229 226 gleichung 0;
#X obj 123 85 + 1;
#X obj 78 85 * -1;
#X obj 123 12 inlet;
#X obj 16 5 inlet;
#X obj 16 68 *;
#X obj 16 47 t f f;
#X obj 16 111 *;
#X obj 16 90 t f f;
#X obj 16 137 *;
#X obj 16 166 +;
#X obj 76 135 *;
#X obj 16 24 t f f;
#X obj 16 191 outlet;
#X connect 0 0 10 1;
#X connect 1 0 8 1;
#X connect 2 0 1 0;
#X connect 2 0 0 0;
#X connect 3 0 11 0;
#X connect 4 0 7 0;
#X connect 5 0 4 0;
#X connect 5 1 4 1;
#X connect 6 0 8 0;
#X connect 7 0 6 0;
#X connect 7 1 6 1;
#X connect 8 0 9 0;
#X connect 9 0 12 0;
#X connect 10 0 9 1;
#X connect 11 0 5 0;
#X connect 11 1 10 0;
#X restore 31 152 pd gleichung;
#N canvas 750 295 229 226 gleichung 0;
#X obj 123 85 + 1;
#X obj 78 85 * -1;
#X obj 123 12 inlet;
#X obj 16 5 inlet;
#X obj 16 68 *;
#X obj 16 47 t f f;
#X obj 16 111 *;
#X obj 16 90 t f f;
#X obj 16 137 *;
#X obj 16 166 +;
#X obj 76 135 *;
#X obj 16 24 t f f;
#X obj 16 191 outlet;
#X connect 0 0 10 1;
#X connect 1 0 8 1;
#X connect 2 0 1 0;
#X connect 2 0 0 0;
#X connect 3 0 11 0;
#X connect 4 0 7 0;
#X connect 5 0 4 0;
#X connect 5 1 4 1;
#X connect 6 0 8 0;
#X connect 7 0 6 0;
#X connect 7 1 6 1;
#X connect 8 0 9 0;
#X connect 9 0 12 0;
#X connect 10 0 9 1;
#X connect 11 0 5 0;
#X connect 11 1 10 0;
#X restore 31 172 pd gleichung;
#N canvas 750 295 229 226 gleichung 0;
#X obj 123 85 + 1;
#X obj 78 85 * -1;
#X obj 123 12 inlet;
#X obj 16 5 inlet;
#X obj 16 68 *;
#X obj 16 47 t f f;
#X obj 16 111 *;
#X obj 16 90 t f f;
#X obj 16 137 *;
#X obj 16 166 +;
#X obj 76 135 *;
#X obj 16 24 t f f;
#X obj 16 191 outlet;
#X connect 0 0 10 1;
#X connect 1 0 8 1;
#X connect 2 0 1 0;
#X connect 2 0 0 0;
#X connect 3 0 11 0;
#X connect 4 0 7 0;
#X connect 5 0 4 0;
#X connect 5 1 4 1;
#X connect 6 0 8 0;
#X connect 7 0 6 0;
#X connect 7 1 6 1;
#X connect 8 0 9 0;
#X connect 9 0 12 0;
#X connect 10 0 9 1;
#X connect 11 0 5 0;
#X connect 11 1 10 0;
#X restore 31 192 pd gleichung;
#X connect 0 0 5 0;
#X connect 1 0 0 0;
#X connect 3 0 4 0;
#X connect 4 0 0 1;
#X connect 4 0 5 1;
#X connect 4 0 6 1;
#X connect 4 0 7 1;
#X connect 4 0 8 1;
#X connect 4 0 9 1;
#X connect 4 0 10 1;
#X connect 4 0 11 1;
#X connect 5 0 6 0;
#X connect 6 0 7 0;
#X connect 7 0 8 0;
#X connect 8 0 9 0;
#X connect 9 0 10 0;
#X connect 10 0 11 0;
#X connect 11 0 2 0;
#X restore 381 109 pd curve;
#X obj 436 110 + 1;
#X obj 237 78 0;
#X obj 381 22 inlet;
#X obj 335 162 tabwrite \$0-compare;
#X msg 274 102 \; __ resize \$1;
#X obj 159 101 tabread4~ __;
#X obj 39 95 tabread4~ __;
#X obj 383 132 tabwrite __;
#N canvas 268 248 458 529 netpd-tb 0;
#X obj 14 120 -;
#X obj 63 239 f;
#X obj 20 250 f;
#X obj 19 222 t b b;
#X obj 14 47 t f f f;
#X obj 14 98 t f f;
#X obj 9 474 s netpd-broadcast;
#N canvas 0 22 450 300 (subpatch) 0;
#X array \$0-compare 61 float 0;
#X coords 0 30 60 0 10 10 1;
#X restore 178 37 graph;
#X obj 89 74 tabread \$0-compare;
#X obj 100 409 tabwrite \$0-compare;
#X obj 227 25 loadbang;
#X obj 227 45 t b b;
#X obj 227 85 \$0;
#X obj 227 105 pack;
#X obj 289 25 inlet;
#X obj 289 45 t b f;
#X obj 187 212 r netpd-receive;
#X text 282 242 v0.2.1;
#X text 325 25 arraysize;
#X obj 30 332 spigot;
#X obj 20 275 t b f;
#X obj 33 301 0;
#X obj 62 305 1;
#X obj 63 282 t b f;
#X obj 93 355 t f f;
#X obj 36 354 t b f f;
#X obj 15 170 int;
#X obj 15 191 sel 0 -1;
#X obj 14 148 * 10000;
#N canvas 1011 348 407 398 counter 0;
#X obj 75 98 t f f;
#X obj 75 139 pack;
#X msg 75 160 0 \, \$1 \$2;
#X obj 75 79 - 1;
#X obj 75 7 loadbang;
#X obj 176 184 - 1;
#X obj 176 144 loadbang;
#X obj 151 212 sel 0;
#X obj 151 237 t b b b;
#X obj 232 236 t b b b;
#X obj 188 262 1;
#X obj 151 261 0;
#X obj 269 259 1;
#X obj 232 259 0;
#X obj 169 292 spigot;
#X obj 250 293 spigot;
#X obj 169 312 t b b;
#X obj 250 314 t b b;
#X obj 111 37 b;
#X obj 232 213 del;
#X obj 208 12 loadbang;
#X text 247 40 minimale zyklusdauer;
#X obj 75 331 outlet;
#X obj 100 119 * 5;
#X obj 75 182 line 0 5;
#X msg 214 41 330;
#X obj 75 60 61;
#X obj 176 164 61;
#X obj 194 372 b;
#X connect 0 0 1 0;
#X connect 0 1 23 0;
#X connect 1 0 2 0;
#X connect 2 0 24 0;
#X connect 3 0 0 0;
#X connect 4 0 18 0;
#X connect 5 0 7 1;
#X connect 6 0 27 0;
#X connect 7 0 8 0;
#X connect 8 0 11 0;
#X connect 8 1 14 0;
#X connect 8 2 10 0;
#X connect 9 0 13 0;
#X connect 9 1 15 0;
#X connect 9 2 12 0;
#X connect 10 0 15 1;
#X connect 11 0 14 1;
#X connect 12 0 14 1;
#X connect 13 0 15 1;
#X connect 14 0 16 0;
#X connect 15 0 17 0;
#X connect 16 0 28 0;
#X connect 16 1 13 0;
#X connect 16 1 11 0;
#X connect 17 0 28 0;
#X connect 17 1 13 0;
#X connect 17 1 11 0;
#X connect 18 0 19 0;
#X connect 18 0 26 0;
#X connect 19 0 9 0;
#X connect 20 0 25 0;
#X connect 23 0 1 1;
#X connect 24 0 7 0;
#X connect 24 0 22 0;
#X connect 25 0 19 1;
#X connect 26 0 3 0;
#X connect 27 0 5 0;
#X connect 28 0 18 0;
#X restore 14 16 pd counter;
#X obj 187 332 tabwrite \$0-compare;
#X msg 227 125 \; \$1-compare resize \$2;
#X obj 187 260 unpack f f;
#X obj 9 424 pack s f f;
#X msg 9 446 \$1 \$2 \$3;
#X obj 187 233 route __;
#X obj 187 287 tabwrite __;
#X obj 13 396 symbol __;
#X obj 14 74 tabread __;
#X obj 252 85 61;
#X connect 0 0 28 0;
#X connect 1 0 23 0;
#X connect 2 0 20 0;
#X connect 3 0 2 0;
#X connect 3 1 1 0;
#X connect 4 0 38 0;
#X connect 4 1 8 0;
#X connect 4 2 1 1;
#X connect 5 0 0 0;
#X connect 5 1 2 1;
#X connect 8 0 0 1;
#X connect 10 0 11 0;
#X connect 11 0 12 0;
#X connect 11 1 39 0;
#X connect 12 0 13 0;
#X connect 13 0 31 0;
#X connect 14 0 15 0;
#X connect 15 0 12 0;
#X connect 15 1 39 0;
#X connect 16 0 35 0;
#X connect 19 0 25 0;
#X connect 20 0 21 0;
#X connect 20 1 19 0;
#X connect 21 0 19 1;
#X connect 22 0 19 1;
#X connect 23 0 22 0;
#X connect 23 1 24 0;
#X connect 24 0 33 2;
#X connect 24 1 9 1;
#X connect 25 0 37 0;
#X connect 25 1 33 1;
#X connect 25 2 9 0;
#X connect 26 0 27 0;
#X connect 27 2 3 0;
#X connect 28 0 26 0;
#X connect 29 0 4 0;
#X connect 32 0 30 0;
#X connect 32 0 36 0;
#X connect 32 1 30 1;
#X connect 32 1 36 1;
#X connect 33 0 34 0;
#X connect 34 0 6 0;
#X connect 35 0 32 0;
#X connect 37 0 33 0;
#X connect 38 0 5 0;
#X connect 39 0 13 1;
#X restore 246 163 pd netpd-tb;
#X connect 0 0 25 0;
#X connect 1 0 2 0;
#X connect 2 0 6 0;
#X connect 3 0 10 0;
#X connect 3 0 8 0;
#X connect 4 0 1 0;
#X connect 4 0 11 0;
#X connect 7 0 26 0;
#X connect 8 0 9 0;
#X connect 9 0 5 0;
#X connect 10 0 7 0;
#X connect 11 0 0 0;
#X connect 12 0 13 0;
#X connect 13 0 10 1;
#X connect 13 0 11 1;
#X connect 13 0 16 0;
#X connect 14 0 19 0;
#X connect 14 1 20 0;
#X connect 15 0 14 0;
#X connect 15 1 19 1;
#X connect 16 0 21 0;
#X connect 16 1 14 1;
#X connect 16 2 17 0;
#X connect 17 0 24 0;
#X connect 17 0 28 0;
#X connect 19 0 23 0;
#X connect 19 0 27 0;
#X connect 20 0 23 1;
#X connect 20 0 27 1;
#X connect 21 0 15 0;
#X connect 22 0 15 0;
#X connect 25 0 2 1;
#X connect 26 0 9 1;
#X restore 32 386 pd fatter;
#X obj 81 331 osc~;
#X obj 81 354 *~;
#X obj 45 253 dbtorms~;
#X obj 45 71 f;
#X obj 32 488 *~;
#X obj 81 489 *~;
#X obj 119 433 *;
#X obj 119 407 t f f;
#X obj 81 309 +;
#X obj 97 285 * 3;
#X obj 97 264 netpd-r bass.det;
#X obj 119 303 netpd-r bass.vol;
#X obj 164 329 netpd-r bass.boes;
#X msg 349 172 set 64 1 \$1;
#X obj 77 184 f;
#X obj 77 163 del;
#X obj 45 91 pack;
#X obj 45 113 t l b;
#X msg 77 205 0 \$1;
#X obj 45 38 t b f b;
#X msg 109 92 stop;
#X obj 243 206 del;
#X obj 243 185 t b f b;
#X obj 280 226 1;
#X obj 243 226 0;
#X obj 243 247 f;
#X obj 349 10 inlet downsample;
#X obj 45 6 inlet note;
#X obj 116 7 inlet drive;
#X obj 195 7 inlet decay;
#X obj 270 8 inlet attack;
#X obj 254 109 t b f;
#X obj 254 138 +;
#X obj 241 163 f;
#X obj 312 411 outlet;
#X obj 32 515 outlet~ lin;
#X obj 117 516 outlet~ lin;
#X obj 243 291 block~;
#X connect 0 0 2 0;
#X connect 1 0 0 0;
#X connect 1 0 14 0;
#X connect 2 0 5 0;
#X connect 3 0 8 0;
#X connect 4 0 2 1;
#X connect 4 0 7 1;
#X connect 5 0 10 0;
#X connect 5 1 11 0;
#X connect 6 0 7 0;
#X connect 7 0 5 1;
#X connect 8 0 4 0;
#X connect 9 0 22 0;
#X connect 10 0 41 0;
#X connect 11 0 42 0;
#X connect 12 0 11 1;
#X connect 12 0 10 1;
#X connect 13 0 12 0;
#X connect 13 1 12 1;
#X connect 14 0 6 0;
#X connect 15 0 14 1;
#X connect 16 0 15 0;
#X connect 17 0 13 0;
#X connect 18 0 5 2;
#X connect 19 0 43 0;
#X connect 20 0 24 0;
#X connect 21 0 20 0;
#X connect 22 0 23 0;
#X connect 23 0 3 0;
#X connect 23 1 21 0;
#X connect 24 0 3 0;
#X connect 25 0 9 0;
#X connect 25 1 1 0;
#X connect 25 2 26 0;
#X connect 25 2 39 0;
#X connect 26 0 21 0;
#X connect 27 0 30 0;
#X connect 28 0 27 0;
#X connect 28 1 27 1;
#X connect 28 2 29 0;
#X connect 29 0 31 0;
#X connect 30 0 31 0;
#X connect 31 0 40 0;
#X connect 32 0 19 0;
#X connect 33 0 25 0;
#X connect 34 0 9 1;
#X connect 35 0 20 1;
#X connect 35 0 38 0;
#X connect 36 0 21 1;
#X connect 36 0 22 1;
#X connect 36 0 37 0;
#X connect 37 0 38 0;
#X connect 37 1 38 1;
#X connect 38 0 39 1;
#X connect 39 0 28 0;
#X restore 19 110 pd dsp;
#X obj 10 15 inlet note;
#X obj 75 17 inlet drive;
#X obj 152 18 inlet dec;
#X obj 294 20 inlet ds;
#X obj 218 20 inlet att;
#X obj 123 191 switch~;
#X connect 1 0 0 0;
#X connect 1 1 0 1;
#X connect 1 2 0 2;
#X connect 1 2 7 0;
#X connect 2 0 1 0;
#X connect 3 0 1 1;
#X connect 4 0 1 2;
#X connect 5 0 1 4;
#X connect 6 0 1 3;
#X restore 33 305 pd dsp_________________;
#X obj 313 131 jamx \$0 bassist 3;
#X obj 33 24 unpack f f f f;
#X obj 119 138 * 200;
#X msg 172 56 version 0.3.6;
#X connect 0 0 16 2;
#X connect 1 0 16 1;
#X connect 3 0 0 0;
#X connect 4 0 3 0;
#X connect 5 0 1 0;
#X connect 7 0 18 0;
#X connect 12 0 15 0;
#X connect 12 1 15 1;
#X connect 13 0 14 0;
#X connect 14 0 16 4;
#X connect 18 0 16 0;
#X connect 18 1 5 0;
#X connect 18 2 4 0;
#X connect 18 3 19 0;
#X connect 19 0 16 3;
