#N canvas 503 349 442 229 10;
#N canvas 588 425 292 201 d-sturb 0;
#N canvas 0 0 897 811 block1 0;
#N canvas 334 0 971 810 randomizer 0;
#X obj 123 38 noise~;
#X obj 124 219 random;
#X obj 124 253 +;
#X obj 124 80 snapshot~;
#X obj 124 143 i;
#X obj 182 53 metro 20;
#X obj 124 166 moses;
#X obj 124 101 * 50;
#X obj 124 122 + 50;
#X obj 182 28 loadbang;
#X obj -97 4 inlet;
#X text -143 -15 sensibility;
#X obj 24 219 random;
#X obj 24 253 +;
#X obj 144 -16 inlet;
#X obj 194 -16 inlet;
#X text 143 -35 range;
#X text 191 -37 shift;
#X obj -56 219 random;
#X obj -56 563 +;
#X obj -49 4 inlet;
#X obj 1 4 inlet;
#X text -50 -15 range;
#X text 0 -15 shift;
#X obj -56 642 pack f f f;
#X obj -56 725 outlet;
#X text 293 149 Copydown by dondo (2006);
#X obj 2 184 t b b b;
#X text 247 171 Randomizer for notes + 2 parameters;
#X obj 24 285 / 127;
#X obj 304 -16 inlet;
#X obj 354 -16 inlet;
#X text 303 -35 range;
#X text 351 -37 shift;
#X obj 289 371 sel 0 1 2 3 4 5 6 7 8 9 10 11;
#X obj 335 281 - 12;
#X obj 372 282 - 24;
#X obj 406 281 - 36;
#X obj 442 282 - 48;
#X obj 475 281 - 60;
#X obj 512 282 - 72;
#X obj 546 281 - 84;
#X obj 582 282 - 96;
#X obj 615 281 - 108;
#X obj 658 281 - 120;
#X obj 698 281 - 132;
#X obj 289 231 f;
#X obj 289 612 spigot;
#X obj 305 592 spigot;
#X obj 322 572 spigot;
#X obj 338 552 spigot;
#X obj 355 532 spigot;
#X obj 371 512 spigot;
#X obj 388 492 spigot;
#X obj 404 472 spigot;
#X obj 421 452 spigot;
#X obj 437 432 spigot;
#X obj 454 412 spigot;
#X obj 470 392 spigot;
#X msg 289 932 0;
#X msg 305 912 1;
#X msg 322 892 2;
#X msg 338 872 3;
#X msg 355 852 4;
#X msg 371 832 5;
#X msg 388 812 6;
#X msg 404 792 7;
#X msg 421 772 8;
#X msg 437 752 9;
#X msg 454 732 10;
#X msg 470 712 11;
#X obj 606 817 +;
#X obj 295 281 + 12;
#X obj 602 526 moses 11;
#X msg 645 768 12;
#X msg 682 768 24;
#X msg 716 768 36;
#X msg 752 768 48;
#X msg 788 768 60;
#X msg 825 768 72;
#X msg 859 768 84;
#X msg 894 768 96;
#X msg 929 768 108;
#X msg 962 768 120;
#X msg 998 768 132;
#X obj 653 546 moses 23;
#X msg 605 768 0;
#X obj 704 566 moses 35;
#X obj 755 586 moses 47;
#X obj 806 607 moses 59;
#X obj 857 627 moses 71;
#X obj 908 647 moses 83;
#X obj 959 667 moses 95;
#X obj 1010 689 moses 107;
#X obj 1066 709 moses 119;
#X obj 1122 729 moses 131;
#X obj 1178 749 moses 143;
#X obj -110 503 r stepshuffle;
#X obj -69 589 f;
#X msg -110 531 bang;
#X obj 488 443 netpd-r ds-n12;
#X obj 488 463 netpd-r ds-n11;
#X obj 488 483 netpd-r ds-n10;
#X obj 488 503 netpd-r ds-n9;
#X obj 488 522 netpd-r ds-n8;
#X obj 488 543 netpd-r ds-n7;
#X obj 488 563 netpd-r ds-n6;
#X obj 488 583 netpd-r ds-n5;
#X obj 487 603 netpd-r ds-n4;
#X obj 488 623 netpd-r ds-n3;
#X obj 488 643 netpd-r ds-n2;
#X obj 488 663 netpd-r ds-n1;
#X obj 123 295 / 127;
#X obj -69 612 change;
#X obj -56 691 spigot;
#X obj -19 664 netpd-r ds-8;
#X connect 0 0 3 0;
#X connect 1 0 2 0;
#X connect 2 0 112 0;
#X connect 3 0 7 0;
#X connect 4 0 6 0;
#X connect 5 0 3 0;
#X connect 6 0 27 0;
#X connect 7 0 8 0;
#X connect 8 0 4 0;
#X connect 9 0 5 0;
#X connect 10 0 6 1;
#X connect 12 0 13 0;
#X connect 13 0 29 0;
#X connect 14 0 12 1;
#X connect 15 0 13 1;
#X connect 18 0 19 0;
#X connect 19 0 46 0;
#X connect 20 0 18 1;
#X connect 21 0 19 1;
#X connect 24 0 114 0;
#X connect 27 0 18 0;
#X connect 27 1 12 0;
#X connect 27 2 1 0;
#X connect 29 0 24 1;
#X connect 30 0 1 1;
#X connect 31 0 2 1;
#X connect 34 0 47 0;
#X connect 34 1 48 0;
#X connect 34 2 49 0;
#X connect 34 3 50 0;
#X connect 34 4 51 0;
#X connect 34 5 52 0;
#X connect 34 6 53 0;
#X connect 34 7 54 0;
#X connect 34 8 55 0;
#X connect 34 9 56 0;
#X connect 34 10 57 0;
#X connect 34 11 58 0;
#X connect 35 0 34 0;
#X connect 36 0 34 0;
#X connect 37 0 34 0;
#X connect 38 0 34 0;
#X connect 39 0 34 0;
#X connect 40 0 34 0;
#X connect 41 0 34 0;
#X connect 42 0 34 0;
#X connect 43 0 34 0;
#X connect 44 0 34 0;
#X connect 45 0 34 0;
#X connect 46 0 35 0;
#X connect 46 0 36 0;
#X connect 46 0 37 0;
#X connect 46 0 38 0;
#X connect 46 0 39 0;
#X connect 46 0 40 0;
#X connect 46 0 41 0;
#X connect 46 0 42 0;
#X connect 46 0 43 0;
#X connect 46 0 44 0;
#X connect 46 0 45 0;
#X connect 46 0 72 0;
#X connect 46 0 34 0;
#X connect 46 0 73 0;
#X connect 47 0 59 0;
#X connect 48 0 60 0;
#X connect 49 0 61 0;
#X connect 50 0 62 0;
#X connect 51 0 63 0;
#X connect 52 0 64 0;
#X connect 53 0 65 0;
#X connect 54 0 66 0;
#X connect 55 0 67 0;
#X connect 56 0 68 0;
#X connect 57 0 69 0;
#X connect 58 0 70 0;
#X connect 59 0 71 0;
#X connect 60 0 71 0;
#X connect 61 0 71 0;
#X connect 62 0 71 0;
#X connect 63 0 71 0;
#X connect 64 0 71 0;
#X connect 65 0 71 0;
#X connect 66 0 71 0;
#X connect 67 0 71 0;
#X connect 68 0 71 0;
#X connect 69 0 71 0;
#X connect 70 0 71 0;
#X connect 71 0 98 1;
#X connect 72 0 34 0;
#X connect 73 0 86 0;
#X connect 73 1 85 0;
#X connect 74 0 71 1;
#X connect 75 0 71 1;
#X connect 76 0 71 1;
#X connect 77 0 71 1;
#X connect 78 0 71 1;
#X connect 79 0 71 1;
#X connect 80 0 71 1;
#X connect 81 0 71 1;
#X connect 82 0 71 1;
#X connect 83 0 71 1;
#X connect 84 0 71 1;
#X connect 85 0 74 0;
#X connect 85 1 87 0;
#X connect 86 0 71 1;
#X connect 87 0 75 0;
#X connect 87 1 88 0;
#X connect 88 0 76 0;
#X connect 88 1 89 0;
#X connect 89 0 77 0;
#X connect 89 1 90 0;
#X connect 90 0 78 0;
#X connect 90 1 91 0;
#X connect 91 0 79 0;
#X connect 91 1 92 0;
#X connect 92 0 80 0;
#X connect 92 1 93 0;
#X connect 93 0 81 0;
#X connect 93 1 94 0;
#X connect 94 0 82 0;
#X connect 94 1 95 0;
#X connect 95 0 83 0;
#X connect 95 1 96 0;
#X connect 96 0 84 0;
#X connect 97 0 99 0;
#X connect 98 0 113 0;
#X connect 99 0 98 0;
#X connect 100 0 58 1;
#X connect 101 0 57 1;
#X connect 102 0 56 1;
#X connect 103 0 55 1;
#X connect 104 0 54 1;
#X connect 105 0 53 1;
#X connect 106 0 52 1;
#X connect 107 0 51 1;
#X connect 108 0 50 1;
#X connect 109 0 49 1;
#X connect 110 0 48 1;
#X connect 111 0 47 1;
#X connect 112 0 24 2;
#X connect 113 0 24 0;
#X connect 114 0 25 0;
#X connect 115 0 114 1;
#X restore 45 257 pd randomizer;
#X obj 45 16 netpd-r ds-1;
#X obj 59 36 netpd-r ds-2;
#X obj 73 56 netpd-r ds-3;
#X obj 88 76 netpd-r ds-4;
#X obj 102 96 netpd-r ds-5;
#X obj 116 116 netpd-r ds-6;
#X obj 131 136 netpd-r ds-7;
#X obj 45 483 s bassist;
#X obj 45 368 spigot;
#X obj 142 184 r ds-sel-out;
#X msg 442 224 1;
#X msg 457 224 0;
#X obj 95 368 spigot;
#X msg 492 224 1;
#X msg 508 224 0;
#X obj 95 463 s bon-plucker;
#X obj 145 368 spigot;
#X msg 542 224 1;
#X msg 557 224 0;
#X obj 145 442 s bon-synth2;
#X obj 198 394 s daisy;
#X obj 198 368 spigot;
#X msg 595 224 1;
#X msg 614 224 0;
#X obj 248 368 spigot;
#X msg 640 224 1;
#X msg 658 224 0;
#X obj 248 424 s fat-ass-note;
#X obj 298 368 spigot;
#X msg 685 224 1;
#X msg 702 224 0;
#X obj 298 494 s gold;
#X obj 348 368 spigot;
#X obj 298 469 unpack f;
#X obj 145 414 unpack f;
#X obj 348 494 s hmr;
#X msg 733 224 1;
#X msg 759 224 0;
#X obj 398 368 spigot;
#X obj 398 494 s nase1;
#X obj 458 368 spigot;
#X obj 518 368 spigot;
#X msg 786 224 1;
#X msg 805 224 0;
#X msg 830 224 1;
#X msg 838 224 0;
#X msg 871 224 1;
#X msg 883 224 0;
#X obj 458 494 s nase2;
#X obj 518 494 s nase3;
#X obj 578 368 spigot;
#X msg 915 224 1;
#X msg 928 224 0;
#X obj 578 494 s sum;
#X obj 628 368 spigot;
#X msg 965 224 1;
#X msg 976 224 0;
#X obj 628 494 s sm-note;
#X obj 678 368 spigot;
#X msg 1015 224 1;
#X msg 1026 224 0;
#X obj 678 474 s d-mostro-note;
#X obj 728 368 spigot;
#X obj 728 454 s xfm-note1;
#X obj 142 207 sel 0 1 2 3 4 5 6 7 8 9 10 11 12 13 14 15;
#X msg 1059 224 1;
#X msg 1068 224 0;
#X obj 778 368 spigot;
#X obj 778 514 s xfm-note2;
#X msg 1095 224 1;
#X msg 1105 224 0;
#X obj 828 368 spigot;
#X msg 928 338 1;
#X msg 513 303 0;
#X obj 828 494 s d-arrhoea-note;
#X obj 728 395 unpack f f f;
#X obj 728 422 pack f f f f f f f;
#X connect 0 0 9 0;
#X connect 0 0 13 0;
#X connect 0 0 17 0;
#X connect 0 0 22 0;
#X connect 0 0 25 0;
#X connect 0 0 29 0;
#X connect 0 0 33 0;
#X connect 0 0 39 0;
#X connect 0 0 41 0;
#X connect 0 0 42 0;
#X connect 0 0 51 0;
#X connect 0 0 55 0;
#X connect 0 0 59 0;
#X connect 0 0 63 0;
#X connect 0 0 68 0;
#X connect 0 0 72 0;
#X connect 1 0 0 0;
#X connect 2 0 0 1;
#X connect 3 0 0 2;
#X connect 4 0 0 3;
#X connect 5 0 0 4;
#X connect 6 0 0 5;
#X connect 7 0 0 6;
#X connect 9 0 8 0;
#X connect 10 0 65 0;
#X connect 11 0 9 1;
#X connect 12 0 9 1;
#X connect 13 0 16 0;
#X connect 14 0 13 1;
#X connect 15 0 13 1;
#X connect 17 0 35 0;
#X connect 18 0 17 1;
#X connect 19 0 17 1;
#X connect 22 0 21 0;
#X connect 23 0 22 1;
#X connect 24 0 22 1;
#X connect 25 0 28 0;
#X connect 26 0 25 1;
#X connect 27 0 25 1;
#X connect 29 0 34 0;
#X connect 30 0 29 1;
#X connect 31 0 29 1;
#X connect 33 0 36 0;
#X connect 34 0 32 0;
#X connect 35 0 20 0;
#X connect 37 0 33 1;
#X connect 38 0 33 1;
#X connect 39 0 40 0;
#X connect 41 0 49 0;
#X connect 42 0 50 0;
#X connect 43 0 39 1;
#X connect 44 0 39 1;
#X connect 45 0 41 1;
#X connect 46 0 41 1;
#X connect 47 0 42 1;
#X connect 48 0 42 1;
#X connect 51 0 54 0;
#X connect 52 0 51 1;
#X connect 53 0 51 1;
#X connect 55 0 58 0;
#X connect 56 0 55 1;
#X connect 57 0 55 1;
#X connect 59 0 62 0;
#X connect 60 0 59 1;
#X connect 61 0 59 1;
#X connect 63 0 76 0;
#X connect 65 0 11 0;
#X connect 65 0 15 0;
#X connect 65 0 19 0;
#X connect 65 0 24 0;
#X connect 65 0 27 0;
#X connect 65 0 31 0;
#X connect 65 0 38 0;
#X connect 65 0 44 0;
#X connect 65 0 46 0;
#X connect 65 0 48 0;
#X connect 65 0 53 0;
#X connect 65 0 57 0;
#X connect 65 0 61 0;
#X connect 65 0 67 0;
#X connect 65 0 71 0;
#X connect 65 0 74 0;
#X connect 65 1 12 0;
#X connect 65 1 14 0;
#X connect 65 1 19 0;
#X connect 65 1 24 0;
#X connect 65 1 27 0;
#X connect 65 1 31 0;
#X connect 65 1 38 0;
#X connect 65 1 44 0;
#X connect 65 1 46 0;
#X connect 65 1 48 0;
#X connect 65 1 53 0;
#X connect 65 1 57 0;
#X connect 65 1 61 0;
#X connect 65 1 67 0;
#X connect 65 1 71 0;
#X connect 65 1 74 0;
#X connect 65 2 12 0;
#X connect 65 2 15 0;
#X connect 65 2 18 0;
#X connect 65 2 24 0;
#X connect 65 2 27 0;
#X connect 65 2 31 0;
#X connect 65 2 38 0;
#X connect 65 2 44 0;
#X connect 65 2 46 0;
#X connect 65 2 48 0;
#X connect 65 2 53 0;
#X connect 65 2 57 0;
#X connect 65 2 61 0;
#X connect 65 2 67 0;
#X connect 65 2 71 0;
#X connect 65 2 74 0;
#X connect 65 3 12 0;
#X connect 65 3 15 0;
#X connect 65 3 19 0;
#X connect 65 3 23 0;
#X connect 65 3 27 0;
#X connect 65 3 31 0;
#X connect 65 3 38 0;
#X connect 65 3 44 0;
#X connect 65 3 46 0;
#X connect 65 3 48 0;
#X connect 65 3 53 0;
#X connect 65 3 57 0;
#X connect 65 3 61 0;
#X connect 65 3 67 0;
#X connect 65 3 71 0;
#X connect 65 3 74 0;
#X connect 65 4 12 0;
#X connect 65 4 15 0;
#X connect 65 4 19 0;
#X connect 65 4 24 0;
#X connect 65 4 26 0;
#X connect 65 4 31 0;
#X connect 65 4 38 0;
#X connect 65 4 44 0;
#X connect 65 4 46 0;
#X connect 65 4 48 0;
#X connect 65 4 53 0;
#X connect 65 4 57 0;
#X connect 65 4 61 0;
#X connect 65 4 67 0;
#X connect 65 4 71 0;
#X connect 65 4 74 0;
#X connect 65 5 12 0;
#X connect 65 5 15 0;
#X connect 65 5 19 0;
#X connect 65 5 24 0;
#X connect 65 5 27 0;
#X connect 65 5 30 0;
#X connect 65 5 38 0;
#X connect 65 5 44 0;
#X connect 65 5 46 0;
#X connect 65 5 48 0;
#X connect 65 5 53 0;
#X connect 65 5 57 0;
#X connect 65 5 61 0;
#X connect 65 5 67 0;
#X connect 65 5 71 0;
#X connect 65 5 74 0;
#X connect 65 6 12 0;
#X connect 65 6 15 0;
#X connect 65 6 19 0;
#X connect 65 6 24 0;
#X connect 65 6 27 0;
#X connect 65 6 31 0;
#X connect 65 6 37 0;
#X connect 65 6 44 0;
#X connect 65 6 46 0;
#X connect 65 6 48 0;
#X connect 65 6 53 0;
#X connect 65 6 57 0;
#X connect 65 6 61 0;
#X connect 65 6 67 0;
#X connect 65 6 71 0;
#X connect 65 6 74 0;
#X connect 65 7 12 0;
#X connect 65 7 15 0;
#X connect 65 7 19 0;
#X connect 65 7 24 0;
#X connect 65 7 27 0;
#X connect 65 7 31 0;
#X connect 65 7 38 0;
#X connect 65 7 43 0;
#X connect 65 7 46 0;
#X connect 65 7 48 0;
#X connect 65 7 53 0;
#X connect 65 7 57 0;
#X connect 65 7 61 0;
#X connect 65 7 67 0;
#X connect 65 7 71 0;
#X connect 65 7 74 0;
#X connect 65 8 12 0;
#X connect 65 8 15 0;
#X connect 65 8 19 0;
#X connect 65 8 24 0;
#X connect 65 8 27 0;
#X connect 65 8 31 0;
#X connect 65 8 38 0;
#X connect 65 8 45 0;
#X connect 65 8 44 0;
#X connect 65 8 48 0;
#X connect 65 8 53 0;
#X connect 65 8 57 0;
#X connect 65 8 61 0;
#X connect 65 8 67 0;
#X connect 65 8 71 0;
#X connect 65 8 74 0;
#X connect 65 9 12 0;
#X connect 65 9 15 0;
#X connect 65 9 19 0;
#X connect 65 9 24 0;
#X connect 65 9 27 0;
#X connect 65 9 31 0;
#X connect 65 9 38 0;
#X connect 65 9 47 0;
#X connect 65 9 44 0;
#X connect 65 9 46 0;
#X connect 65 9 53 0;
#X connect 65 9 57 0;
#X connect 65 9 61 0;
#X connect 65 9 67 0;
#X connect 65 9 71 0;
#X connect 65 9 74 0;
#X connect 65 10 12 0;
#X connect 65 10 15 0;
#X connect 65 10 19 0;
#X connect 65 10 24 0;
#X connect 65 10 27 0;
#X connect 65 10 31 0;
#X connect 65 10 38 0;
#X connect 65 10 44 0;
#X connect 65 10 46 0;
#X connect 65 10 48 0;
#X connect 65 10 52 0;
#X connect 65 10 57 0;
#X connect 65 10 61 0;
#X connect 65 10 67 0;
#X connect 65 10 71 0;
#X connect 65 10 74 0;
#X connect 65 11 12 0;
#X connect 65 11 15 0;
#X connect 65 11 19 0;
#X connect 65 11 24 0;
#X connect 65 11 27 0;
#X connect 65 11 31 0;
#X connect 65 11 38 0;
#X connect 65 11 44 0;
#X connect 65 11 46 0;
#X connect 65 11 48 0;
#X connect 65 11 53 0;
#X connect 65 11 56 0;
#X connect 65 11 61 0;
#X connect 65 11 67 0;
#X connect 65 11 71 0;
#X connect 65 11 74 0;
#X connect 65 12 12 0;
#X connect 65 12 15 0;
#X connect 65 12 19 0;
#X connect 65 12 24 0;
#X connect 65 12 27 0;
#X connect 65 12 31 0;
#X connect 65 12 38 0;
#X connect 65 12 44 0;
#X connect 65 12 46 0;
#X connect 65 12 48 0;
#X connect 65 12 53 0;
#X connect 65 12 57 0;
#X connect 65 12 60 0;
#X connect 65 12 67 0;
#X connect 65 12 71 0;
#X connect 65 12 74 0;
#X connect 65 13 12 0;
#X connect 65 13 15 0;
#X connect 65 13 19 0;
#X connect 65 13 24 0;
#X connect 65 13 27 0;
#X connect 65 13 31 0;
#X connect 65 13 38 0;
#X connect 65 13 44 0;
#X connect 65 13 46 0;
#X connect 65 13 48 0;
#X connect 65 13 53 0;
#X connect 65 13 57 0;
#X connect 65 13 61 0;
#X connect 65 13 66 0;
#X connect 65 13 71 0;
#X connect 65 13 74 0;
#X connect 65 14 12 0;
#X connect 65 14 15 0;
#X connect 65 14 19 0;
#X connect 65 14 24 0;
#X connect 65 14 27 0;
#X connect 65 14 31 0;
#X connect 65 14 38 0;
#X connect 65 14 44 0;
#X connect 65 14 46 0;
#X connect 65 14 48 0;
#X connect 65 14 53 0;
#X connect 65 14 57 0;
#X connect 65 14 61 0;
#X connect 65 14 70 0;
#X connect 65 14 67 0;
#X connect 65 14 74 0;
#X connect 65 15 31 0;
#X connect 65 15 67 0;
#X connect 65 15 71 0;
#X connect 65 15 73 0;
#X connect 65 15 12 0;
#X connect 65 15 15 0;
#X connect 65 15 19 0;
#X connect 65 15 24 0;
#X connect 65 15 27 0;
#X connect 65 15 38 0;
#X connect 65 15 44 0;
#X connect 65 15 46 0;
#X connect 65 15 48 0;
#X connect 65 15 53 0;
#X connect 65 15 61 0;
#X connect 65 15 57 0;
#X connect 66 0 63 1;
#X connect 67 0 63 1;
#X connect 68 0 69 0;
#X connect 70 0 68 1;
#X connect 71 0 68 1;
#X connect 72 0 75 0;
#X connect 73 0 72 1;
#X connect 74 0 72 1;
#X connect 76 0 77 0;
#X connect 76 1 77 5;
#X connect 76 2 77 6;
#X connect 77 0 64 0;
#X restore 11 10 pd block1;
#N canvas 0 0 1256 611 block2 0;
#N canvas 334 0 971 810 randomizer 0;
#X obj 123 38 noise~;
#X obj 124 219 random;
#X obj 124 253 +;
#X obj 124 80 snapshot~;
#X obj 124 143 i;
#X obj 182 53 metro 20;
#X obj 124 166 moses;
#X obj 124 101 * 50;
#X obj 124 122 + 50;
#X obj 182 28 loadbang;
#X obj -97 4 inlet;
#X text -143 -15 sensibility;
#X obj 24 219 random;
#X obj 24 253 +;
#X obj 144 -16 inlet;
#X obj 194 -16 inlet;
#X text 143 -35 range;
#X text 191 -37 shift;
#X obj -56 219 random;
#X obj -56 563 +;
#X obj -49 4 inlet;
#X obj 1 4 inlet;
#X text -50 -15 range;
#X text 0 -15 shift;
#X obj -56 642 pack f f f;
#X obj -56 711 outlet;
#X text 293 149 Copydown by dondo (2006);
#X obj 2 184 t b b b;
#X text 247 171 Randomizer for notes + 2 parameters;
#X obj 24 285 / 127;
#X obj 304 -16 inlet;
#X obj 354 -16 inlet;
#X text 303 -35 range;
#X text 351 -37 shift;
#X obj 289 371 sel 0 1 2 3 4 5 6 7 8 9 10 11;
#X obj 335 281 - 12;
#X obj 372 282 - 24;
#X obj 406 281 - 36;
#X obj 442 282 - 48;
#X obj 475 281 - 60;
#X obj 512 282 - 72;
#X obj 546 281 - 84;
#X obj 582 282 - 96;
#X obj 615 281 - 108;
#X obj 658 281 - 120;
#X obj 698 281 - 132;
#X obj 289 231 f;
#X obj 289 612 spigot;
#X obj 305 592 spigot;
#X obj 322 572 spigot;
#X obj 338 552 spigot;
#X obj 355 532 spigot;
#X obj 371 512 spigot;
#X obj 388 492 spigot;
#X obj 404 472 spigot;
#X obj 421 452 spigot;
#X obj 437 432 spigot;
#X obj 454 412 spigot;
#X obj 470 392 spigot;
#X msg 289 932 0;
#X msg 305 912 1;
#X msg 322 892 2;
#X msg 338 872 3;
#X msg 355 852 4;
#X msg 371 832 5;
#X msg 388 812 6;
#X msg 404 792 7;
#X msg 421 772 8;
#X msg 437 752 9;
#X msg 454 732 10;
#X msg 470 712 11;
#X obj 606 817 +;
#X obj 295 281 + 12;
#X obj 602 526 moses 11;
#X msg 645 768 12;
#X msg 682 768 24;
#X msg 716 768 36;
#X msg 752 768 48;
#X msg 788 768 60;
#X msg 825 768 72;
#X msg 859 768 84;
#X msg 894 768 96;
#X msg 929 768 108;
#X msg 962 768 120;
#X msg 998 768 132;
#X obj 653 546 moses 23;
#X msg 605 768 0;
#X obj 704 566 moses 35;
#X obj 755 586 moses 47;
#X obj 806 607 moses 59;
#X obj 857 627 moses 71;
#X obj 908 647 moses 83;
#X obj 959 667 moses 95;
#X obj 1010 689 moses 107;
#X obj 1066 709 moses 119;
#X obj 1122 729 moses 131;
#X obj 1178 749 moses 143;
#X obj -110 503 r stepshuffle;
#X obj -69 589 f;
#X msg -110 531 bang;
#X obj 123 295 / 127;
#X obj -69 612 change;
#X obj 488 443 netpd-r ds-m12;
#X obj 488 463 netpd-r ds-m11;
#X obj 488 483 netpd-r ds-m10;
#X obj 488 503 netpd-r ds-m9;
#X obj 488 522 netpd-r ds-m8;
#X obj 488 543 netpd-r ds-m7;
#X obj 488 563 netpd-r ds-m6;
#X obj 488 583 netpd-r ds-m5;
#X obj 487 603 netpd-r ds-m4;
#X obj 488 623 netpd-r ds-m3;
#X obj 488 643 netpd-r ds-m2;
#X obj 488 663 netpd-r ds-m1;
#X obj -56 690 spigot;
#X obj -19 668 netpd-r ds-18;
#X connect 0 0 3 0;
#X connect 1 0 2 0;
#X connect 2 0 100 0;
#X connect 3 0 7 0;
#X connect 4 0 6 0;
#X connect 5 0 3 0;
#X connect 6 0 27 0;
#X connect 7 0 8 0;
#X connect 8 0 4 0;
#X connect 9 0 5 0;
#X connect 10 0 6 1;
#X connect 12 0 13 0;
#X connect 13 0 29 0;
#X connect 14 0 12 1;
#X connect 15 0 13 1;
#X connect 18 0 19 0;
#X connect 19 0 46 0;
#X connect 20 0 18 1;
#X connect 21 0 19 1;
#X connect 24 0 114 0;
#X connect 27 0 18 0;
#X connect 27 1 12 0;
#X connect 27 2 1 0;
#X connect 29 0 24 1;
#X connect 30 0 1 1;
#X connect 31 0 2 1;
#X connect 34 0 47 0;
#X connect 34 1 48 0;
#X connect 34 2 49 0;
#X connect 34 3 50 0;
#X connect 34 4 51 0;
#X connect 34 5 52 0;
#X connect 34 6 53 0;
#X connect 34 7 54 0;
#X connect 34 8 55 0;
#X connect 34 9 56 0;
#X connect 34 10 57 0;
#X connect 34 11 58 0;
#X connect 35 0 34 0;
#X connect 36 0 34 0;
#X connect 37 0 34 0;
#X connect 38 0 34 0;
#X connect 39 0 34 0;
#X connect 40 0 34 0;
#X connect 41 0 34 0;
#X connect 42 0 34 0;
#X connect 43 0 34 0;
#X connect 44 0 34 0;
#X connect 45 0 34 0;
#X connect 46 0 35 0;
#X connect 46 0 36 0;
#X connect 46 0 37 0;
#X connect 46 0 38 0;
#X connect 46 0 39 0;
#X connect 46 0 40 0;
#X connect 46 0 41 0;
#X connect 46 0 42 0;
#X connect 46 0 43 0;
#X connect 46 0 44 0;
#X connect 46 0 45 0;
#X connect 46 0 72 0;
#X connect 46 0 34 0;
#X connect 46 0 73 0;
#X connect 47 0 59 0;
#X connect 48 0 60 0;
#X connect 49 0 61 0;
#X connect 50 0 62 0;
#X connect 51 0 63 0;
#X connect 52 0 64 0;
#X connect 53 0 65 0;
#X connect 54 0 66 0;
#X connect 55 0 67 0;
#X connect 56 0 68 0;
#X connect 57 0 69 0;
#X connect 58 0 70 0;
#X connect 59 0 71 0;
#X connect 60 0 71 0;
#X connect 61 0 71 0;
#X connect 62 0 71 0;
#X connect 63 0 71 0;
#X connect 64 0 71 0;
#X connect 65 0 71 0;
#X connect 66 0 71 0;
#X connect 67 0 71 0;
#X connect 68 0 71 0;
#X connect 69 0 71 0;
#X connect 70 0 71 0;
#X connect 71 0 98 1;
#X connect 72 0 34 0;
#X connect 73 0 86 0;
#X connect 73 1 85 0;
#X connect 74 0 71 1;
#X connect 75 0 71 1;
#X connect 76 0 71 1;
#X connect 77 0 71 1;
#X connect 78 0 71 1;
#X connect 79 0 71 1;
#X connect 80 0 71 1;
#X connect 81 0 71 1;
#X connect 82 0 71 1;
#X connect 83 0 71 1;
#X connect 84 0 71 1;
#X connect 85 0 74 0;
#X connect 85 1 87 0;
#X connect 86 0 71 1;
#X connect 87 0 75 0;
#X connect 87 1 88 0;
#X connect 88 0 76 0;
#X connect 88 1 89 0;
#X connect 89 0 77 0;
#X connect 89 1 90 0;
#X connect 90 0 78 0;
#X connect 90 1 91 0;
#X connect 91 0 79 0;
#X connect 91 1 92 0;
#X connect 92 0 80 0;
#X connect 92 1 93 0;
#X connect 93 0 81 0;
#X connect 93 1 94 0;
#X connect 94 0 82 0;
#X connect 94 1 95 0;
#X connect 95 0 83 0;
#X connect 95 1 96 0;
#X connect 96 0 84 0;
#X connect 97 0 99 0;
#X connect 98 0 101 0;
#X connect 99 0 98 0;
#X connect 100 0 24 2;
#X connect 101 0 24 0;
#X connect 102 0 58 1;
#X connect 103 0 57 1;
#X connect 104 0 56 1;
#X connect 105 0 55 1;
#X connect 106 0 54 1;
#X connect 107 0 53 1;
#X connect 108 0 52 1;
#X connect 109 0 51 1;
#X connect 110 0 50 1;
#X connect 111 0 49 1;
#X connect 112 0 48 1;
#X connect 113 0 47 1;
#X connect 114 0 25 0;
#X connect 115 0 114 1;
#X restore 45 257 pd randomizer;
#X obj 45 483 s bassist;
#X obj 45 368 spigot;
#X msg 442 224 1;
#X msg 452 224 0;
#X obj 95 368 spigot;
#X msg 492 224 1;
#X msg 502 224 0;
#X obj 95 463 s bon-plucker;
#X obj 145 368 spigot;
#X msg 542 224 1;
#X msg 552 224 0;
#X obj 145 442 s bon-synth2;
#X obj 198 394 s daisy;
#X obj 198 368 spigot;
#X msg 595 224 1;
#X msg 605 224 0;
#X obj 248 368 spigot;
#X msg 640 224 1;
#X msg 650 224 0;
#X obj 248 424 s fat-ass-note;
#X obj 298 368 spigot;
#X msg 685 224 1;
#X msg 695 224 0;
#X obj 298 494 s gold;
#X obj 348 368 spigot;
#X obj 298 469 unpack f;
#X obj 145 414 unpack f;
#X obj 348 494 s hmr;
#X msg 733 224 1;
#X msg 740 224 0;
#X obj 398 368 spigot;
#X obj 398 494 s nase1;
#X obj 458 368 spigot;
#X obj 518 368 spigot;
#X msg 786 224 1;
#X msg 794 224 0;
#X msg 830 224 1;
#X msg 838 224 0;
#X msg 871 224 1;
#X msg 882 224 0;
#X obj 458 494 s nase2;
#X obj 518 494 s nase3;
#X obj 578 368 spigot;
#X msg 915 224 1;
#X msg 928 224 0;
#X obj 578 494 s sum;
#X obj 628 368 spigot;
#X msg 965 224 1;
#X msg 976 224 0;
#X obj 628 494 s sm-note;
#X obj 678 368 spigot;
#X msg 1015 224 1;
#X msg 1026 224 0;
#X obj 678 474 s d-mostro-note;
#X obj 728 368 spigot;
#X obj 728 454 s xfm-note1;
#X obj 142 207 sel 0 1 2 3 4 5 6 7 8 9 10 11 12 13 14 15;
#X msg 1059 224 1;
#X msg 1068 224 0;
#X obj 778 368 spigot;
#X obj 778 504 s xfm-note2;
#X msg 1095 224 1;
#X msg 1105 224 0;
#X obj 828 368 spigot;
#X msg 1145 224 1;
#X msg 1156 224 0;
#X obj 828 484 s d-arrhoea-note;
#X obj 45 16 netpd-r ds-11;
#X obj 59 36 netpd-r ds-12;
#X obj 73 56 netpd-r ds-13;
#X obj 88 76 netpd-r ds-14;
#X obj 102 96 netpd-r ds-15;
#X obj 116 116 netpd-r ds-16;
#X obj 131 136 netpd-r ds-17;
#X obj 142 184 r ds-sel2-out;
#X obj 728 395 unpack f f f;
#X obj 728 422 pack f f f f f f f;
#X connect 0 0 2 0;
#X connect 0 0 5 0;
#X connect 0 0 9 0;
#X connect 0 0 14 0;
#X connect 0 0 17 0;
#X connect 0 0 21 0;
#X connect 0 0 25 0;
#X connect 0 0 31 0;
#X connect 0 0 33 0;
#X connect 0 0 34 0;
#X connect 0 0 43 0;
#X connect 0 0 47 0;
#X connect 0 0 51 0;
#X connect 0 0 55 0;
#X connect 0 0 60 0;
#X connect 0 0 64 0;
#X connect 2 0 1 0;
#X connect 3 0 2 1;
#X connect 4 0 2 1;
#X connect 5 0 8 0;
#X connect 6 0 5 1;
#X connect 7 0 5 1;
#X connect 9 0 27 0;
#X connect 10 0 9 1;
#X connect 11 0 9 1;
#X connect 14 0 13 0;
#X connect 15 0 14 1;
#X connect 16 0 14 1;
#X connect 17 0 20 0;
#X connect 18 0 17 1;
#X connect 19 0 17 1;
#X connect 21 0 26 0;
#X connect 22 0 21 1;
#X connect 23 0 21 1;
#X connect 25 0 28 0;
#X connect 26 0 24 0;
#X connect 27 0 12 0;
#X connect 29 0 25 1;
#X connect 30 0 25 1;
#X connect 31 0 32 0;
#X connect 33 0 41 0;
#X connect 34 0 42 0;
#X connect 35 0 31 1;
#X connect 36 0 31 1;
#X connect 37 0 33 1;
#X connect 38 0 33 1;
#X connect 39 0 34 1;
#X connect 40 0 34 1;
#X connect 43 0 46 0;
#X connect 44 0 43 1;
#X connect 45 0 43 1;
#X connect 47 0 50 0;
#X connect 48 0 47 1;
#X connect 49 0 47 1;
#X connect 51 0 54 0;
#X connect 52 0 51 1;
#X connect 53 0 51 1;
#X connect 55 0 76 0;
#X connect 57 0 3 0;
#X connect 57 0 7 0;
#X connect 57 0 11 0;
#X connect 57 0 16 0;
#X connect 57 0 19 0;
#X connect 57 0 23 0;
#X connect 57 0 30 0;
#X connect 57 0 36 0;
#X connect 57 0 38 0;
#X connect 57 0 40 0;
#X connect 57 0 45 0;
#X connect 57 0 49 0;
#X connect 57 0 53 0;
#X connect 57 0 59 0;
#X connect 57 0 63 0;
#X connect 57 0 66 0;
#X connect 57 1 4 0;
#X connect 57 1 6 0;
#X connect 57 1 11 0;
#X connect 57 1 16 0;
#X connect 57 1 19 0;
#X connect 57 1 23 0;
#X connect 57 1 30 0;
#X connect 57 1 36 0;
#X connect 57 1 38 0;
#X connect 57 1 40 0;
#X connect 57 1 45 0;
#X connect 57 1 49 0;
#X connect 57 1 53 0;
#X connect 57 1 59 0;
#X connect 57 1 63 0;
#X connect 57 1 66 0;
#X connect 57 2 4 0;
#X connect 57 2 7 0;
#X connect 57 2 10 0;
#X connect 57 2 16 0;
#X connect 57 2 19 0;
#X connect 57 2 23 0;
#X connect 57 2 30 0;
#X connect 57 2 36 0;
#X connect 57 2 38 0;
#X connect 57 2 40 0;
#X connect 57 2 45 0;
#X connect 57 2 49 0;
#X connect 57 2 53 0;
#X connect 57 2 59 0;
#X connect 57 2 63 0;
#X connect 57 2 66 0;
#X connect 57 3 4 0;
#X connect 57 3 7 0;
#X connect 57 3 11 0;
#X connect 57 3 15 0;
#X connect 57 3 19 0;
#X connect 57 3 23 0;
#X connect 57 3 30 0;
#X connect 57 3 36 0;
#X connect 57 3 38 0;
#X connect 57 3 40 0;
#X connect 57 3 45 0;
#X connect 57 3 49 0;
#X connect 57 3 53 0;
#X connect 57 3 59 0;
#X connect 57 3 63 0;
#X connect 57 3 66 0;
#X connect 57 4 4 0;
#X connect 57 4 7 0;
#X connect 57 4 11 0;
#X connect 57 4 16 0;
#X connect 57 4 18 0;
#X connect 57 4 23 0;
#X connect 57 4 30 0;
#X connect 57 4 36 0;
#X connect 57 4 38 0;
#X connect 57 4 40 0;
#X connect 57 4 45 0;
#X connect 57 4 49 0;
#X connect 57 4 53 0;
#X connect 57 4 59 0;
#X connect 57 4 63 0;
#X connect 57 4 66 0;
#X connect 57 5 4 0;
#X connect 57 5 7 0;
#X connect 57 5 11 0;
#X connect 57 5 16 0;
#X connect 57 5 19 0;
#X connect 57 5 22 0;
#X connect 57 5 30 0;
#X connect 57 5 36 0;
#X connect 57 5 38 0;
#X connect 57 5 40 0;
#X connect 57 5 45 0;
#X connect 57 5 49 0;
#X connect 57 5 53 0;
#X connect 57 5 59 0;
#X connect 57 5 63 0;
#X connect 57 5 66 0;
#X connect 57 6 4 0;
#X connect 57 6 7 0;
#X connect 57 6 11 0;
#X connect 57 6 16 0;
#X connect 57 6 19 0;
#X connect 57 6 23 0;
#X connect 57 6 29 0;
#X connect 57 6 36 0;
#X connect 57 6 38 0;
#X connect 57 6 40 0;
#X connect 57 6 45 0;
#X connect 57 6 49 0;
#X connect 57 6 53 0;
#X connect 57 6 59 0;
#X connect 57 6 63 0;
#X connect 57 6 66 0;
#X connect 57 7 4 0;
#X connect 57 7 7 0;
#X connect 57 7 11 0;
#X connect 57 7 16 0;
#X connect 57 7 19 0;
#X connect 57 7 23 0;
#X connect 57 7 30 0;
#X connect 57 7 35 0;
#X connect 57 7 38 0;
#X connect 57 7 40 0;
#X connect 57 7 45 0;
#X connect 57 7 49 0;
#X connect 57 7 53 0;
#X connect 57 7 59 0;
#X connect 57 7 63 0;
#X connect 57 7 66 0;
#X connect 57 8 4 0;
#X connect 57 8 7 0;
#X connect 57 8 11 0;
#X connect 57 8 16 0;
#X connect 57 8 19 0;
#X connect 57 8 23 0;
#X connect 57 8 30 0;
#X connect 57 8 37 0;
#X connect 57 8 36 0;
#X connect 57 8 40 0;
#X connect 57 8 45 0;
#X connect 57 8 49 0;
#X connect 57 8 53 0;
#X connect 57 8 59 0;
#X connect 57 8 63 0;
#X connect 57 8 66 0;
#X connect 57 9 4 0;
#X connect 57 9 7 0;
#X connect 57 9 11 0;
#X connect 57 9 16 0;
#X connect 57 9 19 0;
#X connect 57 9 23 0;
#X connect 57 9 30 0;
#X connect 57 9 39 0;
#X connect 57 9 36 0;
#X connect 57 9 38 0;
#X connect 57 9 45 0;
#X connect 57 9 49 0;
#X connect 57 9 53 0;
#X connect 57 9 59 0;
#X connect 57 9 63 0;
#X connect 57 9 66 0;
#X connect 57 10 4 0;
#X connect 57 10 7 0;
#X connect 57 10 11 0;
#X connect 57 10 16 0;
#X connect 57 10 19 0;
#X connect 57 10 23 0;
#X connect 57 10 30 0;
#X connect 57 10 36 0;
#X connect 57 10 38 0;
#X connect 57 10 40 0;
#X connect 57 10 44 0;
#X connect 57 10 49 0;
#X connect 57 10 53 0;
#X connect 57 10 59 0;
#X connect 57 10 63 0;
#X connect 57 10 66 0;
#X connect 57 11 4 0;
#X connect 57 11 7 0;
#X connect 57 11 11 0;
#X connect 57 11 16 0;
#X connect 57 11 19 0;
#X connect 57 11 23 0;
#X connect 57 11 30 0;
#X connect 57 11 36 0;
#X connect 57 11 38 0;
#X connect 57 11 40 0;
#X connect 57 11 45 0;
#X connect 57 11 48 0;
#X connect 57 11 53 0;
#X connect 57 11 59 0;
#X connect 57 11 63 0;
#X connect 57 11 66 0;
#X connect 57 12 4 0;
#X connect 57 12 7 0;
#X connect 57 12 11 0;
#X connect 57 12 16 0;
#X connect 57 12 19 0;
#X connect 57 12 23 0;
#X connect 57 12 30 0;
#X connect 57 12 36 0;
#X connect 57 12 38 0;
#X connect 57 12 40 0;
#X connect 57 12 45 0;
#X connect 57 12 49 0;
#X connect 57 12 52 0;
#X connect 57 12 59 0;
#X connect 57 12 63 0;
#X connect 57 12 66 0;
#X connect 57 13 4 0;
#X connect 57 13 7 0;
#X connect 57 13 11 0;
#X connect 57 13 16 0;
#X connect 57 13 19 0;
#X connect 57 13 23 0;
#X connect 57 13 30 0;
#X connect 57 13 36 0;
#X connect 57 13 38 0;
#X connect 57 13 40 0;
#X connect 57 13 45 0;
#X connect 57 13 49 0;
#X connect 57 13 53 0;
#X connect 57 13 58 0;
#X connect 57 13 63 0;
#X connect 57 13 66 0;
#X connect 57 14 4 0;
#X connect 57 14 7 0;
#X connect 57 14 11 0;
#X connect 57 14 16 0;
#X connect 57 14 19 0;
#X connect 57 14 23 0;
#X connect 57 14 30 0;
#X connect 57 14 36 0;
#X connect 57 14 38 0;
#X connect 57 14 40 0;
#X connect 57 14 45 0;
#X connect 57 14 49 0;
#X connect 57 14 53 0;
#X connect 57 14 62 0;
#X connect 57 14 59 0;
#X connect 57 14 66 0;
#X connect 57 15 23 0;
#X connect 57 15 59 0;
#X connect 57 15 63 0;
#X connect 57 15 65 0;
#X connect 57 15 4 0;
#X connect 57 15 7 0;
#X connect 57 15 11 0;
#X connect 57 15 16 0;
#X connect 57 15 19 0;
#X connect 57 15 30 0;
#X connect 57 15 36 0;
#X connect 57 15 38 0;
#X connect 57 15 45 0;
#X connect 57 15 53 0;
#X connect 57 15 49 0;
#X connect 57 15 40 0;
#X connect 58 0 55 1;
#X connect 59 0 55 1;
#X connect 60 0 61 0;
#X connect 62 0 60 1;
#X connect 63 0 60 1;
#X connect 64 0 67 0;
#X connect 65 0 64 1;
#X connect 66 0 64 1;
#X connect 68 0 0 0;
#X connect 69 0 0 1;
#X connect 70 0 0 2;
#X connect 71 0 0 3;
#X connect 72 0 0 4;
#X connect 73 0 0 5;
#X connect 74 0 0 6;
#X connect 75 0 57 0;
#X connect 76 0 77 0;
#X connect 76 1 77 5;
#X connect 76 2 77 6;
#X connect 77 0 56 0;
#X restore 11 30 pd block2;
#N canvas 264 72 1087 469 block3 0;
#N canvas 337 2 971 810 randomizer 0;
#X obj 118 3 noise~;
#X obj 124 80 snapshot~;
#X obj 124 143 i;
#X obj 124 166 moses;
#X obj 124 101 * 50;
#X obj 124 122 + 50;
#X obj 155 -25 inlet;
#X obj 144 424 outlet;
#X text 252 209 Copydown by dondo (2006);
#X text 206 231 Randomizer for notes + 2 parameters;
#X obj 445 -45 r stepshuffle;
#X obj 144 403 spigot;
#X obj 44 80 snapshot~;
#X obj 44 143 i;
#X obj 44 166 moses;
#X obj 44 101 * 50;
#X obj 44 122 + 50;
#X obj 44 58 del 2;
#X msg 445 -23 bang;
#X obj -36 80 snapshot~;
#X obj -36 143 i;
#X obj -36 166 moses;
#X obj -36 101 * 50;
#X obj -36 122 + 50;
#X obj -36 58 del 2;
#X obj -106 80 snapshot~;
#X obj -106 143 i;
#X obj -106 166 moses;
#X obj -106 101 * 50;
#X obj -106 122 + 50;
#X obj -106 58 del 2;
#X obj 74 -24 inlet;
#X obj -7 -22 inlet;
#X obj -77 -21 inlet;
#X obj 94 424 outlet;
#X obj 94 403 spigot;
#X obj 44 424 outlet;
#X obj 44 403 spigot;
#X obj -6 424 outlet;
#X obj -6 403 spigot;
#X obj -146 -19 inlet;
#X obj -216 -17 inlet;
#X obj -176 80 snapshot~;
#X obj -176 143 i;
#X obj -176 166 moses;
#X obj -176 101 * 50;
#X obj -176 122 + 50;
#X obj -176 58 del 2;
#X obj -246 80 snapshot~;
#X obj -246 143 i;
#X obj -246 166 moses;
#X obj -246 101 * 50;
#X obj -246 122 + 50;
#X obj -246 58 del 2;
#X obj -56 424 outlet;
#X obj -56 403 spigot;
#X obj -106 424 outlet;
#X obj -106 403 spigot;
#X obj -326 80 snapshot~;
#X obj -326 143 i;
#X obj -326 166 moses;
#X obj -326 101 * 50;
#X obj -326 122 + 50;
#X obj -326 58 del 2;
#X obj -396 80 snapshot~;
#X obj -396 143 i;
#X obj -396 166 moses;
#X obj -396 101 * 50;
#X obj -396 122 + 50;
#X obj -396 58 del 2;
#X obj -156 424 outlet;
#X obj -156 403 spigot;
#X obj -206 424 outlet;
#X obj -206 403 spigot;
#X obj -296 -19 inlet;
#X obj -366 -18 inlet;
#X obj 286 329 netpd-r ds-31;
#X obj 244 424 outlet;
#X obj 244 403 spigot;
#X obj 194 424 outlet;
#X obj 194 403 spigot;
#X obj 274 80 snapshot~;
#X obj 274 143 i;
#X obj 274 166 moses;
#X obj 274 101 * 50;
#X obj 274 122 + 50;
#X obj 194 80 snapshot~;
#X obj 194 143 i;
#X obj 194 166 moses;
#X obj 194 101 * 50;
#X obj 194 122 + 50;
#X obj 194 58 del 2;
#X obj 305 -25 inlet;
#X obj 224 -24 inlet;
#X obj 124 59 del 2;
#X connect 0 0 12 0;
#X connect 0 0 19 0;
#X connect 0 0 25 0;
#X connect 0 0 42 0;
#X connect 0 0 48 0;
#X connect 0 0 58 0;
#X connect 0 0 64 0;
#X connect 0 0 1 0;
#X connect 0 0 86 0;
#X connect 0 0 81 0;
#X connect 1 0 4 0;
#X connect 2 0 3 0;
#X connect 3 0 11 0;
#X connect 4 0 5 0;
#X connect 5 0 2 0;
#X connect 6 0 3 1;
#X connect 10 0 18 0;
#X connect 11 0 7 0;
#X connect 12 0 15 0;
#X connect 13 0 14 0;
#X connect 14 0 35 0;
#X connect 15 0 16 0;
#X connect 16 0 13 0;
#X connect 17 0 12 0;
#X connect 17 0 24 0;
#X connect 18 0 91 0;
#X connect 18 0 81 0;
#X connect 19 0 22 0;
#X connect 20 0 21 0;
#X connect 21 0 37 0;
#X connect 22 0 23 0;
#X connect 23 0 20 0;
#X connect 24 0 19 0;
#X connect 24 0 30 0;
#X connect 25 0 28 0;
#X connect 26 0 27 0;
#X connect 27 0 39 0;
#X connect 28 0 29 0;
#X connect 29 0 26 0;
#X connect 30 0 25 0;
#X connect 30 0 47 0;
#X connect 31 0 14 1;
#X connect 32 0 21 1;
#X connect 33 0 27 1;
#X connect 35 0 34 0;
#X connect 37 0 36 0;
#X connect 39 0 38 0;
#X connect 40 0 44 1;
#X connect 41 0 50 1;
#X connect 42 0 45 0;
#X connect 43 0 44 0;
#X connect 44 0 55 0;
#X connect 45 0 46 0;
#X connect 46 0 43 0;
#X connect 47 0 42 0;
#X connect 47 0 53 0;
#X connect 48 0 51 0;
#X connect 49 0 50 0;
#X connect 50 0 57 0;
#X connect 51 0 52 0;
#X connect 52 0 49 0;
#X connect 53 0 48 0;
#X connect 53 0 63 0;
#X connect 55 0 54 0;
#X connect 57 0 56 0;
#X connect 58 0 61 0;
#X connect 59 0 60 0;
#X connect 60 0 71 0;
#X connect 61 0 62 0;
#X connect 62 0 59 0;
#X connect 63 0 58 0;
#X connect 63 0 69 0;
#X connect 64 0 67 0;
#X connect 65 0 66 0;
#X connect 66 0 73 0;
#X connect 67 0 68 0;
#X connect 68 0 65 0;
#X connect 69 0 64 0;
#X connect 71 0 70 0;
#X connect 73 0 72 0;
#X connect 74 0 60 1;
#X connect 75 0 66 1;
#X connect 76 0 11 1;
#X connect 76 0 35 1;
#X connect 76 0 37 1;
#X connect 76 0 39 1;
#X connect 76 0 55 1;
#X connect 76 0 57 1;
#X connect 76 0 80 1;
#X connect 76 0 78 1;
#X connect 76 0 73 1;
#X connect 76 0 71 1;
#X connect 78 0 77 0;
#X connect 80 0 79 0;
#X connect 81 0 84 0;
#X connect 82 0 83 0;
#X connect 83 0 78 0;
#X connect 84 0 85 0;
#X connect 85 0 82 0;
#X connect 86 0 89 0;
#X connect 87 0 88 0;
#X connect 88 0 80 0;
#X connect 89 0 90 0;
#X connect 90 0 87 0;
#X connect 91 0 86 0;
#X connect 91 0 94 0;
#X connect 92 0 83 1;
#X connect 93 0 88 1;
#X connect 94 0 1 0;
#X connect 94 0 17 0;
#X restore 45 257 pd randomizer;
#X msg 442 224 1;
#X msg 452 224 0;
#X msg 492 224 1;
#X msg 502 224 0;
#X msg 542 224 1;
#X msg 552 224 0;
#X msg 595 224 1;
#X msg 605 224 0;
#X msg 640 224 1;
#X msg 650 224 0;
#X msg 685 224 1;
#X msg 695 224 0;
#X obj 45 -14 netpd-r ds-21;
#X obj 57 6 netpd-r ds-22;
#X obj 69 26 netpd-r ds-23;
#X obj 81 46 netpd-r ds-24;
#X obj 94 66 netpd-r ds-25;
#X obj 106 86 netpd-r ds-26;
#X obj 118 106 netpd-r ds-27;
#X obj 131 126 netpd-r ds-28;
#X obj 148 146 netpd-r ds-29;
#X obj 161 166 netpd-r ds-30;
#X obj 142 207 sel 0 1 2 3 4 5;
#N canvas 353 528 532 300 ddrum-randomizer 0;
#X obj 236 21 inlet;
#X obj 158 21 inlet;
#X obj 197 21 inlet;
#X obj 80 21 inlet;
#X obj 119 21 inlet;
#X obj 2 21 inlet;
#X obj 41 21 inlet;
#X obj 392 21 inlet;
#X obj 431 21 inlet;
#X obj 2 105 spigot;
#X obj 2 277 s ddrum-kb;
#X obj 41 127 spigot;
#X obj 41 257 s ddrum-sb;
#X obj 80 105 spigot;
#X obj 119 127 spigot;
#X obj 158 105 spigot;
#X obj 197 127 spigot;
#X obj 236 105 spigot;
#X obj 158 277 s ddrum-cp;
#X obj 197 257 s ddrum-lt;
#X obj 236 277 s ddrum-ht;
#X obj 2 215 spigot;
#X obj 41 237 spigot;
#X obj 80 215 spigot;
#X obj 119 237 spigot;
#X obj 158 215 spigot;
#X obj 197 237 spigot;
#X obj 236 215 spigot;
#X obj 39 147 netpd-r ds-t1;
#X obj 78 166 netpd-r ds-t2;
#X obj 117 186 netpd-r ds-t3;
#X obj 80 277 s ddrum-hb;
#X obj 119 257 s ddrum-ob;
#X obj 156 147 netpd-r ds-t4;
#X obj 195 166 netpd-r ds-t5;
#X obj 234 186 netpd-r ds-t6;
#X obj 273 146 netpd-r ds-t7;
#X connect 0 0 17 0;
#X connect 1 0 15 0;
#X connect 2 0 16 0;
#X connect 3 0 13 0;
#X connect 4 0 14 0;
#X connect 5 0 9 0;
#X connect 6 0 11 0;
#X connect 7 0 9 1;
#X connect 7 0 11 1;
#X connect 7 0 13 1;
#X connect 7 0 14 1;
#X connect 7 0 15 1;
#X connect 7 0 16 1;
#X connect 7 0 17 1;
#X connect 8 0 9 1;
#X connect 8 0 11 1;
#X connect 8 0 13 1;
#X connect 8 0 14 1;
#X connect 8 0 15 1;
#X connect 8 0 16 1;
#X connect 8 0 17 1;
#X connect 9 0 21 0;
#X connect 11 0 22 0;
#X connect 13 0 23 0;
#X connect 14 0 24 0;
#X connect 15 0 25 0;
#X connect 16 0 26 0;
#X connect 17 0 27 0;
#X connect 21 0 10 0;
#X connect 22 0 12 0;
#X connect 23 0 31 0;
#X connect 24 0 32 0;
#X connect 25 0 18 0;
#X connect 26 0 19 0;
#X connect 27 0 20 0;
#X connect 28 0 21 1;
#X connect 29 0 22 1;
#X connect 30 0 23 1;
#X connect 33 0 24 1;
#X connect 34 0 25 1;
#X connect 35 0 26 1;
#X connect 36 0 27 1;
#X restore -209 399 pd ddrum-randomizer;
#N canvas 267 462 888 300 ddrum-labeler 0;
#X msg 43 172 label bd;
#X msg 118 196 label sd;
#X obj 43 15 inlet;
#X msg 193 172 label ch;
#X msg 268 196 label oh;
#X msg 343 172 label cp;
#X msg 418 196 label lt;
#X msg 493 172 label ht;
#X obj 43 242 s ds-21-r;
#X obj 118 242 s ds-22-r;
#X obj 193 242 s ds-23-r;
#X obj 268 242 s ds-24-r;
#X obj 343 242 s ds-25-r;
#X obj 418 242 s ds-26-r;
#X obj 493 242 s ds-27-r;
#X obj 568 242 s ds-28-r;
#X obj 643 242 s ds-29-r;
#X obj 718 242 s ds-30-r;
#X msg 568 196 label off;
#X msg 643 172 label off;
#X msg 718 196 label off;
#X connect 0 0 8 0;
#X connect 1 0 9 0;
#X connect 2 0 0 0;
#X connect 2 0 1 0;
#X connect 2 0 3 0;
#X connect 2 0 4 0;
#X connect 2 0 5 0;
#X connect 2 0 6 0;
#X connect 2 0 7 0;
#X connect 2 0 18 0;
#X connect 2 0 19 0;
#X connect 2 0 20 0;
#X connect 3 0 10 0;
#X connect 4 0 11 0;
#X connect 5 0 12 0;
#X connect 6 0 13 0;
#X connect 7 0 14 0;
#X connect 18 0 15 0;
#X connect 19 0 16 0;
#X connect 20 0 17 0;
#X restore -209 419 pd ddrum-labeler;
#X obj 142 184 r ds-sel3-out;
#N canvas 353 528 532 300 bon-drummer-randomizer 0;
#X obj 236 21 inlet;
#X obj 158 21 inlet;
#X obj 197 21 inlet;
#X obj 80 21 inlet;
#X obj 119 21 inlet;
#X obj 2 21 inlet;
#X obj 41 21 inlet;
#X obj 392 21 inlet;
#X obj 431 21 inlet;
#X obj 2 105 spigot;
#X obj 41 127 spigot;
#X obj 80 105 spigot;
#X obj 119 127 spigot;
#X obj 158 105 spigot;
#X obj 197 127 spigot;
#X obj 236 105 spigot;
#X obj 2 215 spigot;
#X obj 41 237 spigot;
#X obj 80 215 spigot;
#X obj 119 237 spigot;
#X obj 158 215 spigot;
#X obj 197 237 spigot;
#X obj 236 215 spigot;
#X obj 39 147 netpd-r ds-t1;
#X obj 78 166 netpd-r ds-t2;
#X obj 117 186 netpd-r ds-t3;
#X obj 2 277 s bdr-bd;
#X obj 41 257 s bdr-sd;
#X obj 80 277 s bdr-cp;
#X obj 119 257 s bdr-ch1;
#X obj 158 277 s bdr-oh1;
#X obj 197 257 s bdr-ch2;
#X obj 236 277 s bdr-oh2;
#X obj 156 147 netpd-r ds-t4;
#X obj 195 166 netpd-r ds-t5;
#X obj 233 186 netpd-r ds-t6;
#X obj 273 146 netpd-r ds-t7;
#X connect 0 0 15 0;
#X connect 1 0 13 0;
#X connect 2 0 14 0;
#X connect 3 0 11 0;
#X connect 4 0 12 0;
#X connect 5 0 9 0;
#X connect 6 0 10 0;
#X connect 7 0 9 1;
#X connect 7 0 10 1;
#X connect 7 0 11 1;
#X connect 7 0 12 1;
#X connect 7 0 13 1;
#X connect 7 0 14 1;
#X connect 7 0 15 1;
#X connect 8 0 9 1;
#X connect 8 0 10 1;
#X connect 8 0 11 1;
#X connect 8 0 12 1;
#X connect 8 0 13 1;
#X connect 8 0 14 1;
#X connect 8 0 15 1;
#X connect 9 0 16 0;
#X connect 10 0 17 0;
#X connect 11 0 18 0;
#X connect 12 0 19 0;
#X connect 13 0 20 0;
#X connect 14 0 21 0;
#X connect 15 0 22 0;
#X connect 16 0 26 0;
#X connect 17 0 27 0;
#X connect 18 0 28 0;
#X connect 19 0 29 0;
#X connect 20 0 30 0;
#X connect 21 0 31 0;
#X connect 22 0 32 0;
#X connect 23 0 16 1;
#X connect 24 0 17 1;
#X connect 25 0 18 1;
#X connect 33 0 19 1;
#X connect 34 0 20 1;
#X connect 35 0 21 1;
#X connect 36 0 22 1;
#X restore -69 399 pd bon-drummer-randomizer;
#N canvas 267 462 888 300 bon-drummer-labeler 0;
#X msg 43 172 label bd;
#X msg 118 196 label sd;
#X obj 43 15 inlet;
#X obj 43 242 s ds-21-r;
#X obj 118 242 s ds-22-r;
#X obj 193 242 s ds-23-r;
#X obj 268 242 s ds-24-r;
#X obj 343 242 s ds-25-r;
#X obj 418 242 s ds-26-r;
#X obj 493 242 s ds-27-r;
#X obj 568 242 s ds-28-r;
#X obj 643 242 s ds-29-r;
#X obj 718 242 s ds-30-r;
#X msg 568 196 label off;
#X msg 643 172 label off;
#X msg 718 196 label off;
#X msg 193 172 label cp;
#X msg 268 196 label ch1;
#X msg 343 172 label oh1;
#X msg 418 196 label ch2;
#X msg 493 172 label oh2;
#X connect 0 0 3 0;
#X connect 1 0 4 0;
#X connect 2 0 0 0;
#X connect 2 0 1 0;
#X connect 2 0 16 0;
#X connect 2 0 17 0;
#X connect 2 0 18 0;
#X connect 2 0 19 0;
#X connect 2 0 20 0;
#X connect 2 0 13 0;
#X connect 2 0 14 0;
#X connect 2 0 15 0;
#X connect 13 0 10 0;
#X connect 14 0 11 0;
#X connect 15 0 12 0;
#X connect 16 0 5 0;
#X connect 17 0 6 0;
#X connect 18 0 7 0;
#X connect 19 0 8 0;
#X connect 20 0 9 0;
#X restore -69 419 pd bon-drummer-labeler;
#N canvas 353 528 532 300 bon-minidrum-randomizer 0;
#X obj 236 21 inlet;
#X obj 158 21 inlet;
#X obj 197 21 inlet;
#X obj 80 21 inlet;
#X obj 119 21 inlet;
#X obj 2 21 inlet;
#X obj 41 21 inlet;
#X obj 392 21 inlet;
#X obj 431 21 inlet;
#X obj 2 105 spigot;
#X obj 41 127 spigot;
#X obj 80 105 spigot;
#X obj 119 127 spigot;
#X obj 158 105 spigot;
#X obj 197 127 spigot;
#X obj 236 105 spigot;
#X obj 2 215 spigot;
#X obj 41 237 spigot;
#X obj 80 215 spigot;
#X obj 119 237 spigot;
#X obj 158 215 spigot;
#X obj 197 237 spigot;
#X obj 236 215 spigot;
#X obj 39 147 netpd-r ds-t1;
#X obj 78 166 netpd-r ds-t2;
#X obj 117 186 netpd-r ds-t3;
#X obj 2 277 s bmd-bd;
#X obj 41 257 s bmd-sd;
#X obj 80 277 s bmd-cp;
#X obj 119 257 s bmd-ch1;
#X obj 158 277 s bmd-oh1;
#X obj 197 257 s bmd-ch2;
#X obj 236 277 s bmd-oh2;
#X obj 156 147 netpd-r ds-t4;
#X obj 195 166 netpd-r ds-t5;
#X obj 234 186 netpd-r ds-t6;
#X obj 273 146 netpd-r ds-t7;
#X connect 0 0 15 0;
#X connect 1 0 13 0;
#X connect 2 0 14 0;
#X connect 3 0 11 0;
#X connect 4 0 12 0;
#X connect 5 0 9 0;
#X connect 6 0 10 0;
#X connect 7 0 9 1;
#X connect 7 0 10 1;
#X connect 7 0 11 1;
#X connect 7 0 12 1;
#X connect 7 0 13 1;
#X connect 7 0 14 1;
#X connect 7 0 15 1;
#X connect 8 0 9 1;
#X connect 8 0 10 1;
#X connect 8 0 11 1;
#X connect 8 0 12 1;
#X connect 8 0 13 1;
#X connect 8 0 14 1;
#X connect 8 0 15 1;
#X connect 9 0 16 0;
#X connect 10 0 17 0;
#X connect 11 0 18 0;
#X connect 12 0 19 0;
#X connect 13 0 20 0;
#X connect 14 0 21 0;
#X connect 15 0 22 0;
#X connect 16 0 26 0;
#X connect 17 0 27 0;
#X connect 18 0 28 0;
#X connect 19 0 29 0;
#X connect 20 0 30 0;
#X connect 21 0 31 0;
#X connect 22 0 32 0;
#X connect 23 0 16 1;
#X connect 24 0 17 1;
#X connect 25 0 18 1;
#X connect 33 0 19 1;
#X connect 34 0 20 1;
#X connect 35 0 21 1;
#X connect 36 0 22 1;
#X restore 111 399 pd bon-minidrum-randomizer;
#N canvas 267 462 888 300 bon-minidrum-labeler 0;
#X msg 43 172 label bd;
#X msg 118 196 label sd;
#X obj 43 15 inlet;
#X obj 43 242 s ds-21-r;
#X obj 118 242 s ds-22-r;
#X obj 193 242 s ds-23-r;
#X obj 268 242 s ds-24-r;
#X obj 343 242 s ds-25-r;
#X obj 418 242 s ds-26-r;
#X obj 493 242 s ds-27-r;
#X obj 568 242 s ds-28-r;
#X obj 643 242 s ds-29-r;
#X obj 718 242 s ds-30-r;
#X msg 568 196 label off;
#X msg 643 172 label off;
#X msg 718 196 label off;
#X msg 268 196 label ch1;
#X msg 343 172 label oh1;
#X msg 418 196 label ch2;
#X msg 493 172 label oh2;
#X msg 193 172 label cv;
#X connect 0 0 3 0;
#X connect 1 0 4 0;
#X connect 2 0 0 0;
#X connect 2 0 1 0;
#X connect 2 0 20 0;
#X connect 2 0 16 0;
#X connect 2 0 17 0;
#X connect 2 0 18 0;
#X connect 2 0 19 0;
#X connect 2 0 13 0;
#X connect 2 0 14 0;
#X connect 2 0 15 0;
#X connect 13 0 10 0;
#X connect 14 0 11 0;
#X connect 15 0 12 0;
#X connect 16 0 6 0;
#X connect 17 0 7 0;
#X connect 18 0 8 0;
#X connect 19 0 9 0;
#X connect 20 0 5 0;
#X restore 111 419 pd bon-minidrum-labeler;
#N canvas 353 528 532 300 drum-delta-randomizer 0;
#X obj 236 21 inlet;
#X obj 158 21 inlet;
#X obj 197 21 inlet;
#X obj 80 21 inlet;
#X obj 119 21 inlet;
#X obj 2 21 inlet;
#X obj 41 21 inlet;
#X obj 459 20 inlet;
#X obj 501 20 inlet;
#X obj 2 105 spigot;
#X obj 41 127 spigot;
#X obj 80 105 spigot;
#X obj 119 127 spigot;
#X obj 158 105 spigot;
#X obj 197 127 spigot;
#X obj 236 105 spigot;
#X obj 2 215 spigot;
#X obj 41 237 spigot;
#X obj 80 215 spigot;
#X obj 119 237 spigot;
#X obj 158 215 spigot;
#X obj 197 237 spigot;
#X obj 236 215 spigot;
#X obj 39 147 netpd-r ds-t1;
#X obj 78 166 netpd-r ds-t2;
#X obj 117 186 netpd-r ds-t3;
#X obj 336 21 inlet;
#X obj 297 21 inlet;
#X obj 297 127 spigot;
#X obj 336 105 spigot;
#X obj 297 237 spigot;
#X obj 336 215 spigot;
#X obj 2 277 s kick1;
#X obj 41 257 s kick2;
#X obj 80 277 s kick3;
#X obj 119 257 s kick4;
#X obj 158 277 s snare1;
#X obj 197 257 s snare2;
#X obj 236 277 s snare3;
#X obj 156 147 netpd-r ds-t4;
#X obj 195 166 netpd-r ds-t5;
#X obj 234 185 netpd-r ds-t6;
#X obj 273 146 netpd-r ds-t7;
#X obj 334 186 netpd-r ds-t8;
#X obj 373 146 netpd-r ds-t9;
#X obj 397 21 inlet;
#X obj 397 127 spigot;
#X obj 397 237 spigot;
#X obj 434 186 netpd-r ds-t10;
#X obj 297 257 s hihat1;
#X obj 336 277 s hihat2;
#X obj 397 257 s hihat3;
#X connect 0 0 15 0;
#X connect 1 0 13 0;
#X connect 2 0 14 0;
#X connect 3 0 11 0;
#X connect 4 0 12 0;
#X connect 5 0 9 0;
#X connect 6 0 10 0;
#X connect 7 0 9 1;
#X connect 7 0 10 1;
#X connect 7 0 11 1;
#X connect 7 0 12 1;
#X connect 7 0 13 1;
#X connect 7 0 14 1;
#X connect 7 0 15 1;
#X connect 7 0 28 1;
#X connect 7 0 29 1;
#X connect 7 0 46 1;
#X connect 8 0 9 1;
#X connect 8 0 10 1;
#X connect 8 0 11 1;
#X connect 8 0 12 1;
#X connect 8 0 13 1;
#X connect 8 0 14 1;
#X connect 8 0 15 1;
#X connect 8 0 28 1;
#X connect 8 0 29 1;
#X connect 8 0 46 1;
#X connect 9 0 16 0;
#X connect 10 0 17 0;
#X connect 11 0 18 0;
#X connect 12 0 19 0;
#X connect 13 0 20 0;
#X connect 14 0 21 0;
#X connect 15 0 22 0;
#X connect 16 0 32 0;
#X connect 17 0 33 0;
#X connect 18 0 34 0;
#X connect 19 0 35 0;
#X connect 20 0 36 0;
#X connect 21 0 37 0;
#X connect 22 0 38 0;
#X connect 23 0 16 1;
#X connect 24 0 17 1;
#X connect 25 0 18 1;
#X connect 26 0 29 0;
#X connect 27 0 28 0;
#X connect 28 0 30 0;
#X connect 29 0 31 0;
#X connect 30 0 49 0;
#X connect 31 0 50 0;
#X connect 39 0 19 1;
#X connect 40 0 20 1;
#X connect 41 0 21 1;
#X connect 42 0 22 1;
#X connect 43 0 30 1;
#X connect 44 0 31 1;
#X connect 45 0 46 0;
#X connect 46 0 47 0;
#X connect 47 0 51 0;
#X connect 48 0 47 1;
#X restore 301 400 pd drum-delta-randomizer;
#N canvas 267 462 888 300 drum-delta-labeler 0;
#X obj 43 15 inlet;
#X obj 43 242 s ds-21-r;
#X obj 118 242 s ds-22-r;
#X obj 193 242 s ds-23-r;
#X obj 268 242 s ds-24-r;
#X obj 343 242 s ds-25-r;
#X obj 418 242 s ds-26-r;
#X obj 493 242 s ds-27-r;
#X obj 568 242 s ds-28-r;
#X obj 643 242 s ds-29-r;
#X obj 718 242 s ds-30-r;
#X msg 43 172 label bd1;
#X msg 118 196 label bd2;
#X msg 193 172 label bd3;
#X msg 268 195 label bd4;
#X msg 343 172 label sd1;
#X msg 418 196 label sd2;
#X msg 493 172 label sd3;
#X msg 568 196 label hh1;
#X msg 643 172 label hh2;
#X msg 718 196 label hh3;
#X connect 0 0 11 0;
#X connect 0 0 12 0;
#X connect 0 0 13 0;
#X connect 0 0 14 0;
#X connect 0 0 15 0;
#X connect 0 0 16 0;
#X connect 0 0 17 0;
#X connect 0 0 18 0;
#X connect 0 0 19 0;
#X connect 0 0 20 0;
#X connect 11 0 1 0;
#X connect 12 0 2 0;
#X connect 13 0 3 0;
#X connect 14 0 4 0;
#X connect 15 0 5 0;
#X connect 16 0 6 0;
#X connect 17 0 7 0;
#X connect 18 0 8 0;
#X connect 19 0 9 0;
#X connect 20 0 10 0;
#X restore 301 419 pd drum-delta-labeler;
#N canvas 353 528 532 300 tr808-randomizer 0;
#X obj 236 21 inlet;
#X obj 158 21 inlet;
#X obj 197 21 inlet;
#X obj 80 21 inlet;
#X obj 119 21 inlet;
#X obj 2 21 inlet;
#X obj 41 21 inlet;
#X obj 459 20 inlet;
#X obj 501 20 inlet;
#X obj 2 105 spigot;
#X obj 41 127 spigot;
#X obj 80 105 spigot;
#X obj 119 127 spigot;
#X obj 158 105 spigot;
#X obj 197 127 spigot;
#X obj 236 105 spigot;
#X obj 2 215 spigot;
#X obj 41 237 spigot;
#X obj 80 215 spigot;
#X obj 119 237 spigot;
#X obj 158 215 spigot;
#X obj 197 237 spigot;
#X obj 236 215 spigot;
#X obj 39 147 netpd-r ds-t1;
#X obj 78 166 netpd-r ds-t2;
#X obj 117 186 netpd-r ds-t3;
#X obj 336 21 inlet;
#X obj 297 21 inlet;
#X obj 297 127 spigot;
#X obj 336 105 spigot;
#X obj 297 237 spigot;
#X obj 336 215 spigot;
#X obj 156 147 netpd-r ds-t4;
#X obj 195 166 netpd-r ds-t5;
#X obj 234 185 netpd-r ds-t6;
#X obj 273 146 netpd-r ds-t7;
#X obj 334 186 netpd-r ds-t8;
#X obj 373 146 netpd-r ds-t9;
#X obj 397 21 inlet;
#X obj 397 127 spigot;
#X obj 397 237 spigot;
#X obj 434 186 netpd-r ds-t10;
#X obj 2 277 s tr808-bd;
#X obj 41 257 s tr808-rs;
#X obj 80 277 s tr808-sd;
#X obj 119 257 s tr808-cp;
#X obj 158 277 s tr808-ch;
#X obj 197 257 s tr808-oh;
#X obj 236 277 s tr808-ma;
#X obj 297 257 s tr808-cy;
#X obj 336 277 s tr808-cb;
#X obj 397 257 s tr808-cl;
#X connect 0 0 15 0;
#X connect 1 0 13 0;
#X connect 2 0 14 0;
#X connect 3 0 11 0;
#X connect 4 0 12 0;
#X connect 5 0 9 0;
#X connect 6 0 10 0;
#X connect 7 0 9 1;
#X connect 7 0 10 1;
#X connect 7 0 11 1;
#X connect 7 0 12 1;
#X connect 7 0 13 1;
#X connect 7 0 14 1;
#X connect 7 0 15 1;
#X connect 7 0 28 1;
#X connect 7 0 29 1;
#X connect 7 0 39 1;
#X connect 8 0 9 1;
#X connect 8 0 10 1;
#X connect 8 0 11 1;
#X connect 8 0 12 1;
#X connect 8 0 13 1;
#X connect 8 0 14 1;
#X connect 8 0 15 1;
#X connect 8 0 28 1;
#X connect 8 0 29 1;
#X connect 8 0 39 1;
#X connect 9 0 16 0;
#X connect 10 0 17 0;
#X connect 11 0 18 0;
#X connect 12 0 19 0;
#X connect 13 0 20 0;
#X connect 14 0 21 0;
#X connect 15 0 22 0;
#X connect 16 0 42 0;
#X connect 17 0 43 0;
#X connect 18 0 44 0;
#X connect 19 0 45 0;
#X connect 20 0 46 0;
#X connect 21 0 47 0;
#X connect 22 0 48 0;
#X connect 23 0 16 1;
#X connect 24 0 17 1;
#X connect 25 0 18 1;
#X connect 26 0 29 0;
#X connect 27 0 28 0;
#X connect 28 0 30 0;
#X connect 29 0 31 0;
#X connect 30 0 49 0;
#X connect 31 0 50 0;
#X connect 32 0 19 1;
#X connect 33 0 20 1;
#X connect 34 0 21 1;
#X connect 35 0 22 1;
#X connect 36 0 30 1;
#X connect 37 0 31 1;
#X connect 38 0 39 0;
#X connect 39 0 40 0;
#X connect 40 0 51 0;
#X connect 41 0 40 1;
#X restore 491 399 pd tr808-randomizer;
#N canvas 261 481 888 300 tr808-labeler 0;
#X obj 43 15 inlet;
#X obj 43 242 s ds-21-r;
#X obj 118 242 s ds-22-r;
#X obj 193 242 s ds-23-r;
#X obj 268 242 s ds-24-r;
#X obj 343 242 s ds-25-r;
#X obj 418 242 s ds-26-r;
#X obj 493 242 s ds-27-r;
#X obj 568 242 s ds-28-r;
#X obj 643 242 s ds-29-r;
#X obj 718 242 s ds-30-r;
#X msg 43 172 label bd;
#X msg 118 196 label rs;
#X msg 193 172 label sd;
#X msg 268 195 label cp;
#X msg 493 172 label ma;
#X msg 343 172 label ch;
#X msg 418 196 label oh;
#X msg 574 197 label cy;
#X msg 643 172 label cb;
#X msg 718 196 label cl;
#X connect 0 0 11 0;
#X connect 0 0 12 0;
#X connect 0 0 13 0;
#X connect 0 0 14 0;
#X connect 0 0 16 0;
#X connect 0 0 17 0;
#X connect 0 0 15 0;
#X connect 0 0 18 0;
#X connect 0 0 19 0;
#X connect 0 0 20 0;
#X connect 11 0 1 0;
#X connect 12 0 2 0;
#X connect 13 0 3 0;
#X connect 14 0 4 0;
#X connect 15 0 7 0;
#X connect 16 0 5 0;
#X connect 17 0 6 0;
#X connect 18 0 8 0;
#X connect 19 0 9 0;
#X connect 20 0 10 0;
#X restore 491 419 pd tr808-labeler;
#X connect 0 0 24 0;
#X connect 0 0 27 0;
#X connect 0 0 29 0;
#X connect 0 0 31 0;
#X connect 0 0 33 0;
#X connect 0 1 24 1;
#X connect 0 1 27 1;
#X connect 0 1 29 1;
#X connect 0 1 31 1;
#X connect 0 1 33 1;
#X connect 0 2 24 2;
#X connect 0 2 27 2;
#X connect 0 2 29 2;
#X connect 0 2 31 2;
#X connect 0 2 33 2;
#X connect 0 3 24 3;
#X connect 0 3 27 3;
#X connect 0 3 29 3;
#X connect 0 3 31 3;
#X connect 0 3 33 3;
#X connect 0 4 24 4;
#X connect 0 4 27 4;
#X connect 0 4 29 4;
#X connect 0 4 31 4;
#X connect 0 4 33 4;
#X connect 0 5 24 5;
#X connect 0 5 27 5;
#X connect 0 5 29 5;
#X connect 0 5 31 5;
#X connect 0 5 33 5;
#X connect 0 6 24 6;
#X connect 0 6 27 6;
#X connect 0 6 29 6;
#X connect 0 6 31 6;
#X connect 0 6 33 6;
#X connect 0 7 31 7;
#X connect 0 7 33 7;
#X connect 0 8 31 8;
#X connect 0 8 33 8;
#X connect 0 9 31 9;
#X connect 0 9 33 9;
#X connect 1 0 24 7;
#X connect 1 0 25 0;
#X connect 2 0 24 8;
#X connect 3 0 27 7;
#X connect 3 0 28 0;
#X connect 4 0 27 8;
#X connect 5 0 30 0;
#X connect 5 0 29 7;
#X connect 6 0 29 8;
#X connect 7 0 32 0;
#X connect 7 0 31 10;
#X connect 8 0 31 11;
#X connect 9 0 33 10;
#X connect 9 0 34 0;
#X connect 10 0 33 11;
#X connect 13 0 0 0;
#X connect 14 0 0 1;
#X connect 15 0 0 2;
#X connect 16 0 0 3;
#X connect 17 0 0 4;
#X connect 18 0 0 5;
#X connect 19 0 0 6;
#X connect 20 0 0 7;
#X connect 21 0 0 8;
#X connect 22 0 0 9;
#X connect 23 0 1 0;
#X connect 23 0 4 0;
#X connect 23 0 6 0;
#X connect 23 0 8 0;
#X connect 23 0 10 0;
#X connect 23 0 12 0;
#X connect 23 1 2 0;
#X connect 23 1 3 0;
#X connect 23 1 6 0;
#X connect 23 1 8 0;
#X connect 23 1 10 0;
#X connect 23 1 12 0;
#X connect 23 2 2 0;
#X connect 23 2 4 0;
#X connect 23 2 5 0;
#X connect 23 2 8 0;
#X connect 23 2 10 0;
#X connect 23 2 12 0;
#X connect 23 3 2 0;
#X connect 23 3 4 0;
#X connect 23 3 6 0;
#X connect 23 3 7 0;
#X connect 23 3 10 0;
#X connect 23 3 12 0;
#X connect 23 4 2 0;
#X connect 23 4 4 0;
#X connect 23 4 6 0;
#X connect 23 4 8 0;
#X connect 23 4 9 0;
#X connect 23 4 12 0;
#X connect 23 5 2 0;
#X connect 23 5 4 0;
#X connect 23 5 6 0;
#X connect 23 5 8 0;
#X connect 23 5 10 0;
#X connect 23 5 11 0;
#X connect 23 6 2 0;
#X connect 23 6 4 0;
#X connect 23 6 6 0;
#X connect 23 6 8 0;
#X connect 23 6 10 0;
#X connect 23 6 12 0;
#X connect 26 0 23 0;
#X restore 11 50 pd block3;
#X obj 78 10 pad \$0 d-sturb;
#X obj 78 30 netpd-x \$0 d-stress;
#X connect 3 0 4 0;
#X connect 3 1 4 1;
#X restore -118 9 pd d-sturb;
#N canvas 129 487 296 181 d-sturb-gui 0;
#X obj 3 3 cnv 15 200 86 empty empty d-sturb 6 12 0 12 -42246 -262144
0;
#X obj 6 59 tgl 15 0 ds-n1 ds-n1-r empty 0 -6 0 8 -1 -24198 -1 1 1
;
#X obj 23 59 tgl 15 0 ds-n3 ds-n3-r empty 0 -6 0 8 -1 -24198 -1 0 1
;
#X obj 15 42 tgl 15 0 ds-n2 ds-n2-r empty 0 -6 0 8 -1 -24198 -1 0 1
;
#X obj 32 42 tgl 15 0 ds-n4 ds-n4-r empty 0 -6 0 8 -1 -24198 -1 1 1
;
#X obj 40 59 tgl 15 0 ds-n5 ds-n5-r empty 0 -6 0 8 -1 -24198 -1 0 1
;
#X obj 57 59 tgl 15 0 ds-n6 ds-n6-r empty 0 -6 0 8 -1 -24198 -1 0 1
;
#X obj 74 59 tgl 15 0 ds-n8 ds-n8-r empty 0 -6 0 8 -1 -24198 -1 0 1
;
#X obj 66 42 tgl 15 0 ds-n7 ds-n7-r empty 0 -6 0 8 -1 -24198 -1 1 1
;
#X obj 83 42 tgl 15 0 ds-n9 ds-n9-r empty 0 -6 0 8 -1 -24198 -1 0 1
;
#X obj 91 59 tgl 15 0 ds-n10 ds-n10-r empty 0 -6 0 8 -1 -24198 -1 1
1;
#X obj 100 42 tgl 15 0 ds-n11 ds-n11-r empty 0 -6 0 8 -1 -24198 -1
0 1;
#X obj 108 59 tgl 15 0 ds-n12 ds-n12-r empty 0 -6 0 8 -1 -24198 -1
0 1;
#X obj 9 24 hsl 112 15 0 100 0 0 ds-1 ds-1-r probability 6 8 0 10 -1
-24198 -24198 2775 1;
#X obj 125 25 nbx 3 15 0 127 0 0 ds-2 ds-2-r range 2 -6 0 10 -1 -24198
-262144 60 256;
#X obj 163 25 nbx 3 15 0 127 0 0 ds-3 ds-3-r shift 2 -6 0 10 -1 -24198
-262144 48 256;
#X obj 125 42 nbx 3 15 0 127 0 0 ds-4 ds-4-r empty 0 -6 0 10 -1 -24198
-262144 60 256;
#X obj 163 42 nbx 3 15 0 127 0 0 ds-5 ds-5-r empty 0 -6 0 10 -1 -24198
-262144 0 256;
#X obj 125 59 nbx 3 15 0 127 0 0 ds-6 ds-6-r empty 0 -6 0 10 -1 -24198
-262144 60 256;
#X obj 163 59 nbx 3 15 0 127 0 0 ds-7 ds-7-r empty 0 -6 0 10 -1 -24198
-262144 0 256;
#X obj 67 7 hsl 54 15 0 127 0 0 ds-sel ds-sel-r xfm1 2 8 0 8 -24198
-24198 -1 0 1;
#X obj 3 91 cnv 15 200 86 empty empty d-sturb 6 12 0 12 -42246 -262144
0;
#X obj 6 147 tgl 15 0 ds-m1 ds-m1-r empty 0 -6 0 8 -1 -24198 -1 1 1
;
#X obj 23 147 tgl 15 0 ds-m3 ds-m3-r empty 0 -6 0 8 -1 -24198 -1 0
1;
#X obj 15 130 tgl 15 0 ds-m2 ds-m2-r empty 0 -6 0 8 -1 -24198 -1 0
1;
#X obj 32 130 tgl 15 0 ds-m4 ds-m4-r empty 0 -6 0 8 -1 -24198 -1 1
1;
#X obj 40 147 tgl 15 0 ds-m5 ds-m5-r empty 0 -6 0 8 -1 -24198 -1 0
1;
#X obj 57 147 tgl 15 0 ds-m6 ds-m6-r empty 0 -6 0 8 -1 -24198 -1 0
1;
#X obj 74 147 tgl 15 0 ds-m8 ds-m8-r empty 0 -6 0 8 -1 -24198 -1 0
1;
#X obj 66 130 tgl 15 0 ds-m7 ds-m7-r empty 0 -6 0 8 -1 -24198 -1 1
1;
#X obj 83 130 tgl 15 0 ds-m9 ds-m9-r empty 0 -6 0 8 -1 -24198 -1 0
1;
#X obj 91 147 tgl 15 0 ds-m10 ds-m10-r empty 0 -6 0 8 -1 -24198 -1
1 1;
#X obj 100 130 tgl 15 0 ds-m11 ds-m11-r empty 0 -6 0 8 -1 -24198 -1
0 1;
#X obj 108 147 tgl 15 0 ds-m12 ds-m12-r empty 0 -6 0 8 -1 -24198 -1
0 1;
#X obj 9 112 hsl 112 15 0 100 0 0 ds-11 ds-11-r probability 6 8 0 10
-1 -24198 -24198 2775 1;
#X obj 125 113 nbx 3 15 0 127 0 0 ds-12 ds-12-r range 2 -6 0 10 -1
-24198 -262144 60 256;
#X obj 163 113 nbx 3 15 0 127 0 0 ds-13 ds-13-r shift 2 -6 0 10 -1
-24198 -262144 48 256;
#X obj 125 130 nbx 3 15 0 127 0 0 ds-14 ds-14-r empty 0 -6 0 10 -1
-24198 -262144 12 256;
#X obj 163 130 nbx 3 15 0 127 0 0 ds-15 ds-15-r empty 0 -6 0 10 -1
-24198 -262144 48 256;
#X obj 125 147 nbx 3 15 0 127 0 0 ds-16 ds-16-r empty 0 -6 0 10 -1
-24198 -262144 12 256;
#X obj 163 147 nbx 3 15 0 127 0 0 ds-17 ds-17-r empty 0 -6 0 10 -1
-24198 -262144 48 256;
#X obj 67 95 hsl 54 15 0 127 0 0 ds-sel2 ds-sel2-r xfm2 2 8 0 8 -24198
-24198 -1 0 1;
#X obj 205 3 cnv 15 88 174 empty empty d-sturb 6 12 0 12 -42246 -262144
0;
#X obj 210 29 hsl 77 15 0 127 0 0 ds-sel3 ds-sel3-r ddrum 2 8 0 8 -24198
-24198 -1 0 1;
#X obj 193 3 tgl 10 0 ds-8 ds-8-r on -12 6 0 8 -1 -24198 -262144 1
1;
#X obj 193 91 tgl 10 0 ds-18 ds-18-r on -12 6 0 8 -1 -24198 -262144
1 1;
#X obj 211 46 hsl 64 10 0 100 0 0 ds-21 ds-21-r bd 6 6 0 10 -1 -24198
-24198 1575 1;
#X obj 211 58 hsl 64 10 0 100 0 0 ds-22 ds-22-r sd 6 6 0 10 -1 -24198
-24198 1575 1;
#X obj 211 70 hsl 64 10 0 100 0 0 ds-23 ds-23-r ch 6 6 0 10 -1 -24198
-24198 1575 1;
#X obj 211 82 hsl 64 10 0 100 0 0 ds-24 ds-24-r oh 6 6 0 10 -1 -24198
-24198 1575 1;
#X obj 211 94 hsl 64 10 0 100 0 0 ds-25 ds-25-r cp 6 6 0 10 -1 -24198
-24198 1575 1;
#X obj 211 106 hsl 64 10 0 100 0 0 ds-26 ds-26-r lt 6 6 0 10 -1 -24198
-24198 1575 1;
#X obj 211 118 hsl 64 10 0 100 0 0 ds-27 ds-27-r ht 6 6 0 10 -1 -24198
-24198 1575 1;
#X obj 211 130 hsl 64 10 0 100 0 0 ds-28 ds-28-r off 6 6 0 10 -1 -24198
-24198 1575 1;
#X obj 279 46 tgl 10 0 ds-t1 ds-t1-r empty -12 6 0 8 -1 -24198 -262144
1 1;
#X obj 283 3 tgl 10 0 ds-31 ds-31-r on -12 6 0 8 -1 -24198 -262144
1 1;
#X obj 279 58 tgl 10 0 ds-t2 ds-t2-r empty -12 6 0 8 -1 -24198 -262144
1 1;
#X obj 279 70 tgl 10 0 ds-t3 ds-t3-r empty -12 6 0 8 -1 -24198 -262144
1 1;
#X obj 279 82 tgl 10 0 ds-t4 ds-t4-r empty -12 6 0 8 -1 -24198 -262144
1 1;
#X obj 279 94 tgl 10 0 ds-t5 ds-t5-r empty -12 6 0 8 -1 -24198 -262144
1 1;
#X obj 279 106 tgl 10 0 ds-t6 ds-t6-r empty -12 6 0 8 -1 -24198 -262144
1 1;
#X obj 279 118 tgl 10 0 ds-t7 ds-t7-r empty -12 6 0 8 -1 -24198 -262144
1 1;
#X obj 279 130 tgl 10 0 ds-t8 ds-t8-r empty -12 6 0 8 -1 -24198 -262144
1 1;
#X obj 211 142 hsl 64 10 0 100 0 0 ds-29 ds-29-r off 6 6 0 10 -1 -24198
-24198 1575 1;
#X obj 211 154 hsl 64 10 0 100 0 0 ds-30 ds-30-r off 6 6 0 10 -1 -24198
-24198 1575 1;
#X obj 279 142 tgl 10 0 ds-t9 ds-t9-r empty -12 6 0 8 -1 -24198 -262144
1 1;
#X obj 279 154 tgl 10 0 ds-t10 ds-t10-r empty -12 6 0 8 -1 -24198 -262144
1 1;
#X obj 6 164 hradio 12 1 0 16 ds-selz2 ds-selz2-r empty 0 -6 0 8 -42246
-24198 -1 14;
#X obj 6 76 hradio 12 1 0 16 ds-selz ds-selz-r empty 0 -6 0 8 -42246
-24198 -1 13;
#X obj 208 166 hradio 10 1 0 5 ds-selz3 ds-selz3-r empty 0 -6 0 8 -42246
-24198 -1 0;
#X obj 283 15 tgl 10 0 \$0-open-pad \$0-open-pad-r pad -18 6 0 8 -1
-24198 -262144 0 1;
#X restore -118 29 pd d-sturb-gui;
#N canvas 411 411 672 300 parameters 0;
#X obj 15 41 netpd-fx \$0 ds-2 ds-2-r 12;
#X obj 15 61 netpd-fx \$0 ds-3 ds-3-r 48;
#X obj 15 81 netpd-fx \$0 ds-4 ds-4-r 12;
#X obj 15 101 netpd-fx \$0 ds-5 ds-5-r 48;
#X obj 15 121 netpd-fx \$0 ds-6 ds-6-r 12;
#X obj 15 141 netpd-fx \$0 ds-7 ds-7-r 48;
#X obj 205 21 netpd-fx \$0 ds-n1 ds-n1-r 1;
#X obj 205 41 netpd-fx \$0 ds-n2 ds-n2-r 0;
#X obj 205 61 netpd-fx \$0 ds-n3 ds-n3-r 1;
#X obj 205 81 netpd-fx \$0 ds-n4 ds-n4-r 0;
#X obj 205 101 netpd-fx \$0 ds-n5 ds-n5-r 1;
#X obj 205 121 netpd-fx \$0 ds-n6 ds-n6-r 1;
#X obj 205 141 netpd-fx \$0 ds-n7 ds-n7-r 0;
#X obj 205 161 netpd-fx \$0 ds-n8 ds-n8-r 1;
#X obj 205 181 netpd-fx \$0 ds-n9 ds-n9-r 0;
#X obj 205 201 netpd-fx \$0 ds-n10 ds-n10-r 1;
#X obj 205 221 netpd-fx \$0 ds-n11 ds-n11-r 0;
#X obj 205 241 netpd-fx \$0 ds-n12 ds-n12-r 1;
#X obj 15 21 netpd-fx \$0 ds-1 ds-1-r 25;
#X obj 405 21 netpd-fx \$0 ds-11 ds-11-r 25;
#X obj 405 41 netpd-fx \$0 ds-12 ds-12-r 12;
#X obj 405 61 netpd-fx \$0 ds-13 ds-13-r 48;
#X obj 405 81 netpd-fx \$0 ds-14 ds-14-r 12;
#X obj 405 101 netpd-fx \$0 ds-15 ds-15-r 48;
#X obj 405 121 netpd-fx \$0 ds-16 ds-16-r 12;
#X obj 405 141 netpd-fx \$0 ds-17 ds-17-r 48;
#X obj 605 21 netpd-fx \$0 ds-m1 ds-m1-r 1;
#X obj 605 41 netpd-fx \$0 ds-m2 ds-m2-r 0;
#X obj 605 61 netpd-fx \$0 ds-m3 ds-m3-r 1;
#X obj 605 81 netpd-fx \$0 ds-m4 ds-m4-r 0;
#X obj 605 101 netpd-fx \$0 ds-m5 ds-m5-r 1;
#X obj 605 121 netpd-fx \$0 ds-m6 ds-m6-r 1;
#X obj 605 141 netpd-fx \$0 ds-m7 ds-m7-r 0;
#X obj 605 161 netpd-fx \$0 ds-m8 ds-m8-r 1;
#X obj 605 181 netpd-fx \$0 ds-m9 ds-m9-r 0;
#X obj 605 201 netpd-fx \$0 ds-m10 ds-m10-r 1;
#X obj 605 221 netpd-fx \$0 ds-m11 ds-m11-r 0;
#X obj 605 241 netpd-fx \$0 ds-m12 ds-m12-r 1;
#X obj 15 161 netpd-fx \$0 ds-8 ds-8-r 0;
#X obj 405 161 netpd-fx \$0 ds-18 ds-18-r 0;
#X obj 805 21 netpd-fx \$0 ds-21 ds-21-r 25;
#X obj 805 41 netpd-fx \$0 ds-22 ds-22-r 25;
#X obj 805 61 netpd-fx \$0 ds-23 ds-23-r 25;
#X obj 805 81 netpd-fx \$0 ds-24 ds-24-r 25;
#X obj 805 101 netpd-fx \$0 ds-25 ds-25-r 25;
#X obj 805 121 netpd-fx \$0 ds-26 ds-26-r 25;
#X obj 805 141 netpd-fx \$0 ds-27 ds-27-r 25;
#X obj 805 161 netpd-fx \$0 ds-28 ds-28-r 25;
#X obj 805 181 netpd-fx \$0 ds-29 ds-29-r 25;
#X obj 805 201 netpd-fx \$0 ds-30 ds-30-r 25;
#X obj 1005 21 netpd-fx \$0 ds-t1 ds-t1-r 1;
#X obj 1005 41 netpd-fx \$0 ds-t2 ds-t2-r 1;
#X obj 1005 61 netpd-fx \$0 ds-t3 ds-t3-r 1;
#X obj 1005 101 netpd-fx \$0 ds-t5 ds-t5-r 1;
#X obj 1005 121 netpd-fx \$0 ds-t6 ds-t6-r 1;
#X obj 1005 161 netpd-fx \$0 ds-t8 ds-t8-r 1;
#X obj 1005 201 netpd-fx \$0 ds-t10 ds-t10-r 1;
#X obj 1005 81 netpd-fx \$0 ds-t4 ds-t4-r 1;
#X obj 1005 141 netpd-fx \$0 ds-t7 ds-t7-r 1;
#X obj 1005 181 netpd-fx \$0 ds-t9 ds-t9-r 1;
#X obj 815 221 netpd-fx \$0 ds-31 ds-31-r 1;
#X obj 204 263 netpd-fx \$0 ds-selz ds-selz-r 0;
#X obj 1004 263 netpd-fx \$0 ds-selz3 ds-selz3-r 0;
#X obj 604 263 netpd-fx \$0 ds-selz2 ds-selz2-r 0;
#X restore -118 49 pd parameters;
#N canvas 397 491 531 578 selector 0;
#X msg 58 161 bassist;
#X msg 75 181 bon-plucker;
#X msg 93 201 bon-synth2;
#X msg 111 222 daisy;
#X msg 128 243 fat-ass;
#X msg 146 263 gold;
#X msg 163 284 hmr;
#X msg 181 305 nase1;
#X msg 199 327 nase2;
#X msg 216 346 nase3;
#X msg 234 365 sum;
#X msg 49 352 label \$1;
#X obj 48 330 symbol;
#X obj 49 378 s ds-sel-r;
#X msg 251 385 the-swarm;
#X msg 269 405 d-mostro;
#X obj 118 105 s ds-sel-out;
#X obj 58 137 sel 0 1 2 3 4 5 6 7 8 9 10 11 12 13 14 15;
#X msg 287 425 xfm1;
#X msg 304 445 xfm2;
#X msg 322 468 d-arrhoea;
#X msg 378 161 bassist;
#X msg 395 181 bon-plucker;
#X msg 413 201 bon-synth2;
#X msg 431 222 daisy;
#X msg 448 243 fat-ass;
#X msg 466 263 gold;
#X msg 483 284 hmr;
#X msg 501 305 nase1;
#X msg 519 327 nase2;
#X msg 536 346 nase3;
#X msg 554 365 sum;
#X msg 369 352 label \$1;
#X obj 368 330 symbol;
#X msg 571 385 the-swarm;
#X msg 589 405 d-mostro;
#X obj 378 137 sel 0 1 2 3 4 5 6 7 8 9 10 11 12 13 14 15;
#X msg 607 425 xfm1;
#X msg 624 445 xfm2;
#X msg 642 468 d-arrhoea;
#X obj 369 378 s ds-sel2-r;
#X obj 438 105 s ds-sel2-out;
#X msg 699 352 label \$1;
#X obj 698 330 symbol;
#X obj 699 378 s ds-sel3-r;
#X obj 708 137 sel 0 1 2 3 4 5;
#X msg 725 181 bon-drummer;
#X msg 743 201 bon-minidrum;
#X msg 761 222 drum-delta;
#X msg 708 161 ddrum;
#X obj 768 105 s ds-sel3-out;
#X msg 778 243 tr-808;
#X msg 796 263 not-used;
#X msg 813 284 not-used;
#X obj 21 13 netpd-r ds-selz;
#X obj 341 13 netpd-r ds-selz2;
#X obj 671 13 netpd-r ds-selz3;
#X connect 0 0 12 0;
#X connect 1 0 12 0;
#X connect 2 0 12 0;
#X connect 3 0 12 0;
#X connect 4 0 12 0;
#X connect 5 0 12 0;
#X connect 6 0 12 0;
#X connect 7 0 12 0;
#X connect 8 0 12 0;
#X connect 9 0 12 0;
#X connect 10 0 12 0;
#X connect 11 0 13 0;
#X connect 12 0 11 0;
#X connect 14 0 12 0;
#X connect 15 0 12 0;
#X connect 17 0 0 0;
#X connect 17 1 1 0;
#X connect 17 2 2 0;
#X connect 17 3 3 0;
#X connect 17 4 4 0;
#X connect 17 5 5 0;
#X connect 17 6 6 0;
#X connect 17 7 7 0;
#X connect 17 8 8 0;
#X connect 17 9 9 0;
#X connect 17 10 10 0;
#X connect 17 11 14 0;
#X connect 17 12 15 0;
#X connect 17 13 18 0;
#X connect 17 14 19 0;
#X connect 17 15 20 0;
#X connect 18 0 12 0;
#X connect 19 0 12 0;
#X connect 20 0 12 0;
#X connect 21 0 33 0;
#X connect 22 0 33 0;
#X connect 23 0 33 0;
#X connect 24 0 33 0;
#X connect 25 0 33 0;
#X connect 26 0 33 0;
#X connect 27 0 33 0;
#X connect 28 0 33 0;
#X connect 29 0 33 0;
#X connect 30 0 33 0;
#X connect 31 0 33 0;
#X connect 32 0 40 0;
#X connect 33 0 32 0;
#X connect 34 0 33 0;
#X connect 35 0 33 0;
#X connect 36 0 21 0;
#X connect 36 1 22 0;
#X connect 36 2 23 0;
#X connect 36 3 24 0;
#X connect 36 4 25 0;
#X connect 36 5 26 0;
#X connect 36 6 27 0;
#X connect 36 7 28 0;
#X connect 36 8 29 0;
#X connect 36 9 30 0;
#X connect 36 10 31 0;
#X connect 36 11 34 0;
#X connect 36 12 35 0;
#X connect 36 13 37 0;
#X connect 36 14 38 0;
#X connect 36 15 39 0;
#X connect 37 0 33 0;
#X connect 38 0 33 0;
#X connect 39 0 33 0;
#X connect 42 0 44 0;
#X connect 43 0 42 0;
#X connect 45 0 49 0;
#X connect 45 1 46 0;
#X connect 45 2 47 0;
#X connect 45 3 48 0;
#X connect 45 4 51 0;
#X connect 45 5 52 0;
#X connect 45 6 53 0;
#X connect 46 0 43 0;
#X connect 47 0 43 0;
#X connect 48 0 43 0;
#X connect 49 0 43 0;
#X connect 51 0 43 0;
#X connect 52 0 43 0;
#X connect 53 0 43 0;
#X connect 54 0 17 0;
#X connect 54 0 16 0;
#X connect 55 0 36 0;
#X connect 55 0 41 0;
#X connect 56 0 45 0;
#X connect 56 0 50 0;
#X restore -118 69 pd selector;
#N canvas 0 0 450 300 bugzilla 0;
#X text 8 7 Please report here the bugs founded;
#X text 8 28 dondo: with ddrum jumps fast bangs!!!! help me please!!
contact me on chat or hplus79@yahoo.it;
#X restore -118 109 pd bugzilla;
#N canvas 0 0 450 300 changelog 0;
#X text 22 24 dondo: first release on testing;
#X text 8 7 version 0.0.2;
#X text 8 40 version 0.0.4;
#X text 24 55 dondo: d-sturb block 2 and block 3 implemented. Now it's
ready for drums randomization;
#X text 8 81 version 0.0.5;
#X text 24 98 dondo: all the drums implemented;
#X restore -118 89 pd changelog;
#X text -119 153 Copydown by dondo (2006);
#X text -118 174 2 Note Randomizer with 4 random parameters and scale
select;
#X text -118 189 Drum randomizer;
#X msg -118 129 version 0.1.2;
