#N canvas 99 526 212 313 10;
#N canvas 0 344 290 297 qseq2-gui 1;
#X restore 15 101 pd qseq2-gui;
#N canvas 282 615 226 157 qseq2-code 0;
#N canvas 593 648 422 294 patterncreation 0;
#N canvas 604 535 502 462 createstructure 0;
#X obj 35 40 f;
#X obj 66 40 + 1;
#X obj 132 128 makesymbol pattern%s;
#X obj 168 152 makesymbol pd-pattern%s;
#X obj 268 198 makesymbol qgrains%s;
#X obj 35 148 * 20;
#X obj 60 127 + 1;
#X obj 35 228 pack f s;
#X msg 35 253 obj 10 \$1 pd \$2;
#X obj 352 229 pack f s;
#X obj 211 176 makesymbol pd-qgrains%s;
#X obj 190 314 s pd-qseq2-structure;
#X obj 35 13 inlet;
#X obj 150 23 inlet;
#X msg 17 341 \; \$1 vis 0;
#X obj 17 104 t b f f;
#X obj 17 317 symbol;
#X obj 60 316 symbol;
#X obj 17 289 t b;
#X obj 78 96 outlet;
#X obj 143 229 pack f f s s s f;
#X obj 149 206 \$0;
#X obj 150 185 b;
#X msg 143 251 obj 95 \$1 qseq-pat \$2 \$3 \$4 \$5 \$6;
#X msg 351 250 obj 410 \$1 pd \$2;
#X obj 35 171 + 10;
#N canvas 1020 322 304 298 clear_all_patterns 0;
#X obj 14 75 f;
#X obj 14 26 inlet clear_all;
#X obj 115 27 inlet num_of_patterns;
#X obj 14 99 t b f b;
#X obj 115 52 + 1;
#X obj 14 127 repeat 0;
#X obj 14 172 f 1;
#X obj 48 173 + 1;
#X obj 51 149 1;
#X msg 14 208 \; \$1-resetlocal bang;
#X connect 0 0 3 0;
#X connect 1 0 0 0;
#X connect 2 0 4 0;
#X connect 3 0 5 0;
#X connect 3 1 5 1;
#X connect 3 2 8 0;
#X connect 4 0 0 1;
#X connect 5 0 6 0;
#X connect 6 0 7 0;
#X connect 6 0 9 0;
#X connect 7 0 6 1;
#X connect 8 0 6 1;
#X restore 150 72 pd clear_all_patterns;
#X connect 0 0 1 0;
#X connect 0 0 15 0;
#X connect 0 0 19 0;
#X connect 0 0 26 1;
#X connect 1 0 0 1;
#X connect 2 0 7 1;
#X connect 2 0 20 2;
#X connect 3 0 16 1;
#X connect 3 0 20 3;
#X connect 4 0 9 1;
#X connect 5 0 25 0;
#X connect 6 0 2 0;
#X connect 6 0 3 0;
#X connect 6 0 4 0;
#X connect 6 0 10 0;
#X connect 6 0 20 5;
#X connect 6 0 22 0;
#X connect 7 0 8 0;
#X connect 8 0 11 0;
#X connect 9 0 24 0;
#X connect 10 0 17 1;
#X connect 10 0 20 4;
#X connect 12 0 0 0;
#X connect 13 0 26 0;
#X connect 15 0 18 0;
#X connect 15 1 5 0;
#X connect 15 2 6 0;
#X connect 16 0 14 0;
#X connect 17 0 14 0;
#X connect 18 0 16 0;
#X connect 18 0 17 0;
#X connect 20 0 23 0;
#X connect 21 0 20 1;
#X connect 22 0 21 0;
#X connect 23 0 11 0;
#X connect 24 0 11 0;
#X connect 25 0 7 0;
#X connect 25 0 9 0;
#X connect 25 0 20 0;
#X restore 14 84 pd createstructure;
#X obj 14 15 inlet;
#X obj 167 16 inlet;
#X text 53 14 create new;
#X text 203 16 destroy all;
#N canvas 818 510 657 322 createqseq2-gui 0;
#X obj 5 15 inlet;
#X obj 257 164 inlet;
#X obj 23 206 s pd-qseq2-gui;
#N canvas 1109 379 385 277 vistoggle 0;
#X obj 32 39 inlet;
#X obj 101 42 inlet;
#X obj 32 207 outlet;
#X obj 59 76 makesymbol %s-pattern-vis-s;
#X obj 101 97 makesymbol %s-pattern-vis-r;
#X obj 117 117 makesymbol pattern%s;
#X obj 32 138 pack f s s s;
#X msg 32 165 obj 34 \$1 tgl 20 0 \$2 \$3 \$4 26 15 1 8 -262144 -1
-1 0 1;
#X connect 0 0 6 0;
#X connect 1 0 3 0;
#X connect 1 0 4 0;
#X connect 1 0 5 0;
#X connect 3 0 6 1;
#X connect 4 0 6 2;
#X connect 5 0 6 3;
#X connect 6 0 7 0;
#X connect 7 0 2 0;
#X restore 155 140 pd vistoggle;
#N canvas 908 360 406 243 ontoggle 0;
#X obj 23 29 inlet;
#X obj 92 32 inlet;
#X obj 23 179 outlet;
#X obj 23 115 pack f s s;
#X obj 50 66 makesymbol %s-pattern-switch-s;
#X obj 92 87 makesymbol %s-pattern-switch-r;
#X msg 23 140 obj 10 \$1 tgl 20 0 \$2 \$3 empty 22 10 1 8 -262144 -1
-1 0 1;
#X connect 0 0 3 0;
#X connect 1 0 4 0;
#X connect 1 0 5 0;
#X connect 3 0 6 0;
#X connect 4 0 3 1;
#X connect 5 0 3 2;
#X connect 6 0 2 0;
#X restore 84 140 pd ontoggle;
#X obj 268 58 + 1;
#X obj 23 62 * 28;
#N canvas 908 360 398 235 cnavas 0;
#X obj 23 29 inlet;
#X obj 92 32 inlet;
#X obj 23 179 outlet;
#X msg 23 138 obj 8 \$1 cnv 10 270 24 empty empty empty 0 -8 0 8 -233017
-1 0;
#X obj 23 89 - 2;
#X connect 0 0 4 0;
#X connect 3 0 2 0;
#X connect 4 0 3 0;
#X restore 23 139 pd cnavas;
#X obj 23 106 t f f;
#N canvas 908 360 410 250 createbang 0;
#X obj 16 23 inlet;
#X obj 88 28 inlet;
#X obj 16 165 outlet;
#X obj 16 102 pack f s;
#X obj 59 69 makesymbol %s-createqgrain-s;
#X msg 16 127 obj 119 \$1 bng 20 250 50 0 \$2 \$0-nothing empty 0 -6
0 8 -262144 -1 -1;
#X connect 0 0 3 0;
#X connect 1 0 4 0;
#X connect 3 0 5 0;
#X connect 4 0 3 1;
#X connect 5 0 2 0;
#X restore 233 140 pd createbang;
#N canvas 908 360 365 225 resetbang 0;
#X obj 16 27 inlet;
#X obj 59 40 inlet;
#X obj 16 176 outlet;
#X obj 16 102 pack f s;
#X obj 59 69 makesymbol %s-resetpattern-s;
#X msg 16 127 obj 241 \$1 bng 20 250 50 0 \$2 \$0-nothing empty 0 -6
0 8 -262144 -1 -1;
#X connect 0 0 3 0;
#X connect 1 0 4 0;
#X connect 3 0 5 0;
#X connect 4 0 3 1;
#X connect 5 0 2 0;
#X restore 465 141 pd resetbang;
#N canvas 908 360 410 250 lengthsld 0;
#X obj 16 23 inlet;
#X obj 103 21 inlet;
#X obj 16 162 outlet;
#X obj 16 102 pack f s s;
#X obj 16 74 + 12;
#X msg 16 125 obj 196 \$1 vsl 20 5 -1 1 0 0 \$2 \$3 16 5 -9 1 7 -262144
-1 -1 0 1;
#X obj 43 53 makesymbol %s-lengthsld-s;
#X obj 85 74 makesymbol %s-lengthsld-r;
#X connect 0 0 4 0;
#X connect 1 0 6 0;
#X connect 1 0 7 0;
#X connect 3 0 5 0;
#X connect 4 0 3 0;
#X connect 5 0 2 0;
#X connect 6 0 3 1;
#X connect 7 0 3 2;
#X restore 388 141 pd lengthsld;
#N canvas 908 360 386 219 instrsld 0;
#X obj 16 23 inlet;
#X obj 85 24 inlet;
#X obj 16 169 outlet;
#X obj 16 102 pack f s s;
#X obj 16 74 + 12;
#X obj 43 53 makesymbol %s-instrsld-s;
#X obj 85 74 makesymbol %s-instrsld-r;
#X msg 16 125 obj 143 \$1 vsl 50 5 -1 1 0 0 \$2 \$3 instrument 1 -9
1 7 -262144 -1 -1 0 1;
#X connect 0 0 4 0;
#X connect 1 0 5 0;
#X connect 1 0 6 0;
#X connect 3 0 7 0;
#X connect 4 0 3 0;
#X connect 5 0 3 1;
#X connect 6 0 3 2;
#X connect 7 0 2 0;
#X restore 316 140 pd instrsld;
#X obj 5 39 t f f f;
#X obj 5 230 outlet;
#N canvas 666 548 319 298 labels 0;
#X obj 17 26 inlet;
#X obj 17 237 outlet;
#X obj 17 57 sel 1;
#X msg 17 81 53;
#X msg 17 121 text 12 \$1 sw;
#X msg 33 149 text 36 \$1 vis;
#X msg 45 170 text 121 \$1 make new grain;
#X msg 71 192 text 241 \$1 delete;
#X connect 0 0 2 0;
#X connect 2 0 3 0;
#X connect 3 0 4 0;
#X connect 3 0 5 0;
#X connect 3 0 6 0;
#X connect 3 0 7 0;
#X connect 4 0 1 0;
#X connect 5 0 1 0;
#X connect 6 0 1 0;
#X connect 7 0 1 0;
#X restore 542 141 pd labels;
#X obj 23 85 + 70;
#X connect 0 0 13 0;
#X connect 3 0 2 0;
#X connect 4 0 2 0;
#X connect 5 0 3 1;
#X connect 5 0 4 1;
#X connect 5 0 11 1;
#X connect 5 0 12 1;
#X connect 5 0 7 1;
#X connect 5 0 9 1;
#X connect 5 0 10 1;
#X connect 5 0 15 0;
#X connect 6 0 16 0;
#X connect 7 0 2 0;
#X connect 8 0 4 0;
#X connect 8 0 3 0;
#X connect 8 0 11 0;
#X connect 8 0 12 0;
#X connect 8 0 10 0;
#X connect 8 1 7 0;
#X connect 8 1 9 0;
#X connect 9 0 2 0;
#X connect 10 0 2 0;
#X connect 11 0 2 0;
#X connect 12 0 2 0;
#X connect 13 0 14 0;
#X connect 13 1 6 0;
#X connect 13 2 5 0;
#X connect 15 0 2 0;
#X connect 16 0 8 0;
#X restore 14 117 pd createqseq2-gui;
#X msg 14 163 \; \$1-loadbang bang;
#X obj 14 142 + 1;
#X obj 183 67 r \$0.maindump;
#X obj 196 104 + 1;
#X obj 183 128 f;
#X msg 183 175 list pattern-creation \$1;
#X obj 183 199 s \$0-qseq-pat-b;
#X obj 183 151 sel 0;
#X connect 0 0 5 0;
#X connect 0 0 9 0;
#X connect 1 0 0 0;
#X connect 2 0 0 1;
#X connect 2 0 5 1;
#X connect 5 0 7 0;
#X connect 7 0 6 0;
#X connect 8 0 10 0;
#X connect 9 0 10 1;
#X connect 10 0 13 0;
#X connect 11 0 12 0;
#X connect 13 1 11 0;
#X restore 22 67 pd patterncreation;
#N canvas 45 479 324 383 get_instr_list 0;
#X obj 17 2 loadbang;
#X obj 39 111 s qseq.getlist;
#X obj 26 24 r qseq.listbang;
#X obj 110 5 bng 15 250 50 0 empty empty empty 17 7 0 10 -262144 -1
-1;
#X obj 187 139 r \$0.to.instrlist;
#X obj 187 184 s \$0.from.instrlist;
#N canvas 391 295 443 311 instrlist 0;
#X obj 256 134 list;
#X obj 256 88 r \$0-pl_i1;
#X obj 279 112 r \$0-pl_i2;
#X obj 256 155 s \$0-pl_o1;
#N canvas 386 222 139 154 method 0;
#X obj 6 69 b;
#X obj 6 90 s \$0-pl_i2;
#X obj 6 11 r \$0-inlet1;
#X obj 6 33 route clear;
#X connect 0 0 1 0;
#X connect 2 0 3 0;
#X connect 3 0 0 0;
#X restore 86 119 pd method clear;
#N canvas 339 220 229 256 method 0;
#X obj 24 86 t a b;
#X obj 54 110 s \$0-pl_i1;
#X obj 54 131 r \$0-pl_o1;
#X obj 24 179 s \$0-pl_i2;
#X obj 24 158 list prepend;
#X obj 24 24 r \$0-inlet1;
#X obj 24 46 route append;
#X obj 24 66 list;
#X connect 0 0 4 0;
#X connect 0 1 1 0;
#X connect 2 0 4 1;
#X connect 4 0 3 0;
#X connect 5 0 6 0;
#X connect 6 0 7 0;
#X connect 7 0 0 0;
#X restore 86 99 pd method append;
#X obj 34 39 s \$0-inlet1;
#X obj 30 236 r \$0-outlet1;
#X obj 34 18 inlet;
#X obj 30 258 outlet;
#N canvas 336 203 150 253 method 0;
#X obj 8 13 r \$0-inlet1;
#X obj 8 35 route length;
#X obj 8 194 s \$0-outlet1;
#X obj 8 57 t b b;
#X obj 38 78 s \$0-pl_i1;
#X obj 38 98 r \$0-pl_o1;
#X obj 8 120 list;
#X obj 8 142 list length;
#X connect 0 0 1 0;
#X connect 1 0 3 0;
#X connect 3 0 6 0;
#X connect 3 1 4 0;
#X connect 5 0 6 1;
#X connect 6 0 7 0;
#X connect 7 0 2 0;
#X restore 86 139 pd method length;
#N canvas 336 203 232 208 method 0;
#X obj 8 13 r \$0-inlet1;
#X obj 8 35 route get;
#X obj 8 60 list;
#N canvas 578 191 346 457 get_name 0;
#X obj 145 136 s \$0-pl_i1;
#X obj 145 157 r \$0-pl_o1;
#X obj 122 183 list;
#X obj 122 234 list split;
#X obj 78 91 moses 0;
#X obj 78 115 b;
#X obj 9 399 s \$0-outlet1;
#X obj 122 113 t b b f;
#X obj 9 5 inlet;
#X obj 9 27 t b a;
#X obj 9 377 list;
#X obj 78 328 t a;
#X msg 78 296 list empty;
#X obj 154 260 list split 1;
#X obj 187 198 * 1;
#X connect 1 0 2 1;
#X connect 2 0 3 0;
#X connect 3 1 13 0;
#X connect 4 0 5 0;
#X connect 4 1 7 0;
#X connect 5 0 12 0;
#X connect 7 0 2 0;
#X connect 7 1 0 0;
#X connect 7 2 14 0;
#X connect 8 0 9 0;
#X connect 9 0 10 0;
#X connect 9 1 4 0;
#X connect 10 0 6 0;
#X connect 11 0 10 1;
#X connect 12 0 11 0;
#X connect 13 0 11 0;
#X connect 13 2 12 0;
#X connect 14 0 3 1;
#X restore 8 93 pd get_name;
#X connect 0 0 1 0;
#X connect 1 0 2 0;
#X connect 2 0 3 0;
#X restore 86 159 pd method get;
#X connect 0 0 3 0;
#X connect 1 0 0 0;
#X connect 2 0 0 1;
#X connect 7 0 9 0;
#X connect 8 0 6 0;
#X restore 187 162 pd instrlist;
#X obj 61 90 s \$0.to.instrlist;
#X msg 61 68 clear;
#X obj 39 132 r qseq.list;
#X obj 39 153 list;
#X msg 39 175 append \$1;
#X obj 39 196 s \$0.to.instrlist;
#X obj 17 47 t b b b;
#X obj 17 224 t b a;
#X obj 17 306 list;
#X msg 47 244 length;
#X obj 17 348 s \$0.instrlist.length;
#X obj 47 266 s \$0.to.instrlist;
#X obj 47 285 r \$0.from.instrlist;
#X obj 17 327 f;
#X obj 62 310 r \$0.instrlist.getlength;
#X connect 0 0 13 0;
#X connect 2 0 13 0;
#X connect 3 0 13 0;
#X connect 4 0 6 0;
#X connect 6 0 5 0;
#X connect 8 0 7 0;
#X connect 9 0 10 0;
#X connect 10 0 11 0;
#X connect 11 0 12 0;
#X connect 13 0 14 0;
#X connect 13 1 1 0;
#X connect 13 2 8 0;
#X connect 14 0 15 0;
#X connect 14 1 16 0;
#X connect 15 0 20 0;
#X connect 16 0 18 0;
#X connect 19 0 15 1;
#X connect 20 0 17 0;
#X connect 21 0 20 0;
#X restore 22 97 pd get_instr_list;
#N canvas 636 312 351 396 patterncreationgui 0;
#N canvas 846 463 535 483 qseq2-gui-init 0;
#X obj 22 402 s pd-qseq2-gui;
#X msg 35 179 text 30 10 <- create new pattern;
#X msg 22 143 obj 10 10 bng 16 250 150 0 createnewpattern \$0-nothing
empty 0 -6 0 8 -24198 -1 -1;
#X obj 13 6 inlet;
#X msg 64 52 clear;
#X msg 41 101 obj 8 8 cnv 10 270 40 empty empty empty 0 -8 0 8 -233017
-1 0;
#X msg 47 200 obj 10 30 bng 16 250 150 0 destroyall \$0-nothing empty
0 -6 0 8 -258699 -1 -1;
#X msg 54 236 text 30 30 <- destroy all;
#X obj 53 264 \$0;
#X msg 93 341 symbolatom 184 10 10 0 0 0 - \$1-set.load.pst \$1-load.pst
;
#X msg 108 361 symbolatom 184 30 10 0 0 0 - \$1-set.save.pst \$1-save.pst
;
#X obj 53 286 t b f;
#X obj 53 382 s \$0.pstinit;
#X obj 13 74 t b b;
#X obj 13 28 t b b;
#X obj 151 280 loadbang;
#X obj 151 262 bng 15 250 50 0 empty empty empty 0 -6 0 8 -262144 -1
-1;
#X msg 79 309 obj 180 10 tgl 14 0 qseq2-open-pad qseq2-nothing pad
20 7 0 8 -262144 -1 -1 0 1;
#X connect 1 0 0 0;
#X connect 2 0 0 0;
#X connect 3 0 14 0;
#X connect 4 0 0 0;
#X connect 5 0 0 0;
#X connect 6 0 0 0;
#X connect 7 0 0 0;
#X connect 8 0 11 0;
#X connect 11 0 12 0;
#X connect 11 1 17 0;
#X connect 11 1 9 0;
#X connect 11 1 10 0;
#X connect 13 0 2 0;
#X connect 13 0 1 0;
#X connect 13 0 6 0;
#X connect 13 0 7 0;
#X connect 13 0 8 0;
#X connect 13 1 5 0;
#X connect 14 0 13 0;
#X connect 14 1 4 0;
#X connect 16 0 8 0;
#X connect 17 0 0 0;
#X restore 229 299 pd qseq2-gui-init;
#X obj 163 19 r destroyall;
#X obj 14 15 r createnewpattern;
#X obj 173 323 outlet;
#X obj 70 320 outlet;
#X msg 70 70 list pattern-creation \$1;
#X msg 14 39 symbol new;
#X msg 163 42 symbol killall;
#X obj 70 92 s \$0-qseq-pat-b;
#X obj 70 112 r \$0-qseq-pat-r;
#X obj 131 204 symbol;
#X obj 131 226 sel new killall;
#X obj 70 157 route pattern-creation;
#X obj 70 135 route list;
#X obj 70 179 route float;
#N canvas 976 446 180 275 add_rest 0;
#X obj 18 14 inlet;
#X obj 82 17 inlet;
#X obj 18 234 outlet;
#X obj 18 52 -;
#X obj 131 142 + 1;
#X obj 107 142 f 1;
#X obj 18 151 repeat 0;
#X obj 18 201 t b b;
#X obj 82 55 t b b;
#X obj 18 126 t b f f;
#X obj 18 82 moses 0;
#X connect 0 0 3 0;
#X connect 1 0 8 0;
#X connect 3 0 10 0;
#X connect 4 0 5 1;
#X connect 5 0 4 0;
#X connect 5 0 3 1;
#X connect 6 0 7 0;
#X connect 7 0 2 0;
#X connect 7 1 5 0;
#X connect 8 0 2 0;
#X connect 8 1 5 0;
#X connect 9 0 6 0;
#X connect 9 1 6 1;
#X connect 10 1 9 0;
#X restore 70 264 pd add_rest;
#X obj 70 226 t f b;
#X obj 228 277 loadbang;
#X connect 1 0 7 0;
#X connect 2 0 6 0;
#X connect 5 0 8 0;
#X connect 6 0 5 0;
#X connect 7 0 5 0;
#X connect 9 0 13 0;
#X connect 10 0 11 0;
#X connect 11 0 15 1;
#X connect 11 1 3 0;
#X connect 12 0 14 0;
#X connect 13 0 12 0;
#X connect 14 0 16 0;
#X connect 14 1 10 0;
#X connect 15 0 4 0;
#X connect 16 0 15 0;
#X connect 16 1 3 0;
#X connect 17 0 0 0;
#X restore 22 14 pd patterncreationgui;
#X text 27 38 create new;
#X text 139 39 destroy all;
#N canvas 657 182 437 472 postload&preset 0;
#X obj 13 93 r \$0-qseq-pat-b;
#X obj 136 418 s \$0-qseq-pat-r;
#X obj 14 304 s netpd-broadcast;
#X obj 136 367 r netpd-receive;
#X obj 136 391 a2l;
#X obj 275 96 r \$0.dump;
#X obj 132 97 r \$0.getpreset;
#X obj 318 144 s \$0.maindump;
#X obj 304 164 s \$0.patterndump;
#X obj 289 184 s \$0.qgraindump;
#X obj 177 145 s \$0.maindump;
#X obj 162 164 s \$0.patterndump;
#X obj 147 185 s \$0.qgraindump;
#X obj 132 120 t b b b b b;
#X obj 143 304 s \$0.preset;
#X obj 14 276 spigot;
#X obj 143 280 spigot;
#X obj 35 253 1;
#X obj 60 254 0;
#X obj 184 255 1;
#X obj 162 255 0;
#X obj 47 224 loadbang;
#X obj 13 36 netpd-x \$0 qseq2;
#X obj 277 267 spigot;
#X obj 318 242 1;
#X obj 296 242 0;
#X obj 277 311 s netpd-send;
#X obj 275 120 t b b b b b f;
#N canvas 0 0 145 230 prepend_socket 0;
#X obj 23 23 inlet;
#X obj 23 188 outlet;
#X obj 23 137 glue;
#X obj 23 46 t b a;
#X obj 56 117 a2l;
#X obj 23 160 route 1;
#X obj 23 66 1;
#X obj 23 89 pack f f;
#X obj 93 22 inlet;
#X connect 0 0 3 0;
#X connect 2 0 5 0;
#X connect 3 0 6 0;
#X connect 3 1 4 0;
#X connect 4 0 2 1;
#X connect 5 0 1 0;
#X connect 6 0 7 0;
#X connect 7 0 2 0;
#X connect 8 0 7 1;
#X restore 277 289 pd prepend_socket;
#X text 27 71 BROADCAST;
#X text 148 73 PRESET;
#X text 277 74 DUMP;
#X obj 13 12 pad \$0 qseq2;
#X connect 0 0 15 0;
#X connect 0 0 16 0;
#X connect 0 0 23 0;
#X connect 3 0 4 0;
#X connect 4 0 1 0;
#X connect 5 0 27 0;
#X connect 6 0 13 0;
#X connect 13 0 20 0;
#X connect 13 0 17 0;
#X connect 13 1 12 0;
#X connect 13 2 11 0;
#X connect 13 3 10 0;
#X connect 13 4 19 0;
#X connect 13 4 18 0;
#X connect 15 0 2 0;
#X connect 16 0 14 0;
#X connect 17 0 15 1;
#X connect 18 0 15 1;
#X connect 19 0 16 1;
#X connect 20 0 16 1;
#X connect 21 0 17 0;
#X connect 23 0 28 0;
#X connect 24 0 23 1;
#X connect 25 0 23 1;
#X connect 27 0 25 0;
#X connect 27 0 17 0;
#X connect 27 1 9 0;
#X connect 27 2 8 0;
#X connect 27 3 7 0;
#X connect 27 4 24 0;
#X connect 27 4 18 0;
#X connect 27 5 28 1;
#X connect 28 0 26 0;
#X connect 32 0 22 0;
#X connect 32 1 22 1;
#X restore 22 117 pd postload&preset;
#X connect 2 0 0 0;
#X connect 2 1 0 1;
#X restore 15 79 pd qseq2-code;
#N canvas 390 180 598 319 qseq2-structure 0;
#X restore 15 123 pd qseq2-structure;
#X text 17 25 roman haefeli;
#X text 18 5 qseq2;
#N canvas 720 430 206 102 abslist 0;
#X msg 14 12 qgrain;
#X msg 14 39 qseq-pat;
#X msg 14 66 pad;
#X restore 16 183 pd abslist;
#X text 15 41 <roman@netpd.org>;
#X text 19 217 before save:;
#X msg 19 238 \; pd-qseq2-structure clear \; pd-qseq2-gui clear \;
;
#X msg 16 162 version 0.2.4;
